<svg xmlns="http://www.w3.org/2000/svg" xmlns:xlink="http://www.w3.org/1999/xlink" width="747" height="579" viewBox="0 0 747 579" fill="none"><g opacity="1" transform="translate(0 0)  rotate(0 373.445 289.465)"><path  id="Vector" style="stroke:#505C7B; stroke-width:0.8284807205200195; stroke-opacity:1; stroke-dasharray:0 0" transform="translate(584.23 260.38)  rotate(0 1.485 35.465)" d="M2.97,70.93C0.59,69.23 0.07,69.06 0,67.02C-0.07,64.99 1.27,0 1.27,0 " /><path  id="Vector" style="stroke:#505C7B; stroke-width:0.8284807205200195; stroke-opacity:1; stroke-dasharray:0 0" transform="translate(636.06 254.89)  rotate(0 9.4 37.775)" d="M18.8,0C13.02,37.07 7.49,52.84 0,75.55 " /><path  id="Vector" style="stroke:#505C7B; stroke-width:0.8284807205200195; stroke-opacity:1; stroke-dasharray:0 0" transform="translate(585.17 276.38)  rotate(0 34.095 0.965)" d="M68.19,1.93C68.19,1.93 10.3,1.93 0,0 " /><path  id="Vector" style="stroke:#505C7B; stroke-width:0.8284807205200195; stroke-opacity:1; stroke-dasharray:0 0" transform="translate(587.8 290.33)  rotate(0 31.69 0.31)" d="M63.38,0C63.38,0 2.46,1.08 0,0.39 " /><path  id="Vector" style="stroke:#505C7B; stroke-width:0.8284807205200195; stroke-opacity:1; stroke-dasharray:0 0" transform="translate(587.8 302.49)  rotate(0 26.72 0.865)" d="M0,0C2.25,1.65 2.8,1.78 12.15,1.72C21.49,1.65 53.44,0.86 53.44,0.86 " /><path  id="Vector" style="stroke:#505C7B; stroke-width:0.8284807205200195; stroke-opacity:1; stroke-dasharray:0 0" transform="translate(587.2 315.73)  rotate(0 27.02 0.295)" d="M54.04,0C46.5,0.66 2.35,0.9 0,0 " /><path  id="Vector" style="stroke:#505C7B; stroke-width:0.8284807205200195; stroke-opacity:1; stroke-dasharray:0 0" transform="translate(586.56 324)  rotate(0 24.75 1.02)" d="M0,0C2.07,0.22 3.8,1.41 24.53,1.85C45.27,2.28 49.5,1.85 49.5,1.85 " /><path  id="Vector" style="stroke:#505C7B; stroke-width:0.8284807205200195; stroke-opacity:1; stroke-dasharray:0 0" transform="translate(633.9 267.09)  rotate(0 5.095 30.835)" d="M0,61.67C0,61.67 7.89,27.71 10.19,0 " /><path  id="Vector" style="stroke:#505C7B; stroke-width:0.8284807205200195; stroke-opacity:1; stroke-dasharray:0 0" transform="translate(626.74 269.44)  rotate(0 3.58 29.66)" d="M0,59.32C0,59.32 6.43,16.26 7.16,0 " /><path  id="Vector" style="stroke:#505C7B; stroke-width:0.8284807205200195; stroke-opacity:1; stroke-dasharray:0 0" transform="translate(616.43 270.78)  rotate(0 3.395 28.995)" d="M0,57.99C0,57.99 5.34,12.37 6.79,0 " /><path  id="Vector" style="stroke:#505C7B; stroke-width:0.8284807205200195; stroke-opacity:1; stroke-dasharray:0 0" transform="translate(607.83 267.09)  rotate(0 2.55 31.08)" d="M0,62.16C0,62.16 4.13,15.33 5.1,0 " /><path  id="Vector" style="stroke:#505C7B; stroke-width:0.8284807205200195; stroke-opacity:1; stroke-dasharray:0 0" transform="translate(597.88 267.07)  rotate(0 2.91 30.845)" d="M0,61.69C0,61.69 4,31.6 5.82,0 " /><path  id="Vector" style="stroke:#505C7B; stroke-width:0.8284807205200195; stroke-opacity:1; stroke-dasharray:0 0" transform="translate(590.52 266.72)  rotate(0 2.405 31.02)" d="M0,62.04C0,62.04 3.59,15.46 4.81,0 " /><path id="Vector" fill-rule="evenodd" style="fill:#FCC9A1" transform="translate(404.31 149.16)  rotate(0 75.78 45.485)" opacity="1" d="M41.33,12.37C36.21,8.05 28.07,0 28.07,0C28.07,0 9.82,10.52 0,20.34C9.03,25.72 18.46,32.61 21.5,36.34C24.55,40.08 30.34,46.16 32.3,46.65C34.27,47.15 36.92,45.55 41.93,50.08C46.94,54.6 59.6,60.3 72.37,63.15C85.13,66 105.75,73.56 105.75,73.56C105.75,73.56 110.56,84.16 113.21,85.64C115.85,87.11 119.88,87.3 122.14,87.3C124.4,87.3 127.94,84.35 127.94,84.35C127.94,84.35 128.63,86.9 129.51,87.3C130.39,87.69 133.14,84.64 133.14,84.64C133.14,84.64 133.07,91.49 135.11,89.95C136.19,89.15 137.21,88.28 138.16,87.33C138.16,87.33 138.64,91.42 140.02,90.93C141.39,90.44 147.18,84.54 149.44,83.37C151.71,82.19 152.39,81.71 150.33,75.71C148.26,69.71 144.94,61.76 143.55,61.08C142.16,60.39 121.18,64.52 118.21,64.12C115.25,63.73 103.09,54.3 95.43,48.61C87.77,42.91 59.88,23.27 53.89,20.33C47.9,17.38 46.44,16.69 41.33,12.37Z " /><path id="Vector" fill-rule="evenodd" style="fill:#2C2F53" transform="translate(359.62 0)  rotate(0 35.875 23.515)" opacity="1" d="M59.2,36.85C64.98,37.21 73,34.53 71.59,22.13C67.97,26.08 65.17,21.12 65.08,14.05C65.08,13.12 62.42,9.71 60,8.13C57.59,6.54 52.25,7.38 52.25,7.38C49.5,0.54 40.75,-0.79 35.5,0.38C30.25,1.55 27.08,5.71 27.08,5.71C20,5.38 12.17,6.96 8.66,12.55C5.15,18.14 5.91,28.8 5.91,28.8C-3.26,29.47 -1.27,37.47 8.5,44.54L13.08,47.03L59.2,36.85Z " /><path id="Vector" fill-rule="evenodd" style="fill:#FCC9A1" transform="translate(360.28 11.51)  rotate(0 30.465 45.3)" opacity="1" d="M10.24,33.06C10.24,33.06 5.14,29.75 3.24,33.06C1.33,36.37 3.13,47.01 11.69,45.9C11.69,45.9 12.33,47.82 10.45,54.16C8.56,60.49 3.22,72.49 0,75.16C0,75.16 18.05,78.95 32.47,90.6C32.47,90.6 32.04,84.55 33.77,80.66C33.81,80.56 33.86,80.46 33.9,80.37C35.79,76.59 38.01,71.14 38.01,71.14C38.83,71.15 39.65,71.11 40.46,71.03C40.92,70.96 45.94,66 49.25,62.59C50.81,61.01 51.97,59.76 52.15,59.48C52.71,58.59 59.16,35.14 60.93,22.03C60.93,22.03 51.74,20.59 46.7,15.06C40.7,8.39 43.61,-2.16 33.06,0.39C33.06,0.39 37.59,5.97 34.25,11.61C30.92,17.26 24.36,22.95 12.47,23.06C12.25,26.49 11.5,29.86 10.24,33.06Z " /><path id="Vector" fill-rule="evenodd" style="fill:#2C2F53" transform="translate(376.91 69.75)  rotate(0 10.705 11.215)" opacity="1" d="M12.75,12.39C11.19,11.88 5.59,6.25 0,0C0.97,4.29 2.51,11.01 2.92,12.57C3.38,14.23 12.11,19.5 17.17,22.43C17.21,22.33 17.25,22.24 17.3,22.14C19.19,18.36 21.41,12.92 21.41,12.92C21.41,12.92 14.59,13 12.75,12.39Z " /><path id="Vector" fill-rule="evenodd" style="fill:#FCC9A1" transform="translate(382.15 197.16)  rotate(0 11.9 14.73)" opacity="1" d="M4.07,5.25C4.07,5.25 1.42,4.35 0.63,4.35C-0.17,4.35 -0.25,9.46 0.63,10.87C1.18,11.71 2.03,12.31 3.01,12.53C3.01,12.53 2.31,16.23 3.52,16.94C4.73,17.64 15.27,23.9 15.27,23.9L5.39,23.2C4.17,23.11 3.88,26.64 5.83,27.25C7.78,27.87 19.6,30.25 20.74,29.19C21.89,28.13 20.56,25.22 21.18,24.34C21.8,23.46 22.85,21.96 22.15,20.73C21.45,19.49 21.8,18 22.59,17.37C23.38,16.75 24.44,14.99 23.3,13.85C22.15,12.7 21.18,11.82 22.15,9.7C23.13,7.59 22.14,5.47 21.09,4.77C20.05,4.06 6.1,0.36 5.14,0.03C4.17,-0.3 3.63,2.35 4.07,5.25Z " /><path id="Vector" fill-rule="evenodd" style="fill:#FCC9A1" transform="translate(423.91 341.07)  rotate(0 25.28 59.31)" opacity="1" d="M33.8,53.58L36.51,54.52L37.58,50.05L41.65,51.16C41.65,51.16 49.52,20.58 50.37,15.58C51.23,10.59 49.04,3.79 46.42,0C30.92,3.38 7.99,25.34 7.99,25.34L17.98,35.56C17.98,35.56 12.07,49.26 8.56,62.03C5.06,74.8 0,97.14 0,97.14C1.24,101.18 5.53,118.62 5.53,118.62L22.73,118.23L29.23,102.19L26.84,100.95L29.64,93.5L23.22,90.63C24.85,88.82 33.41,61.13 33.8,53.58Z " /><path id="Vector" fill-rule="evenodd" style="fill:#54C3E5" transform="translate(365.96 317.3)  rotate(0 14.885 16.28)" opacity="0.5" d="M0,2.24C4.88,7.46 17.52,20.25 29.77,32.56C27.09,22.58 22.89,7.28 20.88,0C14.81,0.8 7.86,1.57 0,2.24Z " /><path id="Vector" fill-rule="evenodd" style="fill:#54C3E5" transform="translate(391.59 311.46)  rotate(0 41.345 33.39)" opacity="0.5" d="M10.08,44.41C22.15,56.51 32.45,66.78 32.45,66.78C32.45,66.78 32.64,62.68 49.23,49.8C65.82,36.91 77.01,30.76 82.22,32.81L82.69,30.14C82.69,30.14 69.72,14.6 60.61,6.09C60.61,6.09 51.41,3.99 48.01,3.1C44.61,2.2 27.22,0 27.22,0C27.22,0 18.32,2.63 0,5.25L10.08,44.41Z " /><path id="Vector" fill-rule="evenodd" style="fill:#FCC9A1" transform="translate(459.48 250.61)  rotate(0 36.33 75.68)" opacity="1" d="M24.94,51.05C24.94,51.05 20.61,57.33 15.97,75.58C11.33,93.82 12.36,109.8 0,143.6C0,143.6 12.28,148.62 22.94,151.36C22.94,151.36 31.45,132.47 35.62,122.68C39.78,112.89 49.78,89.29 54,80.32C58.23,71.35 71.11,37.34 72.35,33.22C73.59,29.09 70.8,14.28 69.67,12.51C68.53,10.73 56.04,0.49 37.4,0C37.4,0 19.69,15.69 4.54,51.05L24.94,51.05Z " /><path  id="Vector" style="stroke:#2C2F53; stroke-width:0.8284807205200195; stroke-opacity:1; stroke-dasharray:0 0" transform="translate(461.62 352.67)  rotate(0 4.52 17.75)" d="M0,35.5C3.99,23.94 7.01,12.06 9.04,0 " /><path id="Vector" fill-rule="evenodd" style="fill:#505C7B" transform="translate(344.2 303.37)  rotate(0 41.02 9.59)" opacity="0.25" d="M12.64,19.18C12.64,19.18 72.14,14.72 82.04,9.02C82.04,9.02 24.28,2.53 17.83,1.28C11.38,0.02 0,0 0,0C8.33,10.94 12.64,19.18 12.64,19.18Z " /><path id="Vector" fill-rule="evenodd" style="fill:#54C3E5" transform="translate(401.85 493.44)  rotate(0 26.745 23.17)" opacity="0.25" d="M0.02,17.78C0.38,18.83 5.25,23.23 12.04,26.95C18.82,30.68 50.53,46.24 51.29,46.34C52.05,46.43 53.3,43.09 53.49,39.27C53.68,35.45 45.37,21.41 45.37,21.41C45.37,21.41 39.14,23.05 29.8,18.64C20.46,14.23 17.79,0 17.79,0C17.79,0 9.22,0.08 8.84,0.17C3.65,4.28 -0.34,16.74 0.02,17.78Z " /><path  id="Vector" style="stroke:#505C7B; stroke-width:0.8284807205200195; stroke-opacity:1; stroke-dasharray:0 0" transform="translate(626.97 463.54)  rotate(0 0.715 2.12)" d="M0,4.24C0.14,2.73 0.63,1.28 1.43,0 " /><path  id="Vector" style="stroke:#505C7B; stroke-width:0.8284807205200195; stroke-opacity:1; stroke-dasharray:0 0" transform="translate(627.11 458.95)  rotate(0 9.645 9.735)" d="M0,11.6C0.39,13.57 1.37,15.38 2.82,16.77C4.28,18.16 6.12,19.06 8.11,19.36C10.1,19.66 12.13,19.34 13.92,18.43C15.72,17.53 17.19,16.1 18.14,14.32C19.09,12.55 19.46,10.53 19.22,8.54C18.97,6.54 18.11,4.67 16.76,3.19C15.41,1.7 13.63,0.67 11.66,0.23C9.7,-0.2 7.65,-0.02 5.8,0.75 " /><g opacity="0.5" transform="translate(526.46 358.5)  rotate(0 110.215 110.215)"><path id="Vector" fill-rule="evenodd" style="fill:#505C7B" transform="translate(0 0)  rotate(0 110.215 110.215)" opacity="0.5" d="M106.81 220.38C124.42 220.92 141.91 217.23 157.81 209.62C173.7 202.01 187.54 190.7 198.16 176.64C208.78 162.58 215.88 146.17 218.85 128.8C221.82 111.43 220.59 93.6 215.24 76.8C209.9 60.01 200.61 44.74 188.15 32.28C172.11 16.27 151.54 5.58 129.23 1.66C106.91 -2.25 83.93 0.79 63.4 10.37L66.6 19.27C80.21 12.71 95.11 9.31 110.22 9.32C165.83 9.32 211.08 54.57 211.08 110.19C211.08 165.81 165.83 211.06 110.22 211.06C58.26 211.06 15.35 171.56 9.93 121.02L0.63 122.06C2.52 139.58 8.59 156.39 18.32 171.08C28.06 185.77 41.17 197.92 56.57 206.5C71.96 215.07 89.19 219.83 106.81 220.38ZM62.62 21.28C30.93 38.31 9.35 71.78 9.35 110.2C9.35 113.33 9.49 116.44 9.77 119.52C6.91 119.83 2.13 120.35 0.48 120.55Q0 115.405 0 110.2C0.02 90 5.58 70.2 16.07 52.94C26.55 35.68 41.57 21.63 59.48 12.3L62.62 21.28Z" /></g><g opacity="0.25" transform="translate(16.09 91.7)  rotate(0 28.845 43.32)"><path  id="Vector" style="stroke:#505C7B; stroke-width:0.8284807205200195; stroke-opacity:1; stroke-dasharray:0 0" transform="translate(48.66 48.51)  rotate(0 4.515 15.235)" d="M9.03,30.47C7.95,21.44 4.42,10.14 0,0 " /><path  id="Vector" style="stroke:#505C7B; stroke-width:0.8284807205200195; stroke-opacity:1; stroke-dasharray:0 0" transform="translate(49.92 57.48)  rotate(0 2.71 14.575)" d="M5.42,29.15C5.24,24.88 4.34,15.9 0,0 " /><path  id="Vector" style="stroke:#505C7B; stroke-width:0.8284807205200195; stroke-opacity:1; stroke-dasharray:0 0" transform="translate(45.21 48.21)  rotate(0 2.365 16.7)" d="M4.71,33.4C4.9,25.63 3.54,17.59 0,0 " /><path  id="Vector" style="stroke:#505C7B; stroke-width:0.8284807205200195; stroke-opacity:1; stroke-dasharray:0 0" transform="translate(0 1.79)  rotate(0 5.76 3.09)" d="M0,0C0,0 4.79,1.78 11.52,6.18 " /><path  id="Vector" style="stroke:#505C7B; stroke-width:0.8284807205200195; stroke-opacity:1; stroke-dasharray:0 0" transform="translate(23.29 0)  rotate(0 7.76 10.745)" d="M15.52,21.49C15.52,21.49 11.22,15.22 0,0 " /><path  id="Vector" style="stroke:#505C7B; stroke-width:0.8284807205200195; stroke-opacity:1; stroke-dasharray:0 0" transform="translate(24.85 13.38)  rotate(0 5.125 4.045)" d="M10.25,8.09C7.33,4.82 3.86,2.08 0,0 " /></g><path id="Vector" fill-rule="evenodd" style="fill:#505C7B" transform="translate(417.43 496.23)  rotate(0 25.035 10.695)" opacity="0.25" d="M40.67,2.09L9.39,0.48L0,0C0.98,5.76 3.89,11.01 8.25,14.9C12.62,18.78 18.17,21.06 24.01,21.36C29.84,21.66 35.6,19.96 40.34,16.54C45.08,13.13 48.51,8.2 50.07,2.57L40.67,2.09Z " /><path id="Vector" fill-rule="evenodd" style="fill:#FCC9A1" transform="translate(258.94 346.62)  rotate(0 35.095 101.005)" opacity="1" d="M54.45,22.37C54.45,16.57 47.87,1.27 47.87,1.27C47.87,1.27 22.53,4.21 0,0C6.51,10.72 15.8,21.48 18.4,28.58C18.4,28.58 17.39,57.25 17.24,70.06C17.1,82.86 27.23,125.12 29.84,136.27C32.44,147.42 36.49,187.33 43.59,200.89C43.59,200.89 53,203.41 59.51,200.89C66.03,198.38 70.66,195.63 70.15,195.19C69.65,194.76 63.28,180.43 63.28,180.43C63.28,180.43 59.08,182.46 53,172.61C46.92,162.77 31.83,143.95 34.53,137.73C37.22,131.51 46.05,119.71 46.05,119.71L54.45,57.25L54.45,22.37Z " /><path id="Vector" fill-rule="evenodd" style="fill:#FCC9A1" transform="translate(296.89 325.55)  rotate(0 31.26 96.63)" opacity="1" d="M33.86,112.29C37.39,100.91 46.89,71.64 50.65,58.05C54.4,44.46 59.35,32.06 60.72,28C62.08,23.95 64.49,5.47 59.56,0.05C49.78,-0.31 43.74,1.02 36.49,7.58C29.25,14.14 17.69,20.08 17.69,20.08C19.92,24.37 23.69,32.6 23.69,32.6C23.69,32.6 22.5,39.97 20.69,45.38C18.88,50.79 12.53,65.71 11.16,77.89C9.79,90.07 13.21,122.08 0,148.39C0,148.39 2.05,151.72 1.61,159.01C1.16,166.3 -0.28,170.31 1.38,173C3.04,175.7 10,189.06 17.73,193.26C17.73,193.26 21.16,183.65 34.58,188.07C34.58,188.07 20.96,156.69 20.73,154.27C20.49,151.84 30.33,123.67 33.86,112.29Z " /><path  id="Vector" style="stroke:#2C2F53; stroke-width:0.8284807205200195; stroke-opacity:1; stroke-dasharray:0 0" transform="translate(300.85 390.63)  rotate(0 4.96 36.965)" d="M0,73.93C8.51,49.82 5.99,23.57 7.19,12.81C7.75,8.47 8.66,4.19 9.92,0 " /><g opacity="0.5" transform="translate(178.66 360.03)  rotate(0 110.215 109.435)"><path id="Vector" fill-rule="evenodd" style="fill:#505C7B" transform="translate(0 0)  rotate(0 110.215 109.435)" opacity="0.5" d="M22.6 41.81C25.59 37.91 28.83 34.22 32.3 30.75C48.42 14.54 69.21 3.78 91.75 0L97.61 8.6C84.33 10.28 71.53 14.59 59.94 21.26C48.35 27.94 38.2 36.86 30.09 47.49L22.6 41.81ZM140.89 12.57C141.84 9.58 142.57 6.52 143.08 3.42C139.08 2.18 135.01 1.16 130.88 0.39C131.3 2.09 131.67 3.99 132.02 5.19C132.44 6.88 132.71 8.61 132.8 10.35C135.54 10.98 138.24 11.72 140.89 12.57ZM168.92 15.35C168.02 18.21 166.85 21.9 166.02 24.68C171.4 28.27 176.41 32.35 181.01 36.89C182.68 35.09 185.47 32.06 187.37 29.98L187.39 29.98C181.77 24.46 175.58 19.56 168.92 15.35ZM0.25 101.22C1.67 80.24 9.06 60.1 21.56 43.18L29.22 48.65C16.31 66 9.34 87.05 9.37 108.67C9.37 164.29 54.62 209.54 110.23 209.54C165.85 209.54 211.09 164.29 211.09 108.67C211.11 82.51 200.93 57.37 182.71 38.6C184.86 36.39 187.62 33.53 189.23 31.83L189.23 31.82C203.9 46.9 213.94 65.86 218.17 86.46C222.41 107.06 220.66 128.45 213.13 148.09C205.61 167.73 192.62 184.81 175.7 197.3C158.79 209.8 138.65 217.2 117.66 218.62C96.68 220.04 75.73 215.43 57.28 205.32C38.83 195.22 23.66 180.05 13.55 161.61C3.45 143.16 -1.17 122.21 0.25 101.22Z" /></g><g opacity="0.25" transform="translate(178.86 351.54)  rotate(0 114.21 58.58)"><path  id="Vector" style="stroke:#505C7B; stroke-width:0.8284807205200195; stroke-opacity:1; stroke-dasharray:0 0" transform="translate(0 8.67)  rotate(0 38.08 33.735)" d="M76.16,0C44.16,10.09 17.38,34.09 4.5,66.02C4.27,66.58 3.83,67.03 3.27,67.28C2.71,67.52 2.08,67.53 1.51,67.32C1.22,67.2 0.95,67.04 0.72,66.82C0.5,66.61 0.32,66.35 0.19,66.06C0.07,65.78 0,65.47 0,65.16C0,64.84 0.06,64.54 0.17,64.25C10.83,37.9 30.57,16.24 55.83,3.2 " /><path  id="Vector" style="stroke:#505C7B; stroke-width:0.8284807205200195; stroke-opacity:1; stroke-dasharray:0 0" transform="translate(127.18 0)  rotate(0 7.455 1.57)" d="M14.91,3.14C10.01,1.77 5.03,0.72 0,0 " /><path  id="Vector" style="stroke:#505C7B; stroke-width:0.8284807205200195; stroke-opacity:1; stroke-dasharray:0 0" transform="translate(129.09 5.05)  rotate(0 7.04 1.655)" d="M0,0C4.76,0.8 9.46,1.91 14.08,3.31 " /><path  id="Vector" style="stroke:#505C7B; stroke-width:0.8284807205200195; stroke-opacity:1; stroke-dasharray:0 0" transform="translate(171.38 15.85)  rotate(0 10.15 7.78)" d="M20.3,15.56C14.11,9.66 7.31,4.44 0,0 " /><path  id="Vector" style="stroke:#505C7B; stroke-width:0.8284807205200195; stroke-opacity:1; stroke-dasharray:0 0" transform="translate(169.76 20.43)  rotate(0 9.33 7.215)" d="M0,0C6.7,4.15 12.95,8.99 18.66,14.43 " /><path  id="Vector" style="stroke:#505C7B; stroke-width:0.8284807205200195; stroke-opacity:1; stroke-dasharray:0 0" transform="translate(192.47 35.43)  rotate(0 17.975 40.865)" d="M3.22,0C23.74,21.37 35.43,49.71 35.95,79.34C35.96,79.65 35.9,79.96 35.79,80.25C35.67,80.54 35.5,80.8 35.28,81.02C35.07,81.25 34.81,81.42 34.52,81.55C34.23,81.67 33.92,81.73 33.61,81.73C33,81.73 32.42,81.49 31.98,81.07C31.55,80.64 31.29,80.06 31.28,79.45C30.73,51.09 19.57,23.97 0,3.45 " /></g><path id="Vector" fill-rule="evenodd" style="fill:#F06082" transform="translate(154.68 332.57)  rotate(0 58.66 23.565)" opacity="0.5" d="M33.19,47.12C57.53,46.43 72.24,32.44 95.61,30.89C106.02,30.2 117.32,29.69 117.32,29.69L106.69,14.48C89.03,11.51 65.82,4.09 45.45,1.3C19.25,-2.27 -2.15,0.75 0.17,20.03C2.92,42.84 22.82,47.41 33.19,47.12Z " /><path id="Vector" fill-rule="evenodd" style="fill:#FCC9A1" transform="translate(311.54 137.74)  rotate(0 8.31 13.15)" opacity="1" d="M8.86,26.3L16.62,0.35C16.62,0.35 5.78,-0.62 0,0.68C3.73,9 8.86,26.3 8.86,26.3Z " /><path id="Vector" fill-rule="evenodd" style="fill:#FCC9A1" transform="translate(47.25 111.96)  rotate(0 101.415 33.19)" opacity="1" d="M3.74,21.07C5.26,21.68 6.84,22.13 8.46,22.41C8.46,22.41 5.94,25.16 7.25,26.14C8.57,27.11 14.6,32.58 18.66,33.18C22.72,33.77 29.63,32.47 29.63,32.47C29.63,32.47 59.9,48.82 69.56,52.55C79.21,56.28 94.56,62.2 97.2,64.06C99.83,65.93 102.14,66.48 112.01,65.38C121.88,64.28 161.79,65.49 174.63,64.97C194,64.16 193.19,63.95 202.83,66.38C202.83,66.38 199.02,47.19 197.79,42.15C196.95,38.42 196.33,34.64 195.93,30.83C195.93,30.83 185.74,30.71 179.1,31.94C172.46,33.17 167.79,34.01 153.64,36.86C139.49,39.71 109.36,41.78 106.04,40.92C102.72,40.06 84.15,33.05 75.67,31.81C67.18,30.56 51.93,26.52 38.38,21.23C38.38,21.23 34.22,16.04 32.02,12.31C29.83,8.58 25.78,8.47 23.69,7.81C21.61,7.15 13.18,2.34 11.42,0.45C9.66,-1.43 9,3.19 9,3.19C9,3.19 1.98,1.44 0.89,2.54C-0.21,3.63 0.12,8.24 0.89,8.57C1.78,8.86 2.7,9.08 3.63,9.23C3.63,9.23 -0.96,12.73 0.18,14.05C1.33,15.37 5.27,16.03 5.27,16.03C5.27,16.03 0.77,19.98 3.74,21.07Z " /><path id="Vector" fill-rule="evenodd" style="fill:#2C2F53" transform="translate(211.83 80.42)  rotate(0 28.09 26.48)" opacity="1" d="M34.08,11.69C34.08,11.69 35.81,14.17 32.35,17.12C28.9,20.08 12.49,27.57 7.14,33.44C1.79,39.31 -4.03,46.89 3.84,50.8C11.71,54.7 28.53,48.03 30.69,46.65C30.69,46.65 28.62,51.92 33.8,52.87C38.98,53.82 53.49,47.25 55.56,45.79C57.63,44.32 53.87,0 53.87,0L34.08,11.69Z " /><path  id="Vector" style="stroke:#505C7B; stroke-width:0.8284807205200195; stroke-opacity:1; stroke-dasharray:0 0" transform="translate(248.66 106.04)  rotate(0 5.8 11.6)" d="M10.77,0C13.74,13.09 8.41,20.61 0,23.2 " /><path id="Vector" fill-rule="evenodd" style="fill:#2C2F53" transform="translate(288.26 72.17)  rotate(0 14.465 26.34)" opacity="1" d="M4.98,5.15C4.98,5.15 -1.35,49.45 0.27,51.21C1.88,52.98 5.34,53.35 9.24,51.21C13.14,49.08 16.3,48.86 16.3,48.86C16.23,46.51 23,41.21 27.27,33.41C31.54,25.61 26.6,20.68 23.4,17.22C20.2,13.76 17.48,10.6 13.8,0L4.98,5.15Z " /><path  id="Vector" style="stroke:#505C7B; stroke-width:0.8284807205200195; stroke-opacity:1; stroke-dasharray:0 0" transform="translate(299.04 82.32)  rotate(0 10.625 17.365)" d="M0,0C0,0 4.03,11.03 11.63,14.28C21.93,18.69 24.65,32.09 16.41,34.73 " /><path  id="Vector" style="stroke:#505C7B; stroke-width:0.8284807205200195; stroke-opacity:1; stroke-dasharray:0 0" transform="translate(299.71 89.82)  rotate(0 4.765 15.61)" d="M0,0C1.99,6.7 4.69,9.94 7.43,14.08C14.28,24.3 1.91,27.54 4.86,31.22 " /><path id="Vector" fill-rule="evenodd" style="fill:#FCC9A1" transform="translate(250 57.69)  rotate(0 27.65 58.795)" opacity="1" d="M46.84,59.29C47.43,58.5 48.08,57.59 48.78,56.54C53.82,48.92 53.03,41.42 52.48,37.39C51.92,33.36 50.57,21.27 50.57,21.27L50.76,21.01C58.19,11.13 50.7,0.5 50.35,0L41.32,5.92L13.04,24.46C11.74,26.73 12.49,32.32 12.35,33.26C12.2,34.19 8.47,38.69 8.47,38.69C6.28,36.02 -1.55,35.87 0.27,43.45C2.1,51.03 13.5,50.85 13.5,50.85C14.23,53.83 17.04,77.13 16.82,79.84C16.59,82.55 8.42,85.23 8.42,85.23C7.54,90.71 9.29,105.17 12.07,110.87C12.07,110.87 22.89,111.43 35.83,117.59C35.83,117.59 52.59,107.6 54.71,104.48C55.91,102.73 55.19,100.22 53.37,94.05C51.54,87.88 49.81,83.35 49.81,83.35L47.74,83.82C44.45,84.56 42.43,80.4 41.91,76.57C41.84,76.06 41.76,74.93 41.68,73.58C41.46,69.88 41.24,64.39 41.24,64.39C41.24,64.39 43.11,64.21 46.84,59.29Z " /><path id="Vector" fill-rule="evenodd" style="fill:#F06082" transform="translate(154.62 138.11)  rotate(0 104.35 107.245)" opacity="0.25" d="M166.77,22.78C166.77,22.78 162.17,3.91 158.34,0L143.15,3.42C143.15,3.42 149.09,19 148.78,21.93C148.48,24.87 131.07,34.91 131.07,34.91C131.07,34.91 116.19,28.88 108.54,28.88C108.54,28.88 103.81,13.59 106.02,4.23C106.02,4.23 103.12,5.24 100.89,5.14C98.66,5.04 86.6,4.64 86.6,4.64C86.79,8.65 87.4,12.62 88.42,16.51C90.03,22.24 92.56,37.73 93.14,40.75C93.14,40.75 90.63,56.85 90.63,60.57C90.63,64.29 93.75,73.65 95.66,78.88C97.57,84.11 100.99,95.78 100.28,100.31C99.58,104.84 82.59,113.07 74.84,124.83C67.09,136.6 63.57,145.37 60.34,152.61C57.11,159.84 48.08,167.79 31.18,177.15C14.28,186.5 -2.12,199.98 0.23,214.49C-1.02,204.13 11.13,194.78 36.58,196.87C62.03,198.97 102.58,213.23 127.47,213.37C152.36,213.51 164.09,211.19 176.55,199.98C189.02,188.76 199.6,188.76 208.7,192.4C208.7,192.4 199.11,173.51 197.66,170.58C196.22,167.66 182.53,153.53 173.53,143.32C168.2,137.3 163.22,130.99 158.61,124.41L151.39,125.14C151.39,125.14 152.09,68.23 166.77,22.78Z " /><path  id="Vector" style="stroke:#2C2F53; stroke-width:0.8284807205200195; stroke-opacity:1; stroke-dasharray:0 0" transform="translate(370.53 44.54)  rotate(0 0.725 6.42)" d="M1.45,12.84C1.45,12.91 0.74,8.25 0,0 " /><path  id="Vector" style="stroke:#2C2F53; stroke-width:0.8284807205200195; stroke-opacity:1; stroke-dasharray:0 0" transform="translate(373.73 66.13)  rotate(0 12.295 8.27)" d="M24.59,16.54C24.59,16.54 17.77,16.62 15.93,16.01C14.39,15.5 8.78,9.87 3.18,3.62C2.11,2.43 1.04,1.21 0,0 " /><path  id="Vector" style="stroke:#505C7B; stroke-width:0.8284807205200195; stroke-opacity:1; stroke-dasharray:0 0" transform="translate(363.87 10.07)  rotate(0 12.22 15.435)" d="M0,30.87C2.22,27.14 5.63,26.53 8.88,24.47C16.8,19.46 26.89,13.14 23.9,0 " /><path  id="Vector" style="stroke:#505C7B; stroke-width:0.8284807205200195; stroke-opacity:1; stroke-dasharray:0 0" transform="translate(386.7 5.71)  rotate(0 3.315 3.08)" d="M6.63,6.16C6.63,6.16 3.29,2.25 0,0 " /><path  id="Vector" style="stroke:#505C7B; stroke-width:0.8284807205200195; stroke-opacity:1; stroke-dasharray:0 0" transform="translate(365.53 28.8)  rotate(0 2.165 2.32)" d="M3.65,4.17C5.01,3.02 4.59,0.76 0,0C0,3.62 1.98,5.6 3.65,4.17Z " /><path  id="Vector" style="stroke:#505C7B; stroke-width:0.8284807205200195; stroke-opacity:1; stroke-dasharray:0 0" transform="translate(411.87 7.38)  rotate(0 6.91 13.08)" d="M11.24,23.53C14.28,22.52 14.45,19.93 12.71,18.91C11.24,18.06 9.71,19.89 9.38,23.76C9.96,23.81 10.58,23.75 11.24,23.53Z M0,0C1.95,4.99 2.79,8.54 3.13,12.77C3.47,16.99 3.3,18.29 4.65,20.26C5.71,21.81 7.29,23.56 9.38,23.76 M9.38,23.76C9.32,24.49 9.31,25.29 9.34,26.16 " /><path  id="Vector" style="stroke:#505C7B; stroke-width:0.8284807205200195; stroke-opacity:1; stroke-dasharray:0 0" transform="translate(421.22 22.13)  rotate(0 5 5.03)" d="M0,9.01C2.97,11.29 6.78,9.59 8.46,6.55C9.5,4.52 10.03,2.28 10,0 " /><path id="Vector" fill-rule="evenodd" style="fill:#2C2F53" transform="translate(389.58 62.09)  rotate(0 1.485 1.675)" opacity="1" d="M0.18,0.08C-0.39,0.51 0.35,2.13 2.97,3.35C2.78,1 0.75,-0.35 0.18,0.08Z " /><path  id="Vector" style="stroke:#2C2F53; stroke-width:0.8284807205200195; stroke-opacity:1; stroke-dasharray:0 0" transform="translate(390.83 63.69)  rotate(0 6.055 1.745)" d="M12.11,3.12C6.37,4.26 2.86,2.64 0,0 " /><path id="Vector" fill-rule="evenodd" style="fill:#2C2F53" transform="translate(398.27 57.26)  rotate(0 1.675 1.1)" opacity="1" d="M0.03,0.33C-0.34,1.37 2.45,1.64 3.35,2.2C2.04,-0.56 0.21,-0.11 0.03,0.33Z " /><path  id="Vector" style="stroke:#2C2F53; stroke-width:0.8284807205200195; stroke-opacity:1; stroke-dasharray:0 0" transform="translate(399.96 57.38)  rotate(0 3.735 1.445)" d="M0,0.76C1.4,1.67 2.09,2.72 2.58,2.83C3.36,2.93 4.15,2.9 4.92,2.75C5.21,2.64 7.03,0.68 7.47,0 " /><path id="Vector" fill-rule="evenodd" style="fill:#2C2F53" transform="translate(384.99 30.31)  rotate(0 6.675 2.48)" opacity="1" d="M13.06,3.93C13.65,4.07 13.28,0.8 12.54,0.14C11.81,-0.52 4.16,1.17 0,4.96C2.28,3.86 12.47,3.78 13.06,3.93Z " /><path id="Vector" fill-rule="evenodd" style="fill:#2C2F53" transform="translate(408.29 34.1)  rotate(0 4.36 2.34)" opacity="1" d="M8.6,4.68C8.6,4.68 9.52,1.81 6.18,0.38C3.97,-0.56 1.89,0.29 0,2.55C3.82,2.13 7.45,3.03 8.6,4.68Z " /><path  id="Vector" style="stroke:#2C2F53; stroke-width:0.8284807205200195; stroke-opacity:1; stroke-dasharray:0 0" transform="translate(404.64 35.28)  rotate(0 2.905 12.44)" d="M5.81,0C2.86,2.05 0.81,6.09 0.2,7.3C-0.4,8.51 0.58,18.31 0.25,24.88 " /><g opacity="0.5" transform="translate(382.26 38.56)  rotate(0 20.725 9.325)"><path  id="Vector" style="stroke:#505C7B; stroke-width:0.8284807205200195; stroke-opacity:1; stroke-dasharray:0 0" transform="translate(0 3.96)  rotate(0 9.15 7.345)" d="M1.87,0C0.99,1.16 0.4,2.5 0.14,3.93C-0.11,5.36 -0.02,6.83 0.4,8.22C0.83,9.61 1.58,10.88 2.59,11.92C3.6,12.96 4.85,13.75 6.23,14.21C7.6,14.67 9.07,14.8 10.51,14.59C11.94,14.37 13.31,13.82 14.49,12.97C15.67,12.12 16.63,11.01 17.29,9.71C17.95,8.42 18.3,6.99 18.3,5.54C18.3,5.04 18.26,4.54 18.18,4.05 " /><path  id="Vector" style="stroke:#505C7B; stroke-width:0.8284807205200195; stroke-opacity:1; stroke-dasharray:0 0" transform="translate(4.13 0.35)  rotate(0 6.385 2.135)" d="M12.77,4.27C12.12,3.24 11.27,2.35 10.28,1.65C9.28,0.96 8.15,0.46 6.96,0.21C5.78,-0.05 4.55,-0.07 3.35,0.15C2.16,0.38 1.02,0.84 0,1.5 " /><path  id="Vector" style="stroke:#505C7B; stroke-width:0.8284807205200195; stroke-opacity:1; stroke-dasharray:0 0" transform="translate(27.39 0)  rotate(0 6.005 1.69)" d="M12.01,3.38C10.59,1.64 8.59,0.48 6.38,0.12C4.16,-0.24 1.89,0.22 0,1.43 " /><path  id="Vector" style="stroke:#505C7B; stroke-width:0.8284807205200195; stroke-opacity:1; stroke-dasharray:0 0" transform="translate(23.15 3.57)  rotate(0 9.145 7.36)" d="M1.89,0C0.91,1.28 0.28,2.81 0.07,4.41C-0.13,6.02 0.09,7.65 0.73,9.14C1.36,10.64 2.37,11.93 3.67,12.9C4.97,13.87 6.5,14.48 8.11,14.66C9.72,14.84 11.35,14.6 12.83,13.94C14.31,13.29 15.59,12.26 16.55,10.95C17.5,9.64 18.08,8.1 18.24,6.48C18.41,4.87 18.14,3.25 17.46,1.77 " /></g><path  id="Vector" style="stroke:#2C2F53; stroke-width:0.8284807205200195; stroke-opacity:1; stroke-dasharray:0 0" transform="translate(410.06 45.94)  rotate(0 1.13 0.355)" d="M2.26,0C1.55,0.34 0.78,0.58 0,0.71 " /><path id="Vector" fill-rule="evenodd" style="fill:#2C2F53" transform="translate(407.97 45.07)  rotate(0 1.585 1.585)" opacity="1" d="M1.59,0C0.71,0 0,0.71 0,1.59C0,2.46 0.71,3.17 1.59,3.17C2.46,3.17 3.17,2.46 3.17,1.59C3.17,0.71 2.46,0 1.59,0Z " /><path  id="Vector" style="stroke:#2C2F53; stroke-width:0.8284807205200195; stroke-opacity:1; stroke-dasharray:0 0" transform="translate(390.44 45.16)  rotate(0 1.165 0.32)" d="M2.33,0C1.59,0.33 0.8,0.54 0,0.64 " /><path id="Vector" fill-rule="evenodd" style="fill:#2C2F53" transform="translate(388.33 44.19)  rotate(-87.68 1.585 1.585)" opacity="1" d="M1.58,0C0.71,0 0,0.71 0,1.59C0,2.46 0.71,3.17 1.58,3.17C2.46,3.17 3.17,2.46 3.17,1.59C3.17,0.71 2.46,0 1.58,0Z " /><path  id="Vector" style="stroke:#2C2F53; stroke-width:0.8284807205200195; stroke-opacity:1; stroke-dasharray:0 0" transform="translate(391.53 69.41)  rotate(0 2.245 0.61)" d="M4.49,1.21C4.49,1.21 1.69,1.42 0,0 " /><path id="Vector" fill-rule="evenodd" style="fill:#54C3E5" transform="translate(303.4 85.93)  rotate(0 66.03 90.195)" opacity="0.25" d="M93.71,138.36C93.71,138.36 87.31,136.96 87.2,136.34C87.08,135.71 97.4,136.37 97.4,136.37C97.4,136.37 84.9,127.42 84.04,126.53C83.19,125.63 83.73,122.52 83.73,122.52C83.73,122.52 81.17,122.17 80.83,120.86C80.5,119.56 80.56,118.06 80.95,118.06C81.34,118.06 85.31,119.23 85.31,119.23C85.31,119.23 84.53,113.98 85.35,113.9C86.16,113.82 93.32,116.27 93.32,116.27C93.32,116.27 93.82,103.17 96.53,90.44C114.8,73.99 132.06,64.94 132.06,64.94C132.06,64.94 121.81,52.06 112.06,40.5C102.32,28.94 96.68,18.11 86.38,11.41C76.08,4.71 59.93,-2.81 54.65,1.05C51.39,3.43 38.88,14.97 31.8,29.44C24.73,43.91 16.78,67.86 12.43,84.29C8.07,100.72 0.67,135.65 0,180.39C0,180.39 13.71,179.63 24.92,175.93C36.13,172.23 69.22,158.19 96.65,159.39L93.71,138.36Z " /><path  id="Vector" style="stroke:#54C3E5; stroke-width:1.2427210807800293; stroke-opacity:1; stroke-dasharray:0 0" transform="translate(370.4 145.44)  rotate(0 14.75 17.015)" d="M0,0C7.62,11.56 25.36,34.03 25.36,34.03L29.5,30.94 " /><path  id="Vector" style="stroke:#54C3E5; stroke-width:1.2427210807800293; stroke-opacity:1; stroke-dasharray:0 0" transform="translate(371.61 191.49)  rotate(0 5.055 2.85)" d="M0,0C0,0 4.73,1.48 10.11,5.7 " /><path  id="Vector" style="stroke:#54C3E5; stroke-width:1.2427210807800293; stroke-opacity:1; stroke-dasharray:0 0" transform="translate(367.7 199.23)  rotate(0 5.845 0.94)" d="M11.69,1.88C11.69,1.88 5.01,-0.18 0,0.01 " /><path  id="Vector" style="stroke:#2C2F53; stroke-width:0.8284807205200195; stroke-opacity:1; stroke-dasharray:0 0" transform="translate(386.22 202.41)  rotate(0 6.85 2.485)" d="M13.7,4.97C13.7,4.97 6.21,2.33 0,0 " /><path  id="Vector" style="stroke:#2C2F53; stroke-width:0.8284807205200195; stroke-opacity:1; stroke-dasharray:0 0" transform="translate(385.16 209.68)  rotate(0 7.38 3.065)" d="M14.76,6.13C14.76,6.13 4.56,1.36 0,0 " /><path id="Vector" fill-rule="evenodd" style="fill:#505C7B" transform="translate(518.66 221.41)  rotate(0 10.345 5.675)" opacity="0.5" d="M20.68,3.84C20.86,3.42 18.79,0.01 18.79,0.01C18.79,0.01 6.26,-0.02 3.96,0.03C1.66,0.07 -0.11,1.63 0.01,4.92C0.12,8.22 1.23,10.34 3.02,11.05C4.81,11.75 8.39,11 14.46,11.05C14.46,11.05 20.5,4.26 20.68,3.84Z " /><path  id="Vector" style="stroke:#505C7B; stroke-width:0.8284807205200195; stroke-opacity:1; stroke-dasharray:0 0" transform="translate(554.52 227.73)  rotate(0 14.02 13.365)" d="M0,1.75C5.48,0.71 11.04,0.12 16.62,0C25.32,-0.12 29.8,3.87 27.39,7.98C24.99,12.09 18.4,18.45 1.71,26.73 " /><path  id="Vector" style="stroke:#505C7B; stroke-width:0.8284807205200195; stroke-opacity:1; stroke-dasharray:0 0" transform="translate(552.92 221.98)  rotate(0 18.8 19.16)" d="M5.1,38.32C5.1,38.32 20.48,30.66 30.48,22.3C40.47,13.94 38.76,5.78 32.6,2.24C26.44,-1.31 7.8,0.16 0,1.24 " /><path id="Vector" fill-rule="evenodd" style="fill:#505C7B" transform="translate(543.89 253.47)  rotate(0 8.485 6.92)" opacity="0.25" d="M0.29,5.38C-0.84,6.24 1.6,13.42 3,13.82C4.4,14.22 16.83,8.63 16.96,7.95C17.09,7.28 15.78,0.83 14.12,0.08C12.33,-0.72 1.41,4.52 0.29,5.38Z " /><path  id="Vector" style="stroke:#505C7B; stroke-width:0.8284807205200195; stroke-opacity:1; stroke-dasharray:0 0" transform="translate(546.89 264.26)  rotate(0 6.42 18.49)" d="M0,0C0,0 5.8,16.78 12.84,36.98 " /><path  id="Vector" style="stroke:#505C7B; stroke-width:0.8284807205200195; stroke-opacity:1; stroke-dasharray:0 0" transform="translate(554.52 263.12)  rotate(0 6.29 17.905)" d="M12.58,35.81C6.38,18.04 1.5,4.11 0,0 " /><path  id="Vector" style="stroke:#505C7B; stroke-width:0.8284807205200195; stroke-opacity:1; stroke-dasharray:0 0" transform="translate(562.46 306.58)  rotate(0 37.29 81.555)" d="M7.29,0C21.03,39.42 39.37,92.19 43.14,102.58C48.94,118.6 54.06,132.36 64.12,144.69C74.19,157.03 77.51,164.66 71.78,162.84C68.66,161.85 52.64,140.01 47.25,130.94C41.87,121.88 26.26,76.5 20.74,61.47C17.92,53.8 8.53,26.95 0,2.48 " /><path id="Vector" fill-rule="evenodd" style="fill:#505C7B" transform="translate(558.1 284.7)  rotate(0 10.835 12.85)" opacity="0.5" d="M3.24,25.57C4.13,26.38 13.27,23.07 13.34,22.73C13.02,21.51 12.64,20.31 12.19,19.13C14.64,18.99 18.36,18.58 19.61,17.74C22.44,15.82 21.62,6.43 21.34,3.09C21.07,-0.26 19.05,-0.3 18,0.29C16.95,0.88 17.77,10.83 17.73,13.07C17.69,15.02 14.79,15.55 11.02,15.93C10.65,14.82 10.2,13.74 9.68,12.7C9.27,12.28 4.62,13.57 0.06,15.54C-0.44,15.76 2.36,24.76 3.24,25.57Z " /><path  id="Vector" style="stroke:#505C7B; stroke-width:0.8284807205200195; stroke-opacity:1; stroke-dasharray:0 0" transform="translate(484.1 315.72)  rotate(0 38.49 41.275)" d="M0,82.55C1.35,81.26 2.63,79.89 3.83,78.47C19.95,59.33 49.54,12.65 76.98,0 " /><path  id="Vector" style="stroke:#505C7B; stroke-width:0.8284807205200195; stroke-opacity:1; stroke-dasharray:0 0" transform="translate(420.19 416.36)  rotate(0 4.395 0.155)" d="M8.79,0.31C5.8,0.31 2.84,0.2 0,0 " /><path  id="Vector" style="stroke:#505C7B; stroke-width:0.8284807205200195; stroke-opacity:1; stroke-dasharray:0 0" transform="translate(481.64 322.05)  rotate(0 42.88 45.08)" d="M0,90.16C1.75,89.06 3.46,87.86 5.14,86.58C32.06,65.81 44.75,21.32 85.76,0 " /><path  id="Vector" style="stroke:#505C7B; stroke-width:0.8284807205200195; stroke-opacity:1; stroke-dasharray:0 0" transform="translate(422.79 425.44)  rotate(0 2.04 0.015)" d="M4.08,0C2.67,0.03 1.31,0.03 0,0.03 " /><path  id="Vector" style="stroke:#505C7B; stroke-width:0.8284807205200195; stroke-opacity:1; stroke-dasharray:0 0" transform="translate(502.09 330.45)  rotate(0 33.915 52.93)" d="M0,105.86C7.65,89.46 13.01,74.12 16.8,63.32C21.1,51.1 46.18,11.26 67.83,0 " /><path  id="Vector" style="stroke:#505C7B; stroke-width:0.8284807205200195; stroke-opacity:1; stroke-dasharray:0 0" transform="translate(466.75 449.43)  rotate(0 14.235 12.33)" d="M28.47,0C19.36,14.25 7.52,21.07 0,24.66 " /><path  id="Vector" style="stroke:#505C7B; stroke-width:0.8284807205200195; stroke-opacity:1; stroke-dasharray:0 0" transform="translate(505.58 339.74)  rotate(0 33.795 54.345)" d="M0,108.69C3.92,102.8 7.17,96.49 9.7,89.89C22.89,54.82 39.6,15.6 67.59,0 " /><path  id="Vector" style="stroke:#505C7B; stroke-width:0.8284807205200195; stroke-opacity:1; stroke-dasharray:0 0" transform="translate(470.81 451.63)  rotate(0 16.29 14.63)" d="M32.58,0C21.05,16.25 6.59,27.5 0,29.26 " /><path id="Vector" fill-rule="evenodd" style="fill:#54C3E5" transform="translate(310.68 242.82)  rotate(0 97.33 39.63)" opacity="0.5" d="M89.35,2.49C85.46,0.97 82.63,0 82.63,0C82.63,0 62.3,0.36 44.78,7.09C27.26,13.82 15.59,16.64 0,20.3C2.49,28.04 8.14,32.46 14.34,39.54C20.53,46.62 35.22,62.37 35.22,62.37C35.22,62.37 120.17,72.28 127.25,73.87C134.33,75.47 150.08,79.26 150.08,79.26C150.08,79.26 148.83,71.14 161.94,47.91C175.04,24.69 186.18,8.23 194.66,8.41C194.66,8.41 170.42,6.64 150.59,5.57C130.77,4.51 89.35,2.49 89.35,2.49Z " /><path  id="Vector" style="stroke:#2C2F53; stroke-width:0.8284807205200195; stroke-opacity:1; stroke-dasharray:0 0" transform="translate(484.43 285.4)  rotate(0 3.815 8.125)" d="M7.63,0C7.31,2.17 2.58,11.5 0,16.25 " /><path  id="Vector" style="stroke:#54C3E5; stroke-width:1.2427210807800293; stroke-opacity:1; stroke-dasharray:0 0" transform="translate(460.76 310.41)  rotate(0 8.865 6.07)" d="M17.73,0C8.98,10.16 1.58,13.5 0,11.66 " /><path  id="Vector" style="stroke:#54C3E5; stroke-width:1.2427210807800293; stroke-opacity:1; stroke-dasharray:0 0" transform="translate(438.6 249.24)  rotate(0 18.745 35.69)" d="M37.49,0C25.94,10.24 5.49,53.98 0,71.38 " /><path  id="Vector" style="stroke:#2C2F53; stroke-width:0.8284807205200195; stroke-opacity:1; stroke-dasharray:0 0" transform="translate(441.89 365.22)  rotate(0 1.66 5.705)" d="M3.31,0C3.41,1.25 2.55,6.09 0,11.41 " /><path  id="Vector" style="stroke:#54C3E5; stroke-width:1.2427210807800293; stroke-opacity:1; stroke-dasharray:0 0" transform="translate(424.03 376.63)  rotate(0 5.645 1.11)" d="M11.29,0C5.74,2.48 0.69,2.7 0,1.56 " /><path id="Vector" fill-rule="evenodd" style="fill:#54C3E5" transform="translate(443.67 390.96)  rotate(0 30.97 30.465)" opacity="0.25" d="M0,42.26C0,42.26 10.77,46.37 27.13,50.95C43.48,55.54 60.68,61.62 61.62,60.87C62.57,60.12 61.25,50.77 59.75,47.4C58.25,44.03 52.55,40.11 48.9,38.33C45.25,36.55 45.44,37.21 42.73,32.06C40.02,26.92 37.76,23.06 37.95,21.25C38.13,19.44 41.98,12.36 42.08,10.12C34.31,6.94 19.18,2.89 15.48,0.73C11.78,-1.42 11.78,1.67 11.32,3.63C10.85,5.6 6.08,28.13 0,42.26Z " /><g opacity="0.5" transform="translate(445.52 406.76)  rotate(0 30.025 21.045)"><path  id="Vector" style="stroke:#54C3E5; stroke-width:1.2427210807800293; stroke-opacity:1; stroke-dasharray:0 0" transform="translate(36.37 15.43)  rotate(0 2.04 1.01)" d="M0,2.02C0.4,1.01 1.73,-0.14 4.08,0.01 " /><path  id="Vector" style="stroke:#54C3E5; stroke-width:1.2427210807800293; stroke-opacity:1; stroke-dasharray:0 0" transform="translate(31.49 10.88)  rotate(0 3.295 1.47)" d="M6.59,0.06C4.19,-0.34 1.24,1.28 0,2.94 " /><path  id="Vector" style="stroke:#54C3E5; stroke-width:1.2427210807800293; stroke-opacity:1; stroke-dasharray:0 0" transform="translate(36.92 0)  rotate(0 7.86 4.25)" d="M15.19,0.49C12.5,-1.73 2.87,4.05 0,8.5C6.5,7.27 18.36,3.13 15.19,0.49Z " /><path  id="Vector" style="stroke:#54C3E5; stroke-width:1.2427210807800293; stroke-opacity:1; stroke-dasharray:0 0" transform="translate(37.84 6.84)  rotate(0 5.63 2.125)" d="M0,3.64C3.95,4.68 11.18,4.54 11.26,2.03C11.33,-0.47 5.31,0.04 5.31,0.04 " /><path  id="Vector" style="stroke:#54C3E5; stroke-width:1.2427210807800293; stroke-opacity:1; stroke-dasharray:0 0" transform="translate(0 21.84)  rotate(0 30.025 10.13)" d="M0,0C9.56,4.42 23.2,9.36 28.94,10.73C37.6,12.8 50.12,15.92 60.05,20.26 " /></g><path id="Vector" fill-rule="evenodd" style="fill:#505C7B" transform="translate(446.51 433.11)  rotate(0 20.63 11.465)" opacity="0.25" d="M0,10.56C0,10.56 11.4,15.54 22.24,19.16C33.08,22.78 35.91,22.93 35.91,22.93L41.26,12.33C41.26,12.33 9.08,3.19 3.79,0C2.33,4.06 0,10.56 0,10.56Z " /><path id="Vector" fill-rule="evenodd" style="fill:#505C7B" transform="translate(434.75 446.07)  rotate(0 16.195 27.55)" opacity="0.5" d="M32.39,2.78C29.74,2.1 27.16,1.17 24.68,0C19.77,13.52 14.51,25.44 6.42,40.7C4.87,40.88 3.42,41.55 2.28,42.62C1.14,43.68 0.38,45.09 0.11,46.63C-0.16,48.17 0.07,49.75 0.78,51.14C1.48,52.54 2.62,53.66 4.02,54.35C5.42,55.04 7.01,55.26 8.54,54.98C10.07,54.69 11.48,53.92 12.53,52.77C13.59,51.62 14.24,50.16 14.4,48.61C14.56,47.05 14.21,45.49 13.4,44.15L13.45,44.18C20.97,32.71 32.39,2.78 32.39,2.78Z " /><path  id="Vector" style="stroke:#505C7B; stroke-width:0.8284807205200195; stroke-opacity:1; stroke-dasharray:0 0" transform="translate(319.93 457.47)  rotate(0 76.815 20.815)" d="M0,33.76L97.5,38.76L106.88,39.24L138.17,40.85L147.56,41.33L153.39,41.63C153.39,41.63 154.17,37.05 152.91,25.93C151.65,14.82 139.55,3.12 131.07,0 " /><path  id="Vector" style="stroke:#505C7B; stroke-width:0.8284807205200195; stroke-opacity:1; stroke-dasharray:0 0" transform="translate(322.63 456.03)  rotate(0 60.895 0.465)" d="M121.79,0.01C114.49,-0.09 0,0.93 0,0.93 " /><path id="Vector" fill-rule="evenodd" style="fill:#505C7B" transform="translate(426.82 496.71)  rotate(0 15.645 5.945)" opacity="0.25" d="M0,0C0.98,3.29 2.95,6.21 5.65,8.33C8.35,10.46 11.65,11.69 15.08,11.87C18.51,12.04 21.91,11.15 24.81,9.31C27.72,7.48 29.98,4.78 31.29,1.61L0,0Z " /><path  id="Vector" style="stroke:#54C3E5; stroke-width:1.2427210807800293; stroke-opacity:1; stroke-dasharray:0 0" transform="translate(401.21 507.22)  rotate(0 26.72 14.96)" d="M53.44,29.92C37.74,22.97 15.07,12.66 0,0 " /><path id="Vector" fill-rule="evenodd" style="fill:#505C7B" transform="translate(413.64 521.04)  rotate(0 18.775 13.235)" opacity="0.25" d="M0,10.46L32.81,26.47C32.81,26.47 37.28,16.84 37.55,16.11C37.55,16.11 9.21,2.59 4.92,0C3.4,2.86 0,10.46 0,10.46Z " /><path id="Vector" fill-rule="evenodd" style="fill:#505C7B" transform="translate(422.1 497.23)  rotate(0 10.32 19.325)" opacity="0.5" d="M5.82,38.65L20.64,2.86C18.42,2.84 16.46,1.82 14.73,0L0,35.98C3.96,37.76 5.82,38.65 5.82,38.65Z " /><path  id="Vector" style="stroke:#505C7B; stroke-width:0.8284807205200195; stroke-opacity:1; stroke-dasharray:0 0" transform="translate(393.32 317.49)  rotate(0 18.92 69.27)" d="M37.84,138.54C37.84,138.54 4.14,14.78 0,0 " /><path  id="Vector" style="stroke:#505C7B; stroke-width:0.8284807205200195; stroke-opacity:1; stroke-dasharray:0 0" transform="translate(384.29 319.02)  rotate(0 5.255 19.02)" d="M0,0C0,0 4.27,15.31 10.51,38.04 " /><path  id="Vector" style="stroke:#505C7B; stroke-width:0.8284807205200195; stroke-opacity:1; stroke-dasharray:0 0" transform="translate(396.55 363.46)  rotate(0 12.5 46.52)" d="M0,0C7.23,26.41 16.59,60.91 25,93.04 " /><path  id="Vector" style="stroke:#505C7B; stroke-width:0.8284807205200195; stroke-opacity:1; stroke-dasharray:0 0" transform="translate(329.09 363.47)  rotate(0 33.735 35.3)" d="M67.47,0C67.47,0 7.38,64.52 0,70.6 " /><path  id="Vector" style="stroke:#505C7B; stroke-width:0.8284807205200195; stroke-opacity:1; stroke-dasharray:0 0" transform="translate(356.45 346.62)  rotate(0 11.65 13.24)" d="M23.3,26.48L0,0 " /><path  id="Vector" style="stroke:#505C7B; stroke-width:0.8284807205200195; stroke-opacity:1; stroke-dasharray:0 0" transform="translate(357.61 338.08)  rotate(0 13.805 14.595)" d="M27.61,29.19L0,0 " /><g opacity="0.25" transform="translate(518.28 350.31)  rotate(0 71.56 69.53)"><path  id="Vector" style="stroke:#505C7B; stroke-width:0.8284807205200195; stroke-opacity:1; stroke-dasharray:0 0" transform="translate(0 13.5)  rotate(0 32.505 62.785)" d="M65.01,4.5C29.14,23.65 4.67,61.47 4.67,104.89C4.67,110.9 5.14,116.9 6.08,122.83C6.13,123.13 6.12,123.45 6.06,123.75C5.99,124.05 5.86,124.34 5.68,124.59C5.5,124.84 5.27,125.06 5.01,125.22C4.74,125.38 4.45,125.49 4.14,125.54C3.83,125.59 3.52,125.58 3.22,125.5C2.92,125.43 2.63,125.3 2.39,125.11C2.14,124.93 1.93,124.69 1.77,124.43C1.61,124.16 1.5,123.86 1.46,123.56C0.49,117.38 0,111.14 0,104.89C0.03,83.3 5.94,62.12 17.11,43.64C28.28,25.16 44.28,10.07 63.38,0 " /><path  id="Vector" style="stroke:#505C7B; stroke-width:0.8284807205200195; stroke-opacity:1; stroke-dasharray:0 0" transform="translate(70.24 0)  rotate(0 36.44 7.33)" d="M0,10.17C15.16,3.43 31.57,-0.03 48.15,0C55.83,0 63.49,0.74 71.03,2.21C71.63,2.34 72.15,2.69 72.49,3.2C72.83,3.72 72.95,4.34 72.84,4.94C72.72,5.55 72.37,6.08 71.86,6.42C71.36,6.77 70.73,6.9 70.13,6.8C62.9,5.38 55.54,4.67 48.17,4.67C32.11,4.66 16.23,8.06 1.59,14.66 " /></g><path  id="Vector" style="stroke:#505C7B; stroke-width:0.8284807205200195; stroke-opacity:1; stroke-dasharray:0 0" transform="translate(677.64 496.35)  rotate(0 10.675 13.76)" d="M0.44,27.49C4.12,26.52 19.42,5.61 21.35,0C17.09,2.9 -3.24,28.46 0.44,27.49Z " /><path  id="Vector" style="stroke:#505C7B; stroke-width:0.8284807205200195; stroke-opacity:1; stroke-dasharray:0 0" transform="translate(683.59 461.31)  rotate(0 17.73 37.845)" d="M35.12,0C38.35,39.15 17.97,63.38 0,75.69 " /><path  id="Vector" style="stroke:#505C7B; stroke-width:0.8284807205200195; stroke-opacity:1; stroke-dasharray:0 0" transform="translate(569.1 517.91)  rotate(0 11.44 10.675)" d="M0.82,6.69C2.91,9.31 12.42,19.39 16.7,20.99C20.98,22.59 23.11,18.45 22.86,16.18C22.61,13.91 18.82,10.85 6.01,0.94C1.82,-2.29 -1.64,3.61 0.82,6.69Z " /><path  id="Vector" style="stroke:#505C7B; stroke-width:0.8284807205200195; stroke-opacity:1; stroke-dasharray:0 0" transform="translate(521.06 467.29)  rotate(0 55.295 5.815)" d="M110.59,0L0,11.63 " /><path  id="Vector" style="stroke:#505C7B; stroke-width:0.8284807205200195; stroke-opacity:1; stroke-dasharray:0 0" transform="translate(521.06 469.67)  rotate(0 57.155 6.15)" d="M114.31,0L0,12.3 " /><path id="Vector" fill-rule="evenodd" style="fill:#505C7B" transform="translate(585.81 330.43)  rotate(0 26.305 69.675)" opacity="0.5" d="M45.39,3.3L50.25,3.3C50.49,3.33 50.72,3.31 50.95,3.24C51.18,3.17 51.39,3.06 51.56,2.9C51.74,2.75 51.88,2.56 51.98,2.34C52.08,2.13 52.13,1.89 52.13,1.66C52.13,1.42 52.08,1.19 51.98,0.97C51.88,0.76 51.74,0.57 51.56,0.41C51.39,0.26 51.18,0.14 50.95,0.07C50.72,0 50.49,-0.02 50.25,0.01L1.44,0.01C1.04,0.07 0.67,0.26 0.41,0.57C0.15,0.87 0,1.26 0,1.66C0,2.06 0.15,2.45 0.41,2.75C0.67,3.05 1.04,3.25 1.44,3.3L41.8,3.3L49.11,134.27C49.11,134.27 50.42,136.95 50.12,139.24C52.39,139.46 52.61,139.82 52.61,135.05C52.61,130.61 46.25,18.6 45.39,3.3Z " /><path id="Vector" fill-rule="evenodd" style="fill:#505C7B" transform="translate(585.72 256.05)  rotate(0 20.27 5.64)" opacity="0.25" d="M31.08,8.52C30.38,7.83 37.14,1.19 37.51,0.89C36.2,0.16 27.42,6.56 26.5,3.27C26.14,1.96 27.04,1.01 28.28,0L0,0.19L0,9.85C8.95,11.02 24.9,11.28 39.01,11.28C36.42,9.35 40.54,2.87 40.54,2.87C40.54,2.87 32.05,9.49 31.08,8.52Z " /><path id="Vector" fill-rule="evenodd" style="fill:#505C7B" transform="translate(625.67 255.74)  rotate(0 14.525 5.78)" opacity="0.25" d="M14.53,0.09C14.87,0.54 15.14,0.73 15.1,1.43C14.82,5.41 5.5,4.02 5.08,3.96C5.41,4.1 11.62,6.98 11.1,8.13C10.21,10.09 4.23,5.54 4.23,5.54C4.23,5.54 2.64,10.79 0,11.56C14.41,11.52 27.19,11.18 27.19,11.18L29.05,0L14.53,0.09Z " /><path id="Vector" fill-rule="evenodd" style="fill:#F06082" transform="translate(633.91 224.7)  rotate(0 13.42 15.765)" opacity="0.5" d="M16.22 19.81C16.22 19.81 25.49 23.8 26.03 21C26.58 18.19 22.87 15.81 16.19 16.45C16.19 16.45 28.91 12.57 26.55 9.34C24.25 6.21 16.7 12.17 16.13 12.95C16.54 12.02 20.51 1.79 17.3 1.69C13.86 1.58 12.97 11.83 13.03 12.25C13.0309 12.2555 13.0312 12.2582 13.0309 12.2583C13.0294 12.2586 13.0114 12.1837 12.9782 12.0453C12.5265 10.1646 9.25947 -3.4377 6.28 0.82C3.05 5.45 9.62 15.27 9.62 15.27C9.62 15.27 0.03 12.9 0 16.89C-0.03 20.88 9.73 19.79 9.73 19.79C8.22 21.62 5.2 30.15 8.77 31.43C12.33 32.72 13.74 20.66 13.74 20.66C14.06 23.56 16.43 30.15 19.48 28.1C22.53 26.05 16.22 19.81 16.22 19.81ZM11.07 15.79C11.15 15.39 11.34 15.03 11.63 14.75C11.91 14.46 12.27 14.27 12.67 14.19C13.06 14.11 13.47 14.15 13.84 14.31C14.21 14.46 14.53 14.72 14.75 15.06C14.97 15.39 15.09 15.78 15.09 16.18C15.09 16.72 14.87 17.23 14.49 17.61C14.11 17.99 13.59 18.2 13.06 18.2L13.06 18.21C12.66 18.21 12.27 18.09 11.93 17.87C11.6 17.65 11.34 17.33 11.19 16.96C11.03 16.59 10.99 16.18 11.07 15.79Z" /><g opacity="0.25" transform="translate(651.93 217.63)  rotate(0 10.325 8.68)"><path  id="Vector" style="stroke:#505C7B; stroke-width:0.8284807205200195; stroke-opacity:1; stroke-dasharray:0 0" transform="translate(0.53 0)  rotate(0 10.06 7.855)" d="M0,12.84C3.73,4.46 10.93,1.85 14.71,0.96C18.48,0.07 20.12,0 20.12,0C20.12,0 16.86,8.36 13.96,10.71C11.06,13.05 7.07,15.71 7.07,15.71 " /><path  id="Vector" style="stroke:#505C7B; stroke-width:0.8284807205200195; stroke-opacity:1; stroke-dasharray:0 0" transform="translate(0 3.57)  rotate(0 7 6.895)" d="M14,0C14,0 4.93,5.15 0,13.79 " /><path  id="Vector" style="stroke:#505C7B; stroke-width:0.8284807205200195; stroke-opacity:1; stroke-dasharray:0 0" transform="translate(2.06 13.87)  rotate(0 2.02 0.18)" d="M4.04,0L0,0.36 " /><path  id="Vector" style="stroke:#505C7B; stroke-width:0.8284807205200195; stroke-opacity:1; stroke-dasharray:0 0" transform="translate(7.75 8.45)  rotate(0 2.405 0)" d="M0,0L4.81,0 " /></g><g opacity="0.5" transform="translate(653.52 244.33)  rotate(0 12.035 7.64)"><path  id="Vector" style="stroke:#505C7B; stroke-width:0.8284807205200195; stroke-opacity:1; stroke-dasharray:0 0" transform="translate(4.97 0)  rotate(0 9.55 7.64)" d="M0.42,1.66C7.21,-0.67 17.79,0.03 19.1,0.37C19.1,0.37 18.07,12.31 0,15.28 " /><path  id="Vector" style="stroke:#505C7B; stroke-width:0.8284807205200195; stroke-opacity:1; stroke-dasharray:0 0" transform="translate(0 2.16)  rotate(0 10.17 4.63)" d="M20.34,0C15.03,0.52 3.04,4.55 0,9.26 " /><path  id="Vector" style="stroke:#505C7B; stroke-width:0.8284807205200195; stroke-opacity:1; stroke-dasharray:0 0" transform="translate(11.65 5.82)  rotate(0 3.52 0.34)" d="M7.04,0.68C7.04,0.68 3.12,-0.28 0,0.08 " /><path  id="Vector" style="stroke:#505C7B; stroke-width:0.8284807205200195; stroke-opacity:1; stroke-dasharray:0 0" transform="translate(3.91 7.94)  rotate(0 4.245 2.12)" d="M8.49,4.24C8.49,4.24 2.21,1.66 0,0 " /><path  id="Vector" style="stroke:#505C7B; stroke-width:0.8284807205200195; stroke-opacity:1; stroke-dasharray:0 0" transform="translate(7.94 1.15)  rotate(0 2.395 2.34)" d="M4.79,0C2.98,1.33 1.37,2.9 0,4.68 " /></g><g opacity="0.25" transform="translate(621.19 226.83)  rotate(0 10.135 9.325)"><path  id="Vector" style="stroke:#505C7B; stroke-width:0.8284807205200195; stroke-opacity:1; stroke-dasharray:0 0" transform="translate(0 0)  rotate(0 10.135 8.93)" d="M0,14.66C1.24,9.61 8.2,3.42 13.54,1.5C18.88,-0.42 19.89,0.05 19.89,0.05C19.89,0.05 23.34,11.33 9.44,17.86 " /><path  id="Vector" style="stroke:#505C7B; stroke-width:0.8284807205200195; stroke-opacity:1; stroke-dasharray:0 0" transform="translate(3.07 4.85)  rotate(0 6.875 6.9)" d="M13.75,0C13.75,0 7.24,4.61 0,13.8 " /><path  id="Vector" style="stroke:#505C7B; stroke-width:0.8284807205200195; stroke-opacity:1; stroke-dasharray:0 0" transform="translate(11.96 4.31)  rotate(0 0.105 2.31)" d="M0,4.62C0,4.62 -0.02,2.31 0.21,0 " /><path  id="Vector" style="stroke:#505C7B; stroke-width:0.8284807205200195; stroke-opacity:1; stroke-dasharray:0 0" transform="translate(6.75 7.64)  rotate(0 0.025 2.375)" d="M0.05,4.75C0.05,4.75 -0.06,2.94 0.05,0 " /><path  id="Vector" style="stroke:#505C7B; stroke-width:0.8284807205200195; stroke-opacity:1; stroke-dasharray:0 0" transform="translate(9.63 11.21)  rotate(0 2.52 0.415)" d="M5.04,0.83C3.34,0.69 1.65,0.41 0,0 " /></g><g opacity="0.5" transform="translate(593.51 252.74)  rotate(0 10.955 8.58)"><path  id="Vector" style="stroke:#505C7B; stroke-width:0.8284807205200195; stroke-opacity:1; stroke-dasharray:0 0" transform="translate(0 0)  rotate(0 10.955 8.58)" d="M21.23,0.73C14.6,-0.79 11.14,-0.31 7.28,5.76C3.41,11.83 -0.07,15.98 0,16.71C0.07,17.43 14.5,18.4 21.91,9.79 " /><path  id="Vector" style="stroke:#505C7B; stroke-width:0.8284807205200195; stroke-opacity:1; stroke-dasharray:0 0" transform="translate(1.82 5.68)  rotate(0 8.09 5.74)" d="M16.18,0C12.91,0.8 4.41,9.34 0,11.48 " /><path  id="Vector" style="stroke:#505C7B; stroke-width:0.8284807205200195; stroke-opacity:1; stroke-dasharray:0 0" transform="translate(12.58 8.58)  rotate(0 0.35 2.395)" d="M0,4.79C0.42,3.23 0.65,1.62 0.7,0 " /><path  id="Vector" style="stroke:#505C7B; stroke-width:0.8284807205200195; stroke-opacity:1; stroke-dasharray:0 0" transform="translate(8.82 6.06)  rotate(0 3.5 0.345)" d="M0,0C0,0 5.34,0.13 7,0.69 " /><path  id="Vector" style="stroke:#505C7B; stroke-width:0.8284807205200195; stroke-opacity:1; stroke-dasharray:0 0" transform="translate(4.72 9.3)  rotate(0 2.86 0.165)" d="M5.72,0.03C3.81,-0.06 1.89,0.04 0,0.33 " /></g><g opacity="0.5" transform="translate(577.77 250.54)  rotate(0 10.23 4.98)"><path  id="Vector" style="stroke:#505C7B; stroke-width:0.8284807205200195; stroke-opacity:1; stroke-dasharray:0 0" transform="translate(0 0)  rotate(0 10.23 4.98)" d="M20.46,8.26C14.93,10.52 3.45,11.41 0,5.22C0,5.22 3.64,-0.41 18.51,0.02 " /><path  id="Vector" style="stroke:#505C7B; stroke-width:0.8284807205200195; stroke-opacity:1; stroke-dasharray:0 0" transform="translate(1.42 5.18)  rotate(0 9.345 0.22)" d="M18.69,0.44C18.69,0.44 6.26,-0.42 0,0.27 " /><path  id="Vector" style="stroke:#505C7B; stroke-width:0.8284807205200195; stroke-opacity:1; stroke-dasharray:0 0" transform="translate(13.42 1.71)  rotate(0 2.185 1.845)" d="M4.37,3.69C4.37,3.69 2.42,1.24 0,0 " /><path  id="Vector" style="stroke:#505C7B; stroke-width:0.8284807205200195; stroke-opacity:1; stroke-dasharray:0 0" transform="translate(9.15 5.23)  rotate(0 1.42 1.865)" d="M0,3.73C0,3.73 2.36,1.21 2.84,0 " /></g><g opacity="0.5" transform="translate(584.99 201.13)  rotate(0 47.425 21.785)"><path  id="Vector" style="stroke:#54C3E5; stroke-width:1.2427210807800293; stroke-opacity:1; stroke-dasharray:0 0" transform="translate(74.11 33.35)  rotate(0 7.335 5.115)" d="M14.67,0C11.32,0.39 2.57,5.15 0,10.23 " /><path  id="Vector" style="stroke:#54C3E5; stroke-width:1.2427210807800293; stroke-opacity:1; stroke-dasharray:0 0" transform="translate(87.23 27.2)  rotate(0 1.66 2.81)" d="M0,5.62C0.26,2.02 1.87,-1.06 3.03,0.35C4.19,1.77 1.51,5.32 1.51,5.32 " /><path  id="Vector" style="stroke:#54C3E5; stroke-width:1.2427210807800293; stroke-opacity:1; stroke-dasharray:0 0" transform="translate(88.45 34.25)  rotate(0 2.705 2.23)" d="M0,0.32C2.57,4.18 4.24,4.95 5.21,4.21C6.17,3.47 3.47,1.35 1.54,0 " /><path  id="Vector" style="stroke:#54C3E5; stroke-width:1.2427210807800293; stroke-opacity:1; stroke-dasharray:0 0" transform="translate(89.68 29.02)  rotate(0 1.595 2.165)" d="M0.49,1C1.98,-0.42 3.15,-0.31 3.19,1.21C3.23,2.73 0,4.33 0,4.33 " /><path  id="Vector" style="stroke:#54C3E5; stroke-width:1.2427210807800293; stroke-opacity:1; stroke-dasharray:0 0" transform="translate(91.28 32.21)  rotate(0 1.79 1.645)" d="M0,0.16C2.14,-0.37 3.38,0.47 3.57,1.82C3.76,3.17 1.31,3.43 0.33,3.23 " /><path  id="Vector" style="stroke:#54C3E5; stroke-width:1.2427210807800293; stroke-opacity:1; stroke-dasharray:0 0" transform="translate(61.42 9.1)  rotate(0 1.81 5.925)" d="M0,11.85C0,11.85 2.43,9.36 3.62,0 " /><path  id="Vector" style="stroke:#54C3E5; stroke-width:1.2427210807800293; stroke-opacity:1; stroke-dasharray:0 0" transform="translate(59.2 5.82)  rotate(0 2.575 1.75)" d="M4.61,3.5C0.88,2.76 -0.89,0.85 0.44,0.11C1.76,-0.63 5.15,2.66 5.15,2.66 " /><path  id="Vector" style="stroke:#54C3E5; stroke-width:1.2427210807800293; stroke-opacity:1; stroke-dasharray:0 0" transform="translate(61.24 2.43)  rotate(0 1.895 2.745)" d="M0.86,4.23C-0.86,1.71 0.34,-0.12 1.46,0.01C2.59,0.13 3.79,5.49 3.79,5.49 " /><path  id="Vector" style="stroke:#54C3E5; stroke-width:1.2427210807800293; stroke-opacity:1; stroke-dasharray:0 0" transform="translate(63.93 2.41)  rotate(0 1.33 2.755)" d="M0.01,1.83C-0.22,-0.48 2.66,-0.73 2.66,1.83C2.66,4.38 1.97,5.51 1.97,5.51 " /><path  id="Vector" style="stroke:#54C3E5; stroke-width:1.2427210807800293; stroke-opacity:1; stroke-dasharray:0 0" transform="translate(66.22 3.84)  rotate(0 1.24 2.48)" d="M0.37,0.4C1.33,-0.5 3.05,0.16 2.29,1.99C1.78,3.15 0.99,4.17 0,4.96 " /><path  id="Vector" style="stroke:#54C3E5; stroke-width:1.2427210807800293; stroke-opacity:1; stroke-dasharray:0 0" transform="translate(66.94 5.82)  rotate(0 1.355 1.975)" d="M1.58,0C4.1,0.93 1.89,4.12 0,3.94 " /><path  id="Vector" style="stroke:#54C3E5; stroke-width:1.2427210807800293; stroke-opacity:1; stroke-dasharray:0 0" transform="translate(8.57 8.48)  rotate(0 4.7 5.2)" d="M9.4,10.4C9.4,10.4 7.12,5.45 0,0 " /><path  id="Vector" style="stroke:#54C3E5; stroke-width:1.2427210807800293; stroke-opacity:1; stroke-dasharray:0 0" transform="translate(6.22 0)  rotate(0 1.42 3.265)" d="M2.35,6.53C3.46,1.25 2.57,-1.14 0.79,0.53C-0.99,2.19 0.79,6.53 0.79,6.53 " /><path  id="Vector" style="stroke:#54C3E5; stroke-width:1.2427210807800293; stroke-opacity:1; stroke-dasharray:0 0" transform="translate(2.17 1.98)  rotate(0 2.205 2.98)" d="M4.22,2.34C2.22,-1.46 -1.77,-0.21 0.88,3.06C2.89,5.55 4.41,5.96 4.41,5.96 " /><path  id="Vector" style="stroke:#54C3E5; stroke-width:1.2427210807800293; stroke-opacity:1; stroke-dasharray:0 0" transform="translate(0.54 5.5)  rotate(0 2.735 2.215)" d="M5.47,4.43C0.42,3.19 -0.14,1.46 0.02,0.6C0.34,-1.04 3.98,1.2 3.98,1.2 " /><path  id="Vector" style="stroke:#54C3E5; stroke-width:1.2427210807800293; stroke-opacity:1; stroke-dasharray:0 0" transform="translate(0 9.01)  rotate(0 2.58 1.41)" d="M2.96,0C-2.51,1.93 0.41,3.99 5.16,2.02 " /></g><path id="Vector" fill-rule="evenodd" style="fill:#F06082" transform="translate(608.16 203.59)  rotate(0 16.58 12.565)" opacity="0.25" d="M24.45 21.16C28.91 18.21 36.19 9.03 31.8 7.49C27.5802 6.00471 22.6251 15.201 22.2832 15.8355C22.2775 15.8461 22.2731 15.8543 22.27 15.86C22.35 15.53 24.35 7.08 21.75 6.89C19.27 6.7 18.04 13.74 17.9 14.61C18.07 13.4 19.91 0.11 17.43 0C11.77 -0.24 13.75 17.57 13.75 17.57C13.75 17.57 7.32 4.1 5.48 7.99C4.07 10.99 6.3 17.19 11.01 22.23C10.75 22 1.23 14.45 0.13 16.43C-0.97 18.42 5.17 24.36 12.65 25.13C11.81 22.88 12.75 20.28 15.73 20.14C17.09 20.02 18.45 20.43 19.51 21.29C20.58 22.15 21.27 23.38 21.45 24.74L21.48 24.74C21.48 24.74 29.11 23.9 29.85 21.88C30.58 19.89 24.62 21.08 24.45 21.16Z" /><g opacity="0.25" transform="translate(588.13 221.15)  rotate(0 11.86 6.175)"><path  id="Vector" style="stroke:#505C7B; stroke-width:0.8284807205200195; stroke-opacity:1; stroke-dasharray:0 0" transform="translate(0 0)  rotate(0 11.86 6.175)" d="M23.72,6C18.33,0.23 4.22,-1.2 0.81,0.94C-2.6,3.08 5.39,13.74 12.78,12.2 " /><path  id="Vector" style="stroke:#505C7B; stroke-width:0.8284807205200195; stroke-opacity:1; stroke-dasharray:0 0" transform="translate(3.09 3.27)  rotate(0 6.355 2.425)" d="M12.71,4.85C12.71,4.85 8.02,1.24 0,0 " /><path  id="Vector" style="stroke:#505C7B; stroke-width:0.8284807205200195; stroke-opacity:1; stroke-dasharray:0 0" transform="translate(10.14 1.17)  rotate(0 0.51 2.205)" d="M1.02,4.41C1.02,4.41 0.81,1.29 0,0 " /><path  id="Vector" style="stroke:#505C7B; stroke-width:0.8284807205200195; stroke-opacity:1; stroke-dasharray:0 0" transform="translate(18.26 3.55)  rotate(0 0.035 1.8)" d="M0,3.6C0.09,2.4 0.09,1.2 0,0 " /><path  id="Vector" style="stroke:#505C7B; stroke-width:0.8284807205200195; stroke-opacity:1; stroke-dasharray:0 0" transform="translate(5.02 8.53)  rotate(0 2.815 0.73)" d="M5.63,0C3.68,0.16 1.78,0.66 0,1.46 " /></g><path id="Vector" fill-rule="evenodd" style="fill:#F06082" transform="translate(593.51 229.26)  rotate(0 13.37 12.66)" opacity="0.25" d="M20.25,0.05C17.91,0.24 18.71,5.75 18.71,5.75C18.71,5.75 14.7,-0.6 11.83,0.05C7.51,1.02 15.62,10.98 15.82,11.23C7.45,3.82 2.54,5.66 3.27,9.21C3.82,11.86 8.95,13.66 11.48,14.39C4.33,12.68 0.06,15.01 0,18.03C-0.06,21.15 11.71,18.17 12.3,18.03C11.8,18.21 3.7,21.31 4.06,24.17C4.42,27.03 13.17,24.21 16.4,19.36C14.86,18.82 13.96,17.46 14.83,15.09C16.12,11.57 22.68,9.62 24.11,11.98C26.39,9.35 27.49,5.94 26.17,5.26C24.53,4.37 22.66,7.09 22.66,7.09C22.92,4.19 22.59,-0.15 20.25,0.05Z " /><path  id="Vector" style="stroke:#505C7B; stroke-width:0.8284807205200195; stroke-opacity:1; stroke-dasharray:0 0" transform="translate(197.72 396.89)  rotate(0 41.37 31.615)" d="M82.74,63.23L0,0 " /><path  id="Vector" style="stroke:#505C7B; stroke-width:0.8284807205200195; stroke-opacity:1; stroke-dasharray:0 0" transform="translate(194.64 400.97)  rotate(0 41.6 30.94)" d="M83.2,61.88L0,0 " /><path  id="Vector" style="stroke:#505C7B; stroke-width:0.8284807205200195; stroke-opacity:1; stroke-dasharray:0 0" transform="translate(273.76 457.47)  rotate(0 9.19 16.47)" d="M11.61,0C5.31,1.59 -1.68,10.7 0.36,20.16C2.4,29.62 9.69,32.94 18.38,32.94 " /><path  id="Vector" style="stroke:#505C7B; stroke-width:0.8284807205200195; stroke-opacity:1; stroke-dasharray:0 0" transform="translate(234.05 393.31)  rotate(0 11.385 7.64)" d="M6,4.37C0.48,7.63 -1.64,10.75 1.37,14.38C4.37,18.01 17.01,9.57 20.15,7.66C23.28,5.74 23.12,2.55 22.15,1.49C19.05,-1.9 11.52,1.11 6,4.37Z " /><path  id="Vector" style="stroke:#505C7B; stroke-width:0.8284807205200195; stroke-opacity:1; stroke-dasharray:0 0" transform="translate(217.02 469.67)  rotate(0 12.655 22.86)" d="M25.31,45.72C11.64,35.21 2.46,19.28 0,0 " /><path  id="Vector" style="stroke:#505C7B; stroke-width:0.8284807205200195; stroke-opacity:1; stroke-dasharray:0 0" transform="translate(203.57 451.89)  rotate(0 18.795 41.19)" d="M37.59,82.38C6.16,63.62 -0.22,32.35 0.01,0 " /><path id="Vector" fill-rule="evenodd" style="fill:#F06082" transform="translate(301.81 540.15)  rotate(0 14.83 10.88)" opacity="0.5" d="M21.56,21.64C26.06,21.14 29.85,18.64 29.65,11.15C29.45,3.67 26.4,0 26.4,0C26.4,0 20.37,3.46 15.81,5.16C11.25,6.86 6.88,6.86 0,5.85C4.8,21.81 17.07,22.14 21.56,21.64Z " /><path  id="Vector" style="stroke:#F06082; stroke-width:1.2427210807800293; stroke-opacity:1; stroke-dasharray:0 0" transform="translate(292.92 505.1)  rotate(0 3.965 1.4)" d="M7.93,0C7.93,0 5.65,0.55 0,2.8 " /><path id="Vector" fill-rule="evenodd" style="fill:#F06082" transform="translate(290.28 471.07)  rotate(0 22.365 29.65)" opacity="0.5" d="M39.63,38.93C39.63,38.93 26.45,37.36 23.06,43.51C23.06,43.51 11.34,30.41 10.55,26.15C9.76,21.89 13.87,7.1 7.95,0C7.95,0 3.61,6.11 1.85,8.7C-0.39,11.97 -2.1,16.16 6.13,29.66C14.37,43.16 20.1,50.55 22.48,53.83C26.32,59.11 32.42,59.38 37.46,59.29C42.51,59.19 45.8,56.9 44.41,52.14C43.02,47.38 39.63,38.93 39.63,38.93Z " /><g opacity="0.5" transform="translate(294.3 468.27)  rotate(0 17.005 38.1)"><path  id="Vector" style="stroke:#F06082; stroke-width:1.2427210807800293; stroke-opacity:1; stroke-dasharray:0 0" transform="translate(9.02 59.4)  rotate(0 7.15 8.4)" d="M14.3,0C14.3,0 6.85,8.03 0,16.8 " /><path  id="Vector" style="stroke:#F06082; stroke-width:1.2427210807800293; stroke-opacity:1; stroke-dasharray:0 0" transform="translate(0 47.92)  rotate(0 16.245 10.48)" d="M32.49,20.96C24.38,20.6 11.94,12.75 0,0 " /><path  id="Vector" style="stroke:#F06082; stroke-width:1.2427210807800293; stroke-opacity:1; stroke-dasharray:0 0" transform="translate(5.15 0)  rotate(0 9.085 5.82)" d="M18.17,11.55C10.87,12.4 3.7,7.24 0,0 " /><path  id="Vector" style="stroke:#F06082; stroke-width:1.2427210807800293; stroke-opacity:1; stroke-dasharray:0 0" transform="translate(4.84 26.47)  rotate(0 14.585 5.77)" d="M29.17,11.54C21.44,2.54 6.42,-0.67 0,0.11 " /><path  id="Vector" style="stroke:#F06082; stroke-width:1.2427210807800293; stroke-opacity:1; stroke-dasharray:0 0" transform="translate(17.83 27.01)  rotate(0 5.035 9.28)" d="M10.07,0C5.86,3.72 0.93,11.07 0,18.56 " /></g><path  id="Vector" style="stroke:#505C7B; stroke-width:0.8284807205200195; stroke-opacity:1; stroke-dasharray:0 0" transform="translate(331.84 373.11)  rotate(0 23.955 25.55)" d="M0,51.1L47.91,0 " /><path  id="Vector" style="stroke:#505C7B; stroke-width:0.8284807205200195; stroke-opacity:1; stroke-dasharray:0 0" transform="translate(385.22 357.05)  rotate(0 4.79 5.11)" d="M0,10.22L9.58,0 " /><path  id="Vector" style="stroke:#F06082; stroke-width:0.8284807205200195; stroke-opacity:1; stroke-dasharray:0 0" transform="translate(160.22 362.26)  rotate(0 51.98 8.715)" d="M103.96,0C81.52,1.09 69.02,5.34 59.56,9.58C50.1,13.83 17.83,28.39 0,2.06 " /><path  id="Vector" style="stroke:#2C2F53; stroke-width:0.8284807205200195; stroke-opacity:1; stroke-dasharray:0 0" transform="translate(320.57 348.26)  rotate(0 1.415 4.945)" d="M2.83,0C1.67,3.23 0.73,6.54 0,9.89 " /><path  id="Vector" style="stroke:#2C2F53; stroke-width:0.8284807205200195; stroke-opacity:1; stroke-dasharray:0 0" transform="translate(56.26 115.17)  rotate(0 7.125 9.83)" d="M0,0C0,2.75 0.23,3.55 2.41,5.07C4.59,6.59 8.8,9.35 8.8,9.35C8.8,9.35 7.86,14.65 14.25,19.66 " /><path  id="Vector" style="stroke:#2C2F53; stroke-width:0.8284807205200195; stroke-opacity:1; stroke-dasharray:0 0" transform="translate(50.89 120.65)  rotate(0 4.31 1.14)" d="M0,0.56C3.79,1.34 7.78,2.57 8.36,2.22C8.94,1.86 8.36,0 8.36,0 " /><path  id="Vector" style="stroke:#2C2F53; stroke-width:0.8284807205200195; stroke-opacity:1; stroke-dasharray:0 0" transform="translate(52.53 122.86)  rotate(0 4.38 3.105)" d="M0,5.15C4.47,6.24 8.02,6.46 8.46,5.95C8.89,5.44 8.82,2.32 8.46,1.52C8.1,0.72 6.72,0 6.72,0 " /><path  id="Vector" style="stroke:#2C2F53; stroke-width:0.8284807205200195; stroke-opacity:1; stroke-dasharray:0 0" transform="translate(55.71 128.8)  rotate(0 4.155 3.04)" d="M0,5.56C3.39,5.89 7.75,6.54 8.18,5.56C8.62,4.58 7.81,2.18 7.67,1.53C7.53,0.87 5.28,0 5.28,0 " /><path  id="Vector" style="stroke:#2C2F53; stroke-width:0.8284807205200195; stroke-opacity:1; stroke-dasharray:0 0" transform="translate(56.26 139.05)  rotate(0 3.235 0.58)" d="M6.47,1.16C6.47,1.16 4,0.58 0,0 " /><path  id="Vector" style="stroke:#2C2F53; stroke-width:0.8284807205200195; stroke-opacity:1; stroke-dasharray:0 0" transform="translate(64.03 135.35)  rotate(0 1.535 2.435)" d="M0,0C2.27,0.94 3.07,1.16 3.07,2.04C3.07,2.91 1.54,4.87 1.54,4.87 " /><path id="Vector" fill-rule="evenodd" style="fill:#2C2F53" transform="translate(291.35 57.68)  rotate(0 6.365 10.645)" opacity="1" d="M9.03,0L0,5.92C0,9.78 1.64,13.18 7,12.35C7,12.35 4.89,16.98 9.25,21.29L9.44,21.04C16.89,11.15 9.4,0.52 9.03,0Z " /><path  id="Vector" style="stroke:#505C7B; stroke-width:0.8284807205200195; stroke-opacity:1; stroke-dasharray:0 0" transform="translate(298.27 65.26)  rotate(0 1.26 2.39)" d="M1.89,0.11C0.91,-0.27 -0.33,0.11 0.08,4.78C3.01,2.18 2.87,0.5 1.89,0.11Z " /><path  id="Vector" style="stroke:#505C7B; stroke-width:0.8284807205200195; stroke-opacity:1; stroke-dasharray:0 0" transform="translate(298.35 70.04)  rotate(0 5.545 1.53)" d="M11.09,0C7.76,3.46 2.44,4.66 0,0 " /><path  id="Vector" style="stroke:#F06082; stroke-width:0.8284807205200195; stroke-opacity:1; stroke-dasharray:0 0" transform="translate(300.38 49.5)  rotate(0 18.065 14.93)" d="M0,8.18C12.51,1.76 31.49,-3.39 35.24,2.76C39.61,9.96 27.74,18.64 3.52,29.86 " /><path  id="Vector" style="stroke:#F06082; stroke-width:0.8284807205200195; stroke-opacity:1; stroke-dasharray:0 0" transform="translate(187.16 83.59)  rotate(0 37.7 16.01)" d="M75.4,0C61.71,8.7 47.09,18.04 33.29,24.37C19.5,30.7 7.99,34.73 0,29.87 " /><path  id="Vector" style="stroke:#F06082; stroke-width:0.8284807205200195; stroke-opacity:1; stroke-dasharray:0 0" transform="translate(184.19 82.75)  rotate(0 32.235 13.38)" d="M0.17,26.76C-1.07,22.09 4.53,16.91 15.41,14.42C26.3,11.93 59.28,3.65 64.47,0 " /><path  id="Vector" style="stroke:#505C7B; stroke-width:0.8284807205200195; stroke-opacity:1; stroke-dasharray:0 0" transform="translate(205 104.64)  rotate(0 21.825 11.355)" d="M0,20.19C7.67,24.13 14.91,24.23 23.35,14.81C31.8,5.39 39.33,0.65 43.65,0 " /><path  id="Vector" style="stroke:#505C7B; stroke-width:0.8284807205200195; stroke-opacity:1; stroke-dasharray:0 0" transform="translate(242.52 108.78)  rotate(0 6.56 9.15)" d="M5.58,6.5C3.3,3.02 0.89,9.9 3.54,11.05C4.23,11.35 5.08,11.4 5.99,11.24C6.68,9.58 6.59,8.04 5.58,6.5Z M0,18.3C3.03,15.6 5.13,13.33 5.99,11.24 M5.99,11.24C8.59,10.77 11.63,8.61 12.55,5.75C13.84,1.74 12.55,0 12.55,0 " /><path  id="Vector" style="stroke:#2C2F53; stroke-width:0.8284807205200195; stroke-opacity:1; stroke-dasharray:0 0" transform="translate(259.28 95.42)  rotate(0 2.13 6.555)" d="M4.26,13.11C4.26,13.11 2.01,8.36 0,0 " /><path id="Vector" fill-rule="evenodd" style="fill:#F06082" transform="translate(246.86 55.86)  rotate(0 27.135 15.665)" opacity="0.5" d="M0,31.33L18.83,24.57L18.99,26.46L54.27,3L51.42,0L0,24.57L0,31.33Z " /><path  id="Vector" style="stroke:#F06082; stroke-width:0.8284807205200195; stroke-opacity:1; stroke-dasharray:0 0" transform="translate(247.98 47.78)  rotate(0 23.975 16.05)" d="M0,32.1C-0.05,19.18 6.86,5.9 21.9,1.08C36.93,-3.75 47.95,9.19 47.95,9.19 " /><path id="Vector" fill-rule="evenodd" style="fill:#2C2F53" transform="translate(273.58 86.29)  rotate(0 2.145 2.145)" opacity="1" d="M2.15,0C0.96,0 0,0.96 0,2.15C0,3.33 0.96,4.29 2.15,4.29C3.33,4.29 4.29,3.33 4.29,2.15C4.29,0.96 3.33,0 2.15,0Z " /><path id="Vector" fill-rule="evenodd" style="fill:#2C2F53" transform="translate(293.58 81.81)  rotate(0 1.845 1.845)" opacity="1" d="M1.85,0C0.83,0 0,0.83 0,1.85C0,2.86 0.83,3.69 1.85,3.69C2.86,3.69 3.69,2.86 3.69,1.85C3.69,0.83 2.86,0 1.85,0Z " /><path  id="Vector" style="stroke:#2C2F53; stroke-width:0.8284807205200195; stroke-opacity:1; stroke-dasharray:0 0" transform="translate(267.08 114.64)  rotate(0 12.35 4.235)" d="M24.7,7.71L24.22,7.86C17.4,9.87 9.04,6.62 3.09,2.44C2.01,1.69 0.98,0.88 0,0 " /><path  id="Vector" style="stroke:#2C2F53; stroke-width:0.8284807205200195; stroke-opacity:1; stroke-dasharray:0 0" transform="translate(266.73 77.03)  rotate(0 5.76 3.46)" d="M11.52,0.01C4.94,-0.16 2.07,3.34 0,6.92 " /><path  id="Vector" style="stroke:#2C2F53; stroke-width:0.8284807205200195; stroke-opacity:1; stroke-dasharray:0 0" transform="translate(287.91 72.8)  rotate(0 5.07 12.67)" d="M10.14,0.29C4.05,-0.59 1.03,0.4 0.34,4.79C-0.34,9.17 -0.01,12.69 1.44,16.53C2.9,20.37 5.07,25.34 5.07,25.34 " /><path  id="Vector" style="stroke:#2C2F53; stroke-width:0.8284807205200195; stroke-opacity:1; stroke-dasharray:0 0" transform="translate(270.17 88.44)  rotate(0 2.83 0.4)" d="M5.66,0C4.65,1.1 1.73,1.03 0,0 " /><path  id="Vector" style="stroke:#2C2F53; stroke-width:0.8284807205200195; stroke-opacity:1; stroke-dasharray:0 0" transform="translate(295.62 80.5)  rotate(0 1.805 1.58)" d="M3.61,0C3.43,1.99 1.38,3.22 0,3.16 " /><path  id="Vector" style="stroke:#2C2F53; stroke-width:0.8284807205200195; stroke-opacity:1; stroke-dasharray:0 0" transform="translate(285.8 94.19)  rotate(0 4.665 2.405)" d="M0,4.81C0.48,4.37 1.3,4.25 4.61,4.31C7.92,4.37 8.16,3.55 9.33,0 " /><path id="Vector" fill-rule="evenodd" style="fill:#2C2F53" transform="translate(277.81 104.45)  rotate(0 7.92 4.455)" opacity="1" d="M7.45,8.79C11.18,9.62 14.1,6.04 14.98,4.09C15.86,2.14 16.47,0.39 14.72,0.18C12.97,-0.03 2.89,-0.31 0.43,0.97C-1.55,2.02 3.72,7.96 7.45,8.79Z " /><path id="Vector" fill-rule="evenodd" style="fill:#FFFFFF" transform="translate(279.28 105.28)  rotate(0 6.01 1.57)" opacity="1" d="M1.52,2.56C2.3,2.99 6.82,3.27 8.97,3.08C11.13,2.9 12.19,1.06 12,0.54C11.8,0.02 2.59,-0.36 0.27,0.54C-0.57,0.87 0.73,2.14 1.52,2.56Z " /><g opacity="0.5" transform="translate(154.63 219.72)  rotate(0 73.29 40.385)"><path  id="Vector" style="stroke:#F06082; stroke-width:0.8284807205200195; stroke-opacity:1; stroke-dasharray:0 0" transform="translate(123.85 43.57)  rotate(0 7.87 18.595)" d="M15.74,37.19C15.74,37.19 8.58,15.74 0,0 " /><path  id="Vector" style="stroke:#F06082; stroke-width:0.8284807205200195; stroke-opacity:1; stroke-dasharray:0 0" transform="translate(103.56 13.02)  rotate(0 21.51 2.965)" d="M0,0C2.99,0.47 11.23,4.58 25.06,5.51C38.9,6.45 43.02,5.51 43.02,5.51 " /><path  id="Vector" style="stroke:#F06082; stroke-width:0.8284807205200195; stroke-opacity:1; stroke-dasharray:0 0" transform="translate(100.35 18.16)  rotate(0 4.43 1.095)" d="M8.86,2.19C6.29,1.79 3.59,1.46 0,0 " /><path  id="Vector" style="stroke:#F06082; stroke-width:0.8284807205200195; stroke-opacity:1; stroke-dasharray:0 0" transform="translate(115.2 21.14)  rotate(0 15.49 1.58)" d="M30.98,3.16C10.61,3.18 3.96,0.92 0,0 " /><path  id="Vector" style="stroke:#F06082; stroke-width:0.8284807205200195; stroke-opacity:1; stroke-dasharray:0 0" transform="translate(65.45 0)  rotate(0 15.17 6.175)" d="M0.07,12.35C-1.12,-0.36 12.97,-3.82 30.34,4.61 " /><path  id="Vector" style="stroke:#F06082; stroke-width:0.8284807205200195; stroke-opacity:1; stroke-dasharray:0 0" transform="translate(73.06 4.87)  rotate(0 12.85 2.9)" d="M25.7,2.62C10.23,-2.24 0.7,0.15 0,5.8 " /><path  id="Vector" style="stroke:#F06082; stroke-width:0.8284807205200195; stroke-opacity:1; stroke-dasharray:0 0" transform="translate(75.54 17.41)  rotate(0 9.02 4.14)" d="M18.04,8.22C12.45,8.89 3.57,4.17 0,0 " /><path  id="Vector" style="stroke:#F06082; stroke-width:0.8284807205200195; stroke-opacity:1; stroke-dasharray:0 0" transform="translate(68.3 17.41)  rotate(0 11.145 5.36)" d="M22.29,10.52C14.22,11.41 10.81,9.53 0,0 " /><path  id="Vector" style="stroke:#F06082; stroke-width:0.8284807205200195; stroke-opacity:1; stroke-dasharray:0 0" transform="translate(58.08 18.5)  rotate(0 17.75 9.03)" d="M35.5,0C35.5,0 12.11,15.78 0,18.06 " /><path  id="Vector" style="stroke:#F06082; stroke-width:0.8284807205200195; stroke-opacity:1; stroke-dasharray:0 0" transform="translate(44.47 13.02)  rotate(0 26.55 10.975)" d="M0.8,21.95C-6.34,5.78 36.15,0 53.1,0 " /><path  id="Vector" style="stroke:#F06082; stroke-width:0.8284807205200195; stroke-opacity:1; stroke-dasharray:0 0" transform="translate(44.79 30.04)  rotate(0 21.54 3.315)" d="M43.08,0C27.01,5.95 7.39,9.52 0,3.58 " /><path  id="Vector" style="stroke:#F06082; stroke-width:0.8284807205200195; stroke-opacity:1; stroke-dasharray:0 0" transform="translate(40.34 10.67)  rotate(0 28.345 14.895)" d="M38.26,27.79C22.64,30.04 8.62,32.53 2.39,22.25C-3.84,11.97 2.6,5.33 15.89,2.95C29.18,0.56 56.69,0 56.69,0 " /><path  id="Vector" style="stroke:#F06082; stroke-width:0.8284807205200195; stroke-opacity:1; stroke-dasharray:0 0" transform="translate(40.33 47.13)  rotate(0 16.005 11.465)" d="M20.98,15.59C14.19,19.83 10.36,22.93 7.87,22.93C5.38,22.93 0,21.74 0,18.75C0,17.44 20.24,13.98 32.01,0 " /><path  id="Vector" style="stroke:#F06082; stroke-width:0.8284807205200195; stroke-opacity:1; stroke-dasharray:0 0" transform="translate(0 39.87)  rotate(0 34.15 10.835)" d="M68.3,0C62.77,8.91 28.53,14.14 20.31,15.49C12.1,16.83 7.39,21.67 7.39,21.67C6.14,16.28 0,12.34 0,12.34C0,12.34 4.65,7.56 19.88,5.29C35.12,3.03 46.13,2.36 53.11,0 " /></g><path id="Vector" fill-rule="evenodd" style="fill:#54C3E5" transform="translate(10.59 88.88)  rotate(0 3.345 3.435)" opacity="0.25" d="M6.54,5.03C7.19,3.73 5.51,0.79 4.51,0.1C3.51,-0.58 1.38,2.24 0.06,5.22C-0.66,6.86 5.07,8 6.54,5.03Z " /><path id="Vector" fill-rule="evenodd" style="fill:#54C3E5" transform="translate(13.3 77.89)  rotate(0 1.99 5.575)" opacity="0.5" d="M3,0C0.84,-0.15 -1.11,7.03 0.74,11.15C3.43,7.51 5.17,0.16 3,0Z " /><path id="Vector" fill-rule="evenodd" style="fill:#54C3E5" transform="translate(8.91 77.13)  rotate(0 2.56 5.955)" opacity="0.5" d="M1.27,0C-1.64,-0.05 0.79,9.35 5.12,11.91C5.05,5.79 4.19,0.05 1.27,0Z " /><path id="Vector" fill-rule="evenodd" style="fill:#54C3E5" transform="translate(2.94 94.83)  rotate(0 4.46 3.175)" opacity="0.5" d="M7.81,0C2.67,0.29 -0.76,4.81 0.14,6.05C1.05,7.29 8.42,4.53 8.92,0.67C7.92,0.46 7.82,0 7.81,0Z " /><path id="Vector" fill-rule="evenodd" style="fill:#54C3E5" transform="translate(0 91.67)  rotate(0 5.835 2.69)" opacity="0.5" d="M0.07 4.07C0.92 5.94 4.79 5.95 10.77 3.16C10.76 3.16 10.09 3.06 11.67 0.44C6.46 -1.22 -0.78 2.2 0.07 4.07Z" /><path id="Vector" fill-rule="evenodd" style="fill:#54C3E5" transform="translate(4.53 80.82)  rotate(0 4.71 4.775)" opacity="0.5" d="M9.42,8.42C9.06,5.35 1.02,-1.26 0.2,0.21C-0.61,1.68 0.83,4.99 8.32,9.55L9.42,8.42Z " /><path id="Vector" fill-rule="evenodd" style="fill:#54C3E5" transform="translate(1.12 85.46)  rotate(0 5.99 3.495)" opacity="0.5" d="M11.98,4.57C5.84,-0.86 0.06,-0.85 0,1.5C-0.06,3.85 4.22,7.08 10.36,6.99L11.98,4.57Z " /><path id="Vector" fill-rule="evenodd" style="fill:#54C3E5" transform="translate(31.44 84.29)  rotate(0 1.875 1.875)" opacity="0.25" d="M1.88,0C0.84,0 0,0.84 0,1.88C0,2.91 0.84,3.75 1.88,3.75C2.91,3.75 3.75,2.91 3.75,1.88C3.75,0.84 2.91,0 1.88,0Z " /><path id="Vector" fill-rule="evenodd" style="fill:#54C3E5" transform="translate(29.59 72.19)  rotate(0 2.27 6.16)" opacity="0.5" d="M1.18,0.03C-0.84,0.58 -0.33,8.32 3.21,12.32C6.36,5.46 3.2,-0.51 1.18,0.03Z " /><path id="Vector" fill-rule="evenodd" style="fill:#54C3E5" transform="translate(32.8 75.98)  rotate(0 4.435 4.265)" opacity="0.5" d="M7.96,0.25C5.03,-1.35 -0.05,5.18 0,8.53C6.38,7.34 10.89,1.85 7.96,0.25Z " /><path id="Vector" fill-rule="evenodd" style="fill:#54C3E5" transform="translate(24.48 80.37)  rotate(0 4.425 2.62)" opacity="0.5" d="M0.2,0.69C-1,2.47 3.51,5.29 7.07,5.24C7.17,4.85 7.4,4.51 7.73,4.27C8.05,4.03 8.45,3.91 8.85,3.93C6.24,0.81 1.39,-1.1 0.2,0.69Z " /><path id="Vector" fill-rule="evenodd" style="fill:#54C3E5" transform="translate(22.65 85.54)  rotate(0 4.755 2.545)" opacity="0.5" d="M0.02,2.93C0.45,5.72 6.8,6.17 9.51,2.11C9.1,1.72 8.85,1.19 8.8,0.63C6.33,-0.74 -0.41,0.15 0.02,2.93Z " /><path id="Vector" fill-rule="evenodd" style="fill:#54C3E5" transform="translate(30.98 87.43)  rotate(0 2.07 3.83)" opacity="0.5" d="M1.18,7.4C3.34,8.85 5.26,3.92 3.37,0.31C3.37,0.31 1.82,0.88 1.02,0.05C0.37,-0.63 -0.98,5.96 1.18,7.4Z " /><path id="Vector" fill-rule="evenodd" style="fill:#54C3E5" transform="translate(34.35 86.7)  rotate(0 3.765 3.48)" opacity="0.5" d="M0.51,0.61C0.38,0.79 0.2,0.94 0,1.03C1.26,5.93 6.25,8.39 7.32,6.09C8.4,3.78 5.16,1.35 0.77,0C0.73,0.22 0.65,0.43 0.51,0.61Z " /><path id="Vector" fill-rule="evenodd" style="fill:#54C3E5" transform="translate(34.82 83.01)  rotate(0 6.115 3.09)" opacity="0.5" d="M0.3,3.69C0.3,3.69 4,7.23 9.11,5.87C14.22,4.52 12.47,0.64 8.01,0.07C5.37,-0.27 2.82,0.66 0,2.04C0.53,3.38 0.3,3.69 0.3,3.69Z " /><path id="Vector" fill-rule="evenodd" style="fill:#54C3E5" transform="translate(36.28 103.2)  rotate(0 2.115 2.115)" opacity="0.25" d="M2.12,0C0.95,0 0,0.95 0,2.12C0,3.28 0.95,4.23 2.12,4.23C3.28,4.23 4.23,3.28 4.23,2.12C4.23,0.95 3.28,0 2.12,0Z " /><path id="Vector" fill-rule="evenodd" style="fill:#54C3E5" transform="translate(29.96 97.28)  rotate(0 4.08 3.465)" opacity="0.5" d="M8.16,5.94C6.94,4.12 2.97,-1.03 0.67,0.18C-1.63,1.4 2.39,5.5 6.63,6.93C6.91,6.23 8.16,5.94 8.16,5.94Z " /><path id="Vector" fill-rule="evenodd" style="fill:#54C3E5" transform="translate(36.66 94.52)  rotate(0 1.955 4.49)" opacity="0.5" d="M1.46,8.69C1.69,8.64 1.94,8.64 2.17,8.69C2.41,8.73 2.63,8.84 2.83,8.98C5.36,3.63 2.83,-0.52 1.46,0.05C-1.82,1.41 1.46,8.69 1.46,8.69Z " /><path id="Vector" fill-rule="evenodd" style="fill:#54C3E5" transform="translate(27.58 102.53)  rotate(0 4.505 2.045)" opacity="0.5" d="M0.04,1.26C-0.53,3.15 5.23,5.29 8.74,3.28C8.65,2.73 8.74,2.17 9.01,1.68C5.69,-0.33 0.6,-0.62 0.04,1.26Z " /><path id="Vector" fill-rule="evenodd" style="fill:#54C3E5" transform="translate(24.9 105.77)  rotate(0 6.08 3.26)" opacity="0.5" d="M0.56,6C3.83,8.49 12.16,1.18 12.16,1.18C11.96,1.06 11.79,0.89 11.67,0.69C11.54,0.49 11.46,0.27 11.44,0.04C7.84,-0.43 -2.51,3.67 0.56,6Z " /><path id="Vector" fill-rule="evenodd" style="fill:#54C3E5" transform="translate(35.66 106.61)  rotate(0 2.09 4.16)" opacity="0.5" d="M2.28,0.76C1.79,0.66 1.36,0.39 1.05,0C-0.91,2.86 0.13,8 2.06,8.31C3.98,8.62 4.76,3.71 3.71,0.57C3.27,0.8 2.77,0.87 2.28,0.76Z " /><path id="Vector" fill-rule="evenodd" style="fill:#54C3E5" transform="translate(39.48 96.09)  rotate(0 4.47 4.675)" opacity="0.5" d="M1.08,9.35C1.08,9.35 8.35,6.64 8.9,2.92C9.44,-0.81 4.92,-1 2.59,2.54C1.55,4.06 0.69,5.69 0,7.41C0,7.41 0.87,7.82 1.08,9.35Z " /><path id="Vector" fill-rule="evenodd" style="fill:#54C3E5" transform="translate(39.35 106.34)  rotate(0 3.485 4.715)" opacity="0.5" d="M0.02,0.83C-0.41,5.7 5.1,10.97 6.71,9.01C7.93,7.56 4.67,2.11 0.88,0C0.71,0.37 0.4,0.67 0.02,0.83Z " /><path id="Vector" fill-rule="evenodd" style="fill:#54C3E5" transform="translate(40.06 105.25)  rotate(0 4.695 3.055)" opacity="0.5" d="M0.37,0.76C0.29,0.98 0.17,1.19 0,1.36C0,1.36 6.28,8.18 8.75,5.48C11.21,2.77 6.18,-0.46 0.45,0.06C0.47,0.29 0.45,0.53 0.37,0.76Z " /><path id="Vector" fill-rule="evenodd" style="fill:#DC6437" transform="translate(263 93.2)  rotate(0 7.205 7.205)" opacity="0.3" d="M7.21,0C3.23,0 0,3.23 0,7.21C0,11.18 3.23,14.41 7.21,14.41C11.18,14.41 14.41,11.18 14.41,7.21C14.41,3.23 11.18,0 7.21,0Z " /><path id="Vector" fill-rule="evenodd" style="fill:#2C2F53" transform="translate(270.18 117.1)  rotate(0 10.765 7.145)" opacity="1" d="M21.12,5.42C14.29,7.42 5.94,4.18 0,0C1.31,3.35 3.66,8.77 5.55,10.27C8.01,12.21 14.23,14.87 21.53,14.18C21.34,11.1 21.16,6.78 21.12,5.42Z " /><path  id="Vector" style="stroke:#505C7B; stroke-width:0.8284807205200195; stroke-opacity:1; stroke-dasharray:0 0" transform="translate(371.26 42.51)  rotate(0 5.81 1.125)" d="M11.62,2.25L0,0 " /><path  id="Vector" style="stroke:#505C7B; stroke-width:0.8284807205200195; stroke-opacity:1; stroke-dasharray:0 0" transform="translate(400.91 45.16)  rotate(0 2.435 0)" d="M0,0L4.87,0 " /><path  id="Vector" style="stroke:#2C2F53; stroke-width:0.8284807205200195; stroke-opacity:1; stroke-dasharray:0 0" transform="translate(531.94 220.58)  rotate(0 2.88 6.465)" d="M0.31,12.93C-0.33,9.98 0.13,9.65 0.78,9.07C1.43,8.48 5.54,4.83 5.75,4.37C5.96,3.91 2.88,0 2.88,0 " /><path  id="Vector" style="stroke:#2C2F53; stroke-width:0.8284807205200195; stroke-opacity:1; stroke-dasharray:0 0" transform="translate(537.46 216.08)  rotate(0 4.005 8.855)" d="M2.44,0C5.57,5.28 8.57,10.83 7.92,11.6C7.27,12.37 0,17.71 0,17.71 " /><path  id="Vector" style="stroke:#2C2F53; stroke-width:0.8284807205200195; stroke-opacity:1; stroke-dasharray:0 0" transform="translate(541.87 214.06)  rotate(0 5.005 11.495)" d="M0,22.99C2.85,20.29 9.18,15.26 9.95,14.15C10.71,13.04 4.27,0 4.27,0 " /><g opacity="0.5" transform="translate(589.35 270.78)  rotate(0 25.95 28.39)"><path  id="Vector" style="stroke:#54C3E5; stroke-width:1.2427210807800293; stroke-opacity:1; stroke-dasharray:0 0" transform="translate(39.15 0)  rotate(0 6.37 27.755)" d="M0,55.51C5.47,46.11 11.76,19.74 12.74,0 " /><path  id="Vector" style="stroke:#54C3E5; stroke-width:1.2427210807800293; stroke-opacity:1; stroke-dasharray:0 0" transform="translate(22.51 0)  rotate(0 9.735 25.645)" d="M0,51.29C0,51.29 12.72,36.46 19.47,0 " /><path  id="Vector" style="stroke:#F06082; stroke-width:0.8284807205200195; stroke-opacity:1; stroke-dasharray:0 0" transform="translate(29.92 1.39)  rotate(0 1.98 23.145)" d="M3.96,46.29C3.96,46.29 0.32,29.62 0,0 " /><path  id="Vector" style="stroke:#F06082; stroke-width:0.8284807205200195; stroke-opacity:1; stroke-dasharray:0 0" transform="translate(16.74 1.39)  rotate(0 4.215 25.92)" d="M0,51.84C0,51.84 7.83,22.08 8.43,0 " /><path  id="Vector" style="stroke:#F06082; stroke-width:0.8284807205200195; stroke-opacity:1; stroke-dasharray:0 0" transform="translate(4.21 1.39)  rotate(0 7.295 27.695)" d="M0,55.39C0,55.39 13.76,33.89 14.59,0 " /><path  id="Vector" style="stroke:#F06082; stroke-width:0.8284807205200195; stroke-opacity:1; stroke-dasharray:0 0" transform="translate(0 1.39)  rotate(0 5.72 23.145)" d="M0,46.29C0,46.29 9.67,28.08 11.44,0 " /></g><path  id="Vector" style="stroke:#F06082; stroke-width:0.8284807205200195; stroke-opacity:1; stroke-dasharray:0 0" transform="translate(620.51 223.71)  rotate(0 4.565 4.07)" d="M9.03,5.68C9.14,5.34 9.16,4.97 9.09,4.62C8.91,3.26 8.22,2.03 7.15,1.17C6.09,0.32 4.74,-0.1 3.37,0.02C0.39,0.17 -0.54,2.76 0.29,5.01C0.57,5.77 1.03,6.46 1.63,7C2.23,7.55 2.96,7.94 3.74,8.14 " /><path  id="Vector" style="stroke:#F06082; stroke-width:0.8284807205200195; stroke-opacity:1; stroke-dasharray:0 0" transform="translate(613.34 245.48)  rotate(0 3.16 3.385)" d="M6.32,6.77C4.54,4.23 2.41,1.95 0,0 " /><path  id="Vector" style="stroke:#F06082; stroke-width:0.8284807205200195; stroke-opacity:1; stroke-dasharray:0 0" transform="translate(607.98 240.2)  rotate(0 5.025 4.33)" d="M0.35,4.13C-1.05,7.89 2,9.15 5.1,8.49C8.2,7.84 10.75,6.01 9.87,1.63C9.21,-1.61 1.74,0.38 0.35,4.13Z " /><path id="Vector" fill-rule="evenodd" style="fill:#F06082" transform="translate(611.5 241.82)  rotate(0 14.99 12.8)" opacity="0.5" d="M18.83 20.4C18.83 20.4 24.79 24.54 26.04 22.82C27.2688 21.1193 21.7423 18.7131 21.2508 18.4991C21.2424 18.4954 21.2354 18.4924 21.23 18.49L21.2302 18.49C21.642 18.5503 29.7 19.7295 29.97 15.75C30.24 11.67 22.4 12.17 22.4 12.17C22.4 12.17 27.37 8.26 24.56 6C22.2316 4.11908 20.7203 7.71018 20.0999 9.1842C19.9716 9.48911 19.8814 9.70344 19.83 9.76C19.7598 9.83725 19.7849 9.36818 19.8261 8.59895C19.9609 6.08205 20.2677 0.351684 17.97 0.03C14.98 -0.39 13.09 3.24 15.25 10.14C15.25 10.14 9.69 -0.33 7.79 2.51C5.9 5.35 11.34 12.08 11.34 12.08C5.54 11.09 -0.97 14.24 0.12 17.78C1.17 21.22 9.95 16.19 10.41 15.92C10.03 16.22 3.64 21.37 4.61 23.38C5.58 25.38 13.58 18.55 13.58 18.55C13.58 18.55 9.51 24.46 13.25 25.48C16.99 26.51 18.83 20.4 18.83 20.4ZM17 17.23L17.02 17.24C16.46 17.24 15.91 17.07 15.45 16.76C14.98 16.45 14.62 16.01 14.41 15.49C14.19 14.98 14.14 14.41 14.25 13.86C14.36 13.31 14.63 12.81 15.02 12.41C15.42 12.02 15.92 11.75 16.47 11.64C17.02 11.53 17.59 11.59 18.1 11.8C18.62 12.02 19.06 12.38 19.37 12.85C19.68 13.31 19.84 13.86 19.84 14.42C19.84 14.79 19.77 15.16 19.62 15.5C19.48 15.84 19.27 16.15 19.01 16.41C18.74 16.67 18.43 16.88 18.09 17.02C17.74 17.16 17.37 17.23 17 17.23Z" /></g></svg>