<svg xmlns="http://www.w3.org/2000/svg" xmlns:xlink="http://www.w3.org/1999/xlink" width="319" height="602" viewBox="0 0 319 602" fill="none"><g opacity="1" transform="translate(0 0.002685546875)  rotate(0 159.02 300.44)"><path id="Vector" fill-rule="evenodd" style="fill:#FCC9A1" transform="translate(16.04 372.68)  rotate(0 26.175 8.69)" opacity="1" d="M25.43,0C25.43,0 23.62,7.72 23.14,8.19C22.66,8.66 8.12,10.74 0,12.09C5.26,15.07 13.21,18.2 21.8,17.19C32.09,15.98 38.38,13.71 51.09,14.15C51.75,9.21 52.21,5.08 52.35,4.2C52.35,4.2 35.53,2.75 25.43,0Z " /><path id="Vector" fill-rule="evenodd" style="fill:#505C7B" transform="translate(0 384.2)  rotate(0 33.67 11.88)" opacity="0.5" d="M18.93,15.84C27.38,16.53 44.98,19.49 49.05,20.81C53.12,22.13 62.08,27.22 64.12,19.89C65.24,15.87 66.32,8.65 67.12,2.64C67.2,2.08 67.27,1.52 67.34,0.99C59.44,0.09 46.13,2.42 36.27,3.51C30.54,4.11 24.76,2.88 19.77,0C18.44,0.21 17.18,0.41 16.04,0.6C15.48,0.69 14.95,0.78 14.45,0.87C6.82,2.19 0,5.99 0,9.62C0,11.35 10.48,15.14 18.93,15.84Z " /><path id="Vector" fill-rule="evenodd" style="fill:#DC6437" transform="translate(97.06 0)  rotate(0 56.935 58.525)" opacity="0.75" d="M8.72,14.74C-3.36,29.62 7.92,42.38 7.68,46.6C7.44,50.82 0,62.34 0,62.34C0,62.34 8.8,110.18 8.8,110.42C8.8,110.66 33.92,116.95 34.24,117.05C34.55,117.15 49.52,113.04 49.52,113.04C49.52,113.04 49.83,100.26 54.39,97.62C58.95,94.99 60.64,92.65 61.43,91.07L67.45,85.16L88.73,75.24C97.74,69.68 107.94,64.56 113.86,63.84C113.86,63.84 114.31,53.8 109.51,49.8C104.71,45.79 98.49,44.52 93.6,44.83C88.71,45.14 83.66,46.59 81.43,37.22C79.21,27.86 76.15,20.02 72.47,18.34C72.47,18.34 71.75,13.37 60.15,4.82C48.56,-3.73 37.37,0.42 35.44,6.98C34.27,6.26 32.96,5.78 31.59,5.59C30.23,5.4 28.84,5.49 27.52,5.86C27.52,5.86 18.6,2.57 8.72,14.74Z " /><g opacity="0.75" transform="translate(105.82 5.87)  rotate(0 48.615 53.58)"><path  id="Vector" style="stroke:#DC6437; stroke-width:0.8284807205200195; stroke-opacity:1; stroke-dasharray:0 0" transform="translate(18.75 0)  rotate(0 2.595 2.015)" d="M0,0C1.59,0.62 4.61,1.83 5.19,4.03 " /><path  id="Vector" style="stroke:#DC6437; stroke-width:0.8284807205200195; stroke-opacity:1; stroke-dasharray:0 0" transform="translate(28.46 3.88)  rotate(0 14.01 3.485)" d="M0,0.98C2,-1.02 5.1,0.27 9.11,2.85C13.13,5.43 22.02,8.59 28.02,6.01 " /><path  id="Vector" style="stroke:#DC6437; stroke-width:0.8284807205200195; stroke-opacity:1; stroke-dasharray:0 0" transform="translate(26.98 7.06)  rotate(0 19.36 4.65)" d="M0,0.01C2.65,-0.19 7.55,5.04 12.32,7.62C17.1,10.2 25.42,9.49 28.39,7.62C31.36,5.75 36.72,5.61 38.72,6.97 " /><path  id="Vector" style="stroke:#DC6437; stroke-width:0.8284807205200195; stroke-opacity:1; stroke-dasharray:0 0" transform="translate(0 7.83)  rotate(0 11.675 31.46)" d="M0,62.92C0.07,53.25 1.34,46.96 3.42,41.76C6.78,33.37 5.08,24.72 4.71,15.11C4.3,4.38 17.94,-4.06 23.35,2.07 " /><path  id="Vector" style="stroke:#DC6437; stroke-width:0.8284807205200195; stroke-opacity:1; stroke-dasharray:0 0" transform="translate(12.08 9.78)  rotate(0 3.62 1.225)" d="M7.24,2.45C6.33,1.48 5.19,0.76 3.92,0.36C2.65,-0.04 1.3,-0.11 0,0.17 " /><path  id="Vector" style="stroke:#DC6437; stroke-width:0.8284807205200195; stroke-opacity:1; stroke-dasharray:0 0" transform="translate(7.14 13.88)  rotate(0 3.76 0.455)" d="M7.52,0.47C6.85,0.16 3.46,-0.6 0,0.91 " /><path  id="Vector" style="stroke:#DC6437; stroke-width:0.8284807205200195; stroke-opacity:1; stroke-dasharray:0 0" transform="translate(5.03 18.61)  rotate(0 2.615 0.5)" d="M5.23,0.04C5.23,0.04 1.87,-0.29 0,1 " /><path  id="Vector" style="stroke:#DC6437; stroke-width:0.8284807205200195; stroke-opacity:1; stroke-dasharray:0 0" transform="translate(6.07 45.63)  rotate(0 3.89 30)" d="M4.61,0C3.56,3.8 -2.1,13.55 0.84,19.74C3.77,25.93 8.68,32.16 7.64,38.82C6.28,47.44 1.36,50.46 2.41,60 " /><path  id="Vector" style="stroke:#DC6437; stroke-width:0.8284807205200195; stroke-opacity:1; stroke-dasharray:0 0" transform="translate(23.36 62.64)  rotate(0 4.105 22.265)" d="M0,0C1.18,7.49 3.62,11.04 6.07,13.48C8.52,15.93 9.3,19.8 6.07,23.51C2.84,27.22 -1.25,31.64 1.42,44.53 " /><path  id="Vector" style="stroke:#DC6437; stroke-width:0.8284807205200195; stroke-opacity:1; stroke-dasharray:0 0" transform="translate(59.13 31.27)  rotate(0 14.12 15.995)" d="M22.97,23.59C27.81,21.61 24.25,17.37 21.32,18.98C19.4,20.03 19.79,22.05 21.24,23.91C21.82,23.92 22.41,23.82 22.97,23.59Z M0,0C5.8,2.25 10.32,5.94 11.38,11.99C12.3,17.33 16.86,23.82 21.24,23.91 M21.24,23.91C22.01,24.9 23.09,25.84 24.28,26.57C28.55,29.19 28.23,31.99 28.23,31.99 " /><path  id="Vector" style="stroke:#DC6437; stroke-width:0.8284807205200195; stroke-opacity:1; stroke-dasharray:0 0" transform="translate(72.97 32.5)  rotate(0 12.13 12.91)" d="M0,0C2.34,8.28 5.3,9.19 10.42,10.43C15.54,11.67 22.06,15.86 24.26,25.82 " /></g><path id="Vector" fill-rule="evenodd" style="fill:#FCC9A1" transform="translate(119.32 103.41)  rotate(0 64.895 32.045)" opacity="1" d="M129.72,46.84C124.8,35.9 108.22,33.61 101.31,33.08C96.23,29.9 74.22,24.12 65.98,19.76C60.16,16.69 31.96,2.77 28.8,1.31C25.64,-0.16 21.47,-0.25 20.33,0.34C19.18,0.94 11.04,5.4 8.59,6.94C6.14,8.48 -1.4,13.16 0.23,14.43C0.66,14.78 1.16,15.04 1.7,15.18C2.23,15.32 2.79,15.35 3.34,15.26C2.2,16.12 2.29,17.4 3.24,17.93C4.79,18.79 5.39,18.87 6.7,18.2C6.7,19.6 7.15,21.61 11.48,20.49C15.82,19.37 27.32,17.71 27.32,17.71C18.6,20.37 11.43,22.33 11.43,23.57C11.43,24.51 13.19,26.49 15.52,26.15C18.02,25.77 20.88,24.6 24.12,23.8C28.15,22.81 32.23,23.01 33.01,24.7C33.78,26.39 36.53,29.26 39.14,29.63C42.59,30.12 51.38,30.62 51.38,30.62C53.63,31.32 62.65,37.3 69.46,43.56C76.28,49.82 92.18,61.44 99.29,63.4C106.4,65.37 120.89,62.56 122.93,61.78C124.97,61.01 130.46,48.5 129.72,46.84Z " /><path id="Vector" fill-rule="evenodd" style="fill:#FCC9A1" transform="translate(43.07 132.93)  rotate(0 54.55 21.08)" opacity="1" d="M95.73,32.64C99.91,32.48 107.63,28.93 107.78,28.15C107.94,27.38 104.69,25.99 103.61,25.99C103.61,25.99 109.02,24.36 109.1,23.75C109.17,23.13 108.32,20.51 103.84,19.97C103.84,19.97 106.31,18.26 105.85,17.1C105.38,15.95 102.52,15.09 100.98,14.86C99.43,14.63 87.38,13.39 87.38,13.39C87.38,13.39 88.77,11.92 87.77,10.68C86.76,9.45 77.88,4.88 76.64,3.89C75.4,2.9 67.13,12.32 67.13,12.32C67.13,12.32 53.92,11.15 48.28,10.07C42.64,9 36,5.69 33.6,4.8C33.6,4.8 22.57,0.12 20.34,0.12C18.12,0.12 13.88,-0.15 11.33,0.12C8.78,0.39 7.59,0.77 5.38,2.66C2.74,6.23 0.5,9.69 0.15,11.55C-0.78,16.42 2.93,21.44 3.55,21.44C4.17,21.44 6.7,21.68 8.11,22.75C9.51,23.82 15.37,27.99 21.94,29.38C28.51,30.77 65.52,30.69 65.52,30.69C65.52,30.69 80.59,39.12 83.14,40.51C85.68,41.9 86.93,42.71 91.71,41.73C96.49,40.74 99.75,39.68 100.21,39.09C100.67,38.5 99.36,35.87 97.04,35.95C94.72,36.03 88.85,37.19 88.85,37.19L83.85,33.73C83.85,33.73 91.54,32.79 95.73,32.64Z " /><path  id="Vector" style="stroke:#2C2F53; stroke-width:0.8284807205200195; stroke-opacity:1; stroke-dasharray:0 0" transform="translate(119.92 144.29)  rotate(0 5.265 1.28)" d="M0,0C2.07,1.11 4.76,2.39 5.27,2.46C6.19,2.61 9.15,2.66 10.53,2.05 " /><path  id="Vector" style="stroke:#2C2F53; stroke-width:0.8284807205200195; stroke-opacity:1; stroke-dasharray:0 0" transform="translate(126.34 152.91)  rotate(0 10.295 0.915)" d="M20.59,0C20.59,0 4.08,1.25 0,1.83 " /><path  id="Vector" style="stroke:#2C2F53; stroke-width:0.8284807205200195; stroke-opacity:1; stroke-dasharray:0 0" transform="translate(127.84 158.92)  rotate(0 9.42 0.885)" d="M18.84,0C16.21,0.11 2.4,1.51 0,1.77 " /><path id="Vector" fill-rule="evenodd" style="fill:#54C3E5" transform="translate(73.14 138.48)  rotate(0 0.065 0.035)" opacity="0.5" d="M0.13,0.05L0,0C-0.01,0.07 0.03,0.09 0.13,0.05Z " /><path id="Vector" fill-rule="evenodd" style="fill:#54C3E5" transform="translate(62.68 120.2)  rotate(0 64 33.185)" opacity="0.5" d="M88.31,35.77C88.81,36.28 81.36,38.91 81.36,38.91C81.36,38.91 86.54,40.39 86.35,40.96C86.16,41.52 79.02,43.93 77.44,44.23C75.87,44.53 61.44,45.66 61.44,45.66C61.44,45.66 68.27,50.62 68.9,50.95C69.52,51.28 77.3,49.36 77.81,49.24C78.31,49.11 79.89,50.7 79.58,51.44C79.26,52.19 68.67,54.04 67.32,53.84C65.97,53.65 46.19,41.74 46.19,41.74C15.74,42.46 0,39.94 0,39.94L0.8,41.74C3.46,48.06 9.27,57.34 13.3,60.38C13.63,62.28 13.97,64.24 14.29,66.11C23.59,66.74 51.36,67.18 94.93,55.52C95.67,56.23 96.42,56.96 97.21,57.71C97.21,57.71 116.27,47.12 127.01,27.59L128,25.72C118.67,17.81 109.37,12.33 108.62,12.14C107.88,11.94 99.17,11.89 97.52,11.69C95.88,11.49 92.69,9.88 91.66,8.17C90.64,6.47 88.09,5.11 85.64,5.11C83.18,5.11 77.72,6.8 74.04,8.08C71.23,9.05 68.41,7.57 69.04,6.69C69.68,5.8 88.32,0.56 88.32,0.56C83.99,-1.65 66.3,3.43 65.41,3.11C64.52,2.79 64.25,0.09 64.25,0.09C64.25,0.09 63.68,0.24 62.98,0.37C59.48,6.23 53.98,12.9 49.21,16.3C42.47,21.11 42.41,20.95 34.38,18.69C28.58,17.08 22.11,13.29 18.93,11.24C15.43,14.69 11.37,18.04 10.6,18.33C14.76,19.78 24.68,23.39 27.46,24.09C30.24,24.79 48.22,26.64 48.22,26.64C48.22,26.64 55.24,18.67 56.13,18.36C57.02,18.05 65.83,22.61 67.09,23.94C68.36,25.27 63.24,27.18 63.24,27.18C63.24,27.18 83.27,28.23 84.66,29.77C86.05,31.31 80.85,32.96 80.85,32.96C86.08,34.01 87.8,35.26 88.31,35.77Z " /><path id="Vector" fill-rule="evenodd" style="fill:#54C3E5" transform="translate(77 175.73)  rotate(0 49.94 19.69)" opacity="0.25" d="M97.56,15.38C92.87,11.3 87.48,6.49 82.93,2.19C82.14,1.45 81.38,0.71 80.64,0C37.07,11.66 9.29,11.21 0,10.58C0.53,13.63 1.02,16.46 1.34,18.45C1.77,21.25 3.18,29.73 4.58,38.4C28.46,43.01 86.12,29.98 99.88,26.72C98.99,22.96 98.14,18.98 97.56,15.38Z " /><path id="Vector" fill-rule="evenodd" style="fill:#54C3E5" transform="translate(101.06 564.16)  rotate(0 38.45 16.525)" opacity="0.5" d="M75.65,30.94C77.21,30.46 76.82,27.67 76.82,27.67C76.82,27.67 77,19.4 76.82,17.57C76.46,13.86 74.58,7.37 73.37,3.12C72.9,1.45 72.32,0 72.32,0C72.32,0 43.97,3.06 36.57,3.52L35.18,7.52L39.52,10.51C39.52,10.51 26.79,18.51 26.64,18.42C25.38,17.65 24.02,17.08 22.59,16.71C16.17,16.83 9.23,20.87 6.37,22.96C3.52,25.04 -0.23,30.45 0.01,33.05C0.01,33.05 74.09,31.42 75.65,30.94Z " /><path  id="Vector" style="stroke:#54C3E5; stroke-width:0.8284807205200195; stroke-opacity:1; stroke-dasharray:0 0" transform="translate(98.78 306.68)  rotate(0 16.16 130.745)" d="M0.05,0C-0.16,15.72 0.27,65.14 1.56,86.16C2.85,107.24 11.24,165.11 32.32,261.49 " /><path  id="Vector" style="stroke:#54C3E5; stroke-width:0.8284807205200195; stroke-opacity:1; stroke-dasharray:0 0" transform="translate(153.05 400.94)  rotate(0 11.685 83.165)" d="M0.16,0C-0.15,11.96 -0.03,20.23 0.74,21.38C1.5,22.54 5.33,28.41 7.49,46.89C9.66,65.37 13.87,104.25 14.76,114.96C15.65,125.67 19.99,148.99 21.39,155.11C22.79,161.23 23.81,163.27 23.18,164.16C22.54,165.06 21.39,166.33 21.39,166.33 " /><path  id="Vector" style="stroke:#54C3E5; stroke-width:0.8284807205200195; stroke-opacity:1; stroke-dasharray:0 0" transform="translate(184.62 303.7)  rotate(0 5.785 7.43)" d="M0,1.81C1.8,9.55 3.9,13.03 11.57,14.86L9.24,0 " /><path  id="Vector" style="stroke:#54C3E5; stroke-width:0.8284807205200195; stroke-opacity:1; stroke-dasharray:0 0" transform="translate(161.16 304.56)  rotate(0 70.77 123.285)" d="M36.36,0C36.36,0 52.86,89.7 54.56,90.62C56.25,91.54 58.1,91.54 58.26,94.94C58.41,98.33 57.33,104.19 59.03,104.81C60.72,105.43 64.12,103.73 65.35,105.58C66.59,107.43 66.28,108.97 68.9,109.44C71.52,109.9 80.31,122.08 84.94,127.94C89.57,133.81 95.12,141.67 97.12,146.92C99.13,152.16 141.54,225.73 141.54,225.73C141.54,225.73 111.47,245.78 108.69,246.24C105.92,246.71 104.37,247.01 103.45,244.7C102.52,242.39 99.74,239 97.74,235.76C95.73,232.53 59.49,183.78 48.54,171.6C37.59,159.41 17.93,135.63 16.3,131.8C13.96,126.28 4.65,110.09 0,92.75 " /><path  id="Vector" style="stroke:#54C3E5; stroke-width:0.8284807205200195; stroke-opacity:1; stroke-dasharray:0 0" transform="translate(197.35 324.96)  rotate(0 10.945 39.99)" d="M0,0C2.38,14.37 7.15,37.58 10.95,59.62C12.83,70.56 17.72,78.41 21.89,79.98 " /><path  id="Vector" style="stroke:#54C3E5; stroke-width:0.8284807205200195; stroke-opacity:1; stroke-dasharray:0 0" transform="translate(213.78 416.8)  rotate(0 5.59 5.535)" d="M0,11.04C0.8,11.52 7.37,6.09 11.18,0 " /><path  id="Vector" style="stroke:#54C3E5; stroke-width:0.8284807205200195; stroke-opacity:1; stroke-dasharray:0 0" transform="translate(203.53 411.32)  rotate(0 6.97 4.185)" d="M13.94,4.21C7.23,7.76 0.13,9.34 0,7.76C-0.13,6.18 13.94,0 13.94,0 " /><path id="Vector" fill-rule="evenodd" style="fill:#F06082" transform="translate(225.04 180.69)  rotate(0 22.595 10.075)" opacity="0.5" d="M30.99,18.43C37.77,17.44 45.19,14.52 45.19,14.52C45.19,14.52 44.92,2.51 43.35,0C43.35,0 37.3,8.07 31.6,8.94C27.07,9.64 0,10.26 0,10.26L3.88,20.15C12.95,20.16 22,19.58 30.99,18.43Z " /><path id="Vector" fill-rule="evenodd" style="fill:#54C3E5" transform="translate(180.67 168.27)  rotate(0 25.19 34.33)" opacity="0.5" d="M5.31,39.64C6.4,40.47 9.22,41.55 9.22,41.55L8.12,48.83L8.06,48.89C7.63,51.18 7.12,53.6 6.63,55.8L6.66,55.8L8.43,56.76C10.77,58 12.69,59.01 14.43,59.82C17.09,61.09 19.88,62.06 22.75,62.72L22.79,62.72C23.56,62.9 24.38,63.07 25.27,63.24C26.84,63.54 28.38,63.94 29.9,64.43C31.36,64.9 32.8,65.45 34.19,66.09C36.48,67.12 38.06,68.13 38.5,68.66C50.63,43.48 50.8,36.98 50.19,33.01C50.19,32.88 50.15,32.74 50.12,32.6C49.7,30.67 48.39,27.21 46.33,22.66C43.59,16.61 39.54,8.68 34.64,0C31.56,3.59 17.5,19.33 0,28.17L6.93,34.1C6.93,34.1 4.22,38.8 5.31,39.64Z " /><path id="Vector" fill-rule="evenodd" style="fill:#F4B29C" transform="translate(149.48 231.19)  rotate(0 31.595 28.84)" opacity="1" d="M38.58,0C38.58,0 35.54,12.9 32.03,21.81C28.52,30.72 24.1,38.29 19.42,39.35C13.67,40.65 2.93,38.97 0.08,39.35C0.08,39.35 -0.58,42.2 1.88,46.08C4.35,49.97 7.27,55.89 7.38,57.68C7.38,57.68 21.05,57.47 23.31,56.81C25.56,56.14 40.22,49.7 48.31,35.26C56.39,20.83 63.19,9.03 63.19,9.03C52.73,3.82 44.88,3.56 38.58,0Z " /><path id="Vector" fill-rule="evenodd" style="fill:#FCC9A1" transform="translate(126.99 356.58)  rotate(0 22.595 19.725)" opacity="1" d="M40.78,0L15.34,7.96C15.34,7.96 18.38,14.45 17.58,16.02C16.1,19.01 8.12,29.04 0.85,37.56C0.56,37.9 0.28,38.23 0,38.56C3.96,38.29 7.93,38.59 11.81,39.45C11.81,39.45 34.03,18.08 45.19,15.23C42.99,7.66 40.78,0 40.78,0Z " /><path  id="Vector" style="stroke:#F06082; stroke-width:0.8284807205200195; stroke-opacity:1; stroke-dasharray:0 0" transform="translate(77.23 127.9)  rotate(0 4.65 4.71)" d="M0,9.42C7.04,4.2 9.3,0 9.3,0 " /><path  id="Vector" style="stroke:#F06082; stroke-width:0.8284807205200195; stroke-opacity:1; stroke-dasharray:0 0" transform="translate(51.74 120.06)  rotate(0 0.72 4.555)" d="M0.05,0C0.05,0.86 -0.41,3.47 1.44,9.11 " /><path  id="Vector" style="stroke:#F06082; stroke-width:0.8284807205200195; stroke-opacity:1; stroke-dasharray:0 0" transform="translate(52.46 101.65)  rotate(0 8.375 8.08)" d="M16.75,0C2.49,8.7 0.64,14.38 0,16.16 " /><path id="Vector" fill-rule="evenodd" style="fill:#F4B29C" transform="translate(75.15 88.98)  rotate(0 24.92 22.54)" opacity="1" d="M0,16.69C0,16.69 4.25,23.73 7.56,29.19L8.22,30.28C9.84,32.92 11.13,35.03 11.37,35.41C12.15,36.58 11.37,38.92 11.37,38.92C11.37,38.92 26.37,48.56 32.53,43.72C40.62,37.36 49.84,23.24 49.84,23.24C49.84,23.24 46.66,22.35 44.17,21.86C41.67,21.37 34.67,8.12 30.28,0L14.13,8.9L0,16.69Z " /><path id="Vector" fill-rule="evenodd" style="fill:#2C2F53" transform="translate(75.15 93.14)  rotate(0 15.7 13.28)" opacity="1" d="M31.19,0L14.13,4.75L0,12.54C0,12.54 4.25,19.58 7.56,25.04C10.98,25.83 14.38,26.5 16.56,26.55C22,26.68 28.56,24.69 30.83,19.36C31.85,16.94 31.19,0 31.19,0Z " /><path id="Vector" fill-rule="evenodd" style="fill:#F4B29C" transform="translate(51.76 45.67)  rotate(0 28.905 34.16)" opacity="1" d="M50.14,24.23C50.14,24.23 45.94,8.51 44.39,4.38C42.83,0.25 17.19,-1.3 11.63,1.21C6.07,3.72 0.69,19.45 0.03,22.15C-0.62,24.85 8.45,41.2 8.45,41.2C8.45,41.2 4.81,41.51 4.1,42.28C3.38,43.05 2.6,46.52 6.43,50.65C10.26,54.77 15.82,53.51 15.82,53.51C15.82,53.51 19.83,59.74 20.79,60.69C21.74,61.65 26.7,65.48 33.16,67.37C39.62,69.26 45.24,68.17 48.64,65.59C52.05,63.02 56.77,47.18 56.83,44.67C56.89,42.16 54.56,37.02 54.56,37.02C58.08,35.59 58.32,28.65 57.25,25.78C56.18,22.91 52.53,20.08 50.14,24.23Z " /><path  id="Vector" style="stroke:#2C2F53; stroke-width:0.8284807205200195; stroke-opacity:1; stroke-dasharray:0 0" transform="translate(77.53 93.66)  rotate(0 15.215 10.165)" d="M30.43,0C29.01,5.53 25.55,15.6 22.9,17.6C19.49,20.18 13.87,21.27 7.41,19.38C4.83,18.6 2.34,17.53 0,16.18 " /><path  id="Vector" style="stroke:#2C2F53; stroke-width:0.8284807205200195; stroke-opacity:1; stroke-dasharray:0 0" transform="translate(84.24 69.11)  rotate(0 3.42 9.365)" d="M0.02,0C-0.14,3.2 0.53,6.39 1.98,9.25C3.55,12.34 6.29,17.75 6.84,18.73 " /><path  id="Vector" style="stroke:#2C2F53; stroke-width:0.8284807205200195; stroke-opacity:1; stroke-dasharray:0 0" transform="translate(93.98 68.68)  rotate(0 1.29 1.705)" d="M2.58,0C2.39,1.06 1.29,2.63 0,3.41 " /><path  id="Vector" style="stroke:#2C2F53; stroke-width:0.8284807205200195; stroke-opacity:1; stroke-dasharray:0 0" transform="translate(69.73 79.45)  rotate(0 2.545 0.37)" d="M5.09,0C4.03,0.67 1.57,0.82 0,0.7 " /><path  id="Vector" style="stroke:#2C2F53; stroke-width:0.8284807205200195; stroke-opacity:1; stroke-dasharray:0 0" transform="translate(92.62 86.68)  rotate(0 1.145 1.505)" d="M2.29,0C2.29,0 1.3,1.23 0,3.01 " /><path  id="Vector" style="stroke:#2C2F53; stroke-width:0.8284807205200195; stroke-opacity:1; stroke-dasharray:0 0" transform="translate(85.36 91.1)  rotate(0 2.655 0.085)" d="M5.31,0C5.31,0 2.12,-0.03 0,0.17 " /><path  id="Vector" style="stroke:#F06082; stroke-width:0.8284807205200195; stroke-opacity:1; stroke-dasharray:0 0" transform="translate(201.06 88.98)  rotate(0 6.04 23.235)" d="M12.08,46.47C6.7,38.21 5,35.41 6.28,28.63C7.57,21.85 8.08,20.55 5.38,17.06C2.69,13.57 0.7,8.58 0,0 " /><path id="Vector" fill-rule="evenodd" style="fill:#2C2F53" transform="translate(45.98 32.58)  rotate(0 29.535 30.29)" opacity="1" d="M48.62,21.41C48.62,21.41 52.3,25.62 55.93,37.36C55.93,37.36 56.94,35.23 59.07,35.29C59.07,35.29 56.08,19.27 54.68,15.03C52.98,9.84 48.38,9.01 45.9,10.17C45.9,10.17 49.41,1.51 40.36,0.23C31.32,-1.04 22.22,3.13 16.38,7.28C10.55,11.42 2.48,19.87 7.68,28.28C7.68,28.28 0.86,27.99 0.04,35.74C-0.77,43.48 10.77,54.91 10.77,54.91C12.01,54.6 14.22,55.08 14.95,56.1C15.67,57.12 18.02,60.58 18.02,60.58C18.02,60.58 19.01,55.29 18.02,53.95C17.03,52.61 13.59,47.33 13.05,45.67C12.51,44.01 15.17,36.42 9.98,31.66C9.98,31.66 14.16,23.71 20.45,20.65C28.42,16.79 40.09,29.9 48.62,21.41Z " /><path  id="Vector" style="stroke:#505C7B; stroke-width:0.8284807205200195; stroke-opacity:1; stroke-dasharray:0 0" transform="translate(58.34 42.4)  rotate(0 20.925 4.12)" d="M33.03,2.98C29.8,-1.61 25.23,4.96 30.43,6.98C33.11,6.63 34.68,5.31 33.03,2.98Z M0,1.61C8.7,-1.62 14.94,0.4 19.68,4.22C22.46,6.45 27.23,7.4 30.43,6.98 M30.43,6.98C30.45,6.99 30.47,7 30.5,7.01C33.91,8.28 37.54,9.13 41.85,6.62 " /><path  id="Vector" style="stroke:#505C7B; stroke-width:0.8284807205200195; stroke-opacity:1; stroke-dasharray:0 0" transform="translate(71.55 35.26)  rotate(0 9.9 3.585)" d="M0,0.21C5.26,-0.62 10.19,1.17 11.34,2.91C12.58,4.83 16.73,8.55 19.8,6.64 " /><path  id="Vector" style="stroke:#505C7B; stroke-width:0.8284807205200195; stroke-opacity:1; stroke-dasharray:0 0" transform="translate(52.19 48.54)  rotate(0 18.505 14.485)" d="M0,28.97C2.93,25.69 5.16,22.5 3.76,15.65C3.76,15.65 3.45,3.87 9.93,0.6C16,-2.47 26.19,7.23 37.01,7.64 " /><path  id="Vector" style="stroke:#505C7B; stroke-width:0.8284807205200195; stroke-opacity:1; stroke-dasharray:0 0" transform="translate(53.81 72.4)  rotate(0 2.36 4.17)" d="M4.72,0C4.02,3.69 2.12,7.12 0,8.34 " /><path  id="Vector" style="stroke:#505C7B; stroke-width:0.8284807205200195; stroke-opacity:1; stroke-dasharray:0 0" transform="translate(56.99 79.72)  rotate(0 0.93 1.435)" d="M0,2.87C0.83,2.07 1.46,1.09 1.86,0 " /><path  id="Vector" style="stroke:#505C7B; stroke-width:0.8284807205200195; stroke-opacity:1; stroke-dasharray:0 0" transform="translate(59.94 48.56)  rotate(0 2.755 4.475)" d="M5.51,0C0.8,1.52 0.11,6.72 0,8.95 " /><path id="Vector" fill-rule="evenodd" style="fill:#FCC9A1" transform="translate(113.14 17.44)  rotate(0 36.97 40.865)" opacity="1" d="M9.95,38.14C10.38,40.32 9.31,41.33 15.63,46.69C21.95,52.06 30.3,58.43 31.68,58.64C32.6,58.78 33.97,58.59 35.77,57.51C36.84,56.85 37.84,56.07 38.74,55.19C41.08,57.2 42.97,59.67 44.28,62.45C45.96,65.94 46.33,69.91 45.33,73.64C45.33,73.64 50.43,79.54 53.41,80.92C56.38,82.3 58.77,81.98 61.22,79.53C63.66,77.09 74.28,66.13 73.93,53.95C72.06,54.46 70.15,54.78 68.22,54.91C64.69,50.02 53.51,30.58 51.44,23.51C51.44,23.51 57.55,17.08 52.84,9.43C49.89,9.53 47.98,10.54 45.88,11.37C44.4,12 42.82,12.39 41.21,12.52C40.85,12.55 40.47,12.55 40.08,12.55C35.71,12.52 25.23,11.46 19,0.16C19,0.16 9.16,-1.65 2.91,7.06C-3.34,15.77 2.13,28.89 4.15,31.6C6.18,34.31 9.52,35.96 9.95,38.14Z " /><path id="Vector" fill-rule="evenodd" style="fill:#2C2F53" transform="translate(151.89 53.78)  rotate(0 7.17 13.065)" opacity="1" d="M12.49,0C10.31,7.15 6.34,13.71 0,18.87C2.33,20.87 4.22,23.35 5.54,26.13C8.3,22.82 11.58,18.41 13.27,14.31C15.42,9.09 13.89,3.34 12.49,0Z " /><path id="Vector" fill-rule="evenodd" style="fill:#DC6437" transform="translate(154.33 28.81)  rotate(0 2.93 4.78)" opacity="0.6" d="M4.67,0C3.19,0.64 1.61,1.02 0,1.15C1.76,2.93 4.21,6.11 3.84,9.56C3.84,9.56 7.77,6.67 4.67,0Z " /><path  id="Vector" style="stroke:#2C2F53; stroke-width:0.8284807205200195; stroke-opacity:1; stroke-dasharray:0 0" transform="translate(127.21 115.29)  rotate(0 9.86 2.385)" d="M0,4.77C4.52,2.58 14.28,0.21 15.25,0.06C16.21,-0.1 19.72,0.11 19.72,0.11 " /><path  id="Vector" style="stroke:#2C2F53; stroke-width:0.8284807205200195; stroke-opacity:1; stroke-dasharray:0 0" transform="translate(124.27 110.09)  rotate(0 10.245 3.71)" d="M0,7.42C4.4,4.85 13.54,0.53 14.87,0.14C16.2,-0.24 20.49,0.27 20.49,0.27 " /><path  id="Vector" style="stroke:#2C2F53; stroke-width:0.8284807205200195; stroke-opacity:1; stroke-dasharray:0 0" transform="translate(220.63 136.48)  rotate(0 4.39 2.5)" d="M8.78,5C5.95,3.17 3.02,1.5 0,0 " /><path id="Vector" fill-rule="evenodd" style="fill:#F06082" transform="translate(218.19 126.31)  rotate(0 16.125 13.055)" opacity="0.5" d="M0,11.98C0,11.98 22.27,13.96 30.61,26.11C31.47,24.37 32.25,4.9 32.25,4.9C32.25,4.9 21.21,-4.8 0.46,3.09C0.77,6.45 0.3,9.72 0,11.98Z " /><g opacity="0.5" transform="translate(152.66 71.88)  rotate(0 22.205 18.355)"><path id="Vector" fill-rule="evenodd" style="fill:#F06082" transform="translate(0 24.33)  rotate(0 3.825 3.42)" opacity="0.75" d="M0,3.41C0,3.41 2.17,6.75 2.38,6.84C2.59,6.93 7.65,2.29 7.65,2.29L4.95,0L0,3.41Z " /><path id="Vector" fill-rule="evenodd" style="fill:#F06082" transform="translate(6.41 27.76)  rotate(0 2.945 3.76)" opacity="0.75" d="M0,5.44L3.53,7.52L5.89,1.14L3.53,0L0,5.44Z " /><path id="Vector" fill-rule="evenodd" style="fill:#F06082" transform="translate(15.14 30.09)  rotate(0 2.045 3.315)" opacity="0.75" d="M0,6.63L4.09,6.63L3.74,0L0.7,0L0,6.63Z " /><path id="Vector" fill-rule="evenodd" style="fill:#F06082" transform="translate(21.59 27.76)  rotate(0 3.225 4.215)" opacity="0.75" d="M3.05,8.43L6.45,5.64L1.87,0L0,1.7L3.05,8.43Z " /><path id="Vector" fill-rule="evenodd" style="fill:#F06082" transform="translate(25.82 24.33)  rotate(0 3.395 2.53)" opacity="0.75" d="M0,1.66L5.09,5.06L6.79,0L0.97,0L0,1.66Z " /><path id="Vector" fill-rule="evenodd" style="fill:#F06082" transform="translate(30.09 15.87)  rotate(0 4.315 3.89)" opacity="0.75" d="M4.32,7.78L8.63,2.29C8.63,2.29 4.72,-0.07 4.73,0C4.75,0.07 0,3.22 0,3.22L4.32,7.78Z " /><path id="Vector" fill-rule="evenodd" style="fill:#F06082" transform="translate(35.72 10.7)  rotate(0 2.815 2.585)" opacity="0.75" d="M0,1.9L5.24,5.17L5.63,0.34L0.56,0L0,1.9Z " /><path id="Vector" fill-rule="evenodd" style="fill:#F06082" transform="translate(36.56 4.73)  rotate(0 3.065 2.09)" opacity="0.75" d="M6.13,4.18L2.62,0L0,3.12L6.13,4.18Z " /><path id="Vector" fill-rule="evenodd" style="fill:#F06082" transform="translate(38.01 0)  rotate(0 3.205 1.92)" opacity="0.75" d="M3.34,3.84L6.41,1.06L2.56,0L0,2.4L3.34,3.84Z " /></g><path  id="Vector" style="stroke:#F06082; stroke-width:0.8284807205200195; stroke-opacity:1; stroke-dasharray:0 0" transform="translate(255.62 131.64)  rotate(0 8.525 19.795)" d="M0,0C2.53,13.41 7.37,28.3 11.47,31.03C15.56,33.76 16.68,37.24 17.05,39.59 " /><path  id="Vector" style="stroke:#F06082; stroke-width:0.8284807205200195; stroke-opacity:1; stroke-dasharray:0 0" transform="translate(227.69 173.82)  rotate(0 22.51 9.295)" d="M0,18.59C10.58,18.11 21.09,17.87 25.47,17.99C29.85,18.12 35.08,16.15 39.27,11.34C43.46,6.53 45.28,3.98 44.99,0 " /><path  id="Vector" style="stroke:#F06082; stroke-width:0.8284807205200195; stroke-opacity:1; stroke-dasharray:0 0" transform="translate(158.17 61.41)  rotate(0 50.58 37.535)" d="M0,26.92C2.63,29.82 8.49,36.18 12.74,34.97C16.99,33.76 26.32,22.25 27.03,11.26C33.49,6.79 49.6,-2.73 61,0.75C72.54,4.26 85,25.68 88.17,31.23C91.35,36.78 100.86,51.84 101.15,58.62C101.44,65.4 97.18,72.39 92.1,75.07 " /><path  id="Vector" style="stroke:#F06082; stroke-width:0.8284807205200195; stroke-opacity:1; stroke-dasharray:0 0" transform="translate(195.93 195.47)  rotate(0 37.295 37.04)" d="M0,74.08C11.43,72.27 18.93,71.78 27.65,72.39C36.38,73.01 48.92,71.03 61.33,56.84C73.75,42.65 73.87,30.6 74.48,14.13C74.67,9.42 74.61,4.7 74.32,0 " /><path  id="Vector" style="stroke:#F06082; stroke-width:0.8284807205200195; stroke-opacity:1; stroke-dasharray:0 0" transform="translate(214.35 199.52)  rotate(0 19.235 25.125)" d="M0,50.22C12.1,50.33 24.63,50.78 31.06,36.78C37.6,22.53 38.47,0 38.47,0 " /><path  id="Vector" style="stroke:#F06082; stroke-width:0.8284807205200195; stroke-opacity:1; stroke-dasharray:0 0" transform="translate(241.12 202.68)  rotate(0 3.005 10.67)" d="M1.68,0C1.89,5.51 2.29,7.5 1.14,9.94C-0.35,13.15 -0.54,17.4 1.53,18.4C3.11,19.24 4.61,20.23 6.01,21.34 " /><path  id="Vector" style="stroke:#F06082; stroke-width:0.8284807205200195; stroke-opacity:1; stroke-dasharray:0 0" transform="translate(240.8 191.93)  rotate(0 0.155 4.105)" d="M0.31,8.21C0.24,8.21 0.35,5.44 0,0 " /><path  id="Vector" style="stroke:#F06082; stroke-width:0.8284807205200195; stroke-opacity:1; stroke-dasharray:0 0" transform="translate(236.85 192.05)  rotate(0 0.155 4.09)" d="M0.31,8.18C0.31,8.18 0.26,2.29 0,0 " /><path  id="Vector" style="stroke:#2C2F53; stroke-width:0.8284807205200195; stroke-opacity:1; stroke-dasharray:0 0" transform="translate(151.89 50.87)  rotate(0 6.635 10.885)" d="M13.27,0C13.04,0.98 12.78,1.95 12.49,2.9C10.31,10.05 6.34,16.61 0,21.77 " /><path  id="Vector" style="stroke:#2C2F53; stroke-width:0.8284807205200195; stroke-opacity:1; stroke-dasharray:0 0" transform="translate(114.74 41.01)  rotate(0 2.385 2.8)" d="M4.77,0C3.8,0.07 1.31,2.63 0,5.6 " /><path  id="Vector" style="stroke:#2C2F53; stroke-width:0.8284807205200195; stroke-opacity:1; stroke-dasharray:0 0" transform="translate(128.9 31.2)  rotate(0 5.04 2.515)" d="M10.08,0.33C6.52,-1.02 0.96,1.98 0,5.03 " /><path id="Vector" fill-rule="evenodd" style="fill:#2C2F53" transform="translate(137.21 56.17)  rotate(0 4.685 4.955)" opacity="1" d="M9.18,0C9.18,0 3.2,4.56 0,7.04C0.43,7.68 0.94,8.25 1.53,8.74C2.74,9.73 4.52,10.58 6.68,9.15C8.84,7.73 9.33,4.9 9.37,2.76C9.39,1.84 9.32,0.91 9.18,0Z " /><path  id="Vector" style="stroke:#2C2F53; stroke-width:0.8284807205200195; stroke-opacity:1; stroke-dasharray:0 0" transform="translate(134.57 39.27)  rotate(0 1.815 1.72)" d="M3.63,0C2.67,1.39 1.44,2.56 0,3.44 " /><path  id="Vector" style="stroke:#2C2F53; stroke-width:0.8284807205200195; stroke-opacity:1; stroke-dasharray:0 0" transform="translate(118.17 50.87)  rotate(0 2.19 0.77)" d="M4.38,0C4.38,0 1.75,1.54 0,1.54 " /><path id="Vector" fill-rule="evenodd" style="fill:#2C2F53" transform="translate(121.24 49.14)  rotate(0 1.725 1.725)" opacity="1" d="M1.73,0C0.77,0 0,0.77 0,1.73C0,2.68 0.77,3.45 1.73,3.45C2.68,3.45 3.45,2.68 3.45,1.73C3.45,0.77 2.68,0 1.73,0Z " /><path id="Vector" fill-rule="evenodd" style="fill:#2C2F53" transform="translate(132.9 41.15)  rotate(0 1.94 1.94)" opacity="1" d="M1.94,0C0.87,0 0,0.87 0,1.94C0,3.01 0.87,3.88 1.94,3.88C3.01,3.88 3.88,3.01 3.88,1.94C3.88,0.87 3.01,0 1.94,0Z " /><path  id="Vector" style="stroke:#2C2F53; stroke-width:0.8284807205200195; stroke-opacity:1; stroke-dasharray:0 0" transform="translate(120.88 41.57)  rotate(0 8.3 9.935)" d="M0,0C2.62,0.37 4.43,3.69 5.21,8.08C5.99,12.46 7.87,19.47 9.14,19.84C10.41,20.21 14.06,17.22 16.6,16.11 " /><path  id="Vector" style="stroke:#F06082; stroke-width:0.8284807205200195; stroke-opacity:1; stroke-dasharray:0 0" transform="translate(103.78 217.05)  rotate(0 42.51 67.985)" d="M85.02,0C72.3,2.27 53.41,4.01 42.45,4.87C31.49,5.74 21.83,6.46 14.33,12.66C6.83,18.86 -1.83,36.74 0.34,43.96C2.5,51.17 29.47,135.97 29.47,135.97 " /><path  id="Vector" style="stroke:#F06082; stroke-width:0.8284807205200195; stroke-opacity:1; stroke-dasharray:0 0" transform="translate(143.25 291.3)  rotate(0 7.355 27.25)" d="M0,0C0.71,2.05 1.3,4.23 1.97,6.63C3.5,12.15 11.64,38.24 14.71,54.5 " /><path  id="Vector" style="stroke:#F06082; stroke-width:0.8284807205200195; stroke-opacity:1; stroke-dasharray:0 0" transform="translate(140.93 286.16)  rotate(0 0.685 1.35)" d="M1.37,2.7C0.97,1.77 0.51,0.87 0,0 " /><path  id="Vector" style="stroke:#F06082; stroke-width:0.8284807205200195; stroke-opacity:1; stroke-dasharray:0 0" transform="translate(131.74 252.23)  rotate(0 4.8 15.8)" d="M9.6,0C5.87,1.33 4.21,3.03 4.89,4.52C6.73,8.56 7.74,10.25 4.7,10.87C1.66,11.48 -1.1,14.24 0.44,16.39C1.97,18.54 4.73,18.08 4.27,21.78C3.81,25.48 4.43,27.3 7.65,31.6 " /><path  id="Vector" style="stroke:#F06082; stroke-width:0.8284807205200195; stroke-opacity:1; stroke-dasharray:0 0" transform="translate(144.84 250.4)  rotate(0 2.625 0.43)" d="M0,0.86C1.73,0.48 3.49,0.19 5.25,0 " /><path  id="Vector" style="stroke:#F06082; stroke-width:0.8284807205200195; stroke-opacity:1; stroke-dasharray:0 0" transform="translate(152.81 249.95)  rotate(0 12.39 0.825)" d="M0,0.2C6.52,-0.27 14.84,0.04 24.78,1.65 " /><path id="Vector" fill-rule="evenodd" style="fill:#2C2F53" transform="translate(62.93 67.52)  rotate(0 7.18 5.64)" opacity="1" d="M9.1,3.76C10.28,3.29 14.36,3.88 14.36,3.88C14.06,2.7 10.93,-0.61 7.91,0.1C4.89,0.81 0.81,6.6 0.4,7.32C-0.01,8.04 -0.13,8.97 0.16,11.28C1.94,8.8 7.91,4.24 9.1,3.76Z " /><path id="Vector" fill-rule="evenodd" style="fill:#2C2F53" transform="translate(85.03 61.08)  rotate(0 6.57 3.51)" opacity="1" d="M4.7,0.36C-0.05,1.89 0,7.02 0,7.02C3.43,4.18 8.88,3.54 13.14,4.37C12.33,2.74 9.6,-1.21 4.7,0.36Z " /><path id="Vector" fill-rule="evenodd" style="fill:#2C2F53" transform="translate(73.01 77.22)  rotate(0 2.14 2.14)" opacity="1" d="M2.14,0C0.96,0 0,0.96 0,2.14C0,3.32 0.96,4.28 2.14,4.28C3.32,4.28 4.28,3.32 4.28,2.14C4.28,0.96 3.32,0 2.14,0Z " /><path id="Vector" fill-rule="evenodd" style="fill:#2C2F53" transform="translate(91.95 70.38)  rotate(0 1.905 1.905)" opacity="1" d="M1.91,0C0.85,0 0,0.85 0,1.91C0,2.96 0.85,3.81 1.91,3.81C2.96,3.81 3.81,2.96 3.81,1.91C3.81,0.85 2.96,0 1.91,0Z " /><path id="Vector" fill-rule="evenodd" style="fill:#2C2F53" transform="translate(83.69 94.95)  rotate(0 6.935 3.925)" opacity="1" d="M13.87,0C13.63,0.08 12.92,0.31 11.89,0.67C9.17,1.59 4.2,3.29 0,4.66C0.44,5.41 1.04,6.05 1.77,6.51C3.73,7.84 6.72,8.31 9.64,7.32C13.97,5.87 13.85,0.02 13.87,0Z " /><path  id="Vector" style="stroke:#2C2F53; stroke-width:0.8284807205200195; stroke-opacity:1; stroke-dasharray:0 0" transform="translate(64 93.16)  rotate(0 1.8 3.02)" d="M3.6,6.04C3.6,6.04 1.53,2.54 0,0 " /><path  id="Vector" style="stroke:#2C2F53; stroke-width:0.8284807205200195; stroke-opacity:1; stroke-dasharray:0 0" transform="translate(101.9 69.9)  rotate(0 2.21 6.395)" d="M4.42,12.79C4.42,12.79 0.11,0.33 0,0 " /><path id="Vector" fill-rule="evenodd" style="fill:#54C3E5" transform="translate(159.89 145.91)  rotate(0 27.71 25.25)" opacity="0.25" d="M53.25,18.52L54.07,17.34C50.68,16.05 30.77,0 30.77,0C20.3,20.74 0,31.99 0,31.99C6.77,38.39 15.37,45.84 20.78,50.5C38.28,41.66 52.34,25.92 55.42,22.33C54.72,21.07 53.99,19.81 53.25,18.52Z " /><path  id="Vector" style="stroke:#F06082; stroke-width:0.8284807205200195; stroke-opacity:1; stroke-dasharray:0 0" transform="translate(142.76 265.52)  rotate(0 5.025 2.51)" d="M10.05,5.02C9.3,3.88 3.79,1.71 0,0 " /><path  id="Vector" style="stroke:#2C2F53; stroke-width:0.8284807205200195; stroke-opacity:1; stroke-dasharray:0 0" transform="translate(150.6 275.87)  rotate(0 3.275 1.345)" d="M6.55,2.69C4.51,1.48 2.3,0.57 0,0 " /><path  id="Vector" style="stroke:#F06082; stroke-width:0.8284807205200195; stroke-opacity:1; stroke-dasharray:0 0" transform="translate(140.93 270.54)  rotate(0 4.325 0.925)" d="M0,1.85C2.4,0.63 8.65,0 8.65,0 " /><path  id="Vector" style="stroke:#F06082; stroke-width:0.8284807205200195; stroke-opacity:1; stroke-dasharray:0 0" transform="translate(131.27 270.54)  rotate(0 19.96 49.71)" d="M18.31,0C17.84,3.81 20.11,6.73 21.7,9.39C23.32,12.22 24.63,15.21 25.61,18.32C27.93,26.32 29.62,34.49 30.67,42.76C31.55,49.31 39.87,88.24 39.87,88.24C40.42,90.58 37.17,89.01 7.17,99.42C7.17,99.42 1.8,94.39 0,82.5C0,82.5 8.84,80.72 12.76,79.6C16.68,78.48 27.88,74.11 35.04,73.55 " /><path id="Vector" fill-rule="evenodd" style="fill:#505C7B" transform="translate(115.22 368.95)  rotate(0 30.635 23.93)" opacity="0.5" d="M56.12,0C42.4,4.6 22.85,24.41 22.85,24.41C20.53,23.78 17.21,23.45 14.25,23.27L12.62,25.2C12.33,25.54 12.05,25.87 11.77,26.19C6.95,31.73 3.18,35.13 1.61,38.09C-0.63,42.29 -0.21,46.49 0.92,47.2C2.84,48.41 7.51,48.02 11.65,45.48C25.44,37.01 54.2,24.86 57.19,23.2C60.18,21.54 61.68,19.04 61.17,17.4C60.94,16.6 58.95,9.78 56.95,2.87L56.12,0Z " /><path  id="Vector" style="stroke:#54C3E5; stroke-width:0.8284807205200195; stroke-opacity:1; stroke-dasharray:0 0" transform="translate(132.71 566.9)  rotate(0 19.585 1.845)" d="M39.17,0C33.31,1.36 9.09,4.33 0,3.57 " /><path id="Vector" fill-rule="evenodd" style="fill:#54C3E5" transform="translate(255.12 529.3)  rotate(0 31.18 31.86)" opacity="0.5" d="M16.71,20.61C18.04,23.49 19.06,26.51 19.73,29.61L19.93,30.75C19.93,30.75 25.66,30.33 26.15,30.75C26.64,31.17 26.04,38.74 25.73,39.66C25.42,40.59 20.31,48.29 13.79,46.16C13.31,46.45 12.82,46.72 12.31,46.99C7.34,49.58 0.71,57.73 0,62.1C9.9,63.73 15.33,64.16 19.93,63.25C26.25,62.02 30.47,57.09 30.89,56.59C35.72,50.49 35.31,48.59 44.93,39.48C54.56,30.36 62.36,26.92 62.36,26.92C61.89,24.23 53.45,11.79 52.03,10.51C50.62,9.23 47.56,3.97 47.56,3.97L44.82,0L15.74,18.59C15.74,18.59 15.99,19.03 16.71,20.61Z " /><path  id="Vector" style="stroke:#F06082; stroke-width:0.8284807205200195; stroke-opacity:1; stroke-dasharray:0 0" transform="translate(34.98 232.69)  rotate(0 23.26 61.695)" d="M46.52,0C36.97,-0.04 33.44,0.15 27.86,4.54C22.27,8.93 15.51,16.14 13.6,20.54C11.69,24.94 8.61,33.79 6.84,58.61C5.19,81.82 0.59,118.7 0,123.39 " /><path  id="Vector" style="stroke:#F06082; stroke-width:0.8284807205200195; stroke-opacity:1; stroke-dasharray:0 0" transform="translate(73.12 273.36)  rotate(0 6.445 44.01)" d="M0,88.02C1.19,77.63 4.29,59.72 6.93,52.37C9.6,44.93 14.01,31.21 12.63,0 " /><path  id="Vector" style="stroke:#54C3E5; stroke-width:0.8284807205200195; stroke-opacity:1; stroke-dasharray:0 0" transform="translate(86.01 278.98)  rotate(0 2.01 2.43)" d="M4.02,0C2.75,3.3 1.21,5.01 0,4.85 " /><path  id="Vector" style="stroke:#F06082; stroke-width:0.8284807205200195; stroke-opacity:1; stroke-dasharray:0 0" transform="translate(65.51 293.29)  rotate(0 5.735 32.24)" d="M11.47,0C10.64,5.99 9.55,12.9 8.25,18.47C6.28,26.93 4.52,30.76 4.52,34.59C4.52,38.43 4.52,41.87 3.24,46.39C1.96,50.91 0.59,52.68 0,64.48 " /><path  id="Vector" style="stroke:#F06082; stroke-width:0.8284807205200195; stroke-opacity:1; stroke-dasharray:2.8996825218200684 2.8996825218200684" transform="translate(77.27 257.48)  rotate(0 5.755 16.91)" d="M11.51,3.15C9.37,-0.37 4.55,-1.28 4.85,2.17C5.14,5.62 7.57,10.29 4.85,10.56C2.12,10.83 -0.75,11.32 0.24,14.91C1.23,18.51 1.72,20.79 0.83,27.56C0.59,29.36 0.31,31.5 0,33.82 " /><path  id="Vector" style="stroke:#F06082; stroke-width:0.8284807205200195; stroke-opacity:1; stroke-dasharray:0 0" transform="translate(31.42 356.08)  rotate(0 21.72 11.93)" d="M28.86,23.1C39.21,24.17 41.06,24 41.06,23.24C41.06,22.47 41.42,17.74 42.41,15.75C43.41,13.76 43.71,8.01 43.18,6.41C42.65,4.8 38.13,4.57 32.61,4.49C27.09,4.42 9.61,1.6 6.62,0.5C4.01,-0.47 1.57,-0.11 1.65,2.27C1.73,4.65 2.34,6.79 1.65,8.85C0.96,10.92 -0.72,13.68 0.35,15.98C1.42,18.28 5.17,18.5 7.32,19.12C14.39,21 21.59,22.33 28.86,23.1Z " /><path id="Vector" fill-rule="evenodd" style="fill:#DC6437" transform="translate(140.8 38.69)  rotate(0 6.985 6.985)" opacity="0.3" d="M6.99,0C3.13,0 0,3.13 0,6.99C0,10.84 3.13,13.97 6.99,13.97C10.84,13.97 13.97,10.84 13.97,6.99C13.97,3.13 10.84,0 6.99,0Z " /><path id="Vector" fill-rule="evenodd" style="fill:#FFFFFF" transform="translate(138.25 56.16)  rotate(0 4.155 3.43)" opacity="1" d="M8.11,0C8.11,0 3.31,3.66 0,6.22C0.45,6.78 1.43,6.92 2.07,6.84C3.09,6.71 6.6,4.14 8.31,1.73C8.28,1.15 8.21,0.57 8.11,0Z " /><path  id="Vector" style="stroke:#2C2F53; stroke-width:0.8284807205200195; stroke-opacity:1; stroke-dasharray:0 0" transform="translate(160.09 34.81)  rotate(0 2.235 3.085)" d="M4.47,6.17C4.47,6.17 2.92,3.79 0,0 " /><path id="Vector" fill-rule="evenodd" style="fill:#FFFFFF" transform="translate(83.67 95.64)  rotate(0 5.955 2.925)" opacity="1" d="M11.9,0C9.17,0.93 4.2,2.63 0,4C0.44,4.75 1.04,5.38 1.77,5.85C5.39,5.37 11.05,3.73 11.6,2.22C11.85,1.5 11.95,0.75 11.9,0Z " /><path id="Vector" fill-rule="evenodd" style="fill:#F06082" transform="translate(48.45 123.68)  rotate(0 14.965 7.645)" opacity="0.5" d="M29.46,8.92C28.84,7.49 21.66,-1.02 9.53,0.1C9.53,0.1 4.25,6.13 0,11.89C5.39,11.08 12.34,10.63 16.07,11.77C20.92,13.25 25.96,15.29 25.96,15.29L29.89,12.8C29.92,12.79 30.09,10.36 29.46,8.92Z " /><path  id="Vector" style="stroke:#DC6437; stroke-width:0.8284807205200195; stroke-opacity:1; stroke-dasharray:0 0" transform="translate(131.14 15.06)  rotate(0 20.39 7.505)" d="M0,0C0.76,3.96 7.96,13.22 17.81,14.57C29.96,16.23 36.29,7.01 40.78,15.01 " /><path  id="Vector" style="stroke:#F06082; stroke-width:0.8284807205200195; stroke-opacity:1; stroke-dasharray:0 0" transform="translate(164.95 71.89)  rotate(0 17.11 20.575)" d="M0,38.75C6.59,40.44 11.87,42.64 14.77,39.74C17.66,36.85 27.85,23.38 30.39,16.5C32.92,9.62 34.22,0 34.22,0 " /><path id="Vector" fill-rule="evenodd" style="fill:#54C3E5" transform="translate(156.88 271.46)  rotate(0 20.68 16.55)" opacity="0.5" d="M37.65,0C29.4,10.92 17.92,15.94 15.93,16.52C13.67,17.18 0,17.4 0,17.4C1.5,22.56 2.74,27.8 3.7,33.1C10.6,33.22 28.03,29.46 41.36,29L37.65,0L37.65,0Z " /><path id="Vector" fill-rule="evenodd" style="fill:#54C3E5" transform="translate(81.56 202.45)  rotate(0 49.73 52.265)" opacity="0.5" d="M3.28,33.46C3.86,39.34 5.26,45.77 6.42,48.79C7.35,51.21 7.53,55.19 7.22,58.16C7.16,58.83 7.06,59.49 6.91,60.14C6.26,63.04 6.84,66.04 8.26,68.09C9.67,70.15 9.41,72.65 9.5,76.11C9.58,79.56 11.4,101.43 11.4,101.43L11.64,104.53L13.13,104.4C15.44,103.99 36.95,104.08 36.95,104.08C30.27,83 23.62,62 22.59,58.56C20.42,51.35 29.08,33.47 36.58,27.27C44.07,21.06 53.74,20.34 64.7,19.48C73.58,18.77 87.67,17.49 99.46,15.84C99.39,15.6 97.26,8.31 95.32,0C81.54,3.26 23.88,16.29 0,11.64C1.49,20.92 2.98,30.43 3.28,33.46Z " /><path  id="Vector" style="stroke:#54C3E5; stroke-width:0.8284807205200195; stroke-opacity:1; stroke-dasharray:0 0" transform="translate(94.66 306.52)  rotate(0 11.91 0.165)" d="M23.82,0.01C23.82,0.01 2.31,-0.09 0,0.33 " /><path  id="Vector" style="stroke:#54C3E5; stroke-width:0.8284807205200195; stroke-opacity:1; stroke-dasharray:0 0" transform="translate(160.58 271.47)  rotate(0 18.83 16.545)" d="M0,33.09C6.9,33.21 24.33,29.45 37.66,28.99L33.95,0 " /><path  id="Vector" style="stroke:#54C3E5; stroke-width:0.8284807205200195; stroke-opacity:1; stroke-dasharray:0 0" transform="translate(86.9 123.79)  rotate(0 18.245 8.265)" d="M0,10.71C5.07,13.45 13.29,16.83 17.88,16.51C22.47,16.19 33.19,6.2 36.49,0 " /><path  id="Vector" style="stroke:#54C3E5; stroke-width:0.8284807205200195; stroke-opacity:1; stroke-dasharray:0 0" transform="translate(85.33 120.99)  rotate(0 19.205 9.64)" d="M0.18,8.42C-0.28,10.27 0.18,12.26 1.19,12.09C2.21,11.92 4.23,8.66 4.23,8.66C4.23,8.66 2.15,13.89 3.93,14.72C5.71,15.55 8.28,10.63 8.28,10.63C8.28,10.63 6.42,15.51 8.11,16.59C9.81,17.66 12.07,12.06 12.07,12.06C12.07,12.06 10.65,17.63 12.37,18.12C14.1,18.62 16.25,13.07 16.25,13.07C16.25,13.07 15.2,19.23 17.86,19.28C20.52,19.33 20.22,12.74 20.22,12.74C20.22,12.74 21.67,18.9 23.6,17.59C25.54,16.27 23.6,10.64 23.6,10.64C23.6,10.64 25.91,15.78 28.02,14.3C30.13,12.83 26.27,8.13 26.27,8.13C26.27,8.13 29.99,12.28 31.37,11.2C32.74,10.13 28.68,5.56 28.68,5.56C28.68,5.56 32.61,9.41 34.38,7.94C36.15,6.47 30.88,3.01 30.93,2.95C30.99,2.89 35.44,6.39 36.67,5.02C37.9,3.64 33.32,0 33.32,0C33.32,0 37.43,2.75 38.41,0.92 " /><path  id="Vector" style="stroke:#54C3E5; stroke-width:0.8284807205200195; stroke-opacity:1; stroke-dasharray:0 0" transform="translate(185.48 164.41)  rotate(0 22.79 40.31)" d="M27.66,0C28.4,1.28 29.13,2.55 29.84,3.81C34.74,12.51 38.78,20.43 41.53,26.47C43.6,31 44.91,34.48 45.31,36.41C45.35,36.57 45.37,36.71 45.39,36.83C46.06,41.21 45.81,48.64 29.74,80.62C29.74,80.62 25.64,75.52 15.3,72.91C4.96,70.31 0,67.53 0,67.53C0,67.53 3.93,51.37 4.42,45.33 " /><path  id="Vector" style="stroke:#54C3E5; stroke-width:0.8284807205200195; stroke-opacity:1; stroke-dasharray:0 0" transform="translate(187.33 224.03)  rotate(0 15.95 6.44)" d="M0,0C8.7,4.72 11.94,6.18 18.64,7.45C25.35,8.73 30.99,11.79 31.9,12.88 " /><path  id="Vector" style="stroke:#54C3E5; stroke-width:0.8284807205200195; stroke-opacity:1; stroke-dasharray:0 0" transform="translate(188.97 224.99)  rotate(0 3.29 5.445)" d="M0.14,0C0.14,0 -0.32,8.46 0.44,8.76C1.2,9.05 5.61,2.82 6.15,3.07C6.69,3.32 6.57,10.89 6.57,10.89 " /><path  id="Vector" style="stroke:#54C3E5; stroke-width:0.8284807205200195; stroke-opacity:1; stroke-dasharray:0 0" transform="translate(197.81 230.97)  rotate(0 2.925 3.54)" d="M0,5.58C1.86,3.42 5.14,-0.11 5.66,0C6.18,0.12 5.45,7.08 5.45,7.08 " /><path  id="Vector" style="stroke:#54C3E5; stroke-width:0.8284807205200195; stroke-opacity:1; stroke-dasharray:0 0" transform="translate(205.05 232.7)  rotate(0 6.72 5.24)" d="M0,5.98C1.5,4.24 5.26,-0.09 5.55,0C5.83,0.1 3.86,7.69 4.19,7.87C4.52,8.06 9.46,1.48 9.84,1.66C10.23,1.84 8.16,10.48 8.16,10.48L13.44,5.7 " /><path  id="Vector" style="stroke:#54C3E5; stroke-width:0.8284807205200195; stroke-opacity:1; stroke-dasharray:0 0" transform="translate(185.89 201.71)  rotate(0 8.475 4.35)" d="M16.95,2.41C12.11,6.07 8.43,8.88 6.73,8.69C5.02,8.5 0.41,7.03 0.1,6.13C-0.41,4.72 1.12,1.62 2.06,0 " /><path  id="Vector" style="stroke:#54C3E5; stroke-width:0.8284807205200195; stroke-opacity:1; stroke-dasharray:0 0" transform="translate(151.61 169.44)  rotate(0 17.135 15.685)" d="M0,0C1.4,1.68 3.52,3.86 6.01,6.27C6.74,6.99 7.51,7.72 8.29,8.46C14.46,14.26 22.15,21.01 27.56,25.65L29.06,26.94C32.21,29.64 34.27,31.37 34.27,31.37 " /><path  id="Vector" style="stroke:#54C3E5; stroke-width:0.8284807205200195; stroke-opacity:1; stroke-dasharray:0 0" transform="translate(174.54 191.09)  rotate(0 3.23 13.595)" d="M6.46,27.19C6.46,27.19 4.3,19.79 2.32,11.35C1.44,7.59 0.6,3.61 0,0 " /><path  id="Vector" style="stroke:#54C3E5; stroke-width:0.8284807205200195; stroke-opacity:1; stroke-dasharray:0 0" transform="translate(63.49 161.93)  rotate(0 6.3 9.35)" d="M12.6,18.7C8.55,15.74 2.68,6.36 0,0 " /><path  id="Vector" style="stroke:#54C3E5; stroke-width:0.8284807205200195; stroke-opacity:1; stroke-dasharray:0 0" transform="translate(74.44 170.53)  rotate(0 9.24 66.675)" d="M18.48,133.35C18.48,133.35 16.67,111.47 16.58,108.02C16.5,104.57 16.75,102.07 15.34,100.01C13.93,97.96 13.37,94.96 14.03,92.06C14.68,89.16 14.69,83.72 13.53,80.71C12.37,77.69 10.98,71.26 10.4,65.38C10.1,62.35 8.61,52.84 7.12,43.56C5.72,34.89 4.31,26.4 3.88,23.61C3.56,21.62 3.07,18.79 2.54,15.74C1.53,9.94 0.37,3.31 0,0 " /><path  id="Vector" style="stroke:#54C3E5; stroke-width:0.8284807205200195; stroke-opacity:1; stroke-dasharray:0 0" transform="translate(255.01 559.78)  rotate(0 30.98 17.83)" d="M61.96,0C45.44,11.12 34.98,25.36 33.03,28.28C31.09,31.2 25.96,34.44 21.32,35.41C16.67,36.39 0,34.17 0,34.17C0,34.17 0.07,32.65 0.11,31.64 " /><path  id="Vector" style="stroke:#54C3E5; stroke-width:0.8284807205200195; stroke-opacity:1; stroke-dasharray:0 0" transform="translate(269.77 561.21)  rotate(0 3.285 6.86)" d="M0,13.72C3.73,11.35 6.22,8.69 6.51,8.06C6.8,7.43 6.04,3.09 5.5,0 " /><path  id="Vector" style="stroke:#54C3E5; stroke-width:0.8284807205200195; stroke-opacity:1; stroke-dasharray:0 0" transform="translate(267.43 558.61)  rotate(0 7.635 9.355)" d="M7.45,0.3C9,0.08 14.15,-0.25 14.81,0.3C15.48,0.85 15.36,8.98 14.81,10.52C14.26,12.07 7.48,21.85 0,17.68 " /><path  id="Vector" style="stroke:#54C3E5; stroke-width:0.8284807205200195; stroke-opacity:1; stroke-dasharray:0 0" transform="translate(275.63 563.04)  rotate(0 2.61 0.3)" d="M5.22,0.6C5.22,0.6 2.62,-0.5 0,0.28 " /><path  id="Vector" style="stroke:#54C3E5; stroke-width:0.8284807205200195; stroke-opacity:1; stroke-dasharray:0 0" transform="translate(277.75 566.48)  rotate(0 2.38 0.525)" d="M4.76,1.05C4.2,0.66 1.33,0 0,0 " /><path  id="Vector" style="stroke:#54C3E5; stroke-width:0.8284807205200195; stroke-opacity:1; stroke-dasharray:0 0" transform="translate(275.95 569.76)  rotate(0 2.665 0.505)" d="M5.33,1.01C5.33,1.01 1.58,-0.07 0,0 " /><path  id="Vector" style="stroke:#54C3E5; stroke-width:0.8284807205200195; stroke-opacity:1; stroke-dasharray:0 0" transform="translate(272.98 572.61)  rotate(0 2.475 0.92)" d="M4.95,1.84C3.37,1.04 1.71,0.43 0,0 " /><path  id="Vector" style="stroke:#54C3E5; stroke-width:0.8284807205200195; stroke-opacity:1; stroke-dasharray:0 0" transform="translate(261.33 557.73)  rotate(0 8.215 2.325)" d="M16.43,3.06C12.5,0.4 -0.14,-1.97 0,2.51C0.15,6.98 13.87,3.06 13.87,3.06 " /><path  id="Vector" style="stroke:#54C3E5; stroke-width:0.8284807205200195; stroke-opacity:1; stroke-dasharray:0 0" transform="translate(266.79 561.43)  rotate(0 4.5 3.95)" d="M8.52,0C4.99,0.9 -0.7,4.77 0.07,7.21C0.85,9.64 7.65,5.04 9,2.89 " /><path  id="Vector" style="stroke:#54C3E5; stroke-width:0.8284807205200195; stroke-opacity:1; stroke-dasharray:0 0" transform="translate(124.93 570.57)  rotate(0 6.52 4.71)" d="M13.04,0C11.82,0.56 3.65,6.67 0,9.42 " /><path  id="Vector" style="stroke:#54C3E5; stroke-width:0.8284807205200195; stroke-opacity:1; stroke-dasharray:0 0" transform="translate(101.34 593.54)  rotate(0 38.655 3.67)" d="M77.31,0C76.24,3.57 74.46,5.12 69.52,5.24C64.58,5.36 5.28,7.62 3.43,7.31C1.92,7.07 0.57,6.52 0,4.89 " /><path  id="Vector" style="stroke:#54C3E5; stroke-width:0.8284807205200195; stroke-opacity:1; stroke-dasharray:0 0" transform="translate(122.2 572.12)  rotate(0 10.375 5.975)" d="M0,9.88C1.35,9.81 5.64,11.95 5.88,11.95C6.12,11.95 20.75,2.67 20.75,2.67C19.7,1.64 18.52,0.74 17.24,0 " /><path  id="Vector" style="stroke:#54C3E5; stroke-width:0.8284807205200195; stroke-opacity:1; stroke-dasharray:0 0" transform="translate(133.35 573.74)  rotate(0 3.46 1.38)" d="M6.92,2.76C6.92,2.76 2.45,0.34 0,0 " /><path  id="Vector" style="stroke:#54C3E5; stroke-width:0.8284807205200195; stroke-opacity:1; stroke-dasharray:0 0" transform="translate(130.8 575.61)  rotate(0 3.24 1.39)" d="M6.48,2.78C6.48,2.78 2.65,0.41 0,0 " /><path  id="Vector" style="stroke:#54C3E5; stroke-width:0.8284807205200195; stroke-opacity:1; stroke-dasharray:0 0" transform="translate(127.01 578.43)  rotate(0 2.28 0.93)" d="M4.56,1.86C4.56,1.86 3.4,1 0,0 " /><path  id="Vector" style="stroke:#54C3E5; stroke-width:0.8284807205200195; stroke-opacity:1; stroke-dasharray:0 0" transform="translate(130.2 584.51)  rotate(0 1.09 0.12)" d="M2.18,0.24C1.47,0.06 0.73,-0.02 0,0 " /><path  id="Vector" style="stroke:#54C3E5; stroke-width:0.8284807205200195; stroke-opacity:1; stroke-dasharray:0 0" transform="translate(101.34 594.13)  rotate(0 37.43 0.975)" d="M74.86,0C54.62,0 0,1.95 0,1.95 " /><path  id="Vector" style="stroke:#54C3E5; stroke-width:0.8284807205200195; stroke-opacity:1; stroke-dasharray:0 0" transform="translate(118.09 565.72)  rotate(0 6.735 5.955)" d="M10.9,9.4C10.12,6.7 3.44,-1.5 0.79,0.24C-1.87,1.97 2.15,7.74 13.47,11.91 " /><path  id="Vector" style="stroke:#54C3E5; stroke-width:0.8284807205200195; stroke-opacity:1; stroke-dasharray:0 0" transform="translate(117.32 573.96)  rotate(0 4.535 2.47)" d="M9.07,4.94C4.74,4.99 -0.39,4.45 0.02,1.65C0.48,-1.36 7.66,0.66 7.66,0.66 " /><path  id="Vector" style="stroke:#54C3E5; stroke-width:0.8284807205200195; stroke-opacity:1; stroke-dasharray:0 0" transform="translate(255.84 554.2)  rotate(0 31.095 18.49)" d="M0,34.94C0,34.94 14.29,39.08 21.06,35.56C27.83,32.03 28.91,30.56 32.66,24.96C36.41,19.37 53.62,0.25 61.14,0C61.86,1.23 62.23,2.64 62.19,4.06 " /><path  id="Vector" style="stroke:#2C2F53; stroke-width:0.8284807205200195; stroke-opacity:1; stroke-dasharray:0 0" transform="translate(137.21 56.15)  rotate(0 4.59 3.525)" d="M9.18,0L0,7.05 " /><path  id="Vector" style="stroke:#2C2F53; stroke-width:0.8284807205200195; stroke-opacity:1; stroke-dasharray:0 0" transform="translate(83.67 94.97)  rotate(0 6.935 2.33)" d="M0,4.66L13.87,0 " /></g></svg>