<svg xmlns="http://www.w3.org/2000/svg" xmlns:xlink="http://www.w3.org/1999/xlink" width="711" height="585" viewBox="0 0 711 585" fill="none"><g opacity="1" transform="translate(0.0023193359375 0.09423828125)  rotate(0 355.27 292.33)"><g opacity="0.25" transform="translate(242.18 228.54)  rotate(0 124.49 99.475)"><path  id="Vector" style="stroke:#505C7B; stroke-width:1.2427210807800293; stroke-opacity:1; stroke-dasharray:0 0" transform="translate(229.56 94.13)  rotate(0 9.71 27.63)" d="M0,0C8.99,1.92 19.42,3.36 19.42,3.36C19.42,3.36 15.82,19.54 13.31,32.84C10.79,46.15 8.87,55.26 8.87,55.26 " /><path  id="Vector" style="stroke:#505C7B; stroke-width:1.2427210807800293; stroke-opacity:1; stroke-dasharray:0 0" transform="translate(234.33 155.86)  rotate(0 1.32 5.385)" d="M0,10.77C0,10.77 0.72,8.51 2.64,0 " /><path  id="Vector" style="stroke:#505C7B; stroke-width:1.2427210807800293; stroke-opacity:1; stroke-dasharray:0 0" transform="translate(229.53 174.07)  rotate(0 1.92 9.115)" d="M0,18.23C0,18.23 1.8,7.31 3.84,0 " /><path  id="Vector" style="stroke:#505C7B; stroke-width:1.2427210807800293; stroke-opacity:1; stroke-dasharray:0 0" transform="translate(218 190.3)  rotate(0 4.205 1.145)" d="M8.41,2.29L0,0 " /><path  id="Vector" style="stroke:#505C7B; stroke-width:1.2427210807800293; stroke-opacity:1; stroke-dasharray:0 0" transform="translate(182.27 186.8)  rotate(0 14.865 2.895)" d="M29.73,2.7L15.42,0L13.81,5.79L0,3.51 " /><path  id="Vector" style="stroke:#505C7B; stroke-width:1.2427210807800293; stroke-opacity:1; stroke-dasharray:0 0" transform="translate(211.9 97.52)  rotate(0 1.8 9.16)" d="M0,18.32L3.6,0 " /><path  id="Vector" style="stroke:#505C7B; stroke-width:1.2427210807800293; stroke-opacity:1; stroke-dasharray:0 0" transform="translate(206.39 123.14)  rotate(0 2.295 10.41)" d="M0,20.82L4.59,0 " /><path  id="Vector" style="stroke:#505C7B; stroke-width:1.2427210807800293; stroke-opacity:1; stroke-dasharray:0 0" transform="translate(201.79 150.27)  rotate(0 1.65 8.455)" d="M0,16.91L3.3,0 " /><path  id="Vector" style="stroke:#505C7B; stroke-width:1.2427210807800293; stroke-opacity:1; stroke-dasharray:0 0" transform="translate(197.68 174.07)  rotate(0 1.65 6.365)" d="M3.3,0L0,12.73 " /><path  id="Vector" style="stroke:#505C7B; stroke-width:1.2427210807800293; stroke-opacity:1; stroke-dasharray:0 0" transform="translate(164.85 175.29)  rotate(0 4.905 6.655)" d="M9.81,13.31C9.81,13.31 -0.1,11.61 0,11.51C0.1,11.41 1.7,0 1.7,0 " /><path  id="Vector" style="stroke:#505C7B; stroke-width:1.2427210807800293; stroke-opacity:1; stroke-dasharray:0 0" transform="translate(168.36 147.37)  rotate(0 2.15 9.905)" d="M4.3,0.01C4.3,-0.4 0,19.62 0,19.81 " /><path  id="Vector" style="stroke:#505C7B; stroke-width:1.2427210807800293; stroke-opacity:1; stroke-dasharray:0 0" transform="translate(173.36 117.04)  rotate(0 2.405 12.26)" d="M4.81,0L0,24.52 " /><path  id="Vector" style="stroke:#505C7B; stroke-width:1.2427210807800293; stroke-opacity:1; stroke-dasharray:0 0" transform="translate(179.47 95.51)  rotate(0 1.55 7.91)" d="M3.1,0C3.1,0 0,15.41 0,15.82 " /><path  id="Vector" style="stroke:#505C7B; stroke-width:1.2427210807800293; stroke-opacity:1; stroke-dasharray:0 0" transform="translate(214.88 115.82)  rotate(0 2.795 0.205)" d="M5.59,0.41C3.74,0.17 1.87,0.03 0,0 " /><path  id="Vector" style="stroke:#505C7B; stroke-width:1.2427210807800293; stroke-opacity:1; stroke-dasharray:0 0" transform="translate(227 117.04)  rotate(0 7.62 1.3)" d="M15.24,2.6C15.24,2.6 9.53,1.5 0,0 " /><path  id="Vector" style="stroke:#505C7B; stroke-width:1.2427210807800293; stroke-opacity:1; stroke-dasharray:0 0" transform="translate(226.08 133.55)  rotate(0 7.56 0.995)" d="M15.12,1.99C15.12,1.99 7.8,0.77 0,0 " /><path  id="Vector" style="stroke:#505C7B; stroke-width:1.2427210807800293; stroke-opacity:1; stroke-dasharray:0 0" transform="translate(211.9 133.22)  rotate(0 3.095 0.17)" d="M6.19,0.34C6.19,0.34 4.45,0.28 0,0 " /><path  id="Vector" style="stroke:#505C7B; stroke-width:1.2427210807800293; stroke-opacity:1; stroke-dasharray:0 0" transform="translate(189.82 119.64)  rotate(0 9.43 1.285)" d="M18.86,2.57C18.86,2.57 9.91,1.47 0,0 " /><path  id="Vector" style="stroke:#505C7B; stroke-width:1.2427210807800293; stroke-opacity:1; stroke-dasharray:0 0" transform="translate(181.47 118.33)  rotate(0 1.195 0.285)" d="M2.39,0.57L0,0 " /><path  id="Vector" style="stroke:#505C7B; stroke-width:1.2427210807800293; stroke-opacity:1; stroke-dasharray:0 0" transform="translate(178.16 138.73)  rotate(0 1.65 0)" d="M0,0L3.3,0 " /><path  id="Vector" style="stroke:#505C7B; stroke-width:1.2427210807800293; stroke-opacity:1; stroke-dasharray:0 0" transform="translate(187.8 139.71)  rotate(0 8.57 0.93)" d="M17.14,1.86C17.14,1.86 5.6,0.31 0,0 " /><path  id="Vector" style="stroke:#505C7B; stroke-width:1.2427210807800293; stroke-opacity:1; stroke-dasharray:0 0" transform="translate(59.29 144.9)  rotate(0 38.25 27.01)" d="M32.07,0C29.45,2.96 12.37,26.93 7.67,38.29C2.96,49.65 1.22,51.93 0,52.79C0,52.79 11.68,54.18 20.91,54C30.15,53.83 42.7,52.79 47.23,50.69C51.76,48.59 74.75,30.95 76.5,30.36 " /><path  id="Vector" style="stroke:#505C7B; stroke-width:1.2427210807800293; stroke-opacity:1; stroke-dasharray:0 0" transform="translate(94.2 122.2)  rotate(0 0.67 7.37)" d="M0.64,0C0.64,0 1.39,6.17 1.34,8.8C1.34,9.6 0.6,12.3 0,14.74 " /><path  id="Vector" style="stroke:#505C7B; stroke-width:1.2427210807800293; stroke-opacity:1; stroke-dasharray:0 0" transform="translate(66.84 118.76)  rotate(0 12.44 1.2)" d="M0,0.48C1.22,0.35 2.47,0.24 3.77,0.14C10.89,-0.34 18.03,0.42 24.88,2.4 " /><path  id="Vector" style="stroke:#505C7B; stroke-width:1.2427210807800293; stroke-opacity:1; stroke-dasharray:0 0" transform="translate(41.68 120.29)  rotate(0 8.805 6.205)" d="M0,12.41C2.58,8.77 4.6,6.04 5.07,5.01C5.89,3.16 10.45,1.28 17.61,0 " /><path  id="Vector" style="stroke:#505C7B; stroke-width:1.2427210807800293; stroke-opacity:1; stroke-dasharray:0 0" transform="translate(24.11 148.39)  rotate(0 3.815 10.88)" d="M0,21.76C1.34,16.46 2.96,11.23 4.85,6.1C5.65,4.01 6.58,1.98 7.63,0 " /><path  id="Vector" style="stroke:#505C7B; stroke-width:1.2427210807800293; stroke-opacity:1; stroke-dasharray:0 0" transform="translate(20.95 177.34)  rotate(0 0.675 2.305)" d="M1.35,0C0.98,1.56 0.53,3.1 0,4.61 " /><path  id="Vector" style="stroke:#505C7B; stroke-width:1.2427210807800293; stroke-opacity:1; stroke-dasharray:0 0" transform="translate(21.61 183.93)  rotate(0 17.44 6.19)" d="M0,0C4.07,4.97 10.2,9.12 17.4,9.42C24.59,9.72 34.88,12.38 34.88,12.38 " /><path  id="Vector" style="stroke:#505C7B; stroke-width:1.2427210807800293; stroke-opacity:1; stroke-dasharray:0 0" transform="translate(41.68 150.93)  rotate(0 10.12 1.725)" d="M20.24,3.45C20.24,3.45 9.53,0.58 0,0 " /><path  id="Vector" style="stroke:#505C7B; stroke-width:1.2427210807800293; stroke-opacity:1; stroke-dasharray:0 0" transform="translate(58.08 178.2)  rotate(0 1.915 7.61)" d="M0,15.22C1.82,14.26 1.82,11.18 2.39,7.99L3.83,0 " /><path  id="Vector" style="stroke:#505C7B; stroke-width:1.2427210807800293; stroke-opacity:1; stroke-dasharray:0 0" transform="translate(63.64 163.94)  rotate(0 1.29 3.105)" d="M2.58,0C1.51,1.97 0.64,4.06 0,6.21 " /><path  id="Vector" style="stroke:#505C7B; stroke-width:1.2427210807800293; stroke-opacity:1; stroke-dasharray:0 0" transform="translate(71.29 142.7)  rotate(0 3.06 5.835)" d="M6.12,0C6.12,0 3.73,3.44 0,11.67 " /><path  id="Vector" style="stroke:#505C7B; stroke-width:1.2427210807800293; stroke-opacity:1; stroke-dasharray:0 0" transform="translate(82.09 142.7)  rotate(0 1.675 2.25)" d="M3.35,4.5C3.35,4.5 1.53,1.34 0,0 " /><path  id="Vector" style="stroke:#505C7B; stroke-width:1.2427210807800293; stroke-opacity:1; stroke-dasharray:0 0" transform="translate(71.77 158.49)  rotate(0 0.91 2.25)" d="M1.82,4.5C1.82,4.5 0.96,2.4 0,0 " /><path  id="Vector" style="stroke:#505C7B; stroke-width:1.2427210807800293; stroke-opacity:1; stroke-dasharray:0 0" transform="translate(82.09 125.87)  rotate(0 4.4 4.97)" d="M8.8,0C7.75,0.28 3.25,5.54 0,9.94 " /><path  id="Vector" style="stroke:#505C7B; stroke-width:1.2427210807800293; stroke-opacity:1; stroke-dasharray:0 0" transform="translate(9.95 107.2)  rotate(0 7.415 12.295)" d="M14.83,24.59C14.83,24.59 5.55,8.99 0,0 " /><path  id="Vector" style="stroke:#505C7B; stroke-width:1.2427210807800293; stroke-opacity:1; stroke-dasharray:0 0" transform="translate(0 105.47)  rotate(0 3.73 11.255)" d="M2.87,0C1.72,3.83 0,9.11 0,9.11L7.46,22.51 " /><path  id="Vector" style="stroke:#505C7B; stroke-width:1.2427210807800293; stroke-opacity:1; stroke-dasharray:0 0" transform="translate(13.68 138.19)  rotate(0 5.215 10.77)" d="M10.43,21.54C10.43,21.54 0.29,0.19 0,0 " /><path  id="Vector" style="stroke:#505C7B; stroke-width:1.2427210807800293; stroke-opacity:1; stroke-dasharray:0 0" transform="translate(28.71 139.71)  rotate(0 1.52 2.62)" d="M3.04,5.24L0,0 " /><path  id="Vector" style="stroke:#505C7B; stroke-width:1.2427210807800293; stroke-opacity:1; stroke-dasharray:0 0" transform="translate(5.06 87.8)  rotate(0 8.285 4.945)" d="M16.57,0C10.69,2.66 5.13,5.98 0,9.89 " /><path  id="Vector" style="stroke:#505C7B; stroke-width:1.2427210807800293; stroke-opacity:1; stroke-dasharray:0 0" transform="translate(9.3 0)  rotate(0 18.6 33.535)" d="M20.94,67.07C19,58.74 17.16,53.95 12.33,50.91C7.5,47.88 3.74,46.34 4.04,45.01C4.64,42.36 8.21,43.58 8.11,42.56C8,41.55 3.73,39.81 3.22,38.08C2.71,36.35 3.02,34.25 6.07,34.28C6.07,34.28 -1.06,32.07 1.49,29.31C4.04,26.55 3.83,27.27 1.8,25.13C-0.24,23 -1.46,18.82 3.32,18.72C3.32,18.72 -1.56,11.36 1.49,9.03C4.54,6.7 10.47,15.16 10.47,15.16C10.47,15.16 8.31,7.83 8.81,4.67C9.31,1.52 12.17,-1.95 14.1,1.32C16.04,4.58 20.01,15.67 20.01,15.67C20.01,15.67 18.08,9.43 20.52,5.68C22.96,1.93 25.49,0.85 26.02,6.48C26.55,12.11 27.04,19.14 27.04,19.14C27.04,19.14 29.79,14.25 32.01,14.96C34.23,15.68 33.13,22.28 31.4,26.72C31.4,26.72 34.1,26.78 33.26,30.03C32.42,33.28 32.72,34.41 33.84,34.71C34.96,35.02 36.12,34 35.44,40.72C34.76,47.45 34.96,56.61 37.2,63.54 " /><path  id="Vector" style="stroke:#505C7B; stroke-width:1.2427210807800293; stroke-opacity:1; stroke-dasharray:0 0" transform="translate(27.92 63.41)  rotate(0 13.535 3.315)" d="M0,5.92C2.73,2.66 5.28,1.74 9.86,0.73C14.44,-0.29 21.04,-0.19 22.79,0.73C24.54,1.64 27.07,6.63 27.07,6.63 " /><path  id="Vector" style="stroke:#505C7B; stroke-width:1.2427210807800293; stroke-opacity:1; stroke-dasharray:0 0" transform="translate(69.43 183.93)  rotate(0 9.67 7.51)" d="M19.34,0C19.34,0 9.53,10.75 0,15.02 " /><path  id="Vector" style="stroke:#505C7B; stroke-width:1.2427210807800293; stroke-opacity:1; stroke-dasharray:0 0" transform="translate(90.91 176.27)  rotate(0 2.835 2.84)" d="M5.67,0C5.67,0 2.39,2.96 0,5.68 " /><path  id="Vector" style="stroke:#505C7B; stroke-width:1.2427210807800293; stroke-opacity:1; stroke-dasharray:0 0" transform="translate(101.88 165.18)  rotate(0 2.32 2.485)" d="M4.64,0C4.64,0 2.96,1.88 0,4.97 " /><path  id="Vector" style="stroke:#505C7B; stroke-width:1.2427210807800293; stroke-opacity:1; stroke-dasharray:0 0" transform="translate(112.49 150.93)  rotate(0 3.975 4.4)" d="M7.95,0C7.95,0 4.68,3.5 0,8.8 " /><path  id="Vector" style="stroke:#505C7B; stroke-width:1.2427210807800293; stroke-opacity:1; stroke-dasharray:0 0" transform="translate(138.22 135.81)  rotate(0 3.315 2.415)" d="M6.63,0C6.63,0 3.9,3.34 0,4.83 " /><path  id="Vector" style="stroke:#505C7B; stroke-width:1.2427210807800293; stroke-opacity:1; stroke-dasharray:0 0" transform="translate(98.16 134.87)  rotate(0 3.55 1.675)" d="M7.1,0C7.1,0 2.26,1.81 0,3.35 " /><path  id="Vector" style="stroke:#505C7B; stroke-width:1.2427210807800293; stroke-opacity:1; stroke-dasharray:0 0" transform="translate(111.84 130.97)  rotate(0 16.17 0.86)" d="M0,1.72C1.61,1.02 3.27,0.46 4.97,0.04C4.97,0.04 17.14,-0.05 32.34,0.04 " /><path  id="Vector" style="stroke:#505C7B; stroke-width:1.2427210807800293; stroke-opacity:1; stroke-dasharray:0 0" transform="translate(150.02 131.47)  rotate(0 1.625 4.385)" d="M0,0C2.35,0 2.8,0.37 2.8,0.37L3.25,8.77 " /><path  id="Vector" style="stroke:#505C7B; stroke-width:1.2427210807800293; stroke-opacity:1; stroke-dasharray:0 0" transform="translate(148.22 145.9)  rotate(0 2.525 10.26)" d="M0,20.52C1.9,16.51 3.42,13.21 3.42,13.21C5.27,8.65 5.04,0 5.04,0 " /><path  id="Vector" style="stroke:#505C7B; stroke-width:1.2427210807800293; stroke-opacity:1; stroke-dasharray:0 0" transform="translate(151.11 155.33)  rotate(0 9.32 2.44)" d="M0,4.88C0,4.88 11.91,0.7 18.64,0 " /><path  id="Vector" style="stroke:#505C7B; stroke-width:1.2427210807800293; stroke-opacity:1; stroke-dasharray:0 0" transform="translate(153.27 147.78)  rotate(0 3.37 2.615)" d="M6.74,5.23C4.27,3.79 2.01,2.03 0,0 " /><path  id="Vector" style="stroke:#505C7B; stroke-width:1.2427210807800293; stroke-opacity:1; stroke-dasharray:0 0" transform="translate(164.85 147.36)  rotate(0 2.255 2.825)" d="M4.51,0C3.1,1.96 1.6,3.85 0,5.65 " /><path  id="Vector" style="stroke:#505C7B; stroke-width:1.2427210807800293; stroke-opacity:1; stroke-dasharray:0 0" transform="translate(118.34 181.53)  rotate(0 22.685 5.94)" d="M0,11.88C8.47,11.29 14.08,9.05 23.2,6.42C32.31,3.8 44.79,1.17 45.37,0 " /><path  id="Vector" style="stroke:#505C7B; stroke-width:1.2427210807800293; stroke-opacity:1; stroke-dasharray:0 0" transform="translate(25.83 75.31)  rotate(0 3.195 12.195)" d="M6.39,24.39C2.24,18.76 0.21,6.49 0,0 " /><path  id="Vector" style="stroke:#505C7B; stroke-width:1.2427210807800293; stroke-opacity:1; stroke-dasharray:0 0" transform="translate(35.99 92.06)  rotate(0 10.255 5.495)" d="M20.51,0C12.23,1.57 5.24,5.86 0,10.99 " /><path  id="Vector" style="stroke:#505C7B; stroke-width:1.2427210807800293; stroke-opacity:1; stroke-dasharray:0 0" transform="translate(36.72 65.99)  rotate(0 3.295 2.46)" d="M6.59,4.92C6.59,4.92 0.41,0.1 0,0 " /><path  id="Vector" style="stroke:#505C7B; stroke-width:1.2427210807800293; stroke-opacity:1; stroke-dasharray:0 0" transform="translate(37.46 65.99)  rotate(0 2.72 2.03)" d="M5.44,0C5.44,0 0.41,3.77 0,4.06 " /><path  id="Vector" style="stroke:#505C7B; stroke-width:1.2427210807800293; stroke-opacity:1; stroke-dasharray:0 0" transform="translate(46.54 67.07)  rotate(0 1.74 2.32)" d="M3.48,0L0,4.64 " /><path  id="Vector" style="stroke:#505C7B; stroke-width:1.2427210807800293; stroke-opacity:1; stroke-dasharray:0 0" transform="translate(49.39 82.95)  rotate(0 2.8 2.28)" d="M5.6,4.56C5.6,4.56 0.52,0.1 0,0 " /><path  id="Vector" style="stroke:#505C7B; stroke-width:1.2427210807800293; stroke-opacity:1; stroke-dasharray:0 0" transform="translate(48.28 80.54)  rotate(0 3.355 4.73)" d="M6.71,0L0,9.46 " /><path  id="Vector" style="stroke:#505C7B; stroke-width:1.2427210807800293; stroke-opacity:1; stroke-dasharray:0 0" transform="translate(40.91 77.93)  rotate(0 2.67 1.725)" d="M5.34,3.45L0,0 " /><path  id="Vector" style="stroke:#505C7B; stroke-width:1.2427210807800293; stroke-opacity:1; stroke-dasharray:0 0" transform="translate(40.18 77.93)  rotate(0 4.605 5.235)" d="M9.21,0C9.21,0 0.52,10.16 0,10.47 " /><path  id="Vector" style="stroke:#505C7B; stroke-width:1.2427210807800293; stroke-opacity:1; stroke-dasharray:0 0" transform="translate(35.99 92.06)  rotate(0 1.255 1.435)" d="M2.51,0C2.51,0 0.31,2.2 0,2.87 " /><path  id="Vector" style="stroke:#505C7B; stroke-width:1.2427210807800293; stroke-opacity:1; stroke-dasharray:0 0" transform="translate(31.75 82.11)  rotate(0 3.38 4.555)" d="M6.76,0C6.76,0 0.47,8.59 0,9.11 " /><path  id="Vector" style="stroke:#505C7B; stroke-width:1.2427210807800293; stroke-opacity:1; stroke-dasharray:0 0" transform="translate(29.03 76.77)  rotate(0 1.595 2.67)" d="M3.19,0C3.19,0 0.36,4.4 0,5.34 " /><path  id="Vector" style="stroke:#505C7B; stroke-width:1.2427210807800293; stroke-opacity:1; stroke-dasharray:0 0" transform="translate(27.92 77.93)  rotate(0 8.805 5.235)" d="M17.61,10.47C5.15,4.82 0.64,0.21 0,0 " /><path  id="Vector" style="stroke:#505C7B; stroke-width:1.2427210807800293; stroke-opacity:1; stroke-dasharray:0 0" transform="translate(31.74 108.78)  rotate(0 0.67 3.395)" d="M0.01,6.79C0.01,6.79 -0.19,2.63 1.34,0 " /><path  id="Vector" style="stroke:#505C7B; stroke-width:1.2427210807800293; stroke-opacity:1; stroke-dasharray:0 0" transform="translate(62.41 91.6)  rotate(0 2.535 0.575)" d="M0,0.09C0,0.09 0.27,-0.46 5.07,1.15 " /><path  id="Vector" style="stroke:#505C7B; stroke-width:1.2427210807800293; stroke-opacity:1; stroke-dasharray:0 0" transform="translate(115.23 120.92)  rotate(0 5.92 4.19)" d="M11.84,8.38C11.84,8.38 4.6,2.82 0,0 " /><path  id="Vector" style="stroke:#505C7B; stroke-width:1.2427210807800293; stroke-opacity:1; stroke-dasharray:0 0" transform="translate(139.12 115.82)  rotate(0 1.21 6.19)" d="M2.42,12.38C0.91,11 -0.88,5.94 0.49,0 " /><path  id="Vector" style="stroke:#505C7B; stroke-width:1.2427210807800293; stroke-opacity:1; stroke-dasharray:0 0" transform="translate(151.14 100.44)  rotate(0 12.83 5.455)" d="M25.66,10.91C22.71,2.17 8.37,-2.92 0,1.8 " /><path  id="Vector" style="stroke:#505C7B; stroke-width:1.2427210807800293; stroke-opacity:1; stroke-dasharray:0 0" transform="translate(153.16 136.56)  rotate(0 10.75 1.76)" d="M21.5,0C14.26,5.38 5.01,3.45 0,1.65 " /><path  id="Vector" style="stroke:#505C7B; stroke-width:1.2427210807800293; stroke-opacity:1; stroke-dasharray:0 0" transform="translate(156.15 90.34)  rotate(0 0.83 3.87)" d="M1.66,7.74C0.64,6.99 -0.58,3.06 0.3,0 " /><path  id="Vector" style="stroke:#505C7B; stroke-width:1.2427210807800293; stroke-opacity:1; stroke-dasharray:0 0" transform="translate(158.42 73.72)  rotate(0 12.425 5.29)" d="M24.85,1.31C10.64,-2.94 4.28,3.93 0,10.58 " /><path  id="Vector" style="stroke:#505C7B; stroke-width:1.2427210807800293; stroke-opacity:1; stroke-dasharray:0 0" transform="translate(150.41 70.65)  rotate(0 4.175 6.825)" d="M0,0C6.52,2.65 8.35,13.65 8.35,13.65 " /><path  id="Vector" style="stroke:#505C7B; stroke-width:1.2427210807800293; stroke-opacity:1; stroke-dasharray:0 0" transform="translate(117.14 66.66)  rotate(0 14.055 5.685)" d="M28.11,1.55C12.84,-3.41 4.14,4.53 0,11.37 " /><path  id="Vector" style="stroke:#505C7B; stroke-width:1.2427210807800293; stroke-opacity:1; stroke-dasharray:0 0" transform="translate(149.86 90.61)  rotate(0 0.93 3.455)" d="M0.07,6.91C3.02,4.86 1.83,0.88 0,0 " /><path  id="Vector" style="stroke:#505C7B; stroke-width:1.2427210807800293; stroke-opacity:1; stroke-dasharray:0 0" transform="translate(110.35 90.61)  rotate(0 17.055 9.065)" d="M0,0C5.7,2.99 9.03,3.89 14.19,4.32C19.35,4.75 23.01,5.06 26.34,6.91C29.66,8.76 31.7,7.61 32.85,7.47C34.01,7.33 34.75,10.87 33.33,13.72C32.43,15.47 31.13,16.98 29.53,18.13 " /><path  id="Vector" style="stroke:#505C7B; stroke-width:1.2427210807800293; stroke-opacity:1; stroke-dasharray:0 0" transform="translate(112.33 84.7)  rotate(0 14.805 2.215)" d="M0,0C6.04,0.95 7.87,2.85 13.04,3.6C18.2,4.35 26.89,3.74 29.61,4.43 " /><path  id="Vector" style="stroke:#505C7B; stroke-width:1.2427210807800293; stroke-opacity:1; stroke-dasharray:0 0" transform="translate(96.03 82.66)  rotate(0 4.175 2.42)" d="M0,0C0,0 2.99,1.97 8.35,4.84 " /><path  id="Vector" style="stroke:#505C7B; stroke-width:1.2427210807800293; stroke-opacity:1; stroke-dasharray:0 0" transform="translate(94.05 66.24)  rotate(0 4.695 5.4)" d="M9.39,10.8C7.51,9.44 2.78,4.69 0,0 " /><path  id="Vector" style="stroke:#505C7B; stroke-width:1.2427210807800293; stroke-opacity:1; stroke-dasharray:0 0" transform="translate(64.94 54.95)  rotate(0 16.785 9.105)" d="M31.08,10.2C32.58,9.93 33.98,6.74 33.46,5.92C32.94,5.1 27.55,1.78 23.41,0.69C19.27,-0.39 12.07,-0.05 11.6,0.69C11.12,1.44 11.6,3.54 11.6,3.54C11.6,3.54 2.67,6.05 0,18.21 " /><path  id="Vector" style="stroke:#505C7B; stroke-width:1.2427210807800293; stroke-opacity:1; stroke-dasharray:0 0" transform="translate(63.57 80.83)  rotate(0 6.86 12.325)" d="M13.72,24.65C6.45,19.96 1.09,8.15 0,0 " /><path  id="Vector" style="stroke:#505C7B; stroke-width:1.2427210807800293; stroke-opacity:1; stroke-dasharray:0 0" transform="translate(78.98 81.78)  rotate(0 12.695 12.05)" d="M25.39,24.1C7.74,19.05 2.1,6.52 0,0 " /><path  id="Vector" style="stroke:#505C7B; stroke-width:1.2427210807800293; stroke-opacity:1; stroke-dasharray:0 0" transform="translate(110.83 112.53)  rotate(0 2.1 2.68)" d="M4.01,0C4.82,0.75 2.99,4.07 0,5.36 " /><path  id="Vector" style="stroke:#505C7B; stroke-width:1.2427210807800293; stroke-opacity:1; stroke-dasharray:0 0" transform="translate(85.09 112.13)  rotate(0 9.915 2.26)" d="M19.83,4.48C13.38,4.82 5.5,3.12 0,0 " /><path  id="Vector" style="stroke:#505C7B; stroke-width:1.2427210807800293; stroke-opacity:1; stroke-dasharray:0 0" transform="translate(112.93 107.38)  rotate(0 9.135 0.88)" d="M18.27,1.76C9.72,1.62 5.24,1.36 0,0 " /><path  id="Vector" style="stroke:#505C7B; stroke-width:1.2427210807800293; stroke-opacity:1; stroke-dasharray:0 0" transform="translate(78.98 59.97)  rotate(0 6.855 2.68)" d="M13.71,5.36C11.91,3.75 6.05,4.08 0,0 " /><path  id="Vector" style="stroke:#505C7B; stroke-width:1.2427210807800293; stroke-opacity:1; stroke-dasharray:0 0" transform="translate(85.83 68.02)  rotate(0 2.73 3.925)" d="M5.46,7.85C5.46,7.85 1.74,3.85 0,0 " /><path  id="Vector" style="stroke:#505C7B; stroke-width:1.2427210807800293; stroke-opacity:1; stroke-dasharray:0 0" transform="translate(78.26 64.46)  rotate(0 0.395 4.8)" d="M0,9.6C-0.07,7.08 1.06,2.03 0.73,0 " /></g><path id="Vector" fill-rule="evenodd" style="fill:#505C7B" transform="translate(196.24 524.55)  rotate(0 18.17 16.82)" opacity="0.25" d="M28.03,0.21L8.65,0C5.57,1.9 3.12,4.67 1.63,7.97C0.13,11.26 -0.35,14.93 0.25,18.5C3.07,19.78 5.56,21.7 7.51,24.11C9.46,26.51 10.82,29.34 11.49,32.37C14.24,33.46 17.22,33.86 20.17,33.53C23.11,33.2 25.94,32.16 28.39,30.5C30.84,28.83 32.84,26.59 34.23,23.97C35.62,21.35 36.34,18.43 36.34,15.47C36.34,12.43 35.58,9.45 34.13,6.78C32.68,4.12 30.58,1.86 28.03,0.21Z " /><path id="Vector" fill-rule="evenodd" style="fill:#505C7B" transform="translate(421.5 526.97)  rotate(0 18.17 15.61)" opacity="0.25" d="M5.53,0C3.41,2.05 1.82,4.59 0.9,7.39C-0.01,10.19 -0.24,13.17 0.25,16.08C3.08,17.36 5.56,19.28 7.51,21.68C9.46,24.09 10.82,26.92 11.49,29.94C14.24,31.04 17.22,31.44 20.17,31.11C23.11,30.78 25.94,29.74 28.39,28.08C30.84,26.41 32.84,24.17 34.23,21.55C35.62,18.93 36.34,16.01 36.34,13.05C36.34,8.26 34.45,3.67 31.08,0.28L5.53,0Z " /><path id="Vector" fill-rule="evenodd" style="fill:#505C7B" transform="translate(164.82 537.7)  rotate(0 23.48 23.48)" opacity="0.25" d="M23.48,0C10.51,0 0,10.51 0,23.48C0,36.45 10.51,46.96 23.48,46.96C36.45,46.96 46.96,36.45 46.96,23.48C46.96,10.51 36.45,0 23.48,0Z " /><path id="Vector" fill-rule="evenodd" style="fill:#505C7B" transform="translate(390.09 537.7)  rotate(0 23.48 23.48)" opacity="0.25" d="M23.48,0C10.51,0 0,10.51 0,23.48C0,36.45 10.51,46.96 23.48,46.96C36.45,46.96 46.96,36.45 46.96,23.48C46.96,10.51 36.45,0 23.48,0Z " /><path id="Vector" fill-rule="evenodd" style="fill:#FCC9A1" transform="translate(120.56 503.75)  rotate(0 19.585 21.86)" opacity="1" d="M5.02,20.87C3.43,24.96 0,33.42 0,33.42C0.66,33.68 4.1,36.59 5.68,38.96C7.26,41.34 9.91,43.72 13.74,43.72C17.57,43.72 28.54,40.41 28.54,40.41C27.08,31.55 31.44,30.36 31.44,30.36C32.23,26.4 39.17,8.7 39.17,8.7C29.07,7.27 19.68,3.31 11.22,0C11.22,0 6.61,16.78 5.02,20.87Z " /><path id="Vector" fill-rule="evenodd" style="fill:#FCC9A1" transform="translate(7.32 494.23)  rotate(0 17.73 17.08)" opacity="1" d="M0,12.63C0,12.63 3.95,17.27 5.03,19.6C6.11,21.92 8.29,28.81 9.59,29.97C10.89,31.13 16.87,34.23 22.52,34.16C28.17,34.08 30.73,33 30.73,33C30.73,33 31.35,21.4 35.46,16.11C35.47,16.11 17.27,9.76 6.81,0C4.83,4.36 2.55,8.58 0,12.63Z " /><path id="Vector" fill-rule="evenodd" style="fill:#54C3E5" transform="translate(115.5 533.54)  rotate(0 28.75 16.295)" opacity="0.25" d="M11.47,4.93C9.48,1.8 7.2,-1.7 6.15,0.92C5.99,1.3 4.26,5.29 3.37,7.24C2.47,9.18 0.88,13.57 0.53,21.26C0.18,28.95 -1.91,30.54 5.6,31.22C15.73,32.15 17.33,30.21 23.34,30.21C25.7,30.21 27.14,31.39 32.45,31.9C37.76,32.41 51.8,32.59 51.8,32.59C50.01,19.01 57.5,13.92 57.5,13.92C54.9,12.98 52.34,11.9 49.86,10.69C46.29,8.89 42.91,5.79 42.91,5.79C40.58,5.9 38.26,6.13 35.96,6.49C31.97,7.1 22.68,10.31 19.12,10.66C15.55,11.01 13.47,8.05 11.47,4.93Z " /><path id="Vector" fill-rule="evenodd" style="fill:#FCC9A1" transform="translate(259.87 10.21)  rotate(0 31.48 13.93)" opacity="1" d="M42.35,22.39C46.26,22.73 55.16,22.39 55.16,22.39C55.16,22.39 55.6,24.89 56.08,27.86C57.94,26.74 60.85,24.78 62.06,22.85C63.9,19.92 62.89,18.65 59.29,13.7C55.69,8.76 41.68,0.7 32.03,0.11C26.32,-0.25 20.58,0.26 15.02,1.63C7.66,1.37 2,5.32 0.62,8.17C-0.77,11.02 0.62,14.54 0.62,14.54C0.62,14.54 12.46,12.55 30.69,18.35L30.67,18.44C32.83,19.03 38.7,22.07 42.35,22.39Z " /><path id="Vector" fill-rule="evenodd" style="fill:#FCC9A1" transform="translate(176.14 242.21)  rotate(0 10.455 5.07)" opacity="1" d="M5.04,7.83C6.45,8.8 8.77,7.83 8.77,7.83C8.77,7.83 11.72,10.92 13.14,9.95C14.55,8.99 15.89,6.9 15.89,6.9C15.89,6.9 17.88,10.72 19.95,9.18C20.63,8.67 20.91,5.45 20.91,5.45C20.91,5.45 12.7,2.32 0.69,0C-0.14,1.99 -0.48,5.01 1.19,5.39C2.86,5.76 4.21,4.1 4.21,4.1C4.21,4.1 3.63,6.87 5.04,7.83Z " /><path id="Vector" fill-rule="evenodd" style="fill:#FCC9A1" transform="translate(157.14 219.1)  rotate(0 19.68 8.49)" opacity="1" d="M0,9.55C0,9.55 0.42,13.31 2.63,15.06C4.85,16.81 10.27,16.98 10.27,16.98C10.21,14.98 11.37,12.3 16.39,12.01C21.41,11.71 39.36,16.38 39.36,16.38C39.36,16.38 36.06,6.99 35.3,6.58C34.55,6.18 27.89,4.49 18.86,0C16.03,2.39 7.57,6.29 0,9.55Z " /><path id="Vector" fill-rule="evenodd" style="fill:#FCC9A1" transform="translate(188.99 215.91)  rotate(0 14.27 11.34)" opacity="1" d="M4.11,11.57C4.11,11.57 9,10.09 9.81,9.91C10.77,9.71 13.26,8.63 14.59,9.59C15.26,10.05 15.83,10.64 16.26,11.33C16.69,12.02 16.96,12.8 17.08,13.6C17.32,15.32 17.05,16.57 14.67,17.72C13.03,18.51 10.18,19.36 8.53,19.81L20.16,22.68C20.16,22.68 20.92,20.85 21.84,20.99C22.77,21.14 24.99,20.99 25.99,20.17C26.27,19.96 26.48,19.66 26.59,19.33C26.7,19 26.7,18.64 26.6,18.31C26.6,18.31 28.13,17.68 28.36,17.06C28.59,16.45 28.6,15.38 28.37,10.93C28.14,6.49 28.52,5.27 26.99,3.19C25.46,1.12 20.54,1.04 17.64,0.97C14.74,0.89 8.94,0 8.94,0C4.8,4.02 0,11.68 0,11.68L1.71,12.27L2.8,10.47C2.8,10.47 3.45,10.19 4.11,11.57Z " /><path id="Vector" fill-rule="evenodd" style="fill:#FCC9A1" transform="translate(254.85 24.44)  rotate(0 17.855 20.775)" opacity="1" d="M26.49,37.87L35.71,4.14C17.47,-1.65 5.64,0.32 5.64,0.32C1.56,6.44 0.21,13.42 0.01,16.43C-0.18,19.44 2.24,27.98 3.02,32.44C3.79,36.9 2.97,38.24 0.98,41.55L26.49,37.87Z " /><path id="Vector" fill-rule="evenodd" style="fill:#DC6437" transform="translate(259.87 10.21)  rotate(0 31.48 13.93)" opacity="0.75" d="M42.35,22.39C46.26,22.73 55.16,22.39 55.16,22.39C55.16,22.39 55.6,24.89 56.08,27.86C57.94,26.74 60.85,24.78 62.06,22.85C63.9,19.92 62.89,18.65 59.29,13.7C55.69,8.76 41.68,0.7 32.03,0.11C26.32,-0.25 20.58,0.26 15.02,1.63C7.66,1.37 2,5.32 0.62,8.17C-0.77,11.02 0.62,14.54 0.62,14.54C0.62,14.54 12.46,12.55 30.69,18.35L30.67,18.44C32.83,19.03 38.7,22.07 42.35,22.39Z " /><path  id="Vector" style="stroke:#DC6437; stroke-width:0.8284807205200195; stroke-opacity:1; stroke-dasharray:0 0" transform="translate(292.66 25.01)  rotate(0 13.745 5.26)" d="M0,5.64C2.44,2.68 13.62,-1.23 19.85,0.37C26.08,1.98 27.49,6.66 27.49,7.76C27.49,8.85 25.18,10.52 25.18,10.52 " /><path  id="Vector" style="stroke:#DC6437; stroke-width:0.8284807205200195; stroke-opacity:1; stroke-dasharray:0 0" transform="translate(299.51 25.3)  rotate(0 3.08 2.295)" d="M6.16,0C6.16,0 1.61,2.52 0,4.59 " /><path  id="Vector" style="stroke:#DC6437; stroke-width:0.8284807205200195; stroke-opacity:1; stroke-dasharray:0 0" transform="translate(299.83 27.35)  rotate(0 4.175 3.25)" d="M8.35,0C5.37,1.91 2.58,4.08 0,6.5 " /><path  id="Vector" style="stroke:#DC6437; stroke-width:0.8284807205200195; stroke-opacity:1; stroke-dasharray:0 0" transform="translate(303.56 28.56)  rotate(0 4.14 2.96)" d="M8.28,0C8.28,0 6.15,0.3 0,5.92 " /><path  id="Vector" style="stroke:#DC6437; stroke-width:0.8284807205200195; stroke-opacity:1; stroke-dasharray:0 0" transform="translate(315.03 32.28)  rotate(0 1.98 0.185)" d="M3.96,0C3.96,0 1.37,0.54 0,0.32 " /><path  id="Vector" style="stroke:#DC6437; stroke-width:0.8284807205200195; stroke-opacity:1; stroke-dasharray:0 0" transform="translate(283.34 15.09)  rotate(0 10.34 4.765)" d="M20.68,0.05C13.87,-0.54 4.2,4.69 0,9.53 " /><path  id="Vector" style="stroke:#DC6437; stroke-width:0.8284807205200195; stroke-opacity:1; stroke-dasharray:0 0" transform="translate(277.18 13.37)  rotate(0 7.08 6.325)" d="M14.16,0C6.54,1.07 -0.1,8.79 0,12.65 " /><path  id="Vector" style="stroke:#DC6437; stroke-width:0.8284807205200195; stroke-opacity:1; stroke-dasharray:0 0" transform="translate(267.06 11.84)  rotate(0 3.91 5.505)" d="M7.82,0C3.61,0.87 -0.19,8.18 0.01,11.01 " /><path id="Vector" fill-rule="evenodd" style="fill:#DC6437" transform="translate(254.85 24.44)  rotate(0 17.855 20.775)" opacity="0.5" d="M26.49,37.87L35.71,4.14C17.47,-1.65 5.64,0.32 5.64,0.32C1.56,6.44 0.21,13.42 0.01,16.43C-0.18,19.44 2.24,27.98 3.02,32.44C3.79,36.9 2.97,38.24 0.98,41.55L26.49,37.87Z " /><path id="Vector" fill-rule="evenodd" style="fill:#FCC9A1" transform="translate(249.56 28.52)  rotate(0 33.815 36.145)" opacity="1" d="M54.51,59.11C55.36,56.8 56.09,54.11 58.29,50.94C60.48,47.77 63.74,39.99 63.5,36.49C63.27,32.99 62.78,29.65 63.5,27.38C64.23,25.11 67.29,20.69 67.61,19.11C67.64,18.88 67.64,18.64 67.61,18.4C67.56,17.4 67.34,15.62 67.05,13.65C66.42,9.31 65.5,4.03 65.5,4.03C65.5,4.03 56.59,4.37 52.68,4.03C48.77,3.69 42.31,0.22 40.61,0.01C38.91,-0.21 31.77,5.23 31.19,7.05C30.62,8.86 31.88,11.7 32.27,12.55C32.67,13.39 25.92,22.59 25.92,22.59C25.92,22.59 25.58,19.12 22.63,18.39C20.91,17.97 14.64,19.37 17.81,28.33C17.81,28.33 6.79,35.23 0,38.87C1.45,47.89 5.86,54.23 8.91,60.09C11.95,65.95 14.64,71.19 18.05,72.29C18.05,72.29 19.39,68.49 24.89,64.62C27.87,62.53 32.07,60.41 37.93,58.87C37.93,58.87 38.58,59.26 39.59,59.75C41.26,60.61 43.04,61.26 44.87,61.68C48.04,62.28 53.65,61.43 54.51,59.11Z " /><path  id="Vector" style="stroke:#DC6437; stroke-width:0.8284807205200195; stroke-opacity:1; stroke-dasharray:0 0" transform="translate(395.65 16.5)  rotate(0 17.925 14.67)" d="M0,29.34C1.31,25.71 7.43,26.5 10.45,20.64C13.47,14.78 15.84,10.06 23.61,8.53C31.38,6.99 35.85,0 35.85,0 " /><path  id="Vector" style="stroke:#DC6437; stroke-width:0.8284807205200195; stroke-opacity:1; stroke-dasharray:0 0" transform="translate(340.55 61.5)  rotate(0 27.395 41)" d="M54.73,0C55.25,9.85 52.44,15.43 48.19,19.52C38.34,28.97 31.11,27.62 25.53,37.04C18.08,49.62 23.62,59.87 19.17,67.36C14.2,75.72 1.13,71.81 0,82 " /><path  id="Vector" style="stroke:#DC6437; stroke-width:0.8284807205200195; stroke-opacity:1; stroke-dasharray:0 0" transform="translate(354.7 3.32)  rotate(0 33.47 33.315)" d="M46.65,16.49C48.87,13.92 44.62,12.63 40.63,12.73C40.33,12.74 40.01,12.77 39.7,12.83C38.35,17.08 44.72,18.71 46.65,16.49Z M0,66.63C8.8,61.3 14.72,58.35 16.98,51.53C20.03,42.71 23.66,34.1 27.84,25.76C31.94,17.66 35.97,13.5 39.7,12.83 M39.7,12.83C39.91,12.17 40.31,11.44 40.94,10.66C45.61,4.84 52.47,0.39 58.87,0.99C65.26,1.58 66.94,0 66.94,0 " /><path  id="Vector" style="stroke:#DC6437; stroke-width:0.8284807205200195; stroke-opacity:1; stroke-dasharray:0 0" transform="translate(417.15 0.32)  rotate(0 8.49 8.555)" d="M16.98,17.11C13.42,8.84 5.67,3.7 0,0 " /><path  id="Vector" style="stroke:#DC6437; stroke-width:0.8284807205200195; stroke-opacity:1; stroke-dasharray:0 0" transform="translate(337.41 51.14)  rotate(0 27.64 29.725)" d="M0,59.45C8.67,51.83 13.85,49.12 17.29,40.18C20.73,31.24 24.64,24.91 35.49,20.89C46.34,16.88 54.58,13.46 55.28,0 " /><path id="Vector" fill-rule="evenodd" style="fill:#DC6437" transform="translate(324.63 0)  rotate(0 55.805 77.8)" opacity="0.75" d="M15.93,150.04C23.16,156.56 34.44,155.54 34.44,155.54C34.44,141.84 45.23,146.37 51.12,135.11C57.01,123.84 49.03,117.83 53.34,106.98C56.32,99.52 68.36,95.93 70.74,88.42C72.09,84.17 76.42,82.95 76.3,74.59C76.17,66.24 71.84,53.61 71.84,53.61C71.84,53.61 110.37,26.88 110.8,25.08C111.23,23.29 112.08,14.84 111.27,13.4C110.47,11.96 102.64,-0.18 88.26,0C73.88,0.18 63.99,3.51 58.05,11.51C52.12,19.51 44.4,40.19 43.35,48.01C42.3,55.83 39.53,63.14 35.67,65.72C24.6,73.08 17.78,83.07 17.86,92.96C17.93,102.85 17.49,106.99 9.57,113.55C1.66,120.11 0,133.78 0,133.78C5.89,135.95 8.7,143.51 15.93,150.04Z " /><path id="Vector" fill-rule="evenodd" style="fill:#FCC9A1" transform="translate(390.67 12.97)  rotate(0 25.22 38.745)" opacity="1" d="M7.55,31.31C2.25,29.75 -0.04,32.66 0,36.56C0.07,41.63 2.9,44.59 5.8,45.61C7.71,51.2 8.59,63.43 4.69,75.44C13.14,76.47 19.55,77.49 19.55,77.49C19.55,77.49 20.75,74.06 22.65,70.11C24.07,67.16 25.88,63.91 27.85,61.61C27.85,61.61 30.08,62.14 32.41,62.64C34.09,63.01 35.83,63.36 36.84,63.47C39.25,63.75 43.82,61.44 45.2,59.66C46.58,57.89 46.3,56.03 46.86,51.95C47.41,47.87 49.65,39.7 49.83,34.97C50,30.24 51.12,25.17 49.82,19.97C48.52,14.77 45.92,5.85 39.78,0C39.78,0 39.6,10.03 29.94,14.31C26.23,15.95 23.78,18.37 20.46,24.9C17.02,31.62 13.5,33.04 7.55,31.31Z " /><path id="Vector" fill-rule="evenodd" style="fill:#2C2F53" transform="translate(404.02 67.64)  rotate(0 7.25 7.725)" opacity="1" d="M3.94,3.8C2.27,3.25 1.02,1.73 0,0L0.06,0.47C0.28,2 1.04,6.9 2.03,8.51C2.8,9.75 6.65,13.21 9.3,15.45C10.72,12.5 12.53,9.25 14.5,6.95C14.5,6.95 7.32,4.91 3.94,3.8Z " /><path id="Vector" fill-rule="evenodd" style="fill:#FCC9A1" transform="translate(399.17 89.61)  rotate(0 27.78 116.93)" opacity="1" d="M35.38,138C35.38,129.65 36.26,112.59 36.34,101.96C36.41,91.32 36.81,86.32 37.02,74.34C37.23,62.36 37.51,43.39 37.02,34.82C36.53,26.25 36.91,21.64 32.46,12.89C28.02,4.13 18.01,-0.51 14.01,0.04C1.04,1.86 -1.23,18.54 0.52,28.3C2.26,38.07 6.56,66.87 7.5,75.28C8.44,83.7 8.77,100.36 8.85,109.1C8.93,117.83 7.9,131.23 8.85,140.05C9.8,148.86 13.32,173.69 14.72,183.55C16.29,194.53 14.33,195.53 14.88,202.35C15.44,209.18 25.91,211.72 25.91,211.72L27.42,222.52C27.42,222.52 24.41,226 23.69,227.9C22.98,229.81 25.59,232.99 26.63,232.74C27.67,232.5 34.25,225.2 34.41,224.33C34.57,223.46 33.85,212.11 33.85,212.11L37.5,223.38C37.5,223.38 34.72,226.87 33.54,228.54C32.35,230.21 34.57,233.78 35.44,233.86C36.32,233.94 38.85,230.29 38.85,230.29C38.85,230.29 39.89,232.99 40.76,232.99C41.63,232.99 45.68,228.14 45.68,228.14C45.68,228.76 49.81,229.33 50.76,229.17C51.71,229.01 55.13,222.98 55.52,222.27C55.92,221.56 52.91,205.52 52.03,204.73C51.16,203.94 34.65,196.78 34.41,196.16C34.17,195.53 34.97,181.88 34.97,173.79C34.97,165.69 35.38,146.34 35.38,138Z " /><path id="Vector" fill-rule="evenodd" style="fill:#F06082" transform="translate(368.18 86.59)  rotate(0 25.16 74.205)" opacity="0.5" d="M36.43,46.09C34.72,31.78 32.97,28.34 35.14,17.48C37.97,3.34 50.32,4.56 50.32,4.56C38.56,0.85 24.66,0 24.66,0C24.66,0 25.23,3.13 13.75,10.77C2.27,18.41 5.81,30.78 6.52,39.12C7.23,47.46 0,52.02 0,52.02C0,52.02 1.29,59.81 5.12,72.85C8.95,85.9 18.45,115.95 21,124.6C23.55,133.24 27.8,148.41 28.65,148.41C29.5,148.41 34.7,147.58 42.21,145.03C42.21,145.03 41.34,140.16 41.9,108.12C42.47,76.09 38.13,60.41 36.43,46.09Z " /><path id="Vector" fill-rule="evenodd" style="fill:#F06082" transform="translate(432.12 110.29)  rotate(0 15.25 57.985)" opacity="0.5" d="M29.93,102.95C31.42,100.45 29.76,96.95 27.59,84.6C25.42,72.25 22.58,52.06 22.25,45.39C21.91,38.71 18.08,36.38 14.07,27.03C10.07,17.68 0.4,0 0.4,0C0.4,0 2.4,21.69 1.9,41.55C1.41,61.4 -0.15,101.96 0.01,115.97C8.19,114.14 28.43,105.46 29.93,102.95Z " /><path  id="Vector" style="stroke:#2C2F53; stroke-width:0.8284807205200195; stroke-opacity:1; stroke-dasharray:0 0" transform="translate(396.47 58.61)  rotate(0 1.385 0.105)" d="M2.77,0C1.87,0.28 0.9,0.28 0,0 " /><path  id="Vector" style="stroke:#2C2F53; stroke-width:0.8284807205200195; stroke-opacity:1; stroke-dasharray:0 0" transform="translate(401.35 62.49)  rotate(0 8.585 6.05)" d="M17.17,12.1C17.17,12.1 9.98,10.06 6.61,8.95C4.95,8.4 3.69,6.87 2.66,5.15C1.64,3.42 0.81,1.42 0,0 " /><path  id="Vector" style="stroke:#2C2F53; stroke-width:0.8284807205200195; stroke-opacity:1; stroke-dasharray:0 0" transform="translate(399.68 44.73)  rotate(0 0.12 5.8)" d="M0,11.6C0,11.6 0.15,6.11 0.24,0 " /><path  id="Vector" style="stroke:#2C2F53; stroke-width:0.8284807205200195; stroke-opacity:1; stroke-dasharray:0 0" transform="translate(419.88 33.13)  rotate(0 5.955 2.275)" d="M11.91,1.05C10.4,-1.07 2.41,-0.01 0,4.55 " /><path  id="Vector" style="stroke:#2C2F53; stroke-width:0.8284807205200195; stroke-opacity:1; stroke-dasharray:0 0" transform="translate(434.5 31.57)  rotate(0 3.5 11.11)" d="M7,0C2.86,1.28 0.79,6.01 2.15,10.86C3.52,15.7 6.42,19.52 6.79,20.39C7.17,21.26 4.6,22.66 0,22.08 " /><path  id="Vector" style="stroke:#2C2F53; stroke-width:0.8284807205200195; stroke-opacity:1; stroke-dasharray:0 0" transform="translate(438.9 38.2)  rotate(0 1.915 0.69)" d="M3.83,0C2.82,1.75 0,1.34 0,1.34 " /><path  id="Vector" style="stroke:#2C2F53; stroke-width:0.8284807205200195; stroke-opacity:1; stroke-dasharray:0 0" transform="translate(422.44 40.61)  rotate(0 2.58 0.905)" d="M5.16,1.65C3.55,2.26 0.89,0.98 0,0 " /><path id="Vector" fill-rule="evenodd" style="fill:#2C2F53" transform="translate(432.63 52.91)  rotate(0 1.93 0.695)" opacity="1" d="M0.01,0.53C-0.15,1.16 1.25,1.92 3.86,0.88C1.54,-0.37 0.17,-0.1 0.01,0.53Z " /><path id="Vector" fill-rule="evenodd" style="fill:#2C2F53" transform="translate(437.14 38.2)  rotate(0 1.475 1.475)" opacity="1" d="M1.48,0C0.66,0 0,0.66 0,1.48C0,2.29 0.66,2.95 1.48,2.95C2.29,2.95 2.95,2.29 2.95,1.48C2.95,0.66 2.29,0 1.48,0Z " /><path id="Vector" fill-rule="evenodd" style="fill:#2C2F53" transform="translate(425.32 40.26)  rotate(0 1.99 1.99)" opacity="1" d="M1.99,0C0.89,0 0,0.89 0,1.99C0,3.09 0.89,3.98 1.99,3.98C3.09,3.98 3.98,3.09 3.98,1.99C3.98,0.89 3.09,0 1.99,0Z " /><path id="Vector" fill-rule="evenodd" style="fill:#2C2F53" transform="translate(422.14 58.63)  rotate(0 6.64 4.505)" opacity="1" d="M7.17,9.01C12.02,8.99 13.45,1.53 13.26,0.87C13.08,0.21 11.57,0.26 6.82,0.18C2.08,0.1 0.63,-0.31 0.31,0.45C-0.77,2.94 0.88,9.04 7.17,9.01Z " /><path id="Vector" fill-rule="evenodd" style="fill:#FFFFFF" transform="translate(423.37 59.55)  rotate(0 4.85 1.235)" opacity="1" d="M0.3,1.28C0.5,1.63 0.77,1.93 1.1,2.15C1.51,2.34 7.25,2.53 8.27,2.45C9.28,2.37 9.73,0.41 9.7,0.28C9.67,0.14 0.02,-0.19 0,0.14C0.01,0.54 0.11,0.93 0.3,1.28Z " /><path  id="Vector" style="stroke:#2C2F53; stroke-width:0.8284807205200195; stroke-opacity:1; stroke-dasharray:0 0" transform="translate(433.01 297.33)  rotate(0 0.03 2.195)" d="M0.06,0C0.06,0 -0.07,0.68 0.06,4.39 " /><path  id="Vector" style="stroke:#2C2F53; stroke-width:0.8284807205200195; stroke-opacity:1; stroke-dasharray:0 0" transform="translate(438.05 297.93)  rotate(0 2.815 10.985)" d="M3.25,0C3.17,2.99 3.67,4.27 4.53,8.54C5.4,12.81 5.98,15.28 5.39,15.97C4.79,16.65 0,21.97 0,21.97 " /><path  id="Vector" style="stroke:#2C2F53; stroke-width:0.8284807205200195; stroke-opacity:1; stroke-dasharray:0 0" transform="translate(444.89 296.4)  rotate(0 2.23 10.675)" d="M0,21.35C2.07,19.2 4.16,17.46 4.43,16.93C4.69,16.4 3.21,2.85 3,1.91C2.79,0.97 1.78,0 1.78,0 " /><path  id="Vector" style="stroke:#F06082; stroke-width:0.8284807205200195; stroke-opacity:1; stroke-dasharray:0 0" transform="translate(396.78 235)  rotate(0 8.085 31.165)" d="M0.05,0C-0.14,6.91 0.17,8.91 1.4,14.76C2.63,20.61 4.63,30.77 4.94,34.31C5.24,37.85 5.66,50.66 16.17,62.33 " /><path  id="Vector" style="stroke:#F06082; stroke-width:0.8284807205200195; stroke-opacity:1; stroke-dasharray:0 0" transform="translate(462.62 215.04)  rotate(0 3.78 10.43)" d="M7.56,20.86C4.3,15.12 -0.1,2.78 0,0 " /><path  id="Vector" style="stroke:#F06082; stroke-width:0.8284807205200195; stroke-opacity:1; stroke-dasharray:0 0" transform="translate(464.15 242.03)  rotate(0 3.395 5.98)" d="M6.79,0C6.79,0 3.73,7.85 0,11.96 " /><path  id="Vector" style="stroke:#F06082; stroke-width:0.8284807205200195; stroke-opacity:1; stroke-dasharray:0 0" transform="translate(471.42 244.7)  rotate(0 1.435 5.17)" d="M0,10.34C0,10.34 2.29,4.21 2.87,0 " /><path  id="Vector" style="stroke:#F06082; stroke-width:0.8284807205200195; stroke-opacity:1; stroke-dasharray:0 0" transform="translate(474.29 235.89)  rotate(0 49.5 1.72)" d="M99,0C95.33,-0.05 17.25,3.57 0,3.44 " /><path  id="Vector" style="stroke:#F06082; stroke-width:0.8284807205200195; stroke-opacity:1; stroke-dasharray:0 0" transform="translate(475.47 288.74)  rotate(0 43.94 7.41)" d="M87.88,0C54.96,7.48 15.33,13.64 0,14.82 " /><path  id="Vector" style="stroke:#F06082; stroke-width:0.8284807205200195; stroke-opacity:1; stroke-dasharray:0 0" transform="translate(564.11 268.28)  rotate(0 5.835 8.59)" d="M11.67,0C9.05,1.86 2.62,11.8 0,17.18 " /><path  id="Vector" style="stroke:#F06082; stroke-width:0.8284807205200195; stroke-opacity:1; stroke-dasharray:0 0" transform="translate(513.58 298.38)  rotate(0 17.365 19.97)" d="M34.73,39.94C34.73,39.94 6.18,5.77 0,0 " /><path  id="Vector" style="stroke:#F06082; stroke-width:0.8284807205200195; stroke-opacity:1; stroke-dasharray:0 0" transform="translate(540.86 295.26)  rotate(0 30.085 43.34)" d="M21.16,0C19.65,1.21 19.8,2.27 19.35,6.05C18.89,9.83 12.39,40.52 10.43,51.55C8.47,62.59 2.87,82.85 0,85.87C0,85.87 8.47,87.69 25.55,85.87C42.63,84.06 60.17,79.52 60.17,79.52 " /><path  id="Vector" style="stroke:#F06082; stroke-width:0.8284807205200195; stroke-opacity:1; stroke-dasharray:0 0" transform="translate(581.68 234.93)  rotate(0 10.645 67.96)" d="M0,0C3.93,0.91 16.93,11.49 19.35,19.96C21.77,28.42 21.47,37.19 20.86,40.52C20.26,43.85 19.35,47.62 19.35,52.46C19.35,57.3 20.26,77.56 18.6,135.92 " /><path  id="Vector" style="stroke:#F06082; stroke-width:0.8284807205200195; stroke-opacity:1; stroke-dasharray:0 0" transform="translate(582.71 315.28)  rotate(0 41.615 51.77)" d="M18.56,0C31.43,15.43 49.79,30.73 57.91,38.84C66.03,46.95 83.23,62.69 83.23,62.69C71.06,83.82 39.18,103.54 39.18,103.54C39.18,103.54 10.07,75.09 0,63.46 " /><path id="Vector" fill-rule="evenodd" style="fill:#F06082" transform="translate(636.92 379.04)  rotate(0 36.81 21.025)" opacity="0.25" d="M2.33,41.91C15.67,42.83 23.83,38.92 23.83,38.92C24.59,34.93 31.23,32.42 42.71,33.37C44.73,34.29 71.75,24.52 73.62,19.14C71.9,12.81 63.39,8.79 57.98,8.1C52.58,7.41 38.89,6.49 34.64,5.57C30.38,4.65 24.82,0 24.82,0C23.21,3.56 6.68,19.84 0.01,24.44C-0.21,28.24 2.33,41.89 2.33,41.91Z " /><path  id="Vector" style="stroke:#F06082; stroke-width:0.8284807205200195; stroke-opacity:1; stroke-dasharray:0 0" transform="translate(635.99 395.73)  rotate(0 35.405 9.845)" d="M0,19.62C4.93,20.09 19.83,17.97 20.85,17.48C21.87,17 26.34,12.27 33.32,12.27C40.3,12.27 40.4,12.64 47.82,9.94C55.25,7.24 70.81,0 70.81,0 " /><path id="Vector" fill-rule="evenodd" style="fill:#F06082" transform="translate(535.41 376.13)  rotate(0 32.045 31.07)" opacity="0.25" d="M8.41,2.9L0,23.92C0,23.92 5.93,32.27 12.19,33.16C18.44,34.06 24.18,38.72 26.69,44.1C29.19,49.47 31.88,51.09 40.66,56.46C49.45,61.83 62.78,62.14 62.78,62.14C67.57,50.54 58.03,42.65 53.75,38.53C49.47,34.41 48.01,26.36 45.32,20.43C42.64,14.5 43,0 43,0C36.55,1.98 21.14,2.88 8.41,2.9Z " /><path  id="Vector" style="stroke:#F06082; stroke-width:0.8284807205200195; stroke-opacity:1; stroke-dasharray:0 0" transform="translate(537.13 395.71)  rotate(0 28.56 19.005)" d="M57.12,38.01C44.18,33.45 33.02,30.36 28.89,23.1C24.76,15.84 17.46,11.71 13.74,10.47C10.02,9.23 2.64,3.3 0,0 " /><path id="Vector" fill-rule="evenodd" style="fill:#54C3E5" transform="translate(94.39 64.65)  rotate(0 87.465 95.3)" opacity="0.5" d="M97.88,190.6L97.81,184.39C93.3,186.19 90.93,183.77 90.93,183.77C86.77,185.58 88.14,180.09 87.94,179.46C87.74,178.83 84.63,179.99 84.21,179.92C83.79,179.84 85.35,175.81 85.35,175.81C85.35,175.81 79.26,174.78 76.85,173.4C74.44,172.02 76.52,168.96 76.52,168.96C63.63,169.41 66.16,164.91 66.16,164.91C69.03,163.75 82.43,157.16 82.43,157.16L96.34,163.52C102.31,152.95 117.18,139.28 135.62,119.13C154.07,98.97 164.83,84.96 167.22,80.69C169.62,76.42 170.47,61.56 172.04,43.92C172.26,41.43 171.49,40.66 173.78,39.43C176.08,38.21 174.56,33.55 172.42,32.55C170.28,31.55 163.03,16.8 160.4,11.29C157.78,5.79 158.53,6.54 157.53,3.04C156.53,-0.45 149.89,-1.03 147.03,1.8C144.54,4.28 135.09,6.12 127.75,8.01C120.41,9.9 109.61,15.04 108.24,15.12C98.87,15.63 91.54,19.43 84.96,23.05C78.38,26.68 50.64,41.73 35.97,48.91C21.3,56.1 17.22,58.89 12.53,64.94C7.85,70.99 7.68,80.14 7.62,82.4C7.56,84.67 9.52,94.05 13,100.92C16.48,107.8 24.72,122.77 24.72,122.77C20.04,127.99 8.16,149.31 4.46,157.02C0.76,164.73 0,170.32 0,170.32C7.43,177.2 25.24,181.5 42.54,184.55C77.09,190.6 97.88,190.6 97.88,190.6Z " /><path id="Vector" fill-rule="evenodd" style="fill:#DC6437" transform="translate(286.47 38.27)  rotate(0 9.165 3.465)" opacity="0.75" d="M16.69,6.93C16.69,6.93 18.56,5.11 18.31,3.44C18.05,1.77 16.77,0.41 16.11,0.25C12.15,-0.67 4.69,1.13 2.52,2.54C0.34,3.96 0,5.24 0,5.24C4.8,3.95 12.23,2.59 16.69,6.93Z " /><path id="Vector" fill-rule="evenodd" style="fill:#DC6437" transform="translate(311.86 42.2)  rotate(0 2.645 3.41)" opacity="0.75" d="M4.73,0.01C3.13,-0.09 1.28,0.43 1.19,0.61C1.07,0.87 0.9,2.86 0,6.82C1.45,5.08 3.6,4.72 5.29,4.77C5.24,3.77 5.02,1.99 4.73,0.01Z " /><path id="Vector" fill-rule="evenodd" style="fill:#2C2F53" transform="translate(299.06 66.48)  rotate(0 2.335 0.955)" opacity="1" d="M0.02,0.92C-0.28,2.96 3.36,1.13 4.67,1.65C2.53,-0.49 0.21,-0.34 0.02,0.92Z " /><path id="Vector" fill-rule="evenodd" style="fill:#2C2F53" transform="translate(296.31 52.27)  rotate(0 1.995 1.995)" opacity="1" d="M2,0C0.89,0 0,0.89 0,2C0,3.1 0.89,3.99 2,3.99C3.1,3.99 3.99,3.1 3.99,2C3.99,0.89 3.1,0 2,0Z " /><path id="Vector" fill-rule="evenodd" style="fill:#2C2F53" transform="translate(309.53 54.05)  rotate(0 1.44 1.44)" opacity="1" d="M1.44,0C0.64,0 0,0.64 0,1.44C0,2.24 0.64,2.88 1.44,2.88C2.24,2.88 2.88,2.24 2.88,1.44C2.88,0.64 2.24,0 1.44,0Z " /><path  id="Vector" style="stroke:#2C2F53; stroke-width:0.8284807205200195; stroke-opacity:1; stroke-dasharray:0 0" transform="translate(267.35 56.88)  rotate(0 2.485 1.955)" d="M4.97,3.91C3.73,3.91 1.16,2.68 0,0 " /><path  id="Vector" style="stroke:#2C2F53; stroke-width:0.8284807205200195; stroke-opacity:1; stroke-dasharray:0 0" transform="translate(274.35 50.92)  rotate(0 0.54 4.44)" d="M0,8.88C0,8.88 0.54,2.58 1.08,0 " /><path  id="Vector" style="stroke:#2C2F53; stroke-width:0.8284807205200195; stroke-opacity:1; stroke-dasharray:0 0" transform="translate(301 49.03)  rotate(0 5.43 10.025)" d="M0,18.2C1.22,18.41 1.6,18.39 2.73,19.11C3.87,19.83 4.98,20.42 6.19,19.76C7.41,19.11 8.63,17.28 8.35,16.18C8.08,15.08 7.76,11.35 7.69,8.95C7.62,6.55 7.59,4.36 7.83,3.94C8.08,3.52 10.13,1.52 10.86,0 " /><path  id="Vector" style="stroke:#2C2F53; stroke-width:0.8284807205200195; stroke-opacity:1; stroke-dasharray:0 0" transform="translate(294.34 52.09)  rotate(0 1.98 0.98)" d="M0,0C0.46,1.12 2.55,2.07 3.96,1.95 " /><path  id="Vector" style="stroke:#2C2F53; stroke-width:0.8284807205200195; stroke-opacity:1; stroke-dasharray:0 0" transform="translate(311.12 55.38)  rotate(0 1.915 0.29)" d="M3.83,0.11C2.83,0.92 0.7,0.55 0,0 " /><path  id="Vector" style="stroke:#2C2F53; stroke-width:0.8284807205200195; stroke-opacity:1; stroke-dasharray:0 0" transform="translate(273.57 66.48)  rotate(0 6.945 10.46)" d="M13.89,20.92C6.69,16.74 2.15,10.47 1.31,9.03C0.65,7.9 0.26,5.74 0.09,2.66C0.05,1.83 0.02,0.94 0,0 " /><path  id="Vector" style="stroke:#2C2F53; stroke-width:0.8284807205200195; stroke-opacity:1; stroke-dasharray:0 0" transform="translate(295.69 78.65)  rotate(0 2.315 0.455)" d="M4.63,0.89C4.63,0.89 1.68,1.14 0,0 " /><path  id="Vector" style="stroke:#2C2F53; stroke-width:0.8284807205200195; stroke-opacity:1; stroke-dasharray:0 0" transform="translate(291.97 71.29)  rotate(0 4.815 2.445)" d="M0,0C1.53,1.53 5.63,4.35 9.63,4.89 " /><path id="Vector" fill-rule="evenodd" style="fill:#2C2F53" transform="translate(290.9 70.22)  rotate(0 1.415 1.265)" opacity="1" d="M0.14,0.31C-0.53,1.37 1.34,2.25 2.83,2.53C1.93,1.12 0.81,-0.75 0.14,0.31Z " /><path  id="Vector" style="stroke:#54C3E5; stroke-width:0.8284807205200195; stroke-opacity:1; stroke-dasharray:0 0" transform="translate(244.12 69.95)  rotate(0 9.915 16.695)" d="M0,0C1.45,6.26 14.86,27.4 19.83,33.39 " /><path  id="Vector" style="stroke:#54C3E5; stroke-width:0.8284807205200195; stroke-opacity:1; stroke-dasharray:0 0" transform="translate(240.3 72.74)  rotate(0 12.98 18.925)" d="M25.96,37.85C8.13,22.16 0.93,4.38 0,0 " /><path  id="Vector" style="stroke:#54C3E5; stroke-width:0.8284807205200195; stroke-opacity:1; stroke-dasharray:0 0" transform="translate(211.62 84.34)  rotate(0 4.32 16.325)" d="M8.21,32.65C9.77,20.17 7.07,8.32 0,0 " /><path  id="Vector" style="stroke:#54C3E5; stroke-width:0.8284807205200195; stroke-opacity:1; stroke-dasharray:0 0" transform="translate(149.96 133.51)  rotate(0 26.88 11.03)" d="M53.76,0C53.76,0 10.61,17.17 0,22.06 " /><path  id="Vector" style="stroke:#54C3E5; stroke-width:0.8284807205200195; stroke-opacity:1; stroke-dasharray:0 0" transform="translate(147.16 141.43)  rotate(0 1.035 6.5)" d="M2.07,0C2.07,0 0.83,4.06 0,13 " /><path  id="Vector" style="stroke:#54C3E5; stroke-width:0.8284807205200195; stroke-opacity:1; stroke-dasharray:0 0" transform="translate(144.82 142.58)  rotate(0 0.115 5.51)" d="M0.23,0C0.23,0 -0.29,4.02 0.23,11.02 " /><path  id="Vector" style="stroke:#54C3E5; stroke-width:0.8284807205200195; stroke-opacity:1; stroke-dasharray:0 0" transform="translate(139.81 150.08)  rotate(0 17.925 33.835)" d="M0,0C4.28,4.81 8.13,11.37 11.63,19.41C15.12,27.45 26.84,51.67 29.29,55.96C31.74,60.24 35.85,67.67 35.85,67.67 " /><path  id="Vector" style="stroke:#54C3E5; stroke-width:0.8284807205200195; stroke-opacity:1; stroke-dasharray:0 0" transform="translate(119.12 187.42)  rotate(0 27.88 21.165)" d="M0,0C4.06,5.9 3.96,6.31 3.96,6.31C3.96,6.31 2.72,13.95 5.41,17.77C8.09,21.59 12.12,23.98 15.32,24.48C18.52,24.98 21.53,26.92 25.13,30.35C28.73,33.78 35.26,42.33 35.26,42.33C35.26,42.33 49.98,36.49 55.76,32.8 " /><path  id="Vector" style="stroke:#54C3E5; stroke-width:0.8284807205200195; stroke-opacity:1; stroke-dasharray:0 0" transform="translate(143.64 204.09)  rotate(0 8.92 4.53)" d="M17.84,0C17.84,0 7.12,4.99 0,9.06 " /><path  id="Vector" style="stroke:#54C3E5; stroke-width:0.8284807205200195; stroke-opacity:1; stroke-dasharray:0 0" transform="translate(146.56 211.58)  rotate(0 11.47 4.335)" d="M22.94,0C22.94,0 10.27,2.59 0,8.67 " /><path  id="Vector" style="stroke:#54C3E5; stroke-width:0.8284807205200195; stroke-opacity:1; stroke-dasharray:0 0" transform="translate(150.84 215.46)  rotate(0 10.955 5.025)" d="M21.91,0C21.91,0 8.13,5.27 0,10.05 " /><path  id="Vector" style="stroke:#2C2F53; stroke-width:0.8284807205200195; stroke-opacity:1; stroke-dasharray:0 0" transform="translate(185.85 229.76)  rotate(0 1.035 1.83)" d="M0,0C0.76,1.18 1.45,2.4 2.07,3.66 " /><path  id="Vector" style="stroke:#2C2F53; stroke-width:0.8284807205200195; stroke-opacity:1; stroke-dasharray:0 0" transform="translate(190.55 229.76)  rotate(0 1.245 2.425)" d="M2.49,4.85C1.85,3.14 1.01,1.52 0,0 " /><path  id="Vector" style="stroke:#2C2F53; stroke-width:0.8284807205200195; stroke-opacity:1; stroke-dasharray:0 0" transform="translate(211.25 220.55)  rotate(0 0.195 8.195)" d="M0.31,16.39C0.31,16.39 0.62,5.2 0,0 " /><path  id="Vector" style="stroke:#2C2F53; stroke-width:0.8284807205200195; stroke-opacity:1; stroke-dasharray:0 0" transform="translate(215.08 221.81)  rotate(0 0.26 6.195)" d="M0.51,12.39C0.51,12.39 0.63,4.41 0,0 " /><path  id="Vector" style="stroke:#2C2F53; stroke-width:0.8284807205200195; stroke-opacity:1; stroke-dasharray:0 0" transform="translate(192.22 246.39)  rotate(0 0.555 1.32)" d="M1.11,0C1.11,0 0.76,0.88 0,2.64 " /><path  id="Vector" style="stroke:#2C2F53; stroke-width:0.8284807205200195; stroke-opacity:1; stroke-dasharray:0 0" transform="translate(184.91 244.79)  rotate(0 1.51 2.625)" d="M0,5.25C0,5.25 1.85,1.85 3.02,0 " /><path  id="Vector" style="stroke:#2C2F53; stroke-width:0.8284807205200195; stroke-opacity:1; stroke-dasharray:0 0" transform="translate(180.34 243.3)  rotate(0 0.98 1.51)" d="M1.96,0C1.96,0 1.01,1.36 0,3.02 " /><path  id="Vector" style="stroke:#54C3E5; stroke-width:0.8284807205200195; stroke-opacity:1; stroke-dasharray:0 0" transform="translate(158.69 255.25)  rotate(0 4.655 10.625)" d="M3.82,1.2C2.42,9 0.88,16.69 0.24,19.01C-0.4,21.33 0.24,21.44 2.03,21.12C3.83,20.8 7.28,16.56 7.92,13.63C8.57,10.7 9.97,4.93 8.95,0 " /><path  id="Vector" style="stroke:#54C3E5; stroke-width:0.8284807205200195; stroke-opacity:1; stroke-dasharray:0 0" transform="translate(134.28 280.29)  rotate(0 17.165 8.565)" d="M0,17.13C13.86,6.94 29.41,-0.27 32.94,0.01C36.47,0.28 32.17,3.8 32.17,3.8 " /><path  id="Vector" style="stroke:#54C3E5; stroke-width:0.8284807205200195; stroke-opacity:1; stroke-dasharray:0 0" transform="translate(155.92 286.28)  rotate(0 3.465 1.29)" d="M6.93,0C6.93,0 2.31,0.87 0,2.58 " /><path  id="Vector" style="stroke:#54C3E5; stroke-width:0.8284807205200195; stroke-opacity:1; stroke-dasharray:0 0" transform="translate(102.07 243.29)  rotate(0 4.505 11.065)" d="M0.25,0C-0.31,9.45 0.25,22.13 0.25,22.13C0.25,22.13 7.99,14.39 8.22,10.57C8.45,6.75 8.56,4.43 9.01,3.01 " /><path  id="Vector" style="stroke:#54C3E5; stroke-width:0.8284807205200195; stroke-opacity:1; stroke-dasharray:0 0" transform="translate(182.9 260.39)  rotate(0 15.96 100.79)" d="M9.13,0C11.93,14.08 19.76,50.33 24.68,74.26C29.6,98.2 33.92,110.3 30.94,127.5C26.69,152.11 0,201.58 0,201.58 " /><path  id="Vector" style="stroke:#54C3E5; stroke-width:0.8284807205200195; stroke-opacity:1; stroke-dasharray:0 0" transform="translate(118.87 336.73)  rotate(0 22.485 90.115)" d="M44.97,180.23C18.88,176.39 0,164.51 0,164.51C0,164.51 19.73,110.01 23.57,99.98C27.42,89.95 34.94,65.54 36.45,63.03C37.95,60.52 38.45,59.02 36.95,54.67C35.44,50.33 38.91,47.31 40.85,45.81C42.8,44.31 40.77,42.42 39.5,40.66C38.22,38.89 40.29,35.27 42.47,35.11C44.64,34.95 43.76,31.43 40.86,22.07C37.96,12.71 33.27,0 33.27,0 " /><path  id="Vector" style="stroke:#54C3E5; stroke-width:0.8284807205200195; stroke-opacity:1; stroke-dasharray:0 0" transform="translate(165.86 374.47)  rotate(0 4.155 0.725)" d="M8.31,0C8.31,0 3.92,1.35 0,1.45 " /><path  id="Vector" style="stroke:#54C3E5; stroke-width:0.8284807205200195; stroke-opacity:1; stroke-dasharray:0 0" transform="translate(167.15 380.46)  rotate(0 6.25 1.45)" d="M12.5,2.9C12.5,2.9 8.47,0.88 0,0 " /><path  id="Vector" style="stroke:#54C3E5; stroke-width:0.8284807205200195; stroke-opacity:1; stroke-dasharray:0 0" transform="translate(8.26 236.07)  rotate(0 43.715 139.52)" d="M87.43,0C84.03,13.67 84.64,42.09 85.25,63.55C85.87,85.01 85.64,106.46 84.72,116.42C84.16,122.53 78.51,122.73 80.96,128.96C82.29,132.35 81.68,132.95 78.52,135.02C75.36,137.08 80.1,141.7 75.72,142.43C71.35,143.16 67.09,146.57 62.59,156.04C58.1,165.51 55.3,170.63 49.96,178.65C44.61,186.67 0,257.28 0,257.28C0,257.28 16.65,273.94 39.62,279.04 " /><path  id="Vector" style="stroke:#54C3E5; stroke-width:0.8284807205200195; stroke-opacity:1; stroke-dasharray:0 0" transform="translate(13.65 398.16)  rotate(0 31.655 49.945)" d="M0,99.89C16.73,71.24 34.79,40.5 42.83,30.01C50.86,19.52 63.31,0 63.31,0 " /><path  id="Vector" style="stroke:#54C3E5; stroke-width:0.8284807205200195; stroke-opacity:1; stroke-dasharray:0 0" transform="translate(83.67 387.68)  rotate(0 1.655 2.135)" d="M3.31,0C3.31,0 1.93,1.76 0,4.27 " /><path  id="Vector" style="stroke:#54C3E5; stroke-width:0.8284807205200195; stroke-opacity:1; stroke-dasharray:0 0" transform="translate(90.51 381.2)  rotate(0 2.585 2.07)" d="M5.17,0C5.17,0 2.98,1.8 0,4.14 " /><path  id="Vector" style="stroke:#54C3E5; stroke-width:0.8284807205200195; stroke-opacity:1; stroke-dasharray:0 0" transform="translate(98.35 356.21)  rotate(0 1.58 9.69)" d="M0,19.38C0.23,16.38 0.53,14.92 2.22,13.63C3.92,12.34 -0.29,4.68 3.16,0 " /><path  id="Vector" style="stroke:#54C3E5; stroke-width:0.8284807205200195; stroke-opacity:1; stroke-dasharray:0 0" transform="translate(101.27 273.96)  rotate(0 1.55 38.725)" d="M1.23,77.45C2.89,72.18 3.57,69.32 2.75,62.06C1.93,54.81 0.88,47.73 0.53,41.71C0.17,35.68 0,0 0,0 " /><path  id="Vector" style="stroke:#54C3E5; stroke-width:0.8284807205200195; stroke-opacity:1; stroke-dasharray:0 0" transform="translate(44.52 291.29)  rotate(0 57.605 111.49)" d="M0,222.98C13.54,203.39 42.21,165.81 52.08,151.78C61.96,137.75 78.36,113.72 82.98,108.78C87.6,103.84 94.61,91.74 97.95,82.18C101.29,72.62 108.14,43.96 110.38,31.38C112.61,18.79 115.21,0 115.21,0 " /><path  id="Vector" style="stroke:#54C3E5; stroke-width:0.8284807205200195; stroke-opacity:1; stroke-dasharray:0 0" transform="translate(146.15 531.27)  rotate(0 8.13 4.05)" d="M0,7.05C0.05,2.73 1.85,0.2 6.63,0.05C11.4,-0.09 15.42,-0.04 16.1,1.6C16.77,3.24 15.43,5.5 11.36,8.1 " /><path  id="Vector" style="stroke:#54C3E5; stroke-width:0.8284807205200195; stroke-opacity:1; stroke-dasharray:0 0" transform="translate(117.62 560.06)  rotate(0 21.31 0.865)" d="M0,0C1.73,1.73 6.36,1.61 12.43,1.12C18.5,0.63 35.73,-1.02 42.62,1.73 " /><path  id="Vector" style="stroke:#54C3E5; stroke-width:0.8284807205200195; stroke-opacity:1; stroke-dasharray:0 0" transform="translate(25.05 517.97)  rotate(0 9.75 3.275)" d="M0,5.54C0.39,3.59 2.97,0.3 5,0.07C7.04,-0.17 19.07,0.22 19.47,1.31C19.87,2.39 16.2,6.08 12.28,6.55 " /><path id="Vector" fill-rule="evenodd" style="fill:#54C3E5" transform="translate(0 504.67)  rotate(0 26.49 32.96)" opacity="0.25" d="M49.43,47.28C46.72,43.31 45.47,43.31 45.11,42.72C44.75,42.13 41.46,32.83 40.14,29.75C38.82,26.68 38.23,20.53 38.23,20.53C23.06,23.69 18.89,17.59 18.38,16.57C17.87,15.55 16.18,11.58 14.71,7.85C13.25,4.11 11.2,0.96 8.65,0C8.65,0 0.35,14.75 0.04,15.4C-0.26,16.06 1.04,20.01 3.77,23.71C6.5,27.41 14.27,38.99 16.61,42.74C18.96,46.48 24.31,57.24 27.02,61.2C29.73,65.16 52.15,67.58 52.59,64.57C53.77,56.45 52.15,51.25 49.43,47.28Z " /><path  id="Vector" style="stroke:#54C3E5; stroke-width:0.8284807205200195; stroke-opacity:1; stroke-dasharray:0 0" transform="translate(1.39 519.13)  rotate(0 12.55 19.905)" d="M0,0C1.93,4.18 8.74,10.5 12.26,16.2C15.78,21.9 25.1,39.81 25.1,39.81 " /><path  id="Vector" style="stroke:#54C3E5; stroke-width:0.8284807205200195; stroke-opacity:1; stroke-dasharray:0 0" transform="translate(28.58 562.52)  rotate(0 13.14 2.325)" d="M26.28,2.95C18.33,7.23 4.28,2.34 0,0 " /><path id="Vector" fill-rule="evenodd" style="fill:#505C7B" transform="translate(178.13 551)  rotate(0 10.175 10.175)" opacity="0.25" d="M10.18,0C4.56,0 0,4.56 0,10.18C0,15.79 4.56,20.35 10.18,20.35C15.79,20.35 20.35,15.79 20.35,10.18C20.35,4.56 15.79,0 10.18,0Z " /><path id="Vector" fill-rule="evenodd" style="fill:#505C7B" transform="translate(206.54 532.15)  rotate(0 7.87 7.87)" opacity="0.25" d="M7.87,0C3.52,0 0,3.52 0,7.87C0,12.22 3.52,15.74 7.87,15.74C12.22,15.74 15.74,12.22 15.74,7.87C15.74,3.52 12.22,0 7.87,0Z " /><path id="Vector" fill-rule="evenodd" style="fill:#505C7B" transform="translate(403.39 551)  rotate(0 10.175 10.175)" opacity="0.25" d="M10.18,0C4.56,0 0,4.56 0,10.18C0,15.79 4.56,20.35 10.18,20.35C15.79,20.35 20.35,15.79 20.35,10.18C20.35,4.56 15.79,0 10.18,0Z " /><path id="Vector" fill-rule="evenodd" style="fill:#505C7B" transform="translate(431.81 532.15)  rotate(0 7.87 7.87)" opacity="0.25" d="M7.87,0C3.52,0 0,3.52 0,7.87C0,12.22 3.52,15.74 7.87,15.74C12.22,15.74 15.74,12.22 15.74,7.87C15.74,3.52 12.22,0 7.87,0Z " /><g opacity="0.25" transform="translate(159.73 225.06)  rotate(0 152.1 157.885)"><path  id="Vector" style="stroke:#505C7B; stroke-width:0.8284807205200195; stroke-opacity:1; stroke-dasharray:0 0" transform="translate(0 5.96)  rotate(0 146.715 149.45)" d="M293.43,298.9C291.19,298.83 234.2,298.1 219.73,298.03C205.26,297.96 125.28,296.73 115.23,296.73C105.19,296.73 33.08,296.8 23.03,295.14C12.98,293.48 3.3,282.35 0.41,264.28C-2.48,246.22 10.53,236.12 17.81,233.14C25.09,230.16 56.61,217.24 65.79,213.19C74.97,209.15 76.04,200.83 76.18,196.46C76.59,182.3 71.55,157.41 69.96,148.45C68.37,139.48 49.46,41.36 47.8,32.83C46.13,24.3 45.65,21.34 39.44,17.87C33.23,14.4 15.96,10.72 12.2,9.85C8.44,8.98 7.69,7.07 7.88,3.6C8,1.6 10.45,-0.73 16.41,0.22C22.37,1.17 47.69,6.65 51.12,8.45C54.55,10.25 55.26,13.23 56.26,17.38C57.25,21.53 61.31,40.11 63.3,51.84C65.29,63.57 73.49,104.45 75.93,118.5C78.36,132.55 87.83,174.97 89.1,184.98C90.36,194.99 89.36,212.94 78.54,220.15C67.72,227.37 29.29,242.26 23.25,244.69C17.21,247.13 10.89,259.39 14.68,269.59C18.47,279.78 24.87,283.39 27.13,283.84C29.38,284.29 107.67,285.01 115.26,285.08C122.84,285.16 285.2,287.7 286.37,287.88 " /><path  id="Vector" style="stroke:#505C7B; stroke-width:0.8284807205200195; stroke-opacity:1; stroke-dasharray:0 0" transform="translate(34.63 300.05)  rotate(0 0 7.46)" d="M0,0L0,14.92 " /><path  id="Vector" style="stroke:#505C7B; stroke-width:0.8284807205200195; stroke-opacity:1; stroke-dasharray:0 0" transform="translate(22.68 299.48)  rotate(0 0 7.745)" d="M0,0L0,15.49 " /><path  id="Vector" style="stroke:#505C7B; stroke-width:0.8284807205200195; stroke-opacity:1; stroke-dasharray:0 0" transform="translate(259.9 302.72)  rotate(0 0 6.52)" d="M0,0L0,13.04 " /><path  id="Vector" style="stroke:#505C7B; stroke-width:0.8284807205200195; stroke-opacity:1; stroke-dasharray:0 0" transform="translate(247.95 302.74)  rotate(0 0 6.115)" d="M0,0L0,12.23 " /><path  id="Vector" style="stroke:#505C7B; stroke-width:0.8284807205200195; stroke-opacity:1; stroke-dasharray:0 0" transform="translate(33.39 0.45)  rotate(0 3.655 0.985)" d="M7.31,0C7.31,0 4.89,0.31 0,1.97 " /><path  id="Vector" style="stroke:#505C7B; stroke-width:0.8284807205200195; stroke-opacity:1; stroke-dasharray:0 0" transform="translate(38.18 0)  rotate(0 4.12 5.215)" d="M4.99,0C7.71,1.41 8.52,4.44 8.16,6.15C7.8,7.86 5.84,8.92 0,10.43 " /><path  id="Vector" style="stroke:#505C7B; stroke-width:0.8284807205200195; stroke-opacity:1; stroke-dasharray:0 0" transform="translate(55.35 12.51)  rotate(0 11.86 12.615)" d="M0,0C8.6,1.66 17.91,3.41 20.82,7.97C23.73,12.52 23.72,25.23 23.72,25.23 " /><path  id="Vector" style="stroke:#505C7B; stroke-width:0.8284807205200195; stroke-opacity:1; stroke-dasharray:0 0" transform="translate(57.62 1.79)  rotate(0 15.485 17.345)" d="M0,0C14.57,3.26 23.3,4.91 26.6,11.22C29.9,17.52 31.06,20.82 30.96,34.69 " /><path  id="Vector" style="stroke:#505C7B; stroke-width:0.8284807205200195; stroke-opacity:1; stroke-dasharray:0 0" transform="translate(60.87 281.92)  rotate(0 0 5.025)" d="M0,0L0,10.05 " /><path  id="Vector" style="stroke:#505C7B; stroke-width:0.8284807205200195; stroke-opacity:1; stroke-dasharray:0 0" transform="translate(50.61 279.93)  rotate(0 0 6.02)" d="M0,0L0,12.04 " /><path  id="Vector" style="stroke:#505C7B; stroke-width:0.8284807205200195; stroke-opacity:1; stroke-dasharray:0 0" transform="translate(41.55 243.28)  rotate(0 131.325 30.52)" d="M254.61,61.04C257.09,60.05 261.04,57.25 262.03,52.06C263.02,46.86 262.94,43.73 260.96,41.59C258.98,39.45 258.82,39.36 254.2,38.95C249.58,38.54 209.68,36.46 193.6,36.15C177.53,35.83 113.56,33.25 100.78,32.77C88,32.28 46.93,31.45 35.81,30.62C24.7,29.8 14.05,30.21 7.54,25.51C1.03,20.81 0.12,15.12 0.04,12.32C-0.05,9.52 0.04,0 0.04,0 " /><path  id="Vector" style="stroke:#505C7B; stroke-width:0.8284807205200195; stroke-opacity:1; stroke-dasharray:0 0" transform="translate(30.1 247.89)  rotate(0 113.89 22.715)" d="M0.05,0C-0.34,12.25 1.46,25.46 13.53,31.42C25.61,37.38 74.07,39.17 91.2,39.59C108.34,40 154.52,42.12 165.69,42.36C176.87,42.61 219.96,45.29 227.78,45.43 " /><path  id="Vector" style="stroke:#505C7B; stroke-width:0.8284807205200195; stroke-opacity:1; stroke-dasharray:0 0" transform="translate(35.84 211.51)  rotate(0 19.325 10.1)" d="M38.65,0C10.19,9.65 4.8,13.41 0,20.2 " /><path  id="Vector" style="stroke:#505C7B; stroke-width:0.8284807205200195; stroke-opacity:1; stroke-dasharray:0 0" transform="translate(88.82 204.72)  rotate(0 2.755 1.125)" d="M5.51,0C5.51,0 3.2,1.1 0,2.25 " /><path  id="Vector" style="stroke:#505C7B; stroke-width:0.8284807205200195; stroke-opacity:1; stroke-dasharray:0 0" transform="translate(82.37 209.17)  rotate(0 12.41 6.75)" d="M24.82,0C24.82,0 11.25,7.48 0,13.5 " /></g><g opacity="0.5" transform="translate(219.95 259.9)  rotate(0 143.675 87.695)"><path  id="Vector" style="stroke:#505C7B; stroke-width:1.2427210807800293; stroke-opacity:1; stroke-dasharray:0 0" transform="translate(278.39 41.82)  rotate(0 2.035 1.63)" d="M4.07,0C4.07,0 2.68,1.22 0,3.26 " /><path  id="Vector" style="stroke:#505C7B; stroke-width:1.2427210807800293; stroke-opacity:1; stroke-dasharray:0 0" transform="translate(28.68 41.28)  rotate(0 129.335 67.055)" d="M258.67,0C258.11,6.84 251.74,79.21 251,88.08C250.26,96.95 250.17,104.44 248.78,106.94C247.39,109.43 236.95,117.84 234.55,118.4C232.15,118.95 205.99,121.36 190.18,122C174.38,122.65 61.72,130.26 53.67,130.84C45.63,131.43 6.63,134.11 6.63,134.11C6.63,134.11 0.3,115.47 0,113.59 " /><path  id="Vector" style="stroke:#505C7B; stroke-width:1.2427210807800293; stroke-opacity:1; stroke-dasharray:0 0" transform="translate(0 0)  rotate(0 97.775 17.855)" d="M33.89,0C18.86,2.9 0,6.85 0,6.85C0,6.85 26.78,10.81 45.15,13.77C63.53,16.73 102.64,22.37 112.9,23.75C123.16,25.14 184.68,34.34 195.55,35.71 " /><path  id="Vector" style="stroke:#505C7B; stroke-width:1.2427210807800293; stroke-opacity:1; stroke-dasharray:0 0" transform="translate(67 5.61)  rotate(0 58.675 8.625)" d="M117.35,17.25C104.59,15.74 15.57,2.49 0,0 " /><path  id="Vector" style="stroke:#505C7B; stroke-width:1.2427210807800293; stroke-opacity:1; stroke-dasharray:0 0" transform="translate(231.77 41.82)  rotate(0 21.92 2.425)" d="M43.84,4.85C40.91,4.56 8.66,0.73 0,0 " /><path  id="Vector" style="stroke:#505C7B; stroke-width:1.2427210807800293; stroke-opacity:1; stroke-dasharray:0 0" transform="translate(267.95 51.54)  rotate(0 4.425 48.37)" d="M0,96.74C0.62,90.57 6.17,24.7 8.85,0 " /></g><g opacity="0.5" transform="translate(234.22 283.52)  rotate(0 122.465 68.235)"><path  id="Vector" style="stroke:#505C7B; stroke-width:1.2427210807800293; stroke-opacity:1; stroke-dasharray:0 0" transform="translate(223.47 25.39)  rotate(0 4.965 54.115)" d="M0,108.23C-0.08,100.59 10.91,34.35 9.86,0 " /><path  id="Vector" style="stroke:#505C7B; stroke-width:1.2427210807800293; stroke-opacity:1; stroke-dasharray:0 0" transform="translate(187.78 38.16)  rotate(0 4.395 48.275)" d="M0,96.55C0.28,82.78 7.57,17.08 8.79,0 " /><path  id="Vector" style="stroke:#505C7B; stroke-width:1.2427210807800293; stroke-opacity:1; stroke-dasharray:0 0" transform="translate(152.82 16.73)  rotate(0 1.06 59.3)" d="M0,118.6C1.99,85.56 2.44,26.66 1.92,0 " /><path  id="Vector" style="stroke:#505C7B; stroke-width:1.2427210807800293; stroke-opacity:1; stroke-dasharray:0 0" transform="translate(114.49 6.62)  rotate(0 1.92 62.285)" d="M0,0C0.52,21.09 1.4,44.61 2.27,74.93C3.14,105.25 3.84,124.57 3.84,124.57 " /><path  id="Vector" style="stroke:#505C7B; stroke-width:1.2427210807800293; stroke-opacity:1; stroke-dasharray:0 0" transform="translate(64.47 4.17)  rotate(0 8.89 66.145)" d="M17.78,132.29C13.25,110.84 9.25,77.36 7.76,64.73C6.27,52.11 0,-0.69 0,0.01 " /><path  id="Vector" style="stroke:#505C7B; stroke-width:1.2427210807800293; stroke-opacity:1; stroke-dasharray:0 0" transform="translate(29.59 0)  rotate(0 11.95 63.085)" d="M0.02,0C-0.33,9.41 4.03,43.91 9.61,71.1C15.18,98.3 23.9,126.17 23.9,126.17 " /><path  id="Vector" style="stroke:#505C7B; stroke-width:1.2427210807800293; stroke-opacity:1; stroke-dasharray:0 0" transform="translate(21.65 115.37)  rotate(0 111.64 1.86)" d="M0,3.72C14.27,3.68 74.86,2.54 88.55,2.4C102.23,2.26 154.11,1.55 176.14,0.55C198.17,-0.45 218.6,0.14 223.28,0.55 " /><path  id="Vector" style="stroke:#505C7B; stroke-width:1.2427210807800293; stroke-opacity:1; stroke-dasharray:0 0" transform="translate(15.43 77.66)  rotate(0 114.095 9.635)" d="M0,0C19.06,2.87 77.99,6.4 117.86,8.91C157.74,11.43 216.07,14.69 228.19,19.27 " /><path  id="Vector" style="stroke:#505C7B; stroke-width:1.2427210807800293; stroke-opacity:1; stroke-dasharray:0 0" transform="translate(9.69 45.58)  rotate(0 116.445 10.3)" d="M232.89,20.6C216.73,19.44 182.8,14.11 160.4,12.73C138,11.35 93.21,7.64 73.82,7.64C54.42,7.64 6.71,1.84 0,0 " /><path  id="Vector" style="stroke:#505C7B; stroke-width:1.2427210807800293; stroke-opacity:1; stroke-dasharray:0 0" transform="translate(0 13.81)  rotate(0 92.38 10.605)" d="M0,0C16.16,1.42 52.83,7.65 82.32,9.74C111.8,11.84 174.49,19.71 184.76,21.21 " /><path  id="Vector" style="stroke:#505C7B; stroke-width:1.2427210807800293; stroke-opacity:1; stroke-dasharray:0 0" transform="translate(209.77 38.16)  rotate(0 10.88 1.185)" d="M21.76,2.37C21.76,2.37 14.12,2.31 0,0 " /></g><path id="Vector" fill-rule="evenodd" style="fill:#DC6437" transform="translate(409.28 44.74)  rotate(0 6.995 6.995)" opacity="0.3" d="M7,0C3.13,0 0,3.13 0,7C0,10.86 3.13,13.99 7,13.99C10.86,13.99 13.99,10.86 13.99,7C13.99,3.13 10.86,0 7,0Z " /><path id="Vector" fill-rule="evenodd" style="fill:#2C2F53" transform="translate(270.61 69.07)  rotate(0 8.43 12.04)" opacity="1" d="M4.28,6.44C3.62,5.31 3.23,3.15 3.06,0.07L2.97,0C2.97,0 -0.24,7.74 0.01,10.03C0.18,11.49 2.3,18.91 3.82,24.08C6.79,21.99 10.99,19.87 16.86,18.33C9.66,14.15 5.12,7.88 4.28,6.44Z " /></g></svg>