<svg xmlns="http://www.w3.org/2000/svg" xmlns:xlink="http://www.w3.org/1999/xlink" width="448" height="493" viewBox="0 0 448 493" fill="none"><g opacity="1" transform="translate(0 0)  rotate(0 224 245.845)"><g opacity="0.5" transform="translate(11.19 164.5)  rotate(0 55.74 66.045)"><path  id="Vector" style="stroke:#F06082; stroke-width:0.8284807205200195; stroke-opacity:1; stroke-dasharray:0 0" transform="translate(97.94 34.89)  rotate(0 6.77 6.93)" d="M6.7,6.21C6.98,5.29 7.83,4.39 8.84,3.71C8.78,3.33 8.7,2.92 8.59,2.48C7.3,-2.6 3.27,0.98 5.52,5.55C6.26,10.57 5.92,8.85 6.7,6.21Z M6.7,6.21C5.92,8.85 9.58,8.73 8.84,3.71C7.83,4.39 6.98,5.29 6.7,6.21Z M9.8,7.57C9.8,7.57 13.14,7.32 13.52,4.03C13.78,1.8 10.95,2.28 8.84,3.71 M5.52,5.55C-0.44,2.6 -3.05,10.56 5.35,8.08C0,11.11 4.52,18.74 6.86,9.26C8.47,17.04 15.97,13.04 9.03,8.82 " /><path  id="Vector" style="stroke:#F06082; stroke-width:0.8284807205200195; stroke-opacity:1; stroke-dasharray:0 0" transform="translate(72.6 31.52)  rotate(0 6.96 6.87)" d="M7.74,6.75C8.64,7.08 9.48,7.99 10.09,9.04C10.47,9.01 10.88,8.95 11.32,8.87C16.47,7.91 13.16,3.66 8.45,5.61C3.4,6.03 5.15,5.8 7.74,6.75Z M7.74,6.75C5.15,5.8 5.03,9.47 10.09,9.04C9.48,7.99 8.64,7.08 7.74,6.75Z M6.17,9.75C6.17,9.75 6.2,13.11 9.46,13.7C11.67,14.1 11.38,11.25 10.09,9.04 M8.45,5.61C11.79,-0.15 4,-3.27 5.94,5.27C3.26,-0.27 -4.65,3.76 4.66,6.7C-3.21,7.79 0.28,15.54 4.96,8.9 " /><path  id="Vector" style="stroke:#F06082; stroke-width:0.8284807205200195; stroke-opacity:1; stroke-dasharray:0 0" transform="translate(26.82 6.07)  rotate(0 0.865 0.32)" d="M1.73,0.64C1.14,0.46 0.57,0.24 0,0 " /><path  id="Vector" style="stroke:#F06082; stroke-width:0.8284807205200195; stroke-opacity:1; stroke-dasharray:0 0" transform="translate(24.91 0)  rotate(0 6.45 6.87)" d="M6.72,6.75C7.62,7.08 8.46,7.99 9.07,9.04C9.45,9.01 9.86,8.95 10.3,8.87C15.45,7.91 12.14,3.66 7.43,5.61C2.38,6.03 4.13,5.8 6.72,6.75Z M6.72,6.75C4.13,5.8 4.02,9.47 9.07,9.04C8.46,7.99 7.62,7.08 6.72,6.75Z M5.15,9.75C5.15,9.75 5.18,13.11 8.44,13.7C10.65,14.1 10.36,11.25 9.07,9.04 M7.43,5.61C10.77,-0.15 2.99,-3.27 4.92,5.27C3.68,2.66 1.24,2.17 0,2.7 " /><path  id="Vector" style="stroke:#F06082; stroke-width:0.8284807205200195; stroke-opacity:1; stroke-dasharray:0 0" transform="translate(45.9 43.2)  rotate(0 6.77 6.93)" d="M6.7,6.21C6.98,5.29 7.83,4.39 8.84,3.71C8.78,3.33 8.7,2.92 8.59,2.48C7.3,-2.6 3.27,0.98 5.52,5.55C6.26,10.57 5.92,8.85 6.7,6.21Z M6.7,6.21C5.92,8.85 9.58,8.73 8.84,3.71C7.83,4.39 6.98,5.29 6.7,6.21Z M9.8,7.57C9.8,7.57 13.14,7.32 13.52,4.03C13.78,1.8 10.95,2.28 8.84,3.71 M5.52,5.55C-0.44,2.6 -3.05,10.56 5.35,8.08C0,11.11 4.52,18.74 6.86,9.26C8.47,17.04 15.97,13.04 9.03,8.82 " /><path  id="Vector" style="stroke:#F06082; stroke-width:0.8284807205200195; stroke-opacity:1; stroke-dasharray:0 0" transform="translate(3.28 81.76)  rotate(0 6.985 6.63)" d="M8.18,6.01C9.13,5.92 10.28,6.37 11.3,7.05C11.62,6.85 11.96,6.63 12.32,6.37C16.55,3.26 11.71,0.88 8.32,4.67C3.96,7.26 5.43,6.29 8.18,6.01Z M8.18,6.01C5.43,6.29 6.93,9.64 11.3,7.05C10.28,6.37 9.13,5.92 8.18,6.01Z M8.08,9.4C8.08,9.4 9.57,12.41 12.76,11.52C14.92,10.92 13.41,8.47 11.3,7.05 M8.32,4.67C8.82,-1.96 0.45,-1.39 5.91,5.46C1.09,1.64 -4.29,8.71 5.38,7.31C-1.25,11.72 5.29,17.17 6.62,9.16 " /><path  id="Vector" style="stroke:#F06082; stroke-width:0.8284807205200195; stroke-opacity:1; stroke-dasharray:0 0" transform="translate(21.43 103.75)  rotate(0 6.985 6.63)" d="M8.18,6.01C9.13,5.92 10.28,6.37 11.3,7.05C11.62,6.85 11.96,6.63 12.32,6.37C16.55,3.26 11.71,0.88 8.32,4.67C3.96,7.26 5.43,6.29 8.18,6.01Z M8.18,6.01C5.43,6.29 6.93,9.64 11.3,7.05C10.28,6.37 9.13,5.92 8.18,6.01Z M8.08,9.4C8.08,9.4 9.57,12.41 12.76,11.52C14.92,10.92 13.41,8.47 11.3,7.05 M8.32,4.67C8.82,-1.96 0.45,-1.39 5.91,5.46C1.09,1.64 -4.29,8.71 5.38,7.31C-1.25,11.72 5.29,17.17 6.62,9.16 " /><path  id="Vector" style="stroke:#F06082; stroke-width:0.8284807205200195; stroke-opacity:1; stroke-dasharray:0 0" transform="translate(0 117.9)  rotate(0 6.955 7.09)" d="M7.36,8.6C6.67,9.27 5.49,9.63 4.28,9.74C4.14,10.09 4.02,10.48 3.9,10.92C2.55,15.98 7.81,14.82 8.08,9.73C9.87,4.99 9.33,6.67 7.36,8.6Z M7.36,8.6C9.33,6.67 6.07,4.99 4.28,9.74C5.49,9.63 6.67,9.27 7.36,8.6Z M5.31,5.9C5.31,5.9 2.27,4.48 0.34,7.17C-0.96,8.99 1.74,9.95 4.28,9.74 M8.08,9.73C11.84,15.22 18.02,9.54 9.47,7.61C15.62,7.58 15.39,-1.3 8.72,5.84C11.13,-1.74 2.63,-1.91 6.61,5.16 " /></g><path id="Vector" fill-rule="evenodd" style="fill:#54C3E5" transform="translate(155.71 116.5)  rotate(0 16.085 8.33)" opacity="0.5" d="M24.16,16.66C24.16,16.66 33.03,14.3 32.1,11.52C31.18,8.74 27.19,9.64 27.19,9.64C27.19,9.64 28.85,6.55 26.77,5.5C24.84,4.51 21.34,7.79 21.34,7.79C21.34,7.79 22.81,0 20.1,0C16.35,0 15.66,5.02 15.66,5.02C15.66,5.02 13.7,0.8 11.01,1.21C7.38,1.79 8.36,6.38 8.36,6.38C-2.03,3.52 -2.69,9.74 6.12,12.33L18.28,13.76L24.16,16.66Z " /><path id="Vector" fill-rule="evenodd" style="fill:#FCC9A1" transform="translate(165.06 150.74)  rotate(0 16.62 22.3)" opacity="1" d="M5.42,37.5L4.54,43.71L21.52,44.6C21.52,44.6 26.9,38.47 27.5,37.36C28.1,36.26 33.85,20.38 33.19,18.28C32.52,16.19 30.6,1.41 30.38,0L22.56,21.62L0.04,20.29C0.04,20.29 -0.79,34.25 5.42,37.5Z " /><path  id="Vector" style="stroke:#2C2F53; stroke-width:0.8284807205200195; stroke-opacity:1; stroke-dasharray:0 0" transform="translate(180.77 175.73)  rotate(0 1.945 6.39)" d="M3.89,0C2.42,2.26 -0.46,7.45 0.06,12.78 " /><path id="Vector" fill-rule="evenodd" style="fill:#54C3E5" transform="translate(151.65 126.79)  rotate(0 19.305 23.515)" opacity="0.5" d="M25.77,44.27L38.61,9.85L33.96,7.46L21.56,41.35L10.85,41.15C7.36,38.93 4.57,37.16 4.57,37.16L5.03,34.53L5.55,31.57L6.79,24.39L8.53,14.36L10.92,0.69L4.31,0L2.36,16.76L1.18,26.87L0.55,32.33L0.19,35.44L0,37.06L6.21,41.06L0.04,40.94C1.83,41.92 3.71,42.95 5.38,43.84L10.74,43.95L15.06,46.72C16.52,46.81 18.24,46.91 20.05,47.03C18.66,46.13 17.06,45.1 15.41,44.05L25.77,44.27Z " /><path id="Vector" fill-rule="evenodd" style="fill:#FCC9A1" transform="translate(110.24 369.34)  rotate(0 32.025 48.13)" opacity="1" d="M32.36,47.54C31.53,40.54 30.8,29 29.46,19.73C28.47,12.88 27.95,7.83 27.66,4.56C27.41,1.52 27.37,0 27.37,0C27.37,0 10.22,6.32 0,6.6C0,6.6 1.66,11.74 3.73,18.4C7,28.98 11.3,43.38 11.6,47C11.64,47.34 11.64,47.7 11.64,48.08C11.6,49.88 11.41,51.68 11.07,53.46C10.31,57.48 9.32,61.44 8.09,65.34C18.45,86.54 46.11,96.26 46.11,96.26C54.96,85.74 64.05,85.26 64.05,85.26C53.24,77.45 35.18,56.26 33.59,53.51C33.37,53.08 33.21,52.62 33.11,52.15C32.77,50.63 32.52,49.09 32.36,47.54Z " /><path id="Vector" fill-rule="evenodd" style="fill:#FCC9A1" transform="translate(167.31 358.75)  rotate(0 29.06 46.765)" opacity="1" d="M27.61,0C19.7,4.19 8.06,5.52 0,5.36C0.39,9.61 1.3,13.79 2.7,17.82C2.77,18.05 2.85,18.25 2.93,18.46C2.96,18.53 2.98,18.59 3.01,18.66C5.37,24.91 8.53,37.53 9.49,45.23C9.52,45.42 9.54,45.64 9.56,45.84C9.7,47.27 9.68,48.72 9.51,50.16C9.36,51.52 8.69,55.09 8.41,56.56C12.35,59.28 13.94,62.42 16.8,67.98C20.64,75.45 30.15,90.99 33.42,92.92C38.46,95.9 46.43,86.85 58.12,88.98C54.58,84.33 48.88,76.23 46.09,72.14C42.09,66.19 37.15,56.4 35.36,51.62C35.15,51.08 34.95,50.47 34.74,49.81C34.21,48.13 33.68,46.09 33.16,43.69C31.86,37.33 30.9,30.92 30.29,24.46C29.52,16.96 28.85,10.34 28.36,5.87C28.36,5.83 28.36,5.79 28.36,5.75C28,2.46 27.74,0.38 27.61,0Z " /><path id="Vector" fill-rule="evenodd" style="fill:#54C3E5" transform="translate(145.76 348.19)  rotate(0 13.255 14.295)" opacity="0.25" d="M26.51,28.59C26.51,28.59 23.54,19.4 23.78,15.92L16.15,15.92L12.53,0C12.53,0 9.84,6.08 0,13.04C4.68,19.03 20.62,28.54 26.51,28.59Z " /><path  id="Vector" style="stroke:#2C2F53; stroke-width:0.8284807205200195; stroke-opacity:1; stroke-dasharray:0 0" transform="translate(54.59 96.22)  rotate(0 2.495 25.3)" d="M2.73,0C-2.67,14.6 0.95,37.39 4.99,50.6 " /><path id="Vector" fill-rule="evenodd" style="fill:#2C2F53" transform="translate(57.31 49.14)  rotate(0 38.33 57.355)" opacity="1" d="M74.37,70.5C73.88,50 73.1,43.5 69.49,27.74C65.89,11.99 54.66,3.88 47.13,1.1C39.59,-1.68 29.4,1.68 29.4,1.68C16.66,1.68 7.29,16.05 3.69,29.37C0.08,42.69 -0.95,62.14 0.91,77.21C2.76,92.28 4.85,95.17 11.56,106.62L43.3,99.6L50.85,97.96L55.78,97.76C56.78,104.93 57.97,110.83 59.05,113.99C59.34,114.85 64.42,115.01 66.72,114.08L76.66,99.34C76.66,99.34 74.85,91 74.37,70.5Z " /><path  id="Vector" style="stroke:#505C7B; stroke-width:0.8284807205200195; stroke-opacity:1; stroke-dasharray:0 0" transform="translate(58.42 57.82)  rotate(0 16.47 17.22)" d="M0,34.44C3.22,27.67 23.41,18.86 32.94,0 " /><path  id="Vector" style="stroke:#505C7B; stroke-width:0.8284807205200195; stroke-opacity:1; stroke-dasharray:0 0" transform="translate(65.73 61.67)  rotate(0 22.435 14.54)" d="M44.87,0C31.34,18.2 8.16,26.9 0,29.08 " /><path  id="Vector" style="stroke:#505C7B; stroke-width:0.8284807205200195; stroke-opacity:1; stroke-dasharray:0 0" transform="translate(113.65 55.96)  rotate(0 0.415 4.985)" d="M0.48,0C0.99,1.99 1.04,6.48 0,9.97 " /><path  id="Vector" style="stroke:#505C7B; stroke-width:0.8284807205200195; stroke-opacity:1; stroke-dasharray:0 0" transform="translate(62.87 105.17)  rotate(0 4.955 19.775)" d="M9.91,39.55C3.79,33.84 -1.1,12.99 0.22,0 " /><path  id="Vector" style="stroke:#505C7B; stroke-width:0.8284807205200195; stroke-opacity:1; stroke-dasharray:0 0" transform="translate(104.02 127.94)  rotate(0 0.065 10.945)" d="M0,21.89C0,21.89 0.29,8 0,0 " /><path  id="Vector" style="stroke:#505C7B; stroke-width:0.8284807205200195; stroke-opacity:1; stroke-dasharray:0 0" transform="translate(106.46 123.43)  rotate(0 1.01 10.65)" d="M0,21.3C1.7,17.66 2.52,9.69 1.7,0 " /><path  id="Vector" style="stroke:#505C7B; stroke-width:0.8284807205200195; stroke-opacity:1; stroke-dasharray:0 0" transform="translate(112.6 133.68)  rotate(0 0.24 6.57)" d="M0.03,13.14C-0.07,8.75 0.08,4.37 0.48,0 " /><path  id="Vector" style="stroke:#505C7B; stroke-width:0.8284807205200195; stroke-opacity:1; stroke-dasharray:0 0" transform="translate(117.34 103.32)  rotate(0 0.98 28.945)" d="M1.35,0C0.76,11.98 0.3,20.98 0.07,31.95C-0.16,42.92 0.07,52.44 1.96,57.89 " /><path  id="Vector" style="stroke:#505C7B; stroke-width:0.8284807205200195; stroke-opacity:1; stroke-dasharray:0 0" transform="translate(115.88 61.65)  rotate(0 5.12 47.515)" d="M9.99,95.03C10.37,84.21 10.37,66.74 9.62,54.18C8.86,41.63 6.59,23.78 5.61,17.27C4.62,10.76 0.14,1.72 0,0 " /><path id="Vector" fill-rule="evenodd" style="fill:#FCC9A1" transform="translate(113.09 103.32)  rotate(0 2.8 5.35)" opacity="1" d="M5.34,8.47L5.6,0C5.6,0 3.58,0.59 0,10.7C0,10.7 3.36,9.66 5.34,8.47Z " /><path id="Vector" fill-rule="evenodd" style="fill:#FCC9A1" transform="translate(56.24 65.92)  rotate(0 31.23 58.13)" opacity="1" d="M8.26,116.26C17.39,115.9 58.22,114.29 58.22,114.29C54.53,97.3 54.18,81.09 54.18,81.09L44.4,81.59C44.23,81.37 44.12,80.43 44.05,79.15C44.03,78.76 43.99,78.34 43.99,77.9C43.9,74.55 43.99,70.02 43.99,69.04L43.99,68.99C43.99,68.88 43.99,68.82 43.99,68.82C49.87,65.09 54.32,58.19 55.71,54.74C58.69,47.32 62.45,37.38 62.45,37.38C62.75,14.3 57.41,0 57.41,0C56.8,2.03 49.92,10.87 40.84,16.15C31.76,21.44 8.03,27.3 8.03,27.3C8.03,27.3 6.93,24.05 3.99,24.24C0.75,24.44 -1.28,31.59 0.92,36.36C3.13,41.13 8.64,41.63 8.64,41.63C11.41,51.54 13.29,55.58 13.29,55.58C14.29,58.81 14.01,77.16 14.01,77.16C13.6,78.52 7.37,82.91 5.88,83.12C4.39,83.34 1.08,83.12 1.08,83.12C8.06,99.33 8.26,116.26 8.26,116.26Z " /><path id="Vector" fill-rule="evenodd" style="fill:#FCC9A1" transform="translate(21.79 131.74)  rotate(0 72.275 70.775)" opacity="1" d="M48.89,84.35C40.05,89.72 36.05,93.92 36.05,93.92L32.84,85.59C13.87,90.82 0,100.64 0,100.68C0.42,101.87 4.79,117.01 13.54,127.55C22.51,138.36 34.46,141.55 34.46,141.55L53.27,96.04C65.32,79.39 82.07,79.85 82.07,79.85C82.61,80.32 87.66,85.16 87.66,85.16C99.56,64.87 107.18,56.54 107.18,56.54C120.94,53.43 123.56,33.4 123.56,33.4C125.42,32.46 137.67,30.46 140.16,30.09C142.65,29.72 143.74,27.45 144.44,25.58C145.14,23.71 142.49,24.41 138.6,24.72C134.71,25.03 122.74,27.13 122.74,27.13C122.74,27.13 137.58,21.06 140.45,18.96C143.33,16.86 140.68,12.97 140.68,12.97C143.87,11.21 142.8,6.79 142.01,7.06C129.87,11.25 119.84,15.76 119.84,15.76C121.08,13.76 128.58,7.24 129.28,6.31C129.98,5.38 130.29,4.29 130.37,2.58C130.44,0.87 129.74,-0.78 128.26,0.4C126.79,1.59 112.09,12.71 109.99,14.01C107.89,15.32 105.79,15.65 105.25,18.22C104.59,21.37 99.68,39.25 93.37,47.66C87.06,56.07 57.73,78.99 48.89,84.35Z " /><path id="Vector" fill-rule="evenodd" style="fill:#54C3E5" transform="translate(138.11 125.46)  rotate(0 31.185 24.77)" opacity="0.25" d="M20.42,25.76L20.39,25.76C19.7,26.04 17.48,27 14.78,28.25C9,30.88 0.98,34.66 0.88,35.25C0.79,35.71 7.54,34.72 14.13,33.7L19.1,32.94C23.12,32.34 26.26,31.89 26.43,32.05C26.94,32.49 24.48,35.07 22.15,35.32C21.56,35.38 20.25,35.61 18.59,35.9C17.13,36.17 15.41,36.49 13.75,36.81C9.91,37.55 6.25,38.28 6.25,38.28C6.25,38.28 9.72,40.2 13.6,42.32C15.4,43.29 17.28,44.32 18.94,45.22C21.83,46.78 24.09,47.95 24.1,47.9C24.12,47.85 25.94,47.94 28.62,48.1C30.08,48.19 31.8,48.29 33.61,48.41C41.2,48.89 50.6,49.54 50.6,49.54L62.37,16.4L52.2,11.23L47.56,8.85L36.79,3.36L24.51,2.08L17.91,1.4L4.42,0L1.34,16.45C1.34,16.45 11.85,8.07 12.64,8.01C13.43,7.95 12.6,11.66 10.09,13.68C7.57,15.69 -1.24,24.95 0.15,24.78C0.95,24.69 9.13,20.98 15.96,18.15C18.29,17.19 20.48,16.33 22.14,15.75C24.07,15.08 25.33,14.78 25.4,15.12C25.85,17.4 23.06,18.64 23.06,18.64C25.52,23.94 22.43,24.93 20.42,25.76Z " /><path id="Vector" fill-rule="evenodd" style="fill:#F06082" transform="translate(122.68 163.7)  rotate(0 17.875 23.96)" opacity="0.5" d="M17.09,40.14L17.61,28.37L35.65,29.04C36.63,21.21 29.9,12.97 26.21,6.54C22.76,0.52 22.13,0 22.13,0C17.32,22.41 5.97,22.82 5.97,22.82C4.44,23.94 0,29.97 0,29.97C0,29.97 3.43,42.72 5.8,47.92C9,44.31 13.97,40.48 17.09,40.14Z " /><path id="Vector" fill-rule="evenodd" style="fill:#F06082" transform="translate(44.1 146.83)  rotate(0 38.92 23.44)" opacity="0.25" d="M77.6,15.32L74,14.98C71.95,11.12 71.17,0 71.17,0L64.55,0.26C65.62,12.19 68.28,32.15 68.28,32.15L21.78,33.65C21.24,22.46 17.99,10.38 15.19,2.39L9.68,2.42C5.14,-0.9 -0.75,-0.16 0.08,3.3C1.04,7.34 8.13,7.63 8.13,7.63C5.5,7.63 2.37,10.36 3.02,12.43C3.67,14.51 6.53,14.73 6.53,14.73C6.53,14.73 3.33,17.33 4.32,20.4C5.48,23.95 9.21,22.96 9.21,22.96C7.61,24.42 5.41,27.1 6.18,28.97C6.95,30.85 11.51,30.63 11.51,30.63C10.64,31.15 7.35,35.31 9.08,36.39C10.82,37.47 14.63,35.65 14.63,35.65C13.5,36.3 10.21,41.45 12.2,43.19C14.67,45.33 18.61,41.88 18.61,41.88C18.61,41.88 18.72,47.29 21.93,46.86C25.13,46.42 25.09,42.39 25.09,42.39C25.09,42.39 26.56,46.66 28.98,46.54C31.41,46.41 31.76,42.51 31.76,42.51C31.76,42.51 33.59,46.58 36.62,46.54C39.66,46.49 40.35,41.04 40.35,41.04C40.35,41.04 40.84,44.89 44.73,45.11C48.61,45.32 48.87,41.86 48.87,41.86C49.28,43.5 50.46,45.97 53.84,45.67C57.21,45.37 56.83,41.43 56.83,41.43C58.52,44.8 60.51,44.68 60.51,44.68C74.63,34.02 78.35,22.11 77.79,21.21C77.22,20.3 74.63,19.65 74.63,19.65C77.13,18.36 77.6,15.32 77.6,15.32Z " /><path id="Vector" fill-rule="evenodd" style="fill:#FCC9A1" transform="translate(4.57 138.72)  rotate(0 18.555 19.035)" opacity="1" d="M14.12,32.23C14.12,32.23 16.61,33.88 17.57,33.7C18.54,33.53 19.43,32.17 19.37,30.63C19.3,29.09 19.43,27.17 18.47,26.28C17.51,25.38 12.38,18.84 12.58,18.84C12.78,18.84 21.94,25.31 22.82,25.82C23.7,26.33 26.15,26.2 26.6,25.43C27.05,24.66 28.45,23.38 27.62,20.31C27.62,20.31 30.76,20.31 31.92,19.54C33.07,18.77 34.03,16.2 33.64,14.86C33.2,13.62 32.64,12.42 31.99,11.27L37.11,11.27C37.11,11.27 35.18,8.74 34.03,7.13C32.88,5.52 28.35,0.7 27.71,0.31C27.07,-0.07 20.09,-0.13 19.38,0.31C18.68,0.76 17.14,3.9 17.23,4.92C17.23,4.92 13.06,4.35 12.53,4.8C12,5.24 8.87,7.32 8.8,8.08C8.73,8.85 9.95,15.13 9.95,15.13C9.18,15.07 8.41,15.06 7.63,15.09C6.76,15.17 4.87,16.75 4.24,17.46C3.61,18.17 4.16,21.17 4.16,21.17C4.16,21.17 1.64,22.27 0.92,22.98C0.21,23.69 -0.73,30.94 0.92,32.23C3.14,33.96 10.73,37.93 11.56,38.06C11.89,38.09 12.22,38.05 12.54,37.93C12.85,37.82 13.14,37.65 13.38,37.42C13.62,37.19 13.81,36.91 13.94,36.6C14.07,36.29 14.13,35.96 14.12,35.63L14.12,32.23Z " /><path  id="Vector" style="stroke:#F06082; stroke-width:0.8284807205200195; stroke-opacity:1; stroke-dasharray:0 0" transform="translate(36.05 149.03)  rotate(0 4.915 0.095)" d="M9.83,0.19C9.83,0.19 4.59,-0.12 0,0.06 " /><path  id="Vector" style="stroke:#2C2F53; stroke-width:0.8284807205200195; stroke-opacity:1; stroke-dasharray:0 0" transform="translate(31.93 142.43)  rotate(0 2.315 3.785)" d="M4.63,7.57C4.63,7.57 2.04,2.77 0,0 " /><path  id="Vector" style="stroke:#2C2F53; stroke-width:0.8284807205200195; stroke-opacity:1; stroke-dasharray:0 0" transform="translate(21.79 143.66)  rotate(0 5.205 7.685)" d="M0,0C0.53,2.58 1.04,3.54 1.33,4.07C1.63,4.59 10.41,15.37 10.41,15.37 " /><path  id="Vector" style="stroke:#2C2F53; stroke-width:0.8284807205200195; stroke-opacity:1; stroke-dasharray:0 0" transform="translate(14.47 153.62)  rotate(0 1.335 1.97)" d="M2.67,3.94C1.39,2.77 0.59,2.03 0,0 " /><path  id="Vector" style="stroke:#2C2F53; stroke-width:0.8284807205200195; stroke-opacity:1; stroke-dasharray:0 0" transform="translate(8.72 159.88)  rotate(0 4.975 5.53)" d="M0,0C0.83,3.73 1.68,5.91 2.16,6.39C2.64,6.86 9.95,11.06 9.95,11.06 " /><path  id="Vector" style="stroke:#F06082; stroke-width:0.8284807205200195; stroke-opacity:1; stroke-dasharray:0 0" transform="translate(7.41 227.2)  rotate(0 18.775 42.065)" d="M0,0C2.49,14.16 6.63,36.89 6.37,53.39C6.37,53.39 0.8,58.65 0.91,62.62C1.03,66.58 4.97,68.6 3.91,72.48C3.08,75.49 0.74,78.57 4.56,82.1C7.87,85.15 8.58,84.59 12.48,81.58C16.38,78.58 28.98,69.5 37.55,67.29 " /><path id="Vector" fill-rule="evenodd" style="fill:#F06082" transform="translate(0 155.76)  rotate(0 27.9 36.19)" opacity="0.5" d="M20.17,72.36C21.77,72.12 28.75,66.51 40.14,62.1C51.54,57.68 52.9,57.54 52.9,57.54C52.9,57.54 57.55,53.37 55.07,46.63C52.58,39.89 42.64,23.84 38.78,16.3C34.92,8.76 31.35,4.59 31.35,4.59C31.35,4.59 30.1,7.77 28.83,7.37C27.55,6.97 16.18,0 16.18,0C16.18,0 16.06,3.99 17.66,5.52C19.26,7.04 20.64,8.77 21.77,10.66C22.49,12.02 22.57,14.91 21.77,15.07C20.97,15.23 16.63,12.9 16.63,12.9C16.63,12.9 17.68,18.52 17.05,19.16C16.42,19.81 5.82,13.28 5.82,13.28C3.97,16.35 -2.53,39.63 1.07,54.88C4.67,70.12 18.56,72.61 20.17,72.36Z " /><path id="Vector" fill-rule="evenodd" style="fill:#505C7B" transform="translate(241.53 384.43)  rotate(0 13.655 41.365)" opacity="0.5" d="M8.05,0C5.3,0.58 3.06,1.39 2.83,2.28C2.33,4.19 2.23,11.23 3.94,13.96C5.65,16.69 6.66,22.92 5.35,27.46C4.04,31.99 0.22,37.33 0.02,48.5C-0.19,59.68 1.62,65.92 5.35,70.56C8.67,74.65 18,83.89 27.31,82.61C11.68,78.25 4.54,62.9 4.95,48.98C5.26,38.8 9.41,31.8 11.28,24.91C12.28,21.2 12.02,17.55 11.51,13.4C10.99,8.8 9.83,4.29 8.05,0Z " /><path  id="Vector" style="stroke:#505C7B; stroke-width:1.2427210807800293; stroke-opacity:1; stroke-dasharray:0 0" transform="translate(241.53 383.52)  rotate(0 23.935 41.825)" d="M47.87,34.1C47.87,34.1 40.83,42.97 39.51,45.79C38.19,48.6 36.99,52.83 36.39,57.39C35.78,61.94 32.46,81.75 30.95,82.45C29.8,83 28.57,83.36 27.31,83.53C17.99,84.81 8.66,75.57 5.35,71.48C1.62,66.84 -0.19,60.6 0.02,49.42C0.22,38.25 4.04,32.91 5.35,28.38C6.66,23.84 5.65,17.6 3.94,14.88C2.23,12.15 2.33,5.11 2.83,3.2C3.06,2.31 5.3,1.5 8.05,0.92C11.24,0.25 15.13,-0.12 17.46,0.04 " /><path id="Vector" fill-rule="evenodd" style="fill:#505C7B" transform="translate(335.22 462.96)  rotate(0 45.53 14.36)" opacity="0.5" d="M10.17,27.47C14.59,27.92 19.82,25.71 22.85,24.73C25.89,23.74 32.37,26.14 38.5,27.26C42.08,27.9 48.58,29.45 54.71,28.32C60.84,27.19 64.8,25.85 73.17,21.98C81.54,18.1 90.16,9.43 90.99,4.22C91.19,2.78 90.97,1.32 90.37,0C87.51,6.5 79.65,13.36 70.64,17.98C60.7,23.07 44.49,21.77 36.31,18.95C28.14,16.13 15.87,20.21 12.06,21.55C8.26,22.9 0,22.7 0,22.7C1.83,24.82 4.15,26.87 10.17,27.47Z " /><path id="Vector" fill-rule="evenodd" style="fill:#FCC9A1" transform="translate(309.88 416.47)  rotate(0 18.69 22.84)" opacity="1" d="M8.6,28.27C11.28,31.05 9.73,37.14 9.73,37.14C13.24,38.27 17.11,44.43 18.34,45.56C19.57,46.7 31.5,39.1 31.5,39.1C31.5,39.1 23.25,34.16 25.41,29.19C28.54,22.03 37.38,20.11 37.38,20.11L23.24,0C16.22,8.89 0.52,19.05 0,19.05C0,19.05 5.91,25.48 8.6,28.27Z " /><path  id="Vector" style="stroke:#54C3E5; stroke-width:0.8284807205200195; stroke-opacity:1; stroke-dasharray:0 0" transform="translate(186 116.5)  rotate(0 2.695 8.925)" d="M5.39,0C4.22,2.9 2.55,8.8 0,17.85 " /><path  id="Vector" style="stroke:#54C3E5; stroke-width:0.8284807205200195; stroke-opacity:1; stroke-dasharray:0 0" transform="translate(171.37 113.06)  rotate(0 0.33 3.98)" d="M0.66,7.96C0.66,7.96 0.33,4.07 0,0 " /><path id="Vector" fill-rule="evenodd" style="fill:#FCC9A1" transform="translate(208.42 209.17)  rotate(0 14.445 25.935)" opacity="1" d="M0,31.37C1.91,34.06 5.1,43.62 8.04,46.67C9.99,48.66 13.59,48.7 15.91,48.7C18.23,48.7 26.23,51.87 26.23,51.87C28.17,49.92 28.89,46.85 28.89,38.13C28.89,29.42 24.72,30.53 23.79,30.44C22.86,30.34 15.91,13.56 11.84,0C11.84,0 0.39,26.57 0,31.37Z " /><path id="Vector" fill-rule="evenodd" style="fill:#FCC9A1" transform="translate(191 202.89)  rotate(0 15.42 20.175)" opacity="1" d="M27.34,15.03C27.34,15.03 29.38,11.44 29.53,10.16C29.69,8.88 29.38,3.43 27.29,2.84C25.2,2.25 10.63,0.22 6.77,0.01C1.91,-0.26 3.78,5.35 6.25,7.43C8.81,9.6 17.57,10.05 17.57,10.05L17.46,13.05C17.46,13.05 3.96,10.9 2.67,10.69C1.39,10.47 -0.04,10.53 0,14.7C0.04,18.86 3.73,20.47 3.73,20.47C2.71,29.45 9.82,30.17 9.82,30.17C9.29,32.39 9.54,35.7 11.48,37.73C13.41,39.76 24.62,40.4 25.42,40.35C26.23,40.29 28.85,39.07 28.63,36.18C28.42,33.29 25.8,32.28 25.8,32.28C28.84,32.22 29.75,30.4 29.8,27.79C29.85,25.17 29.05,23.88 29.05,23.88C31.29,21.27 31.03,18.8 30.39,17.1C29.74,15.4 27.34,15.03 27.34,15.03Z " /><path  id="Vector" style="stroke:#2C2F53; stroke-width:0.8284807205200195; stroke-opacity:1; stroke-dasharray:0 0" transform="translate(216.43 219.61)  rotate(0 2.71 11.815)" d="M4.78,0C4.85,0.12 4.92,0.25 4.97,0.39C5.61,2.1 5.87,4.55 3.63,7.17C3.63,7.17 4.43,8.45 4.38,11.07C4.33,13.69 3.42,15.51 0.37,15.56C0.37,15.56 2.99,16.58 3.21,19.46C3.42,22.35 0.8,23.58 0,23.63 " /><path  id="Vector" style="stroke:#2C2F53; stroke-width:0.8284807205200195; stroke-opacity:1; stroke-dasharray:0 0" transform="translate(208.44 215.94)  rotate(0 4.95 0.985)" d="M9.9,1.97C6.65,1.1 3.34,0.45 0,0 " /><path  id="Vector" style="stroke:#2C2F53; stroke-width:0.8284807205200195; stroke-opacity:1; stroke-dasharray:0 0" transform="translate(208.55 212.95)  rotate(0 3.965 0.855)" d="M7.93,1.71C7.93,1.71 2.12,0.14 0,0 " /><path  id="Vector" style="stroke:#2C2F53; stroke-width:0.8284807205200195; stroke-opacity:1; stroke-dasharray:0 0" transform="translate(194.73 223.37)  rotate(0 11.295 1)" d="M22.59,2C20.14,1.96 4.19,0.51 0,0 " /><path  id="Vector" style="stroke:#2C2F53; stroke-width:0.8284807205200195; stroke-opacity:1; stroke-dasharray:0 0" transform="translate(200.82 233.07)  rotate(0 7.99 1.05)" d="M15.98,2.1C14.85,1.86 4.91,0.6 0,0 " /><path id="Vector" fill-rule="evenodd" style="fill:#DC6437" transform="translate(148.23 0)  rotate(0 35.515 28.805)" opacity="0.75" d="M0.77,37.59C1.11,39.4 3.37,44.84 5.47,47.45L65.13,57.61C65.13,57.61 66.44,51.4 68.36,48.08C70.28,44.77 70.99,39.12 71.03,36.12C71.07,33.12 68.67,32.27 68.67,32.27C69.07,29.94 70.48,26.6 70.99,20.82C71.5,15.04 66.8,11.76 66.8,11.76C66.8,11.76 62.27,11.53 54.17,9.44C46.06,7.34 44.2,-0.93 34.57,0.09C24.94,1.11 23.35,6.6 23.35,6.6C9.32,0.2 3.99,14.76 3.88,15.61C3.77,16.46 0.94,21.79 0.26,23.43C-0.42,25.07 0.43,35.78 0.77,37.59Z " /><path  id="Vector" style="stroke:#DC6437; stroke-width:0.8284807205200195; stroke-opacity:1; stroke-dasharray:0 0" transform="translate(149.63 26.65)  rotate(0 5.025 2.735)" d="M0,0C0.91,1.83 2.36,3.34 4.16,4.31C5.97,5.27 8.02,5.65 10.05,5.39 " /><path  id="Vector" style="stroke:#DC6437; stroke-width:0.8284807205200195; stroke-opacity:1; stroke-dasharray:0 0" transform="translate(152.01 15.61)  rotate(0 5.02 6.455)" d="M10.04,12.65C0.88,14.55 -0.43,5.62 0.1,0 " /><path  id="Vector" style="stroke:#DC6437; stroke-width:0.8284807205200195; stroke-opacity:1; stroke-dasharray:0 0" transform="translate(159.68 14.75)  rotate(0 11.08 6.73)" d="M0,4.82C0.39,0.62 3.03,-0.31 5.32,0.08C7.61,0.47 12.84,7.7 22.16,13.46 " /><path  id="Vector" style="stroke:#DC6437; stroke-width:0.8284807205200195; stroke-opacity:1; stroke-dasharray:0 0" transform="translate(174.29 7.95)  rotate(0 20.57 18.365)" d="M26.1,15.58C26.1,13.87 23.32,12.86 21.86,14.12C20.77,15.06 20.89,16.97 22.13,19.44C25.07,18.7 26.1,16.79 26.1,15.58Z M0,0.01C3.8,-0.19 5.07,3.27 6.29,7.67C7.51,12.06 11.07,18.9 17.56,19.63C19.44,19.84 20.94,19.74 22.13,19.44 M22.13,19.44C24.52,24.19 31.05,30.97 41.14,36.73 " /><path  id="Vector" style="stroke:#DC6437; stroke-width:0.8284807205200195; stroke-opacity:1; stroke-dasharray:0 0" transform="translate(184.09 3.25)  rotate(0 16.42 14.51)" d="M32.84,29.02C28.38,28.65 25.8,25.67 22.48,21.59C15.03,12.36 13.02,0.27 0,0 " /><path id="Vector" fill-rule="evenodd" style="fill:#FCC9A1" transform="translate(150.14 18.41)  rotate(0 34.86 43.68)" opacity="1" d="M5.78,44.67C5.78,44.67 7.81,56.24 8.18,57.77C8.37,58.35 8.65,58.89 9.01,59.39C10.06,60.93 11.19,62.42 12.39,63.84C12.48,64.18 14.41,71.6 15.41,75.86C15.67,76.98 15.87,77.88 15.94,78.38C15.98,78.62 16.04,78.91 16.13,79.23C16.82,82.07 18.89,87.36 18.89,87.36C18.89,87.36 48.77,87.12 48.97,86.84C49.74,85.79 56.07,78.41 56.24,76.83C56.42,75.25 55.5,58.27 55.5,58.27C55.5,58.27 58.05,55.4 58.4,53.2C58.75,51.01 59.45,44.38 59.45,44.38C59.45,44.38 67.49,38.18 68.97,34.94C70.46,31.71 69.56,28.38 67.74,26.99C65.25,25.08 61.98,27.34 61.11,28.39L60.65,38.21C60.65,38.21 60.26,38.15 59.75,37.38C58.8,35.94 57.42,32.05 57.32,21.57C57.32,21.57 48.97,14.07 46.64,9.42C46.64,9.42 37.39,10.8 32.47,9.16C27.56,7.51 20.09,1.18 18.91,0.22C17.73,-0.73 12.6,1.44 10.48,4.93C8.37,8.42 5.09,14.76 4.99,20.89L4.99,20.96C4.94,22.68 4.94,23.97 4.94,24.95C4.93,27.39 4.99,27.81 4.99,27.81C4.87,27.69 2.39,25.17 0.81,26.91C-0.77,28.65 0.13,37.27 2.08,40.44C4.04,43.61 5.78,44.67 5.78,44.67Z " /><path  id="Vector" style="stroke:#F06082; stroke-width:0.8284807205200195; stroke-opacity:1; stroke-dasharray:0 0" transform="translate(15.18 311.33)  rotate(0 41.53 32.945)" d="M0.28,0C0.28,0 -1.97,30.74 6.31,44.16C14.6,57.58 27.87,65.42 46.27,65.87C64.66,66.33 78.08,57.13 83.06,45.52 " /><path  id="Vector" style="stroke:#2C2F53; stroke-width:0.8284807205200195; stroke-opacity:1; stroke-dasharray:0 0" transform="translate(48.68 225.64)  rotate(0 4.575 8.875)" d="M9.15,0C3.94,5.28 0.08,13.1 0,17.75 " /><path  id="Vector" style="stroke:#2C2F53; stroke-width:0.8284807205200195; stroke-opacity:1; stroke-dasharray:0 0" transform="translate(138.94 144.73)  rotate(0 11.77 5.115)" d="M23.54,0C23.54,0 8.07,6.5 0,10.23 " /><path  id="Vector" style="stroke:#2C2F53; stroke-width:0.8284807205200195; stroke-opacity:1; stroke-dasharray:0 0" transform="translate(133.94 147.5)  rotate(0 3.84 1.605)" d="M0,3.21C0,3.21 4.23,1.37 7.68,0 " /><path  id="Vector" style="stroke:#F06082; stroke-width:0.8284807205200195; stroke-opacity:1; stroke-dasharray:0 0" transform="translate(27.9 210.32)  rotate(0 56.92 84.125)" d="M0,130.84C12.48,91.65 42.25,21.68 46.01,15.32C52.97,3.58 73.23,-2.11 77.57,0.72C87.33,7.08 93.17,16.67 94.14,19.15C95.07,21.56 94.97,24.53 96.06,32.53C97.15,40.53 101.09,57.62 102.58,64.64C104.06,71.65 109.99,101.59 113.84,160.86C113.84,160.86 109.79,161.52 102.7,163.93C95.62,166.34 87.26,169.03 75.93,168.04C75.93,168.04 65.16,123.14 61.48,109.11C57.8,95.08 52.7,55.57 51.7,54.84C50.71,54.12 47.31,56.54 47.31,54.84C47.31,53.15 49.53,52.07 48.16,50.17C46.55,47.94 41.08,39.97 41.08,39.97 " /><path  id="Vector" style="stroke:#F06082; stroke-width:0.8284807205200195; stroke-opacity:1; stroke-dasharray:0 0" transform="translate(81.87 373.13)  rotate(0 10.495 1.41)" d="M20.99,1.24C16.76,3.48 4.61,3.57 0,0 " /><path id="Vector" fill-rule="evenodd" style="fill:#F06082" transform="translate(116.89 432.15)  rotate(0 35.435 23.775)" opacity="0.5" d="M2.97,23.51C8.24,31.45 19.72,33.75 25.37,37.3C31.02,40.84 41.65,47.35 51.99,47.54C62.33,47.73 71.24,44.67 70.86,36.24C70.48,27.81 60.27,25.1 55.53,21.02C55.53,21.02 45.96,20.35 38.77,29.83C38.77,29.83 15.8,24.18 2.2,0C0.76,4.84 -2.3,15.57 2.97,23.51Z " /><path id="Vector" fill-rule="evenodd" style="fill:#F06082" transform="translate(121.31 416.9)  rotate(0 11.02 2.98)" opacity="0.25" d="M21.27,0C16.11,0.1 5.29,0.36 0.56,0.51C0.53,2.32 0.34,4.12 0,5.9C12.07,6.22 18.91,5.25 22.04,4.63C21.7,3.1 21.44,1.56 21.27,0Z " /><path  id="Vector" style="stroke:#F06082; stroke-width:0.8284807205200195; stroke-opacity:1; stroke-dasharray:0 0" transform="translate(116.92 202.5)  rotate(0 11.255 9.53)" d="M22.51,0C14.81,-0.19 -0.12,18.91 0,19.06 " /><path  id="Vector" style="stroke:#F06082; stroke-width:0.8284807205200195; stroke-opacity:1; stroke-dasharray:0 0" transform="translate(131.62 236.54)  rotate(0 34.705 65.095)" d="M42.67,2.61C46.63,15.29 54.23,47.83 56.83,61.71C59.43,75.59 69.41,122.33 69.41,122.33C69.41,122.33 52.71,132.28 28.52,129.79C28.52,129.79 20.17,92.92 17.78,83.72C15.4,74.51 10.41,60.4 6.83,53.24C3.25,46.08 1.72,33.51 0,0 " /><path  id="Vector" style="stroke:#F06082; stroke-width:0.8284807205200195; stroke-opacity:1; stroke-dasharray:0 0" transform="translate(141.23 353.38)  rotate(0 7.98 5.36)" d="M0,10.72C7.04,9.9 14.14,3.23 15.96,0 " /><path id="Vector" fill-rule="evenodd" style="fill:#F06082" transform="translate(176.8 402.44)  rotate(0 12.63 3.45)" opacity="0.25" d="M23.68,0C17.78,0.58 6.27,1.22 0,1.54C0.03,1.74 0.05,1.95 0.07,2.15C0.22,3.59 0.2,5.03 0.02,6.47C8.37,7.4 19.81,6.61 25.26,6.12C24.73,4.44 24.2,2.4 23.68,0Z " /><path id="Vector" fill-rule="evenodd" style="fill:#F06082" transform="translate(174.2 413.15)  rotate(0 28.78 28.67)" opacity="0.5" d="M9.4,28.94C16.12,31.96 19.83,37.81 25.34,45.99C30.85,54.18 41.36,60.41 51.3,55.73C61.24,51.06 57.14,40.93 53.93,37.72C52.52,36.21 51.19,34.61 49.97,32.95C38.28,30.82 32.35,39.09 27.31,36.11C24.06,34.17 14.65,18.8 10.8,11.34C7.94,5.8 5.89,2.73 1.95,0C1.01,4.93 -0.36,10.46 0.09,16.37C0.6,23.18 2.68,25.92 9.4,28.94Z " /><path  id="Vector" style="stroke:#2C2F53; stroke-width:0.8284807205200195; stroke-opacity:1; stroke-dasharray:0 0" transform="translate(69.54 121.5)  rotate(0 15.555 8.035)" d="M31.11,13.37C26.11,16.18 22.48,16.37 19.65,15.83C15.42,15.04 8.66,10.37 3.56,4.64C2.26,3.19 1.07,1.64 0,0 " /><path  id="Vector" style="stroke:#2C2F53; stroke-width:0.8284807205200195; stroke-opacity:1; stroke-dasharray:0 0" transform="translate(64.1 93.24)  rotate(0 0.4 7.155)" d="M0.19,0C-0.2,4.78 0.01,9.58 0.8,14.31 " /><path  id="Vector" style="stroke:#FFFFFF; stroke-width:0.8284807205200195; stroke-opacity:1; stroke-dasharray:0 0" transform="translate(66.97 78.95)  rotate(0 4.345 6.095)" d="M0,1.16C1.53,6.83 4.64,12.63 5.21,12.16C5.78,11.7 3.23,0.21 3.44,0C3.64,-0.2 8.69,10.68 8.69,10.68 " /><path id="Vector" fill-rule="evenodd" style="fill:#2C2F53" transform="translate(110.4 89.29)  rotate(0 4.86 2.375)" opacity="1" d="M9.31,4.75L9.72,3.16C9.04,1.16 3.5,-0.2 2.95,0.02C2.41,0.25 0.72,1.12 0,2.65C3.25,2.25 6.54,2.99 9.31,4.75Z " /><path id="Vector" fill-rule="evenodd" style="fill:#2C2F53" transform="translate(85.46 82.78)  rotate(0 6.81 3.255)" opacity="1" d="M0,2.62C9.31,3.37 13.62,6.51 13.62,6.51C13.62,6.51 13.33,3.57 12.63,3.01C11.71,2.27 7.37,0.62 3.55,0L0,2.62Z " /><path id="Vector" fill-rule="evenodd" style="fill:#2C2F53" transform="translate(86.95 95.27)  rotate(0 1.995 1.995)" opacity="1" d="M2,0C0.89,0 0,0.89 0,2C0,3.1 0.89,3.99 2,3.99C3.1,3.99 3.99,3.1 3.99,2C3.99,0.89 3.1,0 2,0Z " /><path id="Vector" fill-rule="evenodd" style="fill:#2C2F53" transform="translate(109.1 99.33)  rotate(0 1.995 1.995)" opacity="1" d="M2,0C0.89,0 0,0.89 0,2C0,3.1 0.89,3.99 2,3.99C3.1,3.99 3.99,3.1 3.99,2C3.99,0.89 3.1,0 2,0Z " /><path  id="Vector" style="stroke:#2C2F53; stroke-width:0.8284807205200195; stroke-opacity:1; stroke-dasharray:0 0" transform="translate(94.26 113.68)  rotate(0 5.5 1.325)" d="M0,0C3.17,1.66 6.65,2.73 7.87,2.65C9.09,2.56 11,0.34 11,0.34 " /><path  id="Vector" style="stroke:#2C2F53; stroke-width:0.8284807205200195; stroke-opacity:1; stroke-dasharray:0 0" transform="translate(84.66 94.04)  rotate(0 1.895 1.385)" d="M3.79,2.77C3.79,2.77 0.62,2.24 0,0 " /><path  id="Vector" style="stroke:#2C2F53; stroke-width:0.8284807205200195; stroke-opacity:1; stroke-dasharray:0 0" transform="translate(111.75 99.33)  rotate(0 1.96 0.655)" d="M3.92,0C3.39,0.8 1.72,1.46 0,1.28 " /><path  id="Vector" style="stroke:#2C2F53; stroke-width:0.8284807205200195; stroke-opacity:1; stroke-dasharray:0 0" transform="translate(102.14 92.82)  rotate(0 3.475 11.75)" d="M0,23.5C0.8,18.62 1.02,9.75 1.11,8.5C1.2,7.26 6.95,0 6.95,0 " /><path  id="Vector" style="stroke:#2C2F53; stroke-width:0.8284807205200195; stroke-opacity:1; stroke-dasharray:0 0" transform="translate(69.54 144.06)  rotate(0 15.845 6.35)" d="M0,0C3.99,7.04 15.19,13.5 20.81,12.62C26.44,11.74 30.98,6.49 31.69,3.43 " /><path id="Vector" fill-rule="evenodd" style="fill:#FFFFFF" transform="translate(88.49 155.85)  rotate(0 4.19 4.19)" opacity="1" d="M4.19,0C1.88,0 0,1.88 0,4.19C0,6.5 1.88,8.38 4.19,8.38C6.5,8.38 8.38,6.5 8.38,4.19C8.38,1.88 6.5,0 4.19,0Z " /><path id="Vector" fill-rule="evenodd" style="fill:#2C2F53" transform="translate(86.73 117.46)  rotate(0 7.705 4.99)" opacity="1" d="M12.3,3.67C7.3,2.28 0.56,0.24 0.21,0.01C0.02,-0.12 -0.11,1.03 0.13,2.58C0.41,4.47 1.24,6.96 3.14,8.44C6.24,10.85 9.25,9.71 9.25,9.71C9.25,9.71 11.79,8.57 15.41,4.51C14.53,4.29 13.46,4 12.3,3.67Z " /><path id="Vector" fill-rule="evenodd" style="fill:#FFFFFF" transform="translate(86.73 117.44)  rotate(0 6.15 2.88)" opacity="1" d="M0.21,0.01C0.02,-0.12 -0.11,1.03 0.13,2.57C4.37,4.68 9.96,5.76 10.53,5.76C11.27,5.78 11.91,4.6 12.3,3.69C7.29,2.3 0.56,0.25 0.21,0.01Z " /><path id="Vector" fill-rule="evenodd" style="fill:#505C7B" transform="translate(135.82 189.86)  rotate(0 37.045 26.81)" opacity="0.5" d="M1.59,0L0,48.71L69.31,53.62L69.64,50.21C66.91,49.97 66.3,46.43 66.64,41.46C59.23,40.71 61.81,32.64 61.81,32.64C56.89,30.89 57.31,26.48 57.98,26.15C58.65,25.81 73.84,28.37 73.84,28.37C73.84,28.37 74.09,21.71 74.09,21.67C74.09,21.63 68.88,21.23 65.22,20.45C61.55,19.68 61.31,15.5 61.72,14.74C62.14,13.98 73.04,15.82 73.04,15.82L73.95,5.5L1.59,0Z " /><g opacity="1" transform="translate(136.16 192.59)  rotate(0 35.16 26.21)"><path  id="Vector" style="stroke:#FFFFFF; stroke-width:0.8284807205200195; stroke-opacity:1; stroke-dasharray:0 0" transform="translate(25.58 12.62)  rotate(0 4.665 4.3)" d="M8.51,1.03C5.31,-0.81 4.19,4.35 4.19,4.35C4.19,4.35 3.25,-0.62 1.17,0.06C-1.3,0.87 0.4,6.04 3.8,8.6C8.36,7.2 10.68,2.26 8.51,1.03Z " /><path  id="Vector" style="stroke:#FFFFFF; stroke-width:0.8284807205200195; stroke-opacity:1; stroke-dasharray:0 0" transform="translate(42.15 5.14)  rotate(0 4.695 4.235)" d="M8.52,0.51C6.58,-0.52 4.8,4.21 4.8,4.21C4.8,4.21 4.58,-1.06 1.11,0.19C-1.22,1.04 0.21,6.31 4.46,8.47C8.25,6.54 10.82,1.74 8.52,0.51Z " /><path  id="Vector" style="stroke:#FFFFFF; stroke-width:0.8284807205200195; stroke-opacity:1; stroke-dasharray:0 0" transform="translate(50.52 27.23)  rotate(0 4.695 4.235)" d="M8.52,0.51C6.58,-0.52 4.8,4.21 4.8,4.21C4.8,4.21 4.58,-1.06 1.11,0.19C-1.22,1.04 0.21,6.31 4.46,8.47C8.25,6.54 10.82,1.74 8.52,0.51Z " /><path  id="Vector" style="stroke:#FFFFFF; stroke-width:0.8284807205200195; stroke-opacity:1; stroke-dasharray:0 0" transform="translate(57.45 43.95)  rotate(0 4.7 4.235)" d="M8.53,0.51C6.59,-0.52 4.8,4.21 4.8,4.21C4.8,4.21 4.58,-1.06 1.11,0.19C-1.21,1.04 0.2,6.31 4.47,8.47C8.26,6.54 10.83,1.74 8.53,0.51Z " /><path  id="Vector" style="stroke:#FFFFFF; stroke-width:0.8284807205200195; stroke-opacity:1; stroke-dasharray:0 0" transform="translate(38.12 22.31)  rotate(0 4.695 4.235)" d="M8.52,0.51C6.58,-0.52 4.8,4.21 4.8,4.21C4.8,4.21 4.58,-1.06 1.11,0.19C-1.22,1.04 0.21,6.31 4.46,8.47C8.25,6.54 10.82,1.74 8.52,0.51Z " /><path  id="Vector" style="stroke:#FFFFFF; stroke-width:0.8284807205200195; stroke-opacity:1; stroke-dasharray:0 0" transform="translate(42.15 38.28)  rotate(0 4.695 4.235)" d="M8.52,0.51C6.58,-0.52 4.8,4.21 4.8,4.21C4.8,4.21 4.58,-1.06 1.11,0.19C-1.22,1.04 0.21,6.31 4.46,8.47C8.25,6.54 10.82,1.74 8.52,0.51Z " /><path  id="Vector" style="stroke:#FFFFFF; stroke-width:0.8284807205200195; stroke-opacity:1; stroke-dasharray:0 0" transform="translate(60.93 4.09)  rotate(0 4.695 4.235)" d="M8.52,0.51C6.58,-0.52 4.79,4.21 4.79,4.21C4.79,4.21 4.57,-1.06 1.1,0.19C-1.21,1.04 0.21,6.31 4.46,8.47C8.25,6.54 10.82,1.74 8.52,0.51Z " /><path  id="Vector" style="stroke:#FFFFFF; stroke-width:0.8284807205200195; stroke-opacity:1; stroke-dasharray:0 0" transform="translate(17.86 0)  rotate(0 4.665 4.3)" d="M8.51,1.03C5.31,-0.81 4.19,4.35 4.19,4.35C4.19,4.35 3.25,-0.62 1.17,0.06C-1.3,0.87 0.4,6.04 3.8,8.6C8.36,7.21 10.68,2.26 8.51,1.03Z " /><path  id="Vector" style="stroke:#FFFFFF; stroke-width:0.8284807205200195; stroke-opacity:1; stroke-dasharray:0 0" transform="translate(6.35 20.99)  rotate(0 4.665 4.3)" d="M8.52,1.03C5.32,-0.81 4.19,4.35 4.19,4.35C4.19,4.35 3.25,-0.62 1.18,0.06C-1.3,0.87 0.4,6.05 3.79,8.6C8.35,7.21 10.67,2.28 8.52,1.03Z " /><path  id="Vector" style="stroke:#FFFFFF; stroke-width:0.8284807205200195; stroke-opacity:1; stroke-dasharray:0 0" transform="translate(6.34 40.49)  rotate(0 4.665 4.3)" d="M8.51,1.03C5.31,-0.81 4.19,4.35 4.19,4.35C4.19,4.35 3.25,-0.62 1.17,0.06C-1.3,0.87 0.4,6.04 3.8,8.6C8.36,7.22 10.68,2.25 8.51,1.03Z " /><path  id="Vector" style="stroke:#FFFFFF; stroke-width:0.8284807205200195; stroke-opacity:1; stroke-dasharray:0 0" transform="translate(21.81 33.91)  rotate(0 4.665 4.3)" d="M8.51,1.03C5.31,-0.81 4.19,4.35 4.19,4.35C4.19,4.35 3.25,-0.62 1.17,0.06C-1.3,0.87 0.4,6.04 3.8,8.6C8.36,7.21 10.68,2.26 8.51,1.03Z " /><path  id="Vector" style="stroke:#FFFFFF; stroke-width:0.8284807205200195; stroke-opacity:1; stroke-dasharray:0 0" transform="translate(0 4.02)  rotate(0 4.67 4.3)" d="M8.51,1.03C5.32,-0.81 4.19,4.35 4.19,4.35C4.19,4.35 3.25,-0.62 1.17,0.06C-1.3,0.87 0.4,6.04 3.8,8.6C8.36,7.2 10.69,2.26 8.51,1.03Z " /></g><path  id="Vector" style="stroke:#2C2F53; stroke-width:0.8284807205200195; stroke-opacity:1; stroke-dasharray:0 0" transform="translate(220.97 254.52)  rotate(0 3.105 1.585)" d="M6.21,0C4.41,1.52 2.28,2.6 0,3.17 " /><path id="Vector" fill-rule="evenodd" style="fill:#54C3E5" transform="translate(232.22 239.6)  rotate(0 7.97 12.22)" opacity="0.5" d="M0.25,20.78L12.46,24.44C18.21,14.61 15.1,0.05 15.1,0.05L0,0C5.51,6.94 0.25,20.78 0.25,20.78Z " /><path  id="Vector" style="stroke:#54C3E5; stroke-width:0.8284807205200195; stroke-opacity:1; stroke-dasharray:0 0" transform="translate(234 242.7)  rotate(0 6.165 0.15)" d="M12.33,0.3C12.33,0.3 5.51,-0.37 0,0.3 " /><path  id="Vector" style="stroke:#54C3E5; stroke-width:0.8284807205200195; stroke-opacity:1; stroke-dasharray:0 0" transform="translate(234.66 246.1)  rotate(0 6.71 0.3)" d="M13.42,0C13.42,0 4.69,0.65 0,0.6 " /><path  id="Vector" style="stroke:#54C3E5; stroke-width:0.8284807205200195; stroke-opacity:1; stroke-dasharray:0 0" transform="translate(234.68 249.91)  rotate(0 6.74 0.565)" d="M13.48,1.13C13.48,1.13 3.19,-0.17 0,0.02 " /><path  id="Vector" style="stroke:#54C3E5; stroke-width:0.8284807205200195; stroke-opacity:1; stroke-dasharray:0 0" transform="translate(236.37 252.9)  rotate(0 5.68 0.95)" d="M11.36,1.9C11.36,1.9 3.44,-0.49 0,0.09 " /><path  id="Vector" style="stroke:#54C3E5; stroke-width:0.8284807205200195; stroke-opacity:1; stroke-dasharray:0 0" transform="translate(234 254.99)  rotate(0 6.46 1.915)" d="M12.92,3.73C9.68,4.36 2.69,1.91 0,0 " /><path  id="Vector" style="stroke:#54C3E5; stroke-width:0.8284807205200195; stroke-opacity:1; stroke-dasharray:0 0" transform="translate(246.55 220.43)  rotate(0 25.7 10.39)" d="M0.03,20.78C-0.17,17.05 0.67,14.18 2.62,11.38C4.57,8.59 9.83,10 13.01,9.37C19.9,8.01 33.86,-7.78 51.4,4.89 " /><path  id="Vector" style="stroke:#54C3E5; stroke-width:0.8284807205200195; stroke-opacity:1; stroke-dasharray:0 0" transform="translate(207.73 83.2)  rotate(0 59.2 93.575)" d="M69.68,186.92C76.37,187.75 87.61,186.34 96.74,182.42C105.87,178.5 112.11,174.84 114.61,165.9C117.12,156.97 116.54,150.92 117.19,147.13C117.83,143.34 119.56,137.23 117.19,133.96C114.81,130.68 110.31,129.4 109.47,126.5C108.64,123.6 102.47,108.83 100.86,104.45C99.25,100.08 88.2,70.77 86.4,65.24C83.56,56.95 79.83,49 75.27,41.52C70.13,33.3 61.45,23.91 41.01,16.91C20.57,9.9 0,0 0,0 " /><path  id="Vector" style="stroke:#54C3E5; stroke-width:0.8284807205200195; stroke-opacity:1; stroke-dasharray:0 0" transform="translate(127.81 87.92)  rotate(0 17.62 6.355)" d="M35.24,0C28.69,0.19 2.87,11.26 0,12.71 " /><path  id="Vector" style="stroke:#54C3E5; stroke-width:0.8284807205200195; stroke-opacity:1; stroke-dasharray:0 0" transform="translate(258.05 147.21)  rotate(0 8.79 37.38)" d="M1.21,0C-1.64,20.99 1.04,37.43 4.07,48.18C7.09,58.92 11.45,69.11 17.58,74.76 " /><path  id="Vector" style="stroke:#54C3E5; stroke-width:0.8284807205200195; stroke-opacity:1; stroke-dasharray:0 0" transform="translate(276.95 207.46)  rotate(0 5.16 7.04)" d="M10.32,0C8.57,0.83 0.36,10.09 0,14.08 " /><path  id="Vector" style="stroke:#54C3E5; stroke-width:0.8284807205200195; stroke-opacity:1; stroke-dasharray:0 0" transform="translate(279.61 212.82)  rotate(0 5.115 4.025)" d="M10.23,0C8.94,0.64 1.41,5 0,8.05 " /><path id="Vector" fill-rule="evenodd" style="fill:#54C3E5" transform="translate(182.4 238.29)  rotate(0 132.795 101.305)" opacity="0.25" d="M157.3 174.87C153.4 182.85 137.81 195.34 134.18 197.42C130.55 199.49 125.48 202.61 125.48 202.61C125.48 202.61 89.5 163.51 80.53 153.9C71.58 144.28 52.55 127.19 52.55 127.19C52.55 127.19 37.26 136.22 27.48 139.87C17.71 143.53 12.79 143.45 12.79 143.45C12.79 143.45 12.19 136.74 10.4 122.49L16.37 119.47L0 42.56C18.45 13.86 38.57 19.42 51.59 30.48C56.06 34.29 61.84 41.06 67.81 48.75C73.03 44.29 84.01 34.48 86.83 28.2C86.83 28.2 95.85 31.19 109.27 28.2C122.7 25.21 134.09 22.29 138.23 7.9C138.23 7.9 174.55 4.14 182.38 3.39C182.655 3.36365 182.958 3.33464 183.286 3.30321C192.297 2.44013 220.385 -0.250162 224.64 0.02C229.04 0.29 246.74 7.04 248.8 8.49C250.86 9.93 260.15 16.06 263.27 28.73C266.39 41.4 266.59 51.72 262.49 57.77C258.4 63.81 253.32 72.97 232.19 90.11C212.96 105.72 154.6 148.81 144.24 156.46L157.3 174.87ZM148.11 93.72C138.88 104.53 124.41 116.87 119.24 121.17L108.34 105.79L148.11 93.72Z" /><path  id="Vector" style="stroke:#54C3E5; stroke-width:0.8284807205200195; stroke-opacity:1; stroke-dasharray:0 0" transform="translate(189.67 309.52)  rotate(0 22.64 27.97)" d="M0,0C4.01,1.54 10.72,3.89 10.55,7.04C10.37,10.2 9.52,10.67 9.48,13.53C9.43,16.39 11.19,17.03 13.84,16.73C16.49,16.44 20.84,15.91 20.92,20.49C21.01,25.08 20.1,29.03 23.15,29.5C26.19,29.97 26.43,30.7 26.73,32.92C27.03,35.14 27.88,36.97 31.47,41.42C35.06,45.86 43.2,54.06 45.28,55.94 " /><path  id="Vector" style="stroke:#54C3E5; stroke-width:0.8284807205200195; stroke-opacity:1; stroke-dasharray:0 0" transform="translate(330.51 261.86)  rotate(0 41.45 35.075)" d="M0,70.15C9.8,59.38 25.94,41.8 26.87,40.11C27.79,38.42 30.67,34.7 32.11,33.6C33.54,32.51 34.3,29.05 34.81,27.6C35.32,26.15 37.86,25.83 40.05,25.66C42.25,25.49 45.8,19.99 47.4,17.46C49.01,14.92 50.95,10.78 60,5.96C69.04,1.15 81.54,-0.29 82.9,0.05 " /><path id="Vector" fill-rule="evenodd" style="fill:#54C3E5" transform="translate(240.83 265.39)  rotate(0 14.78 12.61)" opacity="0.5" d="M9.67,25.22C9.67,25.22 24.86,10.04 26.69,7.74C27.89,6.15 28.86,4.41 29.56,2.55L17.1,0C17.1,0 15.63,4.17 0,14.16C0,14.16 7.51,22.2 9.67,25.22Z " /><path  id="Vector" style="stroke:#54C3E5; stroke-width:0.8284807205200195; stroke-opacity:1; stroke-dasharray:0 0" transform="translate(242.65 263.43)  rotate(0 14.13 3.045)" d="M28.26,6.09C19.9,5.45 3.31,0.83 0,0 " /><path  id="Vector" style="stroke:#54C3E5; stroke-width:0.8284807205200195; stroke-opacity:1; stroke-dasharray:0 0" transform="translate(245.43 276.51)  rotate(0 3.315 3.71)" d="M6.63,7.42C5.22,6.63 2.19,3.41 0,0 " /><path  id="Vector" style="stroke:#54C3E5; stroke-width:0.8284807205200195; stroke-opacity:1; stroke-dasharray:0 0" transform="translate(247.73 274.88)  rotate(0 4.525 4.805)" d="M9.05,9.61C6.37,8.33 2.58,4.45 0,0 " /><path  id="Vector" style="stroke:#54C3E5; stroke-width:0.8284807205200195; stroke-opacity:1; stroke-dasharray:0 0" transform="translate(251.78 274.02)  rotate(0 3.33 3.545)" d="M6.66,7.09C5.36,6.66 2.17,4.11 0,0 " /><path  id="Vector" style="stroke:#54C3E5; stroke-width:0.8284807205200195; stroke-opacity:1; stroke-dasharray:0 0" transform="translate(253.67 270.19)  rotate(0 3.495 4.19)" d="M6.99,8.38C5.1,7.29 3.2,4.86 0,0 " /><path  id="Vector" style="stroke:#54C3E5; stroke-width:0.8284807205200195; stroke-opacity:1; stroke-dasharray:0 0" transform="translate(256.34 267.58)  rotate(0 4.365 4.235)" d="M8.73,8.47C6.16,8.17 2.21,4.11 0,0 " /><path  id="Vector" style="stroke:#54C3E5; stroke-width:0.8284807205200195; stroke-opacity:1; stroke-dasharray:0 0" transform="translate(262.41 268.22)  rotate(0 1.865 2.115)" d="M3.73,4.23C2.15,3.16 0.87,1.7 0,0 " /><path  id="Vector" style="stroke:#505C7B; stroke-width:1.2427210807800293; stroke-opacity:1; stroke-dasharray:0 0" transform="translate(317.27 435.07)  rotate(0 48.65 23.755)" d="M97.3,20.47C97.3,20.47 84.97,19.07 80.03,18.36C75.1,17.66 62.98,15.33 52.9,11.83C46.46,9.59 40.33,6.55 34.65,2.79C32.82,1.66 32.47,-1.09 26.41,0.46C22.22,1.58 18.61,4.24 16.33,7.92C15.5,9.33 14.49,12.78 15.41,15.53C16.33,18.28 20.27,20.67 20.27,20.67C20.27,20.67 17.24,21.31 15.76,22.57C14.28,23.84 11.39,23.63 11.39,23.63C9.42,19.33 1.81,14.41 0.26,16.59C-0.45,17.57 0.19,20.11 3.5,26.67C6.81,33.22 15.48,47.51 15.48,47.51 " /><path  id="Vector" style="stroke:#505C7B; stroke-width:1.2427210807800293; stroke-opacity:1; stroke-dasharray:0 0" transform="translate(334.3 456.12)  rotate(0 45.975 17.785)" d="M0,28.47C0.29,28.83 0.59,29.19 0.89,29.55C2.72,31.67 5.04,33.72 11.06,34.32C15.49,34.76 20.72,32.56 23.75,31.57C26.78,30.59 33.28,32.99 39.39,34.11C42.97,34.77 49.47,36.3 55.6,35.17C61.73,34.03 65.68,32.68 74.07,28.82C82.45,24.97 91.05,16.28 91.88,11.06C92.08,9.63 91.86,8.16 91.24,6.84C89.63,3.17 85.67,0.1 82.79,0 " /><path id="Vector" fill-rule="evenodd" style="fill:#54C3E5" transform="translate(211.35 169.01)  rotate(0 15.615 2.775)" opacity="0.5" d="M0.3,5.55C0.3,5.55 25.08,4.88 31.23,3.12L31.23,0C31.23,0 9.76,1.66 0,2.05L0.3,5.55Z " /><path id="Vector" fill-rule="evenodd" style="fill:#54C3E5" transform="translate(160.84 82.25)  rotate(0 5.27 15.41)" opacity="0.5" d="M0.5,4.83C0.2,7.44 -0.8,13.56 1.31,21.08C3.41,28.61 10.54,30.82 10.54,30.82C10.54,30.82 10.44,28.71 9.84,24.7C9.23,20.69 6.72,15.37 6.42,13.26C6.12,11.14 4.02,2.41 1.71,0C1.11,1.55 0.71,3.17 0.5,4.83Z " /><path id="Vector" fill-rule="evenodd" style="fill:#54C3E5" transform="translate(191.39 76.69)  rotate(0 10.34 19.905)" opacity="0.5" d="M19.94,26.01C21.64,17.42 20.18,12.21 17.91,6.5C15.64,0.78 14.26,0 14.26,0L12.54,2.35C12.54,2.35 12.82,16.32 12.88,17.85C12.94,19.39 11.34,21.17 8.89,24.48C6.44,27.8 2.9,32.02 0,39.81C12.15,39.87 18.24,34.6 19.94,26.01Z " /><path  id="Vector" style="stroke:#54C3E5; stroke-width:0.8284807205200195; stroke-opacity:1; stroke-dasharray:0 0" transform="translate(160.12 87.07)  rotate(0 2.45 2.37)" d="M4.9,0C3.37,-0.12 0.92,2.64 0,4.74 " /><path  id="Vector" style="stroke:#54C3E5; stroke-width:0.8284807205200195; stroke-opacity:1; stroke-dasharray:0 0" transform="translate(162.33 91.47)  rotate(0 2.03 1.865)" d="M4.06,0.02C2.9,-0.2 0.86,1.16 0,3.73 " /><path  id="Vector" style="stroke:#54C3E5; stroke-width:0.8284807205200195; stroke-opacity:1; stroke-dasharray:0 0" transform="translate(161.83 96.4)  rotate(0 2.815 2.865)" d="M5.63,0C3.12,1.17 1.12,3.2 0,5.73 " /><path  id="Vector" style="stroke:#54C3E5; stroke-width:0.8284807205200195; stroke-opacity:1; stroke-dasharray:0 0" transform="translate(164.07 99.27)  rotate(0 2.17 4.095)" d="M4.34,0C2.4,0.48 0.55,3.96 0,8.19 " /><path  id="Vector" style="stroke:#54C3E5; stroke-width:0.8284807205200195; stroke-opacity:1; stroke-dasharray:0 0" transform="translate(167.65 102.13)  rotate(0 0.88 3.685)" d="M1.76,0C1.09,0.51 -0.19,3.62 0.02,7.37 " /><path  id="Vector" style="stroke:#54C3E5; stroke-width:0.8284807205200195; stroke-opacity:1; stroke-dasharray:0 0" transform="translate(195.38 108.15)  rotate(0 0.83 3.96)" d="M1.66,7.92C1.66,7.92 1.66,1.88 0,0 " /><path  id="Vector" style="stroke:#54C3E5; stroke-width:0.8284807205200195; stroke-opacity:1; stroke-dasharray:0 0" transform="translate(199.2 102.59)  rotate(0 0.89 6.24)" d="M1.78,12.48C1.78,12.48 1.05,5.03 0,0 " /><path  id="Vector" style="stroke:#54C3E5; stroke-width:0.8284807205200195; stroke-opacity:1; stroke-dasharray:0 0" transform="translate(199.56 102.13)  rotate(0 2.995 5.25)" d="M5.99,10.5C3.12,0.12 0,0 0,0 " /><path  id="Vector" style="stroke:#54C3E5; stroke-width:0.8284807205200195; stroke-opacity:1; stroke-dasharray:0 0" transform="translate(202.55 98.14)  rotate(0 2.88 5.84)" d="M5.76,11.68C3.79,3.58 1.57,0 0,0 " /><path  id="Vector" style="stroke:#54C3E5; stroke-width:0.8284807205200195; stroke-opacity:1; stroke-dasharray:0 0" transform="translate(204.28 94.53)  rotate(0 3.52 4.08)" d="M7.04,8.16C5.05,3.76 2.68,0.12 0,0 " /><path  id="Vector" style="stroke:#54C3E5; stroke-width:0.8284807205200195; stroke-opacity:1; stroke-dasharray:0 0" transform="translate(204.2 91.59)  rotate(0 3.935 1.475)" d="M7.87,2.95C5.6,0.42 2.65,-0.47 0,0.23 " /><path  id="Vector" style="stroke:#54C3E5; stroke-width:0.8284807205200195; stroke-opacity:1; stroke-dasharray:0 0" transform="translate(204.08 86.01)  rotate(0 3.685 1.915)" d="M7.37,3.83C5.43,1.47 2.49,-0.52 0,0.12 " /><path  id="Vector" style="stroke:#54C3E5; stroke-width:0.8284807205200195; stroke-opacity:1; stroke-dasharray:0 0" transform="translate(203.98 80.79)  rotate(0 3.23 0.735)" d="M6.46,1.47C6.46,1.47 2.93,-0.88 0,0.36 " /><path id="Vector" fill-rule="evenodd" style="fill:#2C2F53" transform="translate(177.73 68.77)  rotate(0 2.765 1.215)" opacity="1" d="M5.51,0.63C5.19,-0.51 3.32,-0.21 0,2.43C2.33,1.71 5.83,1.78 5.51,0.63Z " /><path id="Vector" fill-rule="evenodd" style="fill:#2C2F53" transform="translate(159.86 52.37)  rotate(0 2.2 2.2)" opacity="1" d="M2.2,0C0.98,0 0,0.98 0,2.2C0,3.42 0.98,4.4 2.2,4.4C3.42,4.4 4.4,3.42 4.4,2.2C4.4,0.98 3.42,0 2.2,0Z " /><path id="Vector" fill-rule="evenodd" style="fill:#2C2F53" transform="translate(186.04 52.79)  rotate(0 2.2 2.2)" opacity="1" d="M2.2,0C0.98,0 0,0.98 0,2.2C0,3.42 0.98,4.4 2.2,4.4C3.42,4.4 4.4,3.42 4.4,2.2C4.4,0.98 3.42,0 2.2,0Z " /><path id="Vector" fill-rule="evenodd" style="fill:#DC6437" transform="translate(155.08 39.25)  rotate(0 5.905 2.555)" opacity="0.75" d="M7.78,0.23C5.21,-0.03 2.62,-0.07 0.05,0.11C0,1.82 0,3.12 0,4.09C3.89,4.03 10.8,4.99 11.81,5.11C11.81,5.11 11.69,0.75 7.78,0.23Z " /><path id="Vector" fill-rule="evenodd" style="fill:#DC6437" transform="translate(181.13 39.32)  rotate(0 11.325 3.05)" opacity="0.75" d="M13.1,5.04C16.58,4.95 22.65,6.1 22.65,6.1C20.7,3.41 17.81,1.56 14.55,0.92C8.95,-0.27 3.86,-0.08 2.64,0.23C1.42,0.54 -0.57,2.92 0.16,5.71C0.16,5.71 9.62,5.12 13.1,5.04Z " /><path  id="Vector" style="stroke:#2C2F53; stroke-width:0.8284807205200195; stroke-opacity:1; stroke-dasharray:0 0" transform="translate(155.14 46.21)  rotate(0 0.395 8.43)" d="M0.79,16.86C0.79,16.86 0.54,10.17 0,0 " /><path  id="Vector" style="stroke:#2C2F53; stroke-width:0.8284807205200195; stroke-opacity:1; stroke-dasharray:0 0" transform="translate(189 52.79)  rotate(0 2.015 0.895)" d="M4.03,0C3.81,0.65 1.76,1.77 0,1.79 " /><path  id="Vector" style="stroke:#2C2F53; stroke-width:0.8284807205200195; stroke-opacity:1; stroke-dasharray:0 0" transform="translate(162.57 79.03)  rotate(0 20.685 8.065)" d="M41.37,0C41.1,0.31 40.77,0.68 40.39,1.09C36.08,5.72 25.73,15.53 23.49,15.91C19.8,16.54 9.19,15.65 8.48,15.23C7.81,14.82 3.93,8.7 0,3.22 " /><path  id="Vector" style="stroke:#2C2F53; stroke-width:0.8284807205200195; stroke-opacity:1; stroke-dasharray:0 0" transform="translate(209.59 55.78)  rotate(0 0.15 3.505)" d="M0,7.01C0,7.01 0.2,3.82 0.3,0 " /><path  id="Vector" style="stroke:#2C2F53; stroke-width:0.8284807205200195; stroke-opacity:1; stroke-dasharray:0 0" transform="translate(175.8 82.01)  rotate(0 2.855 0.635)" d="M5.71,0C5.48,0.52 2.65,1.61 0,1.17 " /><path  id="Vector" style="stroke:#2C2F53; stroke-width:0.8284807205200195; stroke-opacity:1; stroke-dasharray:0 0" transform="translate(171.77 75.43)  rotate(0 8.42 1.805)" d="M0,2.48C0.46,3.34 0.75,3.51 1.56,3.6C2.37,3.69 11.65,3.34 14.3,1.79C16.96,0.23 16.84,0 16.84,0 " /><path  id="Vector" style="stroke:#2C2F53; stroke-width:0.8284807205200195; stroke-opacity:1; stroke-dasharray:0 0" transform="translate(168.63 69.3)  rotate(0 6.175 1.48)" d="M0,0C1.21,1.63 2.17,2.71 3.73,2.88C5.29,3.04 7.52,2.96 8.02,2.63C8.51,2.3 11.23,0.42 12.35,0.34 " /><path  id="Vector" style="stroke:#2C2F53; stroke-width:0.8284807205200195; stroke-opacity:1; stroke-dasharray:0 0" transform="translate(165.97 43.69)  rotate(0 2.93 14.19)" d="M0,0C3.35,2.3 5.51,5.17 5.56,5.99C5.61,6.8 6,22.43 5.8,28.38 " /><path  id="Vector" style="stroke:#2C2F53; stroke-width:0.8284807205200195; stroke-opacity:1; stroke-dasharray:0 0" transform="translate(158.19 52.36)  rotate(0 1.705 0.815)" d="M3.41,1.59C2.48,1.78 0.96,1.2 0,0 " /><path  id="Vector" style="stroke:#2C2F53; stroke-width:0.8284807205200195; stroke-opacity:1; stroke-dasharray:0 0" transform="translate(202.1 62.79)  rotate(0 2.705 2.565)" d="M5.41,0C5.25,0.81 2.38,3.24 0,5.13 " /><path  id="Vector" style="stroke:#54C3E5; stroke-width:0.8284807205200195; stroke-opacity:1; stroke-dasharray:0 0" transform="translate(166.11 132.85)  rotate(0 4.09 14.935)" d="M0,29.87C0,29.87 5.93,10.03 8.18,0 " /><path  id="Vector" style="stroke:#54C3E5; stroke-width:0.8284807205200195; stroke-opacity:1; stroke-dasharray:0 0" transform="translate(164.07 122.88)  rotate(0 1.905 2.21)" d="M3.58,4.07C4.92,2.78 0,0 0,0C0.34,2.86 2.24,5.36 3.58,4.07Z " /><path  id="Vector" style="stroke:#54C3E5; stroke-width:0.8284807205200195; stroke-opacity:1; stroke-dasharray:0 0" transform="translate(171.27 121.82)  rotate(0 0.78 2.57)" d="M1.19,5.13C2.23,4.96 0.82,0.87 0.1,0C-0.19,3.32 0.14,5.3 1.19,5.13Z " /><path  id="Vector" style="stroke:#54C3E5; stroke-width:0.8284807205200195; stroke-opacity:1; stroke-dasharray:0 0" transform="translate(175.04 124.3)  rotate(0 1 1.72)" d="M0.25,3.31C0.91,3.8 1.64,2.94 2,0C0.29,1.7 -0.42,2.82 0.25,3.31Z " /><path  id="Vector" style="stroke:#54C3E5; stroke-width:0.8284807205200195; stroke-opacity:1; stroke-dasharray:0 0" transform="translate(177.44 126.13)  rotate(0 2.72 1.59)" d="M0.26,2.94C1.05,3.56 3.69,3.1 5.44,0C1.93,0.41 -0.9,2.03 0.26,2.94Z " /><path  id="Vector" style="stroke:#54C3E5; stroke-width:0.8284807205200195; stroke-opacity:1; stroke-dasharray:0 0" transform="translate(150.39 163.85)  rotate(0 19.16 5.57)" d="M0,0L13.68,0.28L38.32,11.14 " /><path  id="Vector" style="stroke:#505C7B; stroke-width:1.2427210807800293; stroke-opacity:1; stroke-dasharray:0 0" transform="translate(172.83 197.46)  rotate(0 1.11 20.41)" d="M0,40.82L2.22,0 " /><path  id="Vector" style="stroke:#54C3E5; stroke-width:0.8284807205200195; stroke-opacity:1; stroke-dasharray:0 0" transform="translate(234 268.77)  rotate(0 52.855 72.19)" d="M105.71,144.38C105.71,144.38 51.93,68.57 44.53,57.94C37.13,47.3 12.99,11.06 0,0 " /><path  id="Vector" style="stroke:#F06082; stroke-width:0.8284807205200195; stroke-opacity:1; stroke-dasharray:0 0" transform="translate(20.16 213.26)  rotate(0 17.565 10.66)" d="M0,14.86C0,14.86 0.95,17.37 2.46,21.32C2.46,21.32 21.34,9.31 35.13,5.58L32.74,0 " /><path  id="Vector" style="stroke:#2C2F53; stroke-width:0.8284807205200195; stroke-opacity:1; stroke-dasharray:0 0" transform="translate(114.88 104.57)  rotate(0 1.67 4.42)" d="M3.34,0L0,8.84 " /><path id="Vector" fill-rule="evenodd" style="fill:#DC6437" transform="translate(71.26 100.35)  rotate(0 8.32 8.32)" opacity="0.3" d="M8.32,0C3.73,0 0,3.73 0,8.32C0,12.91 3.73,16.64 8.32,16.64C12.91,16.64 16.64,12.91 16.64,8.32C16.64,3.73 12.91,0 8.32,0Z " /><path id="Vector" fill-rule="evenodd" style="fill:#2C2F53" transform="translate(162.53 80.13)  rotate(0 20.2 10.63)" opacity="1" d="M23.5,14.82C19.8,15.46 9.19,14.56 8.48,14.14C7.81,13.73 3.91,7.61 0,2.13C0.09,2.47 2.02,9.88 3.02,14.14C4.27,16.2 5.94,17.97 7.92,19.34C13.25,23.04 27.37,20.62 29.35,18.49C34.03,13.46 40.12,0.54 40.4,0C36.1,4.63 25.76,14.44 23.5,14.82Z " /><path id="Vector" fill-rule="evenodd" style="fill:#2C2F53" transform="translate(73.11 126.13)  rotate(0 13.575 10)" opacity="1" d="M27.13,8.8C22.67,11.19 19.53,12.12 16.09,11.19C11.94,10.07 5.1,5.74 0,0C0,0 10.56,20.56 21.16,19.99C23.24,19.88 25.52,18.84 27.15,17.69C27.05,14.33 27.1,9.81 27.13,8.8Z " /><path  id="Vector" style="stroke:#2C2F53; stroke-width:0.8284807205200195; stroke-opacity:1; stroke-dasharray:0 0" transform="translate(86.94 117.47)  rotate(0 7.6 2.245)" d="M0,0L15.2,4.49 " /></g></svg>