<svg xmlns="http://www.w3.org/2000/svg" xmlns:xlink="http://www.w3.org/1999/xlink" width="298" height="498" viewBox="0 0 298 498" fill="none"><g opacity="1" transform="translate(0.621368408203125 0)  rotate(0 148.55 248.59)"><path id="Vector" fill-rule="evenodd" style="fill:#FCC9A1" transform="translate(113.74 270.27)  rotate(0 22.945 7.055)" opacity="1" d="M19.47,0.94C14.67,0.21 9.81,-0.09 4.95,0.02C3.2,0.08 1.54,0.19 0,0.38C6.6,3.91 15.03,9.27 22.21,14.11L45.89,12.61C41.04,6.36 30.32,2.59 19.47,0.94Z " /><path id="Vector" fill-rule="evenodd" style="fill:#E7A184" transform="translate(17.15 345.02)  rotate(0 22.805 29.61)" opacity="1" d="M0.04,12.86C0.55,15.01 2.68,15.73 4.6,18.8C5.75,20.64 2.94,20.3 3.64,25.27C3.94,27.4 6.31,27.58 6.67,30.8C7.04,34.02 6.31,38.21 8.25,39.79C10.19,41.37 10.99,43.01 11.11,45.86C11.23,48.71 11.17,53.32 15.05,55.64C18.94,57.96 22.77,58.98 27.99,59.22L27.58,49.08C28.53,48.68 29.37,48.05 30.02,47.25C30.67,46.45 31.11,45.5 31.31,44.49C32.02,40.89 30.73,40.4 32.2,37.53C33.86,34.33 33.39,32.25 33.39,32.25L45.61,32.62C35.64,24.36 36.12,6.16 41.42,0C19.84,1.89 15.82,2.13 9.88,3.9C3.95,5.67 -0.47,10.7 0.04,12.86Z " /><path id="Vector" fill-rule="evenodd" style="fill:#54C3E5" transform="translate(186.57 358.9)  rotate(0 50.71 58.315)" opacity="0.5" d="M101.39,69.51C101.67,66.12 99.8,52.3 97.8,40.44C95.8,28.58 93.35,20.15 88.38,0C82.47,25.39 76.62,39.24 60.73,61.74C58.57,64.79 50.41,74.32 47.57,76.07C32.83,85.15 14,80.14 0,70.51L5.3,116.63L97.81,101.06L94.63,78.62C94.63,78.62 101.12,72.89 101.39,69.51Z " /><path  id="Vector" style="stroke:#2C2F53; stroke-width:1.2427210807800293; stroke-opacity:1; stroke-dasharray:0 0" transform="translate(0 216.54)  rotate(0 31.05 24.815)" d="M28.28,29.01C22.11,31.08 20.02,37.44 25.5,43.59C40.18,38.04 35.41,26.62 28.28,29.01Z M62.1,33.37C55.16,44.51 40.14,54.31 29.75,47.24C28.01,46.06 26.6,44.83 25.5,43.59 M25.5,43.59C24.92,43.81 24.32,44.02 23.68,44.22C6.8,49.48 0.01,40.3 0,32.01C0,20.81 10.27,4.2 26.55,0 " /><path id="Vector" fill-rule="evenodd" style="fill:#FCC9A1" transform="translate(63.25 155.81)  rotate(0 48.785 59.87)" opacity="1" d="M87.4,36.31C83.49,32.64 79.8,28.74 76.34,24.64C76.08,20.14 70.46,16.43 66.05,12.8C61.63,9.16 44.26,3.29 38.9,0L0,87.93L44.69,119.74C60,115.6 77.9,119.74 77.9,119.74C77.63,115.51 77.77,111.27 78.31,107.07C79.2,100.07 80.83,93.19 83.16,86.54C83.82,86.29 84.44,86.02 85.04,85.75C102.78,77.91 96.53,69.12 96.38,60C96.19,50.58 93.45,41.93 87.4,36.31Z " /><path id="Vector" fill-rule="evenodd" style="fill:#2C2F53" transform="translate(124.24 242.36)  rotate(0 11.085 10.265)" opacity="1" d="M21.4,0.05C14.43,2.04 7.24,3.15 0,3.37C1.73,7.83 6.79,18.15 17.32,20.53C18.21,13.54 19.84,6.65 22.17,0L21.4,0.05Z " /><path id="Vector" fill-rule="evenodd" style="fill:#E7A184" transform="translate(50.83 252.49)  rotate(0 51.315 41.205)" opacity="1" d="M54.81,65.83C48.93,62.46 47.01,60.3 48.69,58.26C50.36,56.22 72.84,66.67 81.85,75.56C81.85,75.56 93.02,70.75 96.98,68.23C100.95,65.71 102.63,65.83 102.63,65.83C102.63,65.83 72.67,42.58 67.57,38.69C65.04,36.75 65.17,33.63 69.85,35.79C74.54,37.95 94,47.8 97.24,49.48C100.48,51.17 103.49,45.76 99.88,42.52C98.26,41.06 92.32,36.73 85.13,31.89C77.95,27.05 69.52,21.69 62.92,18.16C61.43,17.37 60.02,16.67 58.78,16.09C58.78,16.09 65.51,15.73 65.99,16.09L67.85,17.81C72.71,17.69 77.57,18 82.37,18.73C79.79,15.37 74.68,8.86 72.49,6.67C71.71,5.9 65.55,6.57 59.96,4.24C54.37,1.91 41.89,-3.16 30.75,2.79C19.62,8.74 10.15,17.57 4.81,19.69C0.41,21.43 -0.92,34.49 0.61,45.87C1.05,49.09 13.55,52.85 27.3,62.46C36.4,68.83 50.49,77.48 56.86,82.41C56.86,82.41 62.5,80.91 70.19,78.71C70.19,78.71 60.7,69.19 54.81,65.83Z " /><path id="Vector" fill-rule="evenodd" style="fill:#2C2F53" transform="translate(5.09 139.27)  rotate(0 49.715 67.65)" opacity="1" d="M0,110.24C-0.07,115.49 0.91,130.54 18.19,134.06C35.46,137.57 58.06,133.37 72.89,124.77C87.73,116.17 92.6,111.15 92.44,102.56C92.44,102.56 76.01,105.46 72.66,95.18C72.66,95.18 81.72,85.89 83.62,77.6C83.62,77.6 89.42,76.96 90.47,66.49C90.94,62.03 90.76,57.52 89.93,53.11C89.93,53.11 105.15,36.75 97.06,16.54L84.91,0C74.71,5.48 70.38,9.11 70.72,15.98C70.72,15.98 62.46,13.16 51.74,19.25C41.01,25.34 30.99,32.89 28.91,45.72C25.95,64.06 33,71.12 29.52,79.81C27.39,85.13 20.32,91.6 11.64,95.33C2.97,99.06 0.08,104.99 0,110.24Z " /><path  id="Vector" style="stroke:#505C7B; stroke-width:1.2427210807800293; stroke-opacity:1; stroke-dasharray:0 0" transform="translate(86.49 147.03)  rotate(0 4.225 5.44)" d="M8.45,0C8.45,0 -0.22,2.59 0,10.88 " /><path  id="Vector" style="stroke:#505C7B; stroke-width:1.2427210807800293; stroke-opacity:1; stroke-dasharray:0 0" transform="translate(88.42 177.65)  rotate(0 3.705 19.61)" d="M0,39.22C11.85,37.35 7.54,6.83 0.58,0 " /><path  id="Vector" style="stroke:#505C7B; stroke-width:1.2427210807800293; stroke-opacity:1; stroke-dasharray:0 0" transform="translate(82.33 186.93)  rotate(0 3.56 14.545)" d="M6.3,29.09C8.31,17.13 6.79,8.76 0,0 " /><path  id="Vector" style="stroke:#505C7B; stroke-width:1.2427210807800293; stroke-opacity:1; stroke-dasharray:0 0" transform="translate(45.81 172.95)  rotate(0 14.655 29.34)" d="M29.31,0C22.11,1.28 14.65,13.26 18.88,25.58C25.04,43.56 18.25,60.51 0,58.52 " /><path  id="Vector" style="stroke:#505C7B; stroke-width:1.2427210807800293; stroke-opacity:1; stroke-dasharray:0 0" transform="translate(46.5 216.03)  rotate(0 21.06 14.3)" d="M0,27.61C18.51,32.64 38.23,17.71 42.12,0 " /><path id="Vector" fill-rule="evenodd" style="fill:#FCC9A1" transform="translate(262.04 211.4)  rotate(0 17.53 55.71)" opacity="1" d="M34.65,57.25C35.94,51.51 33.92,48.18 32.38,42.03C30.85,35.88 21.76,5.76 20.47,1.56C19.19,-2.65 14.9,2.61 15.14,6.33C15.14,6.33 11.5,7.47 12.15,12.4C12.79,17.34 17.09,41.4 17.25,43.81C17.41,46.22 15.79,45.27 15.22,47.96C15.22,47.96 12.55,36.7 8.5,36.14C4.46,35.57 4.63,37.76 4.99,39.29C5.35,40.83 8.34,52.16 7.61,56.53C6.88,60.9 -0.16,73.61 0,79.28C0.16,84.95 4.46,89.96 4.46,89.96L2.11,100.24L19.27,111.42C19.27,111.42 24.53,91.35 27.44,82.42C30.36,73.5 33.36,63 34.65,57.25Z " /><path id="Vector" fill-rule="evenodd" style="fill:#2C2F53" transform="translate(52.83 48.36)  rotate(0 46.965 35.33)" opacity="1" d="M93.92,34.73C92.68,22.08 66.9,0.77 50.12,0.08C33.35,-0.61 23.45,2.97 12.93,13.83C2.41,24.69 -0.75,48.14 0.14,53.98C1.03,59.82 3.92,64.29 7.22,67.86C10.52,71.44 11.33,71.02 15.47,69.72C15.47,69.72 95.15,47.37 93.92,34.73Z " /><path  id="Vector" style="stroke:#505C7B; stroke-width:1.2427210807800293; stroke-opacity:1; stroke-dasharray:0 0" transform="translate(72.5 51.94)  rotate(0 2.995 14.135)" d="M5.99,28.27C-1.85,26.49 -1.64,5.53 4.54,0 " /><path  id="Vector" style="stroke:#505C7B; stroke-width:1.2427210807800293; stroke-opacity:1; stroke-dasharray:0 0" transform="translate(100.97 53.49)  rotate(0 6.12 12.855)" d="M5.12,13.58C2.75,15.65 7.68,17.92 10.57,13.58C10.61,13.52 10.65,13.46 10.69,13.4C9.34,11.98 7.26,11.7 5.12,13.58Z M0,0C9.45,4.06 13.36,9.1 10.69,13.4 M10.69,13.4C13.05,15.88 13.2,21.82 7.68,25.71 " /><path  id="Vector" style="stroke:#505C7B; stroke-width:1.2427210807800293; stroke-opacity:1; stroke-dasharray:0 0" transform="translate(114.79 57.54)  rotate(0 6.895 13.725)" d="M9.15,0C18.76,7.25 12.34,20.85 0,27.45 " /><path  id="Vector" style="stroke:#505C7B; stroke-width:1.2427210807800293; stroke-opacity:1; stroke-dasharray:0 0" transform="translate(58.81 73.57)  rotate(0 7.135 12.765)" d="M14.27,24.86C-1.08,29.56 -1.82,8.35 1.82,0 " /><path id="Vector" fill-rule="evenodd" style="fill:#2C2F53" transform="translate(49.2 0)  rotate(0 25.21 29.455)" opacity="1" d="M30.34,55.3C55.49,38.85 51.61,22.21 47.14,20.92C47.14,20.92 52.15,8.78 47.14,6.67C41.97,4.5 33.42,14.69 33.42,14.69C33.42,14.69 33.58,0 26.23,0C16.48,0 13.55,15.37 13.55,15.37C7.78,17.02 -4.06,31.56 1.41,46.85C6.88,62.14 20.97,58.69 29.07,58.32C29.6,57.87 29.77,55.65 30.34,55.3Z " /><path  id="Vector" style="stroke:#505C7B; stroke-width:1.2427210807800293; stroke-opacity:1; stroke-dasharray:0 0" transform="translate(61.13 26.76)  rotate(0 7.86 11.195)" d="M11.07,16.7C13.48,16.35 13.08,10.09 7.23,10.2C6.64,13.95 7.74,17.19 11.07,16.7Z M6.96,22.16C-2.32,24.23 -1.86,11.8 5.62,10.37C6.2,10.27 6.73,10.21 7.23,10.2 M7.23,10.2C7.94,5.69 11.09,0.45 15.72,0 " /><path  id="Vector" style="stroke:#505C7B; stroke-width:1.2427210807800293; stroke-opacity:1; stroke-dasharray:0 0" transform="translate(88.46 20.92)  rotate(0 3.935 3)" d="M0.12,5.44C1.07,7.29 5.57,4.3 7.87,0C4.09,0.06 -0.83,3.59 0.12,5.44Z " /><path  id="Vector" style="stroke:#505C7B; stroke-width:1.2427210807800293; stroke-opacity:1; stroke-dasharray:0 0" transform="translate(62.24 15.36)  rotate(0 2.79 3.66)" d="M3.85,7.04C6.51,5.77 6.61,0.41 0.51,0C-1.04,5.11 1.2,8.31 3.85,7.04Z " /><path id="Vector" fill-rule="evenodd" style="fill:#E7A184" transform="translate(59.31 76.55)  rotate(0 64.03 48.84)" opacity="1" d="M101.31,91.66C106.45,84.15 111.1,76.31 115.25,68.21C124.04,51.05 128.06,37.91 128.06,37.91C120.45,34.87 106,25.56 95.07,16.16C97.77,0.57 76.64,-3.99 76.05,4.71C75.72,9.56 75.28,13.65 71.74,14.5C68.19,15.35 64.74,9.8 60.87,6.03C56.99,2.25 52.37,6.64 48.44,6.49C44.51,6.33 40.95,-0.37 36.03,0.02C31.12,0.4 28.81,6.41 25.26,5.56C21.72,4.71 19.79,5.25 16.86,10.03C13.94,14.81 11.93,21.36 8.62,22.13C5.3,22.9 -2.02,25.83 0.53,33C3,39.95 15.15,59.57 17.63,61.58C20.12,63.58 27.5,64.83 29.97,69.05C32.43,73.28 39.36,80.23 45.91,83.08C52.46,85.93 71.8,94.56 74.96,95.95C78.12,97.34 80.59,98.26 82.98,97.26C84.24,96.73 86.44,94.84 88.51,92.89C91.14,90.41 93.55,87.83 93.55,87.83C96.58,88.46 101.31,91.66 101.31,91.66Z " /><path id="Vector" fill-rule="evenodd" style="fill:#2C2F53" transform="translate(152.87 119.04)  rotate(0 8.74 24.585)" opacity="1" d="M4.07,0C7.13,15.16 6.37,35.05 0,45.33C3.03,45.97 7.76,49.17 7.76,49.17C11.39,43.89 14.63,38.61 17.48,33.54C15.99,16.35 4.07,0 4.07,0Z " /><path  id="Vector" style="stroke:#2C2F53; stroke-width:1.2427210807800293; stroke-opacity:1; stroke-dasharray:0 0" transform="translate(122.51 135.94)  rotate(0 4.835 10.355)" d="M0,20.71C5.96,17.45 9.14,7.22 9.6,4.14C9.77,2.75 9.63,1.34 9.21,0 " /><path  id="Vector" style="stroke:#2C2F53; stroke-width:1.2427210807800293; stroke-opacity:1; stroke-dasharray:0 0" transform="translate(131.3 148.57)  rotate(0 1.75 2.875)" d="M3.5,0C3.39,1.7 2.13,4.05 0,5.75 " /><path  id="Vector" style="stroke:#2C2F53; stroke-width:1.2427210807800293; stroke-opacity:1; stroke-dasharray:0 0" transform="translate(129.51 87.11)  rotate(0 10.28 7.55)" d="M20.56,15.1C14.36,8.09 8.59,3.14 0,0 " /><path  id="Vector" style="stroke:#2C2F53; stroke-width:1.2427210807800293; stroke-opacity:1; stroke-dasharray:0 0" transform="translate(152.87 111.23)  rotate(0 2.905 26.575)" d="M0,53.15C6.38,42.86 7.13,22.98 4.07,7.81C3.55,5.16 2.85,2.56 2,0 " /><path id="Vector" fill-rule="evenodd" style="fill:#2C2F53" transform="translate(93.71 99.29)  rotate(0 8.09 10.24)" opacity="1" d="M16.18,0.17C16.18,0.17 10.9,-0.39 9.35,0.52C7.8,1.43 0.99,10.65 0.56,12.2C0.13,13.74 -0.17,15.6 0.1,20.48C5.52,10.28 16.18,0.17 16.18,0.17Z " /><path id="Vector" fill-rule="evenodd" style="fill:#2C2F53" transform="translate(75.81 128.32)  rotate(0 5.845 4.905)" opacity="1" d="M11.69,0.52C11.69,0.52 7.12,-0.21 5.89,0.06C4.66,0.33 0.59,3.3 0.24,4.12C-0.11,4.93 -0.26,6.66 1.13,9.81C5.03,5.26 11.69,0.52 11.69,0.52Z " /><path  id="Vector" style="stroke:#2C2F53; stroke-width:1.2427210807800293; stroke-opacity:1; stroke-dasharray:0 0" transform="translate(108.9 140.75)  rotate(0 4.055 6.785)" d="M0,13.57C4.87,11.95 5.99,10.97 6.21,7.02C6.43,3.07 7.14,0.77 8.11,0 " /><path id="Vector" fill-rule="evenodd" style="fill:#2C2F53" transform="translate(115.2 139.82)  rotate(0 1.545 2.915)" opacity="1" d="M2.39,0.07C0.93,-0.44 -0.33,1.95 0.08,5.83C2.56,4.66 4.05,0.64 2.39,0.07Z " /><path  id="Vector" style="stroke:#2C2F53; stroke-width:2.071201801300049; stroke-opacity:1; stroke-dasharray:0 0" transform="translate(107.03 113.62)  rotate(0 3.12 5.055)" d="M6.24,0C6.24,0 4.97,6.92 0,10.11 " /><path  id="Vector" style="stroke:#2C2F53; stroke-width:2.071201801300049; stroke-opacity:1; stroke-dasharray:0 0" transform="translate(87.87 138.89)  rotate(0 2.56 2.5)" d="M5.12,0C3.94,2.13 2.16,3.87 0,5 " /><path  id="Vector" style="stroke:#2C2F53; stroke-width:1.2427210807800293; stroke-opacity:1; stroke-dasharray:0 0" transform="translate(87.49 128.83)  rotate(0 9.77 12.92)" d="M19.54,25.84C13.84,15.28 4.71,0.63 0,0 " /><path id="Vector" fill-rule="evenodd" style="fill:#54C3E5" transform="translate(52.23 109.78)  rotate(0 115.145 139.685)" opacity="0.5" d="M104.55,120C101.24,127.95 93.37,125.38 90.19,134.57C87,143.75 85.54,155.05 85.69,165.85C102.75,167.72 115.05,186.03 115.05,186.03C112.46,190.17 110.24,193.43 109.51,194.6C108.17,196.78 108.17,199.55 108.17,199.55C106.51,202.91 108.08,209.02 108.08,209.02C108.08,209.02 102.8,206.59 99.53,207.01C96.26,207.43 93.73,209.28 88.88,212.13C84.03,214.98 73.7,218 64.23,220.76C54.76,223.53 38.91,225.96 30.78,226.72C22.64,227.47 21.21,230.07 18.62,232.1C16.02,234.13 13.59,233.34 6.46,234.11C-0.67,234.89 -0.92,249.12 1.07,257.84C3.07,266.56 9.82,268.69 9.82,268.69C17.02,268.84 22.25,269.93 26.73,272.78C35.46,278.3 41.58,279.82 57.42,279.26C76.52,278.62 112.63,271.23 138.86,266.36C147.9,264.7 154.38,260.95 159.51,255.38C162.01,258.69 167.96,265.18 174.6,262.78C175.87,262.32 184.09,245.43 193.56,229.23C199.89,218.41 199.97,212.99 206.19,211.83C211.87,207.03 216.55,202.25 217.3,190.82C208.09,177.89 219.05,170.98 220.72,160.44C221.68,154.38 216.47,141.29 217.53,140.97C220.54,140 223.79,153.53 223.95,154.01C225.04,157.4 230.27,146.32 230.27,146.32C230.7,145.85 223.83,113.11 226.49,111.33C231.27,108.14 221.19,66.49 217.69,56.57C211.24,38.22 188.38,28.79 175.97,23.15C163.57,17.51 148.09,8.29 141.53,3.27C134.97,-1.75 132.16,0 131.41,2.03C131.32,2.28 131.22,2.53 131.13,2.79C120.96,30.13 112.51,43.69 104.17,55.92L103.3,57.2C102.18,56.53 101.02,55.95 99.81,55.47C97.74,57.64 92.38,63.04 90.09,64C87.7,65.01 85.23,64.08 82.08,62.69C80.76,62.12 76.62,60.28 71.78,58.14C71.42,58.97 71.03,59.96 70.67,61.04C71.82,61.97 81.79,64.22 83.74,71.11C90.51,81.62 103.99,89.01 103.57,102.55C103.43,107.11 106.2,116.08 104.55,120Z " /><path  id="Vector" style="stroke:#2C2F53; stroke-width:1.2427210807800293; stroke-opacity:1; stroke-dasharray:0 0" transform="translate(134.8 196.99)  rotate(0 1.71 1.54)" d="M0,3.08C1.03,2.12 2.24,1.04 3.42,0 " /><path  id="Vector" style="stroke:#2C2F53; stroke-width:1.2427210807800293; stroke-opacity:1; stroke-dasharray:0 0" transform="translate(123.53 170.41)  rotate(0 10.165 12.7)" d="M16.05,25.4C17.92,23.78 19.5,22.45 19.9,22.19C20.3,21.92 20.37,20.95 20.31,19.94C20.26,18.93 20.09,18.01 19.9,17.8C19.71,17.6 18.68,17.13 17.1,16.46C14.98,15.55 11.88,14.34 8.64,13.17C2.98,11.14 1.6,9.76 0.24,6.51C-0.49,4.82 0.5,3.2 2.55,1.79C3.63,1.07 4.8,0.47 6.02,0 " /><path  id="Vector" style="stroke:#2C2F53; stroke-width:1.2427210807800293; stroke-opacity:1; stroke-dasharray:0 0" transform="translate(99.53 178.28)  rotate(0 6.99 9.36)" d="M13.98,0C7.2,2.71 1.24,10.22 0,18.72 " /><path  id="Vector" style="stroke:#54C3E5; stroke-width:1.2427210807800293; stroke-opacity:1; stroke-dasharray:0 0" transform="translate(217.95 144.43)  rotate(0 22.105 11.92)" d="M44.21,0C32.75,1.85 8.57,14.35 0,23.84 " /><path  id="Vector" style="stroke:#54C3E5; stroke-width:1.2427210807800293; stroke-opacity:1; stroke-dasharray:0 0" transform="translate(154.7 167.01)  rotate(0 6.4 5.94)" d="M0.81,0C-1.3,3.59 0.93,6.34 4.93,7.22C8.93,8.11 12.8,11.88 12.8,11.88 " /><path  id="Vector" style="stroke:#54C3E5; stroke-width:1.2427210807800293; stroke-opacity:1; stroke-dasharray:0 0" transform="translate(71.06 343.5)  rotate(0 2 16.885)" d="M4,33.77C1.59,27.38 -1.72,7.6 1.06,0 " /><path  id="Vector" style="stroke:#54C3E5; stroke-width:1.2427210807800293; stroke-opacity:1; stroke-dasharray:0 0" transform="translate(55.64 346.2)  rotate(0 7.87 1.05)" d="M15.74,0.16C12.55,-0.16 3.73,-0.2 0,2.1 " /><path  id="Vector" style="stroke:#54C3E5; stroke-width:1.2427210807800293; stroke-opacity:1; stroke-dasharray:0 0" transform="translate(51.81 348.91)  rotate(0 10.725 1.47)" d="M21.45,0.14C17.97,-0.54 2.9,1.4 0,2.94 " /><path  id="Vector" style="stroke:#54C3E5; stroke-width:1.2427210807800293; stroke-opacity:1; stroke-dasharray:0 0" transform="translate(52.26 352.92)  rotate(0 9.36 1.475)" d="M18.72,0C18.72,0 5.54,0.82 0,2.95 " /><path  id="Vector" style="stroke:#54C3E5; stroke-width:1.2427210807800293; stroke-opacity:1; stroke-dasharray:0 0" transform="translate(52.22 356.59)  rotate(0 10.525 1.28)" d="M21.05,0C18.78,0.72 5.35,2.65 0,2.56 " /><path  id="Vector" style="stroke:#54C3E5; stroke-width:1.2427210807800293; stroke-opacity:1; stroke-dasharray:0 0" transform="translate(54.76 361.47)  rotate(0 7.415 0.895)" d="M14.83,0C12.37,0.96 3.77,1.64 0,1.79 " /><path  id="Vector" style="stroke:#54C3E5; stroke-width:1.2427210807800293; stroke-opacity:1; stroke-dasharray:0 0" transform="translate(53.17 365.16)  rotate(0 9.45 0.96)" d="M18.9,0C18.9,0 3.91,2.35 0,1.85 " /><path  id="Vector" style="stroke:#54C3E5; stroke-width:1.2427210807800293; stroke-opacity:1; stroke-dasharray:0 0" transform="translate(55.35 371.38)  rotate(0 8.955 0.68)" d="M17.91,0C17.91,0 7.18,1.67 0,1.31 " /><path  id="Vector" style="stroke:#54C3E5; stroke-width:1.2427210807800293; stroke-opacity:1; stroke-dasharray:0 0" transform="translate(59.03 374.85)  rotate(0 7.58 0.96)" d="M15.16,0C15.16,0 4.91,2.08 0,1.91 " /><path  id="Vector" style="stroke:#F06082; stroke-width:1.2427210807800293; stroke-opacity:1; stroke-dasharray:0 0" transform="translate(41.03 394.09)  rotate(0 3.135 51.545)" d="M3.66,0C3.66,0 4.31,22.14 5.14,37.89C5.36,42.1 5.59,45.86 5.83,48.61C6.95,61.66 5.88,71.55 3.26,77.19C3.22,77.29 3.17,77.39 3.12,77.5C0.5,83.24 -3.45,94.69 5.83,103.09 " /><path  id="Vector" style="stroke:#F06082; stroke-width:1.2427210807800293; stroke-opacity:1; stroke-dasharray:0 0" transform="translate(187.43 435.81)  rotate(0 3.81 29.035)" d="M3.29,0C3.44,1.77 3.63,3.7 3.83,5.72C5.33,20.34 8.05,39.82 7.56,41.81C7.5,42.05 7.43,42.3 7.35,42.56C6.52,45.29 4.41,49.41 0,58.07 " /><path  id="Vector" style="stroke:#54C3E5; stroke-width:1.2427210807800293; stroke-opacity:1; stroke-dasharray:0 0" transform="translate(284.38 459.96)  rotate(0 1.81 17.655)" d="M3.62,35.31C3.62,35.31 2.52,15.53 0,0 " /><path  id="Vector" style="stroke:#54C3E5; stroke-width:1.2427210807800293; stroke-opacity:1; stroke-dasharray:0 0" transform="translate(190.67 439.67)  rotate(0 37.215 7.27)" d="M74.43,0C58.33,2.15 10.53,13.04 0,14.54 " /><path  id="Vector" style="stroke:#54C3E5; stroke-width:1.2427210807800293; stroke-opacity:1; stroke-dasharray:0 0" transform="translate(268.02 436.6)  rotate(0 5.965 1.095)" d="M11.93,0C11.93,0 6.63,1.1 0,2.19 " /><path  id="Vector" style="stroke:#54C3E5; stroke-width:1.2427210807800293; stroke-opacity:1; stroke-dasharray:0 0" transform="translate(274.95 439.9)  rotate(0 2.3 10.435)" d="M4.6,20.87C4.6,20.87 1.73,5.93 0,0 " /><path  id="Vector" style="stroke:#54C3E5; stroke-width:1.2427210807800293; stroke-opacity:1; stroke-dasharray:0 0" transform="translate(269.04 438.62)  rotate(0 2.26 11.58)" d="M4.52,23.16C4.52,23.16 1.14,6.63 0,0 " /><path  id="Vector" style="stroke:#54C3E5; stroke-width:1.2427210807800293; stroke-opacity:1; stroke-dasharray:0 0" transform="translate(263.2 439.9)  rotate(0 1.835 11.505)" d="M3.67,23.01C3.67,23.01 1.24,5.88 0,0 " /><path  id="Vector" style="stroke:#54C3E5; stroke-width:1.2427210807800293; stroke-opacity:1; stroke-dasharray:0 0" transform="translate(254.77 441.39)  rotate(0 2.325 9.94)" d="M4.65,19.88C3.55,13.11 0.87,6.74 0,0 " /><path  id="Vector" style="stroke:#54C3E5; stroke-width:1.2427210807800293; stroke-opacity:1; stroke-dasharray:0 0" transform="translate(250.24 442.24)  rotate(0 1.285 10.935)" d="M2.56,21.87C2.77,15.94 -0.17,6.96 0.01,0 " /><path  id="Vector" style="stroke:#54C3E5; stroke-width:1.2427210807800293; stroke-opacity:1; stroke-dasharray:0 0" transform="translate(243.93 443.48)  rotate(0 1.685 11.365)" d="M3.37,22.73C2.93,16.82 0,5.91 0,0 " /><path  id="Vector" style="stroke:#54C3E5; stroke-width:1.2427210807800293; stroke-opacity:1; stroke-dasharray:0 0" transform="translate(238.76 444.52)  rotate(0 1.45 10.55)" d="M2.9,21.1C2.9,21.1 2.24,8.11 0,0 " /><path  id="Vector" style="stroke:#54C3E5; stroke-width:1.2427210807800293; stroke-opacity:1; stroke-dasharray:0 0" transform="translate(233.57 445.58)  rotate(0 1.835 10.315)" d="M3.67,20.63C3.26,16.8 0.34,5.64 0,0 " /><path  id="Vector" style="stroke:#54C3E5; stroke-width:1.2427210807800293; stroke-opacity:1; stroke-dasharray:0 0" transform="translate(228.52 446.62)  rotate(0 2.115 11.015)" d="M4.23,22.03C4.23,22.03 1.74,7.92 0,0 " /><path  id="Vector" style="stroke:#54C3E5; stroke-width:1.2427210807800293; stroke-opacity:1; stroke-dasharray:0 0" transform="translate(222.1 450.8)  rotate(0 1.21 8.16)" d="M2.42,16.32C2.42,16.32 0.42,6 0,0 " /><path  id="Vector" style="stroke:#54C3E5; stroke-width:1.2427210807800293; stroke-opacity:1; stroke-dasharray:0 0" transform="translate(216.54 449.12)  rotate(0 1.79 10.83)" d="M0,0C0.32,8.09 2.59,16.16 3.58,21.66 " /><path  id="Vector" style="stroke:#54C3E5; stroke-width:1.2427210807800293; stroke-opacity:1; stroke-dasharray:0 0" transform="translate(212.49 449.96)  rotate(0 1.72 10.77)" d="M3.44,21.54C3.44,21.54 -0.05,6.67 0,0 " /><path  id="Vector" style="stroke:#54C3E5; stroke-width:1.2427210807800293; stroke-opacity:1; stroke-dasharray:0 0" transform="translate(204.7 449.96)  rotate(0 1.79 9.83)" d="M3.58,19.66C3.62,16.5 1.83,6.75 0,0 " /><path  id="Vector" style="stroke:#54C3E5; stroke-width:1.2427210807800293; stroke-opacity:1; stroke-dasharray:0 0" transform="translate(199.04 452.7)  rotate(0 2.12 10.455)" d="M4.24,20.91C4.24,20.91 -0.17,6.76 0.01,0 " /><path  id="Vector" style="stroke:#54C3E5; stroke-width:1.2427210807800293; stroke-opacity:1; stroke-dasharray:0 0" transform="translate(157.51 318.8)  rotate(0 2.645 12.4)" d="M0.04,13.56C-0.44,17.7 3.11,26.23 4.84,24.59C6.57,22.96 2.77,0 2.77,0 " /><path  id="Vector" style="stroke:#54C3E5; stroke-width:1.2427210807800293; stroke-opacity:1; stroke-dasharray:0 0" transform="translate(160.38 309.31)  rotate(0 3.96 7.295)" d="M7.92,14.59C7.92,14.59 6.29,10.56 0,0 " /><path  id="Vector" style="stroke:#2C2F53; stroke-width:1.2427210807800293; stroke-opacity:1; stroke-dasharray:0 0" transform="translate(44.17 377.25)  rotate(0 5.005 0.065)" d="M10.01,0.13C10.01,0.13 7.48,-0.16 0,0.13 " /><path  id="Vector" style="stroke:#2C2F53; stroke-width:2.071201801300049; stroke-opacity:1; stroke-dasharray:0 0" transform="translate(112.04 190.79)  rotate(0 3.95 2.975)" d="M7.9,0C7.9,0 1.27,-0.39 0,5.95 " /><path  id="Vector" style="stroke:#2C2F53; stroke-width:2.071201801300049; stroke-opacity:1; stroke-dasharray:0 0" transform="translate(134.3 180.32)  rotate(0 2.645 1.325)" d="M5.29,0.13C5.29,0.13 2.04,-0.87 0,2.65 " /><path id="Vector" fill-rule="evenodd" style="fill:#2C2F53" transform="translate(131.45 204.07)  rotate(0 9.21 6.78)" opacity="1" d="M16.58,0C16.58,0 15.8,0.6 14.56,1.57C11.54,3.86 5.59,8.17 0,11.03C1.26,11.8 2.62,12.39 4.04,12.79C9.97,14.48 16.37,13.06 17.84,11.62C19.67,9.83 16.58,0 16.58,0Z " /><path id="Vector" fill-rule="evenodd" style="fill:#FFFFFF" transform="translate(131.44 205.63)  rotate(0 7.55 5.615)" opacity="1" d="M14.56,0C11.54,2.3 5.59,6.61 0,9.46C1.26,10.24 2.62,10.83 4.04,11.23C9.11,8.38 15.09,3.99 15.09,3.99C15.15,2.64 14.97,1.29 14.56,0Z " /><path  id="Vector" style="stroke:#505C7B; stroke-width:1.2427210807800293; stroke-opacity:1; stroke-dasharray:0 0" transform="translate(52.22 241.56)  rotate(0 16.06 15.77)" d="M32.12,0C29.51,16.72 14.5,24.71 0,31.54 " /><path  id="Vector" style="stroke:#505C7B; stroke-width:1.2427210807800293; stroke-opacity:1; stroke-dasharray:0 0" transform="translate(7.05 245.25)  rotate(0 27.525 10.46)" d="M21.23,0.32C15.06,2.38 12.97,8.74 18.47,14.9C33.13,9.34 28.35,-2.05 21.23,0.32Z M0,15.43C3.8,17.37 9.25,17.83 16.63,15.53C17.27,15.33 17.87,15.12 18.47,14.9 M18.47,14.9C19.72,16.28 21.15,17.5 22.7,18.53C33.1,25.6 48.11,15.8 55.05,4.66 " /><path  id="Vector" style="stroke:#2C2F53; stroke-width:1.2427210807800293; stroke-opacity:1; stroke-dasharray:0 0" transform="translate(109.53 299.49)  rotate(0 16.455 12.05)" d="M32.91,24.1C32.91,24.1 13.86,7.64 0,0 " /><path  id="Vector" style="stroke:#2C2F53; stroke-width:1.2427210807800293; stroke-opacity:1; stroke-dasharray:0 0" transform="translate(97.85 262.92)  rotate(0 8.035 3.905)" d="M16.07,7.81C16.07,7.81 9.24,4.29 0,0 " /><path  id="Vector" style="stroke:#2C2F53; stroke-width:1.2427210807800293; stroke-opacity:1; stroke-dasharray:0 0" transform="translate(121.54 241.56)  rotate(0 13.38 2.085)" d="M26.76,0C26.76,0 25.82,0.34 24.12,0.83C17.15,2.81 9.95,3.92 2.71,4.14C1.82,4.16 0.92,4.18 0,4.17 " /><path  id="Vector" style="stroke:#2C2F53; stroke-width:1.2427210807800293; stroke-opacity:1; stroke-dasharray:0 0" transform="translate(97.53 238.33)  rotate(0 2.31 1.75)" d="M4.62,0C4.62,0 4.74,1.99 0,3.5 " /><path  id="Vector" style="stroke:#2C2F53; stroke-width:1.2427210807800293; stroke-opacity:1; stroke-dasharray:0 0" transform="translate(88.7 216.88)  rotate(0 4.575 5.905)" d="M9.15,11.81C5.85,8.08 2.79,4.13 0,0 " /><path id="Vector" fill-rule="evenodd" style="fill:#FFFFFF" transform="translate(91.88 234.12)  rotate(0 2.985 2.985)" opacity="1" d="M2.99,0C1.34,0 0,1.34 0,2.99C0,4.63 1.34,5.97 2.99,5.97C4.63,5.97 5.97,4.63 5.97,2.99C5.97,1.34 4.63,0 2.99,0Z " /><path id="Vector" fill-rule="evenodd" style="fill:#F06082" transform="translate(138.35 285.19)  rotate(0 14.375 3.985)" opacity="0.5" d="M23.7,0L0,2.52L6.53,7.97L28.75,5.77C26.43,2.97 23.7,0 23.7,0Z " /><path  id="Vector" style="stroke:#2C2F53; stroke-width:1.2427210807800293; stroke-opacity:1; stroke-dasharray:0 0" transform="translate(277.26 259.34)  rotate(0 2.09 6.135)" d="M4.18,12.27C4.18,12.27 2.35,7.84 0,0 " /><path  id="Vector" style="stroke:#2C2F53; stroke-width:1.2427210807800293; stroke-opacity:1; stroke-dasharray:0 0" transform="translate(279.57 220.96)  rotate(0 4.785 18.965)" d="M9.57,37.93C9.57,37.93 3.41,13.67 0,0 " /><path id="Vector" fill-rule="evenodd" style="fill:#F06082" transform="translate(260.09 314.86)  rotate(0 10.04 8.845)" opacity="0.5" d="M20.06,13.63C17.72,6.34 9.35,-0.51 0.95,0.03C-0.65,0.93 0.25,2.73 0.25,2.73C9.79,6.22 17.73,17.69 17.73,17.69C20.48,16.94 20.06,13.63 20.06,13.63Z " /><path  id="Vector" style="stroke:#F06082; stroke-width:1.2427210807800293; stroke-opacity:1; stroke-dasharray:0 0" transform="translate(225.66 367.39)  rotate(0 8.32 9.01)" d="M16.64,18.02C16.64,18.02 4.1,4.56 0,0 " /><path  id="Vector" style="stroke:#F06082; stroke-width:1.2427210807800293; stroke-opacity:1; stroke-dasharray:0 0" transform="translate(221.44 369.69)  rotate(0 8.68 11.63)" d="M17.36,23.26C14.57,17.34 7.04,8.17 0,0 " /><path  id="Vector" style="stroke:#F06082; stroke-width:1.2427210807800293; stroke-opacity:1; stroke-dasharray:0 0" transform="translate(222.67 371.13)  rotate(0 3.01 16.36)" d="M6.02,32.72C5.67,25.53 4.16,9.05 0,0 " /><path  id="Vector" style="stroke:#F06082; stroke-width:1.2427210807800293; stroke-opacity:1; stroke-dasharray:0 0" transform="translate(40.11 335.9)  rotate(0 0.4 5.345)" d="M0.8,10.69C0.8,10.69 0.58,10.63 0,0 " /><path id="Vector" fill-rule="evenodd" style="fill:#54C3E5" transform="translate(2.8 268.3)  rotate(0 28.58 36.75)" opacity="0.5" d="M14.37,64.56C19.55,66.07 19.09,66.57 19.19,68.8C19.3,71.04 23.23,75.27 28.27,72.69C34.39,69.45 40.33,65.9 46.08,62.03C51.13,58.6 51.23,52.64 51.44,46.98C51.54,43.42 51.29,39.87 50.69,36.36L55.21,34.99C50.28,31.42 50.52,26.97 50.83,17.75C51.13,8.52 52.43,6 57.16,0C36.39,7.8 19.47,2.44 19.49,2.41C8.78,5.06 4.13,17.54 1.71,25.35C-0.72,33.17 -0.41,41.78 1.71,51.3C3.83,60.83 9.19,63.04 14.37,64.56Z " /><path  id="Vector" style="stroke:#54C3E5; stroke-width:1.2427210807800293; stroke-opacity:1; stroke-dasharray:0 0" transform="translate(43.81 304.68)  rotate(0 4.83 2.145)" d="M0,4.29C0,4.29 3.31,2.62 9.66,0 " /><path  id="Vector" style="stroke:#54C3E5; stroke-width:1.2427210807800293; stroke-opacity:1; stroke-dasharray:0 0" transform="translate(36.08 298.72)  rotate(0 9.145 3.175)" d="M18.29,0C18.29,0 6.15,3.58 0,6.35 " /><path  id="Vector" style="stroke:#54C3E5; stroke-width:1.2427210807800293; stroke-opacity:1; stroke-dasharray:0 0" transform="translate(32.62 295.41)  rotate(0 10.42 2.92)" d="M20.84,0C15.81,0.73 7.09,4.6 0,5.84 " /><path  id="Vector" style="stroke:#54C3E5; stroke-width:1.2427210807800293; stroke-opacity:1; stroke-dasharray:0 0" transform="translate(34.2 290.61)  rotate(0 9.64 2.61)" d="M19.28,0C13.54,0.73 7.3,3.98 0,5.22 " /><path  id="Vector" style="stroke:#54C3E5; stroke-width:1.2427210807800293; stroke-opacity:1; stroke-dasharray:0 0" transform="translate(31.38 283.42)  rotate(0 12.315 3.39)" d="M24.63,0C18.69,0.63 8.47,5.84 0,6.78 " /><path  id="Vector" style="stroke:#54C3E5; stroke-width:1.2427210807800293; stroke-opacity:1; stroke-dasharray:0 0" transform="translate(32.62 278.16)  rotate(0 12.25 3.335)" d="M24.5,0C19.6,0.89 8.13,5.68 0,6.67 " /><path  id="Vector" style="stroke:#54C3E5; stroke-width:1.2427210807800293; stroke-opacity:1; stroke-dasharray:0 0" transform="translate(34.2 275.56)  rotate(0 10.54 2.63)" d="M21.08,0C21.08,0 9.28,2.03 0,5.26 " /><path  id="Vector" style="stroke:#54C3E5; stroke-width:1.2427210807800293; stroke-opacity:1; stroke-dasharray:0 0" transform="translate(31.73 272.47)  rotate(0 4.99 17.595)" d="M8.22,0C2.37,8.1 -7.75,29.03 9.98,35.19 " /><path  id="Vector" style="stroke:#54C3E5; stroke-width:1.2427210807800293; stroke-opacity:1; stroke-dasharray:0 0" transform="translate(10.32 276.23)  rotate(0 13.595 7.19)" d="M27.19,0C16.84,1.78 3.34,7.08 0,14.38 " /><path  id="Vector" style="stroke:#FFFFFF; stroke-width:1.2427210807800293; stroke-opacity:1; stroke-dasharray:0 0" transform="translate(257.25 394.51)  rotate(0 8.37 14.19)" d="M0,18.05L8.44,28.38L16.74,14.4L9.86,0 " /><path  id="Vector" style="stroke:#FFFFFF; stroke-width:1.2427210807800293; stroke-opacity:1; stroke-dasharray:0 0" transform="translate(247.31 293.16)  rotate(0 7.95 12.4)" d="M7.77,24.8L0,12.51L8.36,0L15.9,11.01L14.31,16.84 " /><path  id="Vector" style="stroke:#FFFFFF; stroke-width:1.2427210807800293; stroke-opacity:1; stroke-dasharray:0 0" transform="translate(238.4 232.05)  rotate(0 8.43 13.42)" d="M16.86,12.89L9.6,0L0,13.7L11.24,26.84L16.86,12.89Z " /><path  id="Vector" style="stroke:#FFFFFF; stroke-width:1.2427210807800293; stroke-opacity:1; stroke-dasharray:0 0" transform="translate(213.31 189.55)  rotate(0 7.335 13.71)" d="M7.33,27.42L14.67,13.85L7.27,0L0,14.51L7.33,27.42Z " /><path  id="Vector" style="stroke:#FFFFFF; stroke-width:1.2427210807800293; stroke-opacity:1; stroke-dasharray:0 0" transform="translate(145.97 174.23)  rotate(0 7.43 11.62)" d="M8.97,23.24L14.86,13.4L6.88,0L0,13.29 " /><path  id="Vector" style="stroke:#FFFFFF; stroke-width:1.2427210807800293; stroke-opacity:1; stroke-dasharray:0 0" transform="translate(189.05 237.67)  rotate(0 6.825 12.63)" d="M6.17,25.26L13.65,14.12L6.83,0L0,12.62L6.17,25.26Z " /><path  id="Vector" style="stroke:#FFFFFF; stroke-width:1.2427210807800293; stroke-opacity:1; stroke-dasharray:0 0" transform="translate(246.22 162)  rotate(0 7.91 13.435)" d="M7.95,26.87L15.82,12.24L7.91,0L0,13.71L7.95,26.87Z " /><path  id="Vector" style="stroke:#FFFFFF; stroke-width:1.2427210807800293; stroke-opacity:1; stroke-dasharray:0 0" transform="translate(197.68 142.74)  rotate(0 8.705 13.15)" d="M7.81,26.3L17.41,13.08L7.13,0L0,13.91L7.81,26.3Z " /><path  id="Vector" style="stroke:#FFFFFF; stroke-width:1.2427210807800293; stroke-opacity:1; stroke-dasharray:0 0" transform="translate(168.76 188.87)  rotate(0 7.13 14.635)" d="M6.72,29.27L14.26,13.02L8.64,0L0,14.39L6.72,29.27Z " /><path  id="Vector" style="stroke:#FFFFFF; stroke-width:1.2427210807800293; stroke-opacity:1; stroke-dasharray:0 0" transform="translate(148.3 247.41)  rotate(0 8.79 12.845)" d="M9.22,25.69L17.58,11.93L8.79,0L0,11.93L9.22,25.69Z " /><path  id="Vector" style="stroke:#FFFFFF; stroke-width:1.2427210807800293; stroke-opacity:1; stroke-dasharray:0 0" transform="translate(208.52 282.64)  rotate(0 8.91 15.355)" d="M0,13.98L9.59,30.71L17.82,15.35L7.14,0L0,13.98Z " /><path  id="Vector" style="stroke:#FFFFFF; stroke-width:1.2427210807800293; stroke-opacity:1; stroke-dasharray:0 0" transform="translate(192.61 333.23)  rotate(0 9.46 15.7)" d="M0,17.14L10.09,31.4L18.92,14.53L8.36,0L0,17.14Z " /><path  id="Vector" style="stroke:#FFFFFF; stroke-width:1.2427210807800293; stroke-opacity:1; stroke-dasharray:0 0" transform="translate(166.7 291)  rotate(0 8.365 12.205)" d="M6.72,24.41L16.73,10.97L8.37,0L0,11.79L6.72,24.41Z " /><path  id="Vector" style="stroke:#FFFFFF; stroke-width:1.2427210807800293; stroke-opacity:1; stroke-dasharray:0 0" transform="translate(154.71 364.63)  rotate(0 9.615 9.145)" d="M0,18.29L7.68,0L19.23,14.72 " /><path  id="Vector" style="stroke:#FFFFFF; stroke-width:1.2427210807800293; stroke-opacity:1; stroke-dasharray:0 0" transform="translate(126.89 340.18)  rotate(0 8.15 12.225)" d="M9.06,24.45L16.3,11.68L7.68,0L0,11.68L9.06,24.45Z " /><path  id="Vector" style="stroke:#FFFFFF; stroke-width:1.2427210807800293; stroke-opacity:1; stroke-dasharray:0 0" transform="translate(101.25 371.4)  rotate(0 10.06 8.86)" d="M3.94,17.72L0,14L8.28,0L20.12,14 " /><path  id="Vector" style="stroke:#FFFFFF; stroke-width:1.2427210807800293; stroke-opacity:1; stroke-dasharray:0 0" transform="translate(82.32 335.2)  rotate(0 8.48 11.85)" d="M11.05,0L16.96,12.04L8.02,23.7L0,12.04L4.16,0.92 " /><path id="Vector" fill-rule="evenodd" style="fill:#DC6437" transform="translate(97.44 203.08)  rotate(0 12.05 12.05)" opacity="0.3" d="M12.05,0C5.4,0 0,5.4 0,12.05C0,18.7 5.4,24.1 12.05,24.1C18.7,24.1 24.1,18.7 24.1,12.05C24.1,5.4 18.7,0 12.05,0Z " /><path  id="Vector" style="stroke:#54C3E5; stroke-width:1.2427210807800293; stroke-opacity:1; stroke-dasharray:0 0" transform="translate(52.21 193.13)  rotate(0 107.405 98)" d="M214.81,30.48C214.81,30.48 213.12,30.48 210.79,37.03C208.47,43.59 195.14,88.23 182.44,122.07C169.75,155.92 165.1,178.13 138.87,183C112.64,187.86 76.53,195.26 57.43,195.9C41.59,196.43 35.48,194.94 26.74,189.41C22.27,186.58 17.03,185.48 9.84,185.32C9.84,185.32 3.1,183.2 1.09,174.48C-0.93,165.75 -0.67,151.5 6.47,150.75C13.62,149.99 16.03,150.75 18.63,148.74C21.23,146.72 22.66,144.13 30.79,143.35C38.92,142.58 54.77,140.17 64.24,137.4C73.72,134.63 84.03,131.6 88.89,128.76C93.76,125.92 96.27,124.06 99.54,123.64C102.82,123.23 108.1,125.66 108.1,125.66C108.1,125.66 106.5,119.54 108.18,116.18C108.18,116.18 108.18,113.42 109.52,111.24C110.86,109.06 117.39,99.67 121.85,90.78C126.31,81.89 137.53,43.14 140.13,32.5C142.73,21.86 146.01,4.81 151.79,0 " /><path  id="Vector" style="stroke:#2C2F53; stroke-width:1.2427210807800293; stroke-opacity:1; stroke-dasharray:0 0" transform="translate(118.69 270.27)  rotate(0 17.515 3.785)" d="M0,0.02C4.86,-0.09 9.71,0.21 14.52,0.94C22.05,2.08 29.54,4.26 35.03,7.57 " /><path  id="Vector" style="stroke:#FFFFFF; stroke-width:1.2427210807800293; stroke-opacity:1; stroke-dasharray:0 0" transform="translate(31.05 318.8)  rotate(0 8.905 9.87)" d="M4.54,19.74L0,14.93L8.9,0L17.81,11.55 " /><path  id="Vector" style="stroke:#FFFFFF; stroke-width:1.2427210807800293; stroke-opacity:1; stroke-dasharray:0 0" transform="translate(8.46 294.71)  rotate(0 5.93 10.35)" d="M7.42,20.7L11.86,7.74L3.95,0L0,12.93L7.42,20.7Z " /><path  id="Vector" style="stroke:#F06082; stroke-width:1.2427210807800293; stroke-opacity:1; stroke-dasharray:0 0" transform="translate(130.94 277.32)  rotate(0 18.68 7.555)" d="M37.36,15.11C36.99,14.63 36.58,14.13 36.16,13.62C33.84,10.83 31.11,7.87 31.11,7.87C31.11,7.87 35.41,0.74 32.04,0.06C28.67,-0.62 28.09,4.84 28.09,4.84C27.36,0.25 21.75,1.33 21.7,4.65C20.43,0.4 15.07,1.09 14.79,5.58C12.54,0.61 8.5,4.16 8.49,5.92C7.08,1.7 4.09,4.16 3.64,5.09C3.64,5.09 1.84,3.62 0,3.71 " /><path  id="Vector" style="stroke:#F06082; stroke-width:1.2427210807800293; stroke-opacity:1; stroke-dasharray:0 0" transform="translate(145.3 307.65)  rotate(0 70.355 67.925)" d="M68.96,54.45C71.48,56.86 73.88,59.39 76.14,62.05C76.14,62.05 78.33,59.56 80.34,59.74C80.34,59.74 85.72,49.24 89.74,42.54C93.76,35.85 101.84,19.94 103.44,15.74C105.04,11.54 109.74,10.14 111.44,9.94C112.64,9.83 113.84,9.83 115.04,9.94C115.04,9.94 114.14,8.14 115.74,7.25C115.05,6.65 114.52,5.89 114.2,5.03C113.89,4.17 113.8,3.25 113.94,2.34C114.43,-0.69 117.14,3.43 117.14,3.43C116.39,0.33 120.28,-2.64 122.34,3.94C122.34,3.94 125.65,-1.96 128.04,6.55C128.04,6.55 134.25,3.44 133.34,10.84C133.34,10.84 139.34,8.14 138.84,15.54C140.74,15.28 143.2,19.56 134.84,20.84C134.84,20.84 135.25,24.16 132.51,24.91C132.59,25.14 135.41,33.39 134.75,37.58C134.07,41.82 132.2,43.26 132.2,43.26C132.2,43.26 134.07,49.5 128.76,67.04C123.46,84.58 121.08,89.58 112.91,103.31C104.73,117.04 96.39,126.95 90.12,131.14C83.85,135.33 72.78,137.89 57.99,133.74C43.2,129.59 17.51,111.3 0,80.21 " /><path  id="Vector" style="stroke:#2C2F53; stroke-width:1.2427210807800293; stroke-opacity:1; stroke-dasharray:0 0" transform="translate(35.72 394.09)  rotate(0 4.49 0.96)" d="M8.98,0C6.05,0.9 3.04,1.54 0,1.92 " /><path  id="Vector" style="stroke:#F06082; stroke-width:1.2427210807800293; stroke-opacity:1; stroke-dasharray:0 0" transform="translate(54.4 387.5)  rotate(0 11.33 11.6)" d="M11.22,10.36C11.68,8.82 13.1,7.32 14.79,6.18C14.69,5.55 14.56,4.87 14.37,4.15C12.21,-4.36 5.48,1.66 9.24,9.28C10.5,17.67 9.91,14.79 11.22,10.36Z M11.22,10.36C9.91,14.79 16.05,14.56 14.79,6.18C13.1,7.32 11.68,8.82 11.22,10.36Z M16.42,12.64C16.42,12.64 22.03,12.23 22.63,6.72C23.05,2.99 18.32,3.79 14.79,6.18 M9.24,9.28C-0.74,4.34 -5.1,17.68 8.95,13.52C0,18.59 7.58,31.37 11.48,15.5C14.17,28.53 26.72,21.84 15.12,14.76 " /><path  id="Vector" style="stroke:#F06082; stroke-width:1.2427210807800293; stroke-opacity:1; stroke-dasharray:0 0" transform="translate(114.29 414.21)  rotate(0 11.7 11.2)" d="M13.05,11.15C14.61,11.54 16.18,12.89 17.4,14.52C18.02,14.4 18.69,14.23 19.4,14.02C27.8,11.46 21.5,5.01 14.01,9.12C5.68,10.77 8.57,10.04 13.05,11.15Z M13.05,11.15C8.57,10.04 9.06,16.17 17.4,14.52C16.18,12.89 14.61,11.54 13.05,11.15Z M11,16.44C11,16.44 11.67,22.02 17.22,22.39C20.97,22.64 19.94,17.95 17.4,14.52 M14.01,9.12C18.49,-1.07 4.97,-4.82 9.77,9.02C4.29,0.32 -8.13,8.47 7.91,11.64C-4.99,14.92 2.27,27.16 8.81,15.25 " /><path  id="Vector" style="stroke:#F06082; stroke-width:1.2427210807800293; stroke-opacity:1; stroke-dasharray:0 0" transform="translate(178.94 384.51)  rotate(0 11.735 11.105)" d="M10.33,11.12C8.76,10.78 7.16,9.47 5.89,7.87C5.27,8.01 4.61,8.2 3.9,8.44C-4.42,11.23 2.07,17.5 9.41,13.18C17.7,11.29 14.85,12.1 10.33,11.12Z M10.33,11.12C14.85,12.1 14.19,5.99 5.89,7.87C7.16,9.47 8.76,10.78 10.33,11.12Z M12.21,5.77C12.21,5.77 11.39,0.22 5.84,0C2.09,-0.14 3.25,4.52 5.89,7.87 M9.41,13.18C5.23,23.49 18.85,26.84 13.66,13.15C19.38,21.69 31.56,13.18 15.44,10.47C28.23,6.82 20.61,-5.19 14.43,6.9 " /><path  id="Vector" style="stroke:#F06082; stroke-width:1.2427210807800293; stroke-opacity:1; stroke-dasharray:0 0" transform="translate(57.92 316.2)  rotate(0 11.91 11.66)" d="M11.64,8.94C12.89,7.94 14.91,7.52 16.95,7.55C17.24,6.97 17.51,6.33 17.78,5.63C20.86,-2.59 11.9,-1.51 10.63,6.91C6.87,14.52 8.04,11.83 11.64,8.94Z M11.64,8.94C8.04,11.83 13.19,15.16 16.95,7.55C14.91,7.52 12.89,7.94 11.64,8.94Z M14.59,13.78C14.59,13.78 19.43,16.64 23.1,12.47C25.58,9.65 21.23,7.61 16.95,7.55 M10.63,6.91C5.24,-2.84 -5.95,5.62 7.97,10.23C-2.28,9.28 -3.35,24.1 8.92,13.3C3.69,25.53 17.81,27.2 12.33,14.77 " /><path  id="Vector" style="stroke:#F06082; stroke-width:1.2427210807800293; stroke-opacity:1; stroke-dasharray:0 0" transform="translate(63.34 464.37)  rotate(0 11.77 11.165)" d="M9.91,12.6C8.33,12.87 6.36,12.26 4.59,11.24C4.06,11.6 3.52,12.02 2.95,12.51C-3.74,18.19 4.6,21.6 9.82,14.86C16.8,10.03 14.45,11.83 9.91,12.6Z M9.91,12.6C14.45,11.83 11.57,6.4 4.59,11.24C6.36,12.26 8.33,12.87 9.91,12.6Z M9.69,6.94C9.69,6.94 6.85,2.09 1.63,3.96C-1.91,5.22 0.89,9.11 4.59,11.24 M9.82,14.86C9.78,25.99 23.67,24.04 13.76,13.26C22.25,19.06 30.38,6.63 14.41,10.11C24.93,1.96 13.4,-6.36 12.15,7.16 " /><path  id="Vector" style="stroke:#F06082; stroke-width:1.2427210807800293; stroke-opacity:1; stroke-dasharray:0 0" transform="translate(157.11 454.38)  rotate(0 11.195 12.14)" d="M8.19,11.78C7.38,10.4 7.26,8.34 7.59,6.32C7.06,5.96 6.47,5.6 5.82,5.24C-1.86,1 -2.1,10 6.05,12.5C13.03,17.32 10.52,15.77 8.19,11.78Z M8.19,11.78C10.52,15.77 14.57,11.15 7.59,6.32C7.26,8.34 7.38,10.4 8.19,11.78Z M13.41,9.56C13.41,9.56 16.94,5.2 13.35,0.97C10.92,-1.9 8.27,2.11 7.59,6.32 M6.05,12.5C-4.38,16.39 2.35,28.7 8.95,15.61C6.52,25.6 21.03,28.82 12.13,15.12C23.47,22.08 27.18,8.35 14.08,11.96 " /><path  id="Vector" style="stroke:#F06082; stroke-width:1.2427210807800293; stroke-opacity:1; stroke-dasharray:0 0" transform="translate(250.1 334.12)  rotate(0 10.77 11.83)" d="M10.7,10.13C10.81,8.52 11.86,6.75 13.26,5.26C13.03,4.67 12.75,4.04 12.41,3.37C8.42,-4.44 3.18,2.89 8.53,9.52C11.61,17.42 10.4,14.73 10.7,10.13Z M10.7,10.13C10.4,14.73 16.34,13.17 13.26,5.26C11.86,6.75 10.81,8.52 10.7,10.13Z M16.26,11.21C16.26,11.21 21.65,9.55 21.03,4.05C20.61,0.34 16.18,2.16 13.26,5.26 M8.53,9.52C-2.29,6.9 -3.61,20.87 9.18,13.71C1.57,20.63 11.78,31.42 12.08,15.08C17.58,27.2 28.34,17.9 15.47,13.56 " /><path  id="Vector" style="stroke:#F06082; stroke-width:1.2427210807800293; stroke-opacity:1; stroke-dasharray:0 0" transform="translate(211.95 410.15)  rotate(0 11.115 12.155)" d="M13.73,13.12C14.33,14.61 14.15,16.67 13.54,18.62C14.01,19.05 14.53,19.5 15.13,19.95C22.11,25.25 23.65,16.37 15.95,12.73C9.74,6.94 12,8.84 13.73,13.12Z M13.73,13.12C12,8.84 7.32,12.84 13.54,18.62C14.15,16.67 14.33,14.61 13.73,13.12Z M8.25,14.57C8.25,14.57 4.11,18.39 7.07,23.09C9.07,26.27 12.26,22.69 13.54,18.62 M15.95,12.73C26.84,10.38 21.94,-2.77 13.54,9.23C17.38,-0.3 3.5,-5.59 10.33,9.26C0.11,0.74 -5.54,13.8 7.94,12.11 " /><path  id="Vector" style="stroke:#2C2F53; stroke-width:1.2427210807800293; stroke-opacity:1; stroke-dasharray:0 0" transform="translate(131.45 204.06)  rotate(0 8.285 5.515)" d="M16.57,0C13.52,3.51 0,11.03 0,11.03 " /></g></svg>