<?xml version="1.0" standalone="no"?><!DOCTYPE svg PUBLIC "-//W3C//DTD SVG 1.1//EN" "http://www.w3.org/Graphics/SVG/1.1/DTD/svg11.dtd"><svg t="1670124748944" class="icon" viewBox="0 0 1024 1024" version="1.1" xmlns="http://www.w3.org/2000/svg" p-id="2177" xmlns:xlink="http://www.w3.org/1999/xlink" width="200" height="200"><path d="M230.471111 128l-2.133333 0.071111A28.444444 28.444444 0 0 0 202.026667 156.444444l-0.014223 78.862223L170.666667 281.059556v579.057777a28.444444 28.444444 0 0 0 28.444444 28.444445h619.022222a28.444444 28.444444 0 0 0 28.430223-27.633778l1.137777-42.453333c3.541333-145.166222 3.029333-254.108444-1.564444-326.997334-4.238222-67.470222-14.648889-146.389333-31.203556-236.8a88.078222 88.078222 0 0 0-86.641777-72.220444l-3.285334 0.071111a81.749333 81.749333 0 0 0-78.037333 73.386667l-35.171556 344.149333h-60.586666l-2.119111 0.085333a28.444444 28.444444 0 0 0-26.311112 28.373334l-0.014222 65.507555H507.875556V281.770667l-25.472-45.752889V156.444444a28.444444 28.444444 0 0 0-28.444445-28.444444h-39.566222l-2.119111 0.071111A28.444444 28.444444 0 0 0 385.962667 156.444444l-0.014223 78.762667-32.369777 45.724445v35.328H316.586667v-35.2l-31.36-45.752889V156.444444a28.444444 28.444444 0 0 0-28.444445-28.444444h-26.311111z m0 28.444444h26.311111v87.694223l31.36 45.738666v54.840889h93.880889v-54.741333l32.369778-45.724445V156.444444h39.566222v86.983112l25.472 45.710222V722.488889h71.793778v-93.966222h86.272l37.774222-369.735111a53.304889 53.304889 0 0 1 53.020445-47.886223 59.633778 59.633778 0 0 1 58.666666 48.896c16.355556 89.372444 26.624 167.210667 30.791111 233.472l0.910223 15.971556c3.854222 75.264 3.882667 185.144889 0.056888 329.500444l-0.583111 21.376H199.111111l-0.014222-570.24 31.374222-45.738666V156.444444z" fill="#275AA1" p-id="2178"></path><path d="M298.481778 278.357333v14.222223H184.888889v-14.222223zM482.218667 278.357333v14.222223H368.64v-14.222223zM496.270222 336.938667v14.222222H184.888889v-14.222222zM445.824 379.448889v28.444444H233.557333v-28.444444zM445.824 424.533333v28.444445H233.557333v-28.444445zM445.824 465.735111v28.444445H233.557333v-28.444445zM445.824 502.513778v28.444444H233.557333v-28.444444zM445.824 544.64v28.444444H233.557333v-28.444444zM445.824 584.092444v28.444445H233.557333v-28.444445zM445.824 623.160889v28.444444H233.557333v-28.444444zM445.824 664.618667v28.444444H233.557333v-28.444444zM592.568889 710.784a21.333333 21.333333 0 0 1 21.233778 19.285333l0.099555 2.048v142.222223h-14.222222v-142.222223a7.111111 7.111111 0 0 0-5.831111-6.997333l-1.28-0.113778H411.406222a7.111111 7.111111 0 0 0-6.997333 5.831111l-0.113778 1.28v142.222223h-14.222222v-142.222223a21.333333 21.333333 0 0 1 19.285333-21.233777l2.048-0.099556h181.162667zM771.228444 294.826667v14.222222h-81.962666v-14.222222zM771.228444 336.938667v14.222222h-81.962666v-14.222222zM787.114667 376.888889v14.222222h-111.089778v-14.222222zM787.114667 420.380444v14.222223h-111.089778v-14.222223zM795.605333 457.130667v14.222222h-128.085333v-14.222222zM800.014222 497.294222v14.222222h-139.292444v-14.222222zM807.822222 539.164444v14.222223H653.795556v-14.222223zM810.254222 580.835556v14.222222H653.795556v-14.222222zM631.751111 614.115556l178.531556 0.497777-0.042667 14.222223-178.517333-0.483556zM810.254222 660.181333v14.222223h-128.526222v-14.222223zM810.254222 703.431111v14.222222h-128.526222v-14.222222zM810.254222 741.432889v14.222222h-128.526222v-14.222222zM810.254222 780.515556v14.222222h-128.526222v-14.222222z" fill="#275AA1" p-id="2179"></path><path d="M681.728 621.724444v252.615112h-28.444444V621.724444z" fill="#275AA1" p-id="2180"></path></svg>